%TF.GenerationSoftware,KiCad,Pcbnew,8.0.8*%
%TF.CreationDate,2025-03-20T00:36:27-04:00*%
%TF.ProjectId,EMP_Cyclone_SAO_v1,454d505f-4379-4636-9c6f-6e655f53414f,rev?*%
%TF.SameCoordinates,Original*%
%TF.FileFunction,Copper,L2,Bot*%
%TF.FilePolarity,Positive*%
%FSLAX46Y46*%
G04 Gerber Fmt 4.6, Leading zero omitted, Abs format (unit mm)*
G04 Created by KiCad (PCBNEW 8.0.8) date 2025-03-20 00:36:27*
%MOMM*%
%LPD*%
G01*
G04 APERTURE LIST*
%TA.AperFunction,ComponentPad*%
%ADD10C,2.000000*%
%TD*%
%TA.AperFunction,ComponentPad*%
%ADD11C,1.524000*%
%TD*%
%TA.AperFunction,ComponentPad*%
%ADD12R,1.727200X1.727200*%
%TD*%
%TA.AperFunction,ComponentPad*%
%ADD13C,1.727200*%
%TD*%
%TA.AperFunction,ComponentPad*%
%ADD14O,1.727200X1.727200*%
%TD*%
G04 APERTURE END LIST*
D10*
%TO.P,SW3,1,1*%
%TO.N,Net-(A1-D10)*%
X86750000Y-143250000D03*
X80250000Y-143250000D03*
%TO.P,SW3,2,2*%
%TO.N,GND*%
X86750000Y-138750000D03*
X80250000Y-138750000D03*
%TD*%
%TO.P,SW1,1,1*%
%TO.N,Net-(A1-D2)*%
X126750000Y-72500000D03*
X133250000Y-72500000D03*
%TO.P,SW1,2,2*%
%TO.N,GND*%
X126750000Y-77000000D03*
X133250000Y-77000000D03*
%TD*%
D11*
%TO.P,U2,1*%
%TO.N,N/C*%
X104140200Y-68681800D03*
%TO.P,U2,2*%
X87935000Y-70790000D03*
%TO.P,U2,3*%
X95859800Y-131318200D03*
%TO.P,U2,4*%
X112090400Y-129184600D03*
%TD*%
%TO.P,U1,1*%
%TO.N,N/C*%
X88366800Y-82448600D03*
%TO.P,U1,2*%
X104114800Y-79349800D03*
%TO.P,U1,3*%
X82448600Y-111633200D03*
%TO.P,U1,4*%
X111684000Y-117526000D03*
%TD*%
D12*
%TO.P,REF\u002A\u002A,1*%
%TO.N,N/C*%
X97670000Y-140750000D03*
D13*
%TO.P,REF\u002A\u002A,2*%
%TO.N,GND*%
X97670000Y-143290000D03*
D14*
%TO.P,REF\u002A\u002A,3*%
%TO.N,N/C*%
X100210000Y-140750000D03*
%TO.P,REF\u002A\u002A,4*%
X100210000Y-143290000D03*
D13*
%TO.P,REF\u002A\u002A,5*%
X102750000Y-140750000D03*
%TO.P,REF\u002A\u002A,6*%
X102750000Y-143290000D03*
%TD*%
D10*
%TO.P,SW2,1,1*%
%TO.N,Net-(A1-D9)*%
X112750000Y-138250000D03*
X119250000Y-138250000D03*
%TO.P,SW2,2,2*%
%TO.N,GND*%
X112750000Y-142750000D03*
X119250000Y-142750000D03*
%TD*%
%TA.AperFunction,Conductor*%
%TO.N,GND*%
G36*
X99196762Y-141673109D02*
G01*
X99228564Y-141697957D01*
X99282954Y-141757040D01*
X99461351Y-141895893D01*
X99489165Y-141910945D01*
X99538755Y-141960165D01*
X99553863Y-142028382D01*
X99529692Y-142093937D01*
X99489165Y-142129055D01*
X99461352Y-142144106D01*
X99282955Y-142282959D01*
X99282950Y-142282963D01*
X99129850Y-142449272D01*
X99129842Y-142449283D01*
X99043509Y-142581425D01*
X98990363Y-142626782D01*
X98921131Y-142636205D01*
X98857796Y-142606702D01*
X98835893Y-142581425D01*
X98794888Y-142518663D01*
X98794887Y-142518663D01*
X98159494Y-143154056D01*
X98143381Y-143093919D01*
X98076502Y-142978080D01*
X97981920Y-142883498D01*
X97866081Y-142816619D01*
X97805940Y-142800504D01*
X98456028Y-142150418D01*
X98517351Y-142116933D01*
X98543708Y-142114099D01*
X98581472Y-142114099D01*
X98641083Y-142107691D01*
X98775931Y-142057396D01*
X98891146Y-141971146D01*
X98977396Y-141855931D01*
X99014280Y-141757040D01*
X99021154Y-141738610D01*
X99063025Y-141682676D01*
X99128489Y-141658258D01*
X99196762Y-141673109D01*
G37*
%TD.AperFunction*%
%TA.AperFunction,Conductor*%
G36*
X102766471Y-63003013D02*
G01*
X161397822Y-73731303D01*
X161460220Y-73762732D01*
X161495724Y-73822909D01*
X161499500Y-73853277D01*
X161499500Y-73854620D01*
X161499499Y-73855210D01*
X161266046Y-122880500D01*
X161250588Y-126126590D01*
X161230584Y-126193535D01*
X161177563Y-126239038D01*
X161126589Y-126250000D01*
X134749999Y-126250000D01*
X124284227Y-147679916D01*
X124237120Y-147731517D01*
X124172805Y-147749500D01*
X75838254Y-147749500D01*
X75771215Y-147729815D01*
X75725460Y-147677011D01*
X75721019Y-147665898D01*
X74290715Y-143515213D01*
X74199322Y-143249994D01*
X78744357Y-143249994D01*
X78744357Y-143250005D01*
X78764890Y-143497812D01*
X78764892Y-143497824D01*
X78825936Y-143738881D01*
X78925826Y-143966606D01*
X79061833Y-144174782D01*
X79061836Y-144174785D01*
X79230256Y-144357738D01*
X79426491Y-144510474D01*
X79426493Y-144510475D01*
X79623130Y-144616890D01*
X79645190Y-144628828D01*
X79880386Y-144709571D01*
X80125665Y-144750500D01*
X80374335Y-144750500D01*
X80619614Y-144709571D01*
X80854810Y-144628828D01*
X81073509Y-144510474D01*
X81269744Y-144357738D01*
X81438164Y-144174785D01*
X81574173Y-143966607D01*
X81674063Y-143738881D01*
X81735108Y-143497821D01*
X81736081Y-143486081D01*
X81755643Y-143250005D01*
X81755643Y-143249994D01*
X85244357Y-143249994D01*
X85244357Y-143250005D01*
X85264890Y-143497812D01*
X85264892Y-143497824D01*
X85325936Y-143738881D01*
X85425826Y-143966606D01*
X85561833Y-144174782D01*
X85561836Y-144174785D01*
X85730256Y-144357738D01*
X85926491Y-144510474D01*
X85926493Y-144510475D01*
X86123130Y-144616890D01*
X86145190Y-144628828D01*
X86380386Y-144709571D01*
X86625665Y-144750500D01*
X86874335Y-144750500D01*
X87119614Y-144709571D01*
X87354810Y-144628828D01*
X87573509Y-144510474D01*
X87769744Y-144357738D01*
X87938164Y-144174785D01*
X88074173Y-143966607D01*
X88174063Y-143738881D01*
X88235108Y-143497821D01*
X88236081Y-143486081D01*
X88252329Y-143289993D01*
X96301727Y-143289993D01*
X96301727Y-143290006D01*
X96320386Y-143515202D01*
X96320388Y-143515213D01*
X96375863Y-143734278D01*
X96466638Y-143941222D01*
X96545111Y-144061335D01*
X97180504Y-143425941D01*
X97196619Y-143486081D01*
X97263498Y-143601920D01*
X97358080Y-143696502D01*
X97473919Y-143763381D01*
X97534057Y-143779494D01*
X96897139Y-144416412D01*
X96921628Y-144435472D01*
X97120369Y-144543027D01*
X97120375Y-144543029D01*
X97334106Y-144616403D01*
X97557010Y-144653600D01*
X97782990Y-144653600D01*
X98005893Y-144616403D01*
X98219624Y-144543029D01*
X98219639Y-144543022D01*
X98418367Y-144435475D01*
X98418377Y-144435468D01*
X98442859Y-144416413D01*
X98442860Y-144416412D01*
X97805942Y-143779495D01*
X97866081Y-143763381D01*
X97981920Y-143696502D01*
X98076502Y-143601920D01*
X98143381Y-143486081D01*
X98159495Y-143425942D01*
X98794886Y-144061334D01*
X98835891Y-143998573D01*
X98889038Y-143953217D01*
X98958269Y-143943793D01*
X99021605Y-143973295D01*
X99043508Y-143998573D01*
X99129842Y-144130716D01*
X99129850Y-144130727D01*
X99201983Y-144209083D01*
X99282954Y-144297040D01*
X99461351Y-144435893D01*
X99660169Y-144543488D01*
X99660172Y-144543489D01*
X99873982Y-144616890D01*
X99873984Y-144616890D01*
X99873986Y-144616891D01*
X100096967Y-144654100D01*
X100096968Y-144654100D01*
X100323032Y-144654100D01*
X100323033Y-144654100D01*
X100546014Y-144616891D01*
X100759831Y-144543488D01*
X100958649Y-144435893D01*
X101137046Y-144297040D01*
X101290156Y-144130719D01*
X101376193Y-143999028D01*
X101429338Y-143953675D01*
X101498569Y-143944251D01*
X101561905Y-143973753D01*
X101583804Y-143999025D01*
X101669844Y-144130719D01*
X101669849Y-144130724D01*
X101669850Y-144130727D01*
X101741983Y-144209083D01*
X101822954Y-144297040D01*
X102001351Y-144435893D01*
X102200169Y-144543488D01*
X102200172Y-144543489D01*
X102413982Y-144616890D01*
X102413984Y-144616890D01*
X102413986Y-144616891D01*
X102636967Y-144654100D01*
X102636968Y-144654100D01*
X102863032Y-144654100D01*
X102863033Y-144654100D01*
X103086014Y-144616891D01*
X103299831Y-144543488D01*
X103498649Y-144435893D01*
X103677046Y-144297040D01*
X103830156Y-144130719D01*
X103953802Y-143941465D01*
X104044611Y-143734441D01*
X104100107Y-143515293D01*
X104107574Y-143425175D01*
X104118775Y-143290006D01*
X104118775Y-143289993D01*
X104103326Y-143103554D01*
X104100107Y-143064707D01*
X104044611Y-142845559D01*
X104002692Y-142749994D01*
X111244859Y-142749994D01*
X111244859Y-142750005D01*
X111265385Y-142997729D01*
X111265387Y-142997738D01*
X111326412Y-143238717D01*
X111426267Y-143466367D01*
X111526562Y-143619881D01*
X112226212Y-142920233D01*
X112237482Y-142962292D01*
X112309890Y-143087708D01*
X112412292Y-143190110D01*
X112537708Y-143262518D01*
X112579766Y-143273787D01*
X111879943Y-143973609D01*
X111926768Y-144010055D01*
X111926771Y-144010057D01*
X112145385Y-144128364D01*
X112145396Y-144128369D01*
X112380506Y-144209083D01*
X112625707Y-144250000D01*
X112874293Y-144250000D01*
X113119493Y-144209083D01*
X113354603Y-144128369D01*
X113354614Y-144128364D01*
X113573230Y-144010056D01*
X113573236Y-144010051D01*
X113620055Y-143973610D01*
X113620056Y-143973609D01*
X112920233Y-143273787D01*
X112962292Y-143262518D01*
X113087708Y-143190110D01*
X113190110Y-143087708D01*
X113262518Y-142962292D01*
X113273787Y-142920234D01*
X113973435Y-143619882D01*
X114073733Y-143466364D01*
X114173587Y-143238717D01*
X114234612Y-142997738D01*
X114234614Y-142997729D01*
X114255141Y-142750005D01*
X114255141Y-142749994D01*
X117744859Y-142749994D01*
X117744859Y-142750005D01*
X117765385Y-142997729D01*
X117765387Y-142997738D01*
X117826412Y-143238717D01*
X117926267Y-143466367D01*
X118026562Y-143619881D01*
X118726212Y-142920233D01*
X118737482Y-142962292D01*
X118809890Y-143087708D01*
X118912292Y-143190110D01*
X119037708Y-143262518D01*
X119079766Y-143273787D01*
X118379943Y-143973609D01*
X118426768Y-144010055D01*
X118426771Y-144010057D01*
X118645385Y-144128364D01*
X118645396Y-144128369D01*
X118880506Y-144209083D01*
X119125707Y-144250000D01*
X119374293Y-144250000D01*
X119619493Y-144209083D01*
X119854603Y-144128369D01*
X119854614Y-144128364D01*
X120073230Y-144010056D01*
X120073236Y-144010051D01*
X120120055Y-143973610D01*
X120120056Y-143973609D01*
X119420233Y-143273787D01*
X119462292Y-143262518D01*
X119587708Y-143190110D01*
X119690110Y-143087708D01*
X119762518Y-142962292D01*
X119773787Y-142920234D01*
X120473435Y-143619882D01*
X120573733Y-143466364D01*
X120673587Y-143238717D01*
X120734612Y-142997738D01*
X120734614Y-142997729D01*
X120755141Y-142750005D01*
X120755141Y-142749994D01*
X120734614Y-142502270D01*
X120734612Y-142502261D01*
X120673587Y-142261282D01*
X120573732Y-142033632D01*
X120473435Y-141880116D01*
X119773787Y-142579765D01*
X119762518Y-142537708D01*
X119690110Y-142412292D01*
X119587708Y-142309890D01*
X119462292Y-142237482D01*
X119420233Y-142226212D01*
X120120055Y-141526389D01*
X120120055Y-141526388D01*
X120073236Y-141489947D01*
X120073231Y-141489944D01*
X119854614Y-141371635D01*
X119854603Y-141371630D01*
X119619493Y-141290916D01*
X119374293Y-141250000D01*
X119125707Y-141250000D01*
X118880506Y-141290916D01*
X118645396Y-141371630D01*
X118645385Y-141371635D01*
X118426770Y-141489943D01*
X118379943Y-141526389D01*
X119079766Y-142226212D01*
X119037708Y-142237482D01*
X118912292Y-142309890D01*
X118809890Y-142412292D01*
X118737482Y-142537708D01*
X118726212Y-142579766D01*
X118026563Y-141880117D01*
X117926267Y-142033633D01*
X117926265Y-142033637D01*
X117826412Y-142261282D01*
X117765387Y-142502261D01*
X117765385Y-142502270D01*
X117744859Y-142749994D01*
X114255141Y-142749994D01*
X114234614Y-142502270D01*
X114234612Y-142502261D01*
X114173587Y-142261282D01*
X114073732Y-142033632D01*
X113973435Y-141880116D01*
X113273787Y-142579765D01*
X113262518Y-142537708D01*
X113190110Y-142412292D01*
X113087708Y-142309890D01*
X112962292Y-142237482D01*
X112920233Y-142226212D01*
X113620055Y-141526389D01*
X113620055Y-141526388D01*
X113573236Y-141489947D01*
X113573231Y-141489944D01*
X113354614Y-141371635D01*
X113354603Y-141371630D01*
X113119493Y-141290916D01*
X112874293Y-141250000D01*
X112625707Y-141250000D01*
X112380506Y-141290916D01*
X112145396Y-141371630D01*
X112145385Y-141371635D01*
X111926770Y-141489943D01*
X111879943Y-141526389D01*
X112579766Y-142226212D01*
X112537708Y-142237482D01*
X112412292Y-142309890D01*
X112309890Y-142412292D01*
X112237482Y-142537708D01*
X112226212Y-142579766D01*
X111526563Y-141880117D01*
X111426267Y-142033633D01*
X111426265Y-142033637D01*
X111326412Y-142261282D01*
X111265387Y-142502261D01*
X111265385Y-142502270D01*
X111244859Y-142749994D01*
X104002692Y-142749994D01*
X103953802Y-142638535D01*
X103946123Y-142626782D01*
X103864775Y-142502270D01*
X103830156Y-142449281D01*
X103830153Y-142449278D01*
X103830149Y-142449272D01*
X103677049Y-142282963D01*
X103677048Y-142282962D01*
X103677046Y-142282960D01*
X103498649Y-142144107D01*
X103498647Y-142144106D01*
X103498646Y-142144105D01*
X103498639Y-142144100D01*
X103470836Y-142129055D01*
X103421244Y-142079837D01*
X103406135Y-142011620D01*
X103430306Y-141946064D01*
X103470836Y-141910945D01*
X103498639Y-141895899D01*
X103498642Y-141895896D01*
X103498649Y-141895893D01*
X103677046Y-141757040D01*
X103830156Y-141590719D01*
X103953802Y-141401465D01*
X104044611Y-141194441D01*
X104100107Y-140975293D01*
X104118775Y-140750000D01*
X104118775Y-140749993D01*
X104100107Y-140524710D01*
X104100107Y-140524707D01*
X104044611Y-140305559D01*
X103953802Y-140098535D01*
X103830156Y-139909281D01*
X103830153Y-139909278D01*
X103830149Y-139909272D01*
X103677049Y-139742963D01*
X103677048Y-139742962D01*
X103677046Y-139742960D01*
X103498649Y-139604107D01*
X103359594Y-139528854D01*
X103299832Y-139496512D01*
X103299827Y-139496510D01*
X103086017Y-139423109D01*
X102901434Y-139392308D01*
X102863033Y-139385900D01*
X102636967Y-139385900D01*
X102598566Y-139392308D01*
X102413982Y-139423109D01*
X102200172Y-139496510D01*
X102200167Y-139496512D01*
X102001352Y-139604106D01*
X101822955Y-139742959D01*
X101822950Y-139742963D01*
X101669850Y-139909272D01*
X101669842Y-139909283D01*
X101583808Y-140040968D01*
X101530662Y-140086325D01*
X101461430Y-140095748D01*
X101398095Y-140066246D01*
X101376192Y-140040968D01*
X101290157Y-139909283D01*
X101290149Y-139909272D01*
X101137049Y-139742963D01*
X101137048Y-139742962D01*
X101137046Y-139742960D01*
X100958649Y-139604107D01*
X100819594Y-139528854D01*
X100759832Y-139496512D01*
X100759827Y-139496510D01*
X100546017Y-139423109D01*
X100361434Y-139392308D01*
X100323033Y-139385900D01*
X100096967Y-139385900D01*
X100058566Y-139392308D01*
X99873982Y-139423109D01*
X99660172Y-139496510D01*
X99660167Y-139496512D01*
X99461352Y-139604106D01*
X99282955Y-139742958D01*
X99228565Y-139802041D01*
X99168677Y-139838031D01*
X99098839Y-139835930D01*
X99041223Y-139796405D01*
X99021154Y-139761390D01*
X98977397Y-139644071D01*
X98977393Y-139644064D01*
X98891147Y-139528855D01*
X98891144Y-139528852D01*
X98775935Y-139442606D01*
X98775928Y-139442602D01*
X98641082Y-139392308D01*
X98641083Y-139392308D01*
X98581483Y-139385901D01*
X98581481Y-139385900D01*
X98581473Y-139385900D01*
X98581464Y-139385900D01*
X96758529Y-139385900D01*
X96758523Y-139385901D01*
X96698916Y-139392308D01*
X96564071Y-139442602D01*
X96564064Y-139442606D01*
X96448855Y-139528852D01*
X96448852Y-139528855D01*
X96362606Y-139644064D01*
X96362602Y-139644071D01*
X96312308Y-139778917D01*
X96305901Y-139838516D01*
X96305900Y-139838535D01*
X96305900Y-141661470D01*
X96305901Y-141661476D01*
X96312308Y-141721083D01*
X96362602Y-141855928D01*
X96362606Y-141855935D01*
X96448852Y-141971144D01*
X96448855Y-141971147D01*
X96564064Y-142057393D01*
X96564071Y-142057397D01*
X96609018Y-142074161D01*
X96698917Y-142107691D01*
X96758527Y-142114100D01*
X96796289Y-142114099D01*
X96863326Y-142133782D01*
X96883970Y-142150418D01*
X97534057Y-142800504D01*
X97473919Y-142816619D01*
X97358080Y-142883498D01*
X97263498Y-142978080D01*
X97196619Y-143093919D01*
X97180504Y-143154057D01*
X96545111Y-142518663D01*
X96466639Y-142638774D01*
X96375863Y-142845721D01*
X96320388Y-143064786D01*
X96320386Y-143064797D01*
X96301727Y-143289993D01*
X88252329Y-143289993D01*
X88255643Y-143250005D01*
X88255643Y-143249994D01*
X88235109Y-143002187D01*
X88235107Y-143002175D01*
X88174063Y-142761118D01*
X88074173Y-142533393D01*
X87938166Y-142325217D01*
X87899268Y-142282963D01*
X87769744Y-142142262D01*
X87573509Y-141989526D01*
X87573507Y-141989525D01*
X87573506Y-141989524D01*
X87354811Y-141871172D01*
X87354802Y-141871169D01*
X87119616Y-141790429D01*
X86874335Y-141749500D01*
X86625665Y-141749500D01*
X86380383Y-141790429D01*
X86145197Y-141871169D01*
X86145188Y-141871172D01*
X85926493Y-141989524D01*
X85747224Y-142129055D01*
X85730256Y-142142262D01*
X85728558Y-142144107D01*
X85561833Y-142325217D01*
X85425826Y-142533393D01*
X85325936Y-142761118D01*
X85264892Y-143002175D01*
X85264890Y-143002187D01*
X85244357Y-143249994D01*
X81755643Y-143249994D01*
X81735109Y-143002187D01*
X81735107Y-143002175D01*
X81674063Y-142761118D01*
X81574173Y-142533393D01*
X81438166Y-142325217D01*
X81399268Y-142282963D01*
X81269744Y-142142262D01*
X81073509Y-141989526D01*
X81073507Y-141989525D01*
X81073506Y-141989524D01*
X80854811Y-141871172D01*
X80854802Y-141871169D01*
X80619616Y-141790429D01*
X80374335Y-141749500D01*
X80125665Y-141749500D01*
X79880383Y-141790429D01*
X79645197Y-141871169D01*
X79645188Y-141871172D01*
X79426493Y-141989524D01*
X79247224Y-142129055D01*
X79230256Y-142142262D01*
X79228558Y-142144107D01*
X79061833Y-142325217D01*
X78925826Y-142533393D01*
X78825936Y-142761118D01*
X78764892Y-143002175D01*
X78764890Y-143002187D01*
X78744357Y-143249994D01*
X74199322Y-143249994D01*
X72648646Y-138749994D01*
X78744859Y-138749994D01*
X78744859Y-138750005D01*
X78765385Y-138997729D01*
X78765387Y-138997738D01*
X78826412Y-139238717D01*
X78926267Y-139466367D01*
X79026562Y-139619881D01*
X79726212Y-138920233D01*
X79737482Y-138962292D01*
X79809890Y-139087708D01*
X79912292Y-139190110D01*
X80037708Y-139262518D01*
X80079766Y-139273787D01*
X79379943Y-139973609D01*
X79426768Y-140010055D01*
X79426771Y-140010057D01*
X79645385Y-140128364D01*
X79645396Y-140128369D01*
X79880506Y-140209083D01*
X80125707Y-140250000D01*
X80374293Y-140250000D01*
X80619493Y-140209083D01*
X80854603Y-140128369D01*
X80854614Y-140128364D01*
X81073230Y-140010056D01*
X81073236Y-140010051D01*
X81120055Y-139973610D01*
X81120056Y-139973609D01*
X80420233Y-139273787D01*
X80462292Y-139262518D01*
X80587708Y-139190110D01*
X80690110Y-139087708D01*
X80762518Y-138962292D01*
X80773787Y-138920234D01*
X81473435Y-139619882D01*
X81573733Y-139466364D01*
X81673587Y-139238717D01*
X81734612Y-138997738D01*
X81734614Y-138997729D01*
X81755141Y-138750005D01*
X81755141Y-138749994D01*
X85244859Y-138749994D01*
X85244859Y-138750005D01*
X85265385Y-138997729D01*
X85265387Y-138997738D01*
X85326412Y-139238717D01*
X85426267Y-139466367D01*
X85526562Y-139619881D01*
X86226212Y-138920233D01*
X86237482Y-138962292D01*
X86309890Y-139087708D01*
X86412292Y-139190110D01*
X86537708Y-139262518D01*
X86579766Y-139273787D01*
X85879943Y-139973609D01*
X85926768Y-140010055D01*
X85926771Y-140010057D01*
X86145385Y-140128364D01*
X86145396Y-140128369D01*
X86380506Y-140209083D01*
X86625707Y-140250000D01*
X86874293Y-140250000D01*
X87119493Y-140209083D01*
X87354603Y-140128369D01*
X87354614Y-140128364D01*
X87573230Y-140010056D01*
X87573236Y-140010051D01*
X87620055Y-139973610D01*
X87620056Y-139973609D01*
X86920233Y-139273787D01*
X86962292Y-139262518D01*
X87087708Y-139190110D01*
X87190110Y-139087708D01*
X87262518Y-138962292D01*
X87273787Y-138920234D01*
X87973435Y-139619882D01*
X88073733Y-139466364D01*
X88173587Y-139238717D01*
X88234612Y-138997738D01*
X88234614Y-138997729D01*
X88255141Y-138750005D01*
X88255141Y-138749994D01*
X88234614Y-138502270D01*
X88234612Y-138502261D01*
X88173587Y-138261282D01*
X88168636Y-138249994D01*
X111244357Y-138249994D01*
X111244357Y-138250005D01*
X111264890Y-138497812D01*
X111264892Y-138497824D01*
X111325936Y-138738881D01*
X111425826Y-138966606D01*
X111561833Y-139174782D01*
X111561836Y-139174785D01*
X111730256Y-139357738D01*
X111926491Y-139510474D01*
X112145190Y-139628828D01*
X112380386Y-139709571D01*
X112625665Y-139750500D01*
X112874335Y-139750500D01*
X113119614Y-139709571D01*
X113354810Y-139628828D01*
X113573509Y-139510474D01*
X113769744Y-139357738D01*
X113938164Y-139174785D01*
X114074173Y-138966607D01*
X114174063Y-138738881D01*
X114235108Y-138497821D01*
X114243508Y-138396446D01*
X114255643Y-138250005D01*
X114255643Y-138249994D01*
X117744357Y-138249994D01*
X117744357Y-138250005D01*
X117764890Y-138497812D01*
X117764892Y-138497824D01*
X117825936Y-138738881D01*
X117925826Y-138966606D01*
X118061833Y-139174782D01*
X118061836Y-139174785D01*
X118230256Y-139357738D01*
X118426491Y-139510474D01*
X118645190Y-139628828D01*
X118880386Y-139709571D01*
X119125665Y-139750500D01*
X119374335Y-139750500D01*
X119619614Y-139709571D01*
X119854810Y-139628828D01*
X120073509Y-139510474D01*
X120269744Y-139357738D01*
X120438164Y-139174785D01*
X120574173Y-138966607D01*
X120674063Y-138738881D01*
X120735108Y-138497821D01*
X120743508Y-138396446D01*
X120755643Y-138250005D01*
X120755643Y-138249994D01*
X120735109Y-138002187D01*
X120735107Y-138002175D01*
X120674063Y-137761118D01*
X120574173Y-137533393D01*
X120438166Y-137325217D01*
X120416557Y-137301744D01*
X120269744Y-137142262D01*
X120073509Y-136989526D01*
X120073507Y-136989525D01*
X120073506Y-136989524D01*
X119854811Y-136871172D01*
X119854802Y-136871169D01*
X119619616Y-136790429D01*
X119374335Y-136749500D01*
X119125665Y-136749500D01*
X118880383Y-136790429D01*
X118645197Y-136871169D01*
X118645188Y-136871172D01*
X118426493Y-136989524D01*
X118230257Y-137142261D01*
X118061833Y-137325217D01*
X117925826Y-137533393D01*
X117825936Y-137761118D01*
X117764892Y-138002175D01*
X117764890Y-138002187D01*
X117744357Y-138249994D01*
X114255643Y-138249994D01*
X114235109Y-138002187D01*
X114235107Y-138002175D01*
X114174063Y-137761118D01*
X114074173Y-137533393D01*
X113938166Y-137325217D01*
X113916557Y-137301744D01*
X113769744Y-137142262D01*
X113573509Y-136989526D01*
X113573507Y-136989525D01*
X113573506Y-136989524D01*
X113354811Y-136871172D01*
X113354802Y-136871169D01*
X113119616Y-136790429D01*
X112874335Y-136749500D01*
X112625665Y-136749500D01*
X112380383Y-136790429D01*
X112145197Y-136871169D01*
X112145188Y-136871172D01*
X111926493Y-136989524D01*
X111730257Y-137142261D01*
X111561833Y-137325217D01*
X111425826Y-137533393D01*
X111325936Y-137761118D01*
X111264892Y-138002175D01*
X111264890Y-138002187D01*
X111244357Y-138249994D01*
X88168636Y-138249994D01*
X88073732Y-138033632D01*
X87973435Y-137880116D01*
X87273787Y-138579765D01*
X87262518Y-138537708D01*
X87190110Y-138412292D01*
X87087708Y-138309890D01*
X86962292Y-138237482D01*
X86920233Y-138226212D01*
X87620055Y-137526389D01*
X87620055Y-137526388D01*
X87573236Y-137489947D01*
X87573231Y-137489944D01*
X87354614Y-137371635D01*
X87354603Y-137371630D01*
X87119493Y-137290916D01*
X86874293Y-137250000D01*
X86625707Y-137250000D01*
X86380506Y-137290916D01*
X86145396Y-137371630D01*
X86145385Y-137371635D01*
X85926770Y-137489943D01*
X85879943Y-137526389D01*
X86579766Y-138226212D01*
X86537708Y-138237482D01*
X86412292Y-138309890D01*
X86309890Y-138412292D01*
X86237482Y-138537708D01*
X86226212Y-138579766D01*
X85526563Y-137880117D01*
X85426267Y-138033633D01*
X85426265Y-138033637D01*
X85326412Y-138261282D01*
X85265387Y-138502261D01*
X85265385Y-138502270D01*
X85244859Y-138749994D01*
X81755141Y-138749994D01*
X81734614Y-138502270D01*
X81734612Y-138502261D01*
X81673587Y-138261282D01*
X81573732Y-138033632D01*
X81473435Y-137880116D01*
X80773787Y-138579765D01*
X80762518Y-138537708D01*
X80690110Y-138412292D01*
X80587708Y-138309890D01*
X80462292Y-138237482D01*
X80420233Y-138226212D01*
X81120055Y-137526389D01*
X81120055Y-137526388D01*
X81073236Y-137489947D01*
X81073231Y-137489944D01*
X80854614Y-137371635D01*
X80854603Y-137371630D01*
X80619493Y-137290916D01*
X80374293Y-137250000D01*
X80125707Y-137250000D01*
X79880506Y-137290916D01*
X79645396Y-137371630D01*
X79645385Y-137371635D01*
X79426770Y-137489943D01*
X79379943Y-137526389D01*
X80079766Y-138226212D01*
X80037708Y-138237482D01*
X79912292Y-138309890D01*
X79809890Y-138412292D01*
X79737482Y-138537708D01*
X79726212Y-138579766D01*
X79026563Y-137880117D01*
X78926267Y-138033633D01*
X78926265Y-138033637D01*
X78826412Y-138261282D01*
X78765387Y-138502261D01*
X78765385Y-138502270D01*
X78744859Y-138749994D01*
X72648646Y-138749994D01*
X70087689Y-131318197D01*
X94592477Y-131318197D01*
X94592477Y-131318202D01*
X94611729Y-131538262D01*
X94611730Y-131538270D01*
X94668904Y-131751645D01*
X94668905Y-131751647D01*
X94668906Y-131751650D01*
X94762266Y-131951862D01*
X94762268Y-131951866D01*
X94888970Y-132132815D01*
X94888975Y-132132821D01*
X95045178Y-132289024D01*
X95045184Y-132289029D01*
X95226133Y-132415731D01*
X95226135Y-132415732D01*
X95226138Y-132415734D01*
X95426350Y-132509094D01*
X95639732Y-132566270D01*
X95796923Y-132580022D01*
X95859798Y-132585523D01*
X95859800Y-132585523D01*
X95859802Y-132585523D01*
X95914817Y-132580709D01*
X96079868Y-132566270D01*
X96293250Y-132509094D01*
X96493462Y-132415734D01*
X96674420Y-132289026D01*
X96830626Y-132132820D01*
X96957334Y-131951862D01*
X97050694Y-131751650D01*
X97107870Y-131538268D01*
X97127123Y-131318200D01*
X97107870Y-131098132D01*
X97050694Y-130884750D01*
X96957334Y-130684539D01*
X96830626Y-130503580D01*
X96674420Y-130347374D01*
X96674416Y-130347371D01*
X96674415Y-130347370D01*
X96493466Y-130220668D01*
X96493462Y-130220666D01*
X96493460Y-130220665D01*
X96293250Y-130127306D01*
X96293247Y-130127305D01*
X96293245Y-130127304D01*
X96079870Y-130070130D01*
X96079862Y-130070129D01*
X95859802Y-130050877D01*
X95859798Y-130050877D01*
X95639737Y-130070129D01*
X95639729Y-130070130D01*
X95426354Y-130127304D01*
X95426348Y-130127307D01*
X95226140Y-130220665D01*
X95226138Y-130220666D01*
X95045177Y-130347375D01*
X94888975Y-130503577D01*
X94762266Y-130684538D01*
X94762265Y-130684540D01*
X94668907Y-130884748D01*
X94668904Y-130884754D01*
X94611730Y-131098129D01*
X94611729Y-131098137D01*
X94592477Y-131318197D01*
X70087689Y-131318197D01*
X69352462Y-129184597D01*
X110823077Y-129184597D01*
X110823077Y-129184602D01*
X110842329Y-129404662D01*
X110842330Y-129404670D01*
X110899504Y-129618045D01*
X110899505Y-129618047D01*
X110899506Y-129618050D01*
X110992866Y-129818262D01*
X110992868Y-129818266D01*
X111119570Y-129999215D01*
X111119575Y-129999221D01*
X111275778Y-130155424D01*
X111275784Y-130155429D01*
X111456733Y-130282131D01*
X111456735Y-130282132D01*
X111456738Y-130282134D01*
X111656950Y-130375494D01*
X111870332Y-130432670D01*
X112027523Y-130446422D01*
X112090398Y-130451923D01*
X112090400Y-130451923D01*
X112090402Y-130451923D01*
X112145417Y-130447109D01*
X112310468Y-130432670D01*
X112523850Y-130375494D01*
X112724062Y-130282134D01*
X112905020Y-130155426D01*
X113061226Y-129999220D01*
X113187934Y-129818262D01*
X113281294Y-129618050D01*
X113338470Y-129404668D01*
X113357723Y-129184600D01*
X113338470Y-128964532D01*
X113281294Y-128751150D01*
X113187934Y-128550939D01*
X113061226Y-128369980D01*
X112905020Y-128213774D01*
X112905016Y-128213771D01*
X112905015Y-128213770D01*
X112724066Y-128087068D01*
X112724062Y-128087066D01*
X112724060Y-128087065D01*
X112523850Y-127993706D01*
X112523847Y-127993705D01*
X112523845Y-127993704D01*
X112310470Y-127936530D01*
X112310462Y-127936529D01*
X112090402Y-127917277D01*
X112090398Y-127917277D01*
X111870337Y-127936529D01*
X111870329Y-127936530D01*
X111656954Y-127993704D01*
X111656948Y-127993707D01*
X111456740Y-128087065D01*
X111456738Y-128087066D01*
X111275777Y-128213775D01*
X111119575Y-128369977D01*
X110992866Y-128550938D01*
X110992865Y-128550940D01*
X110899507Y-128751148D01*
X110899504Y-128751154D01*
X110842330Y-128964529D01*
X110842329Y-128964537D01*
X110823077Y-129184597D01*
X69352462Y-129184597D01*
X66752445Y-121639448D01*
X139229500Y-121639448D01*
X139229500Y-121820551D01*
X139257829Y-121999410D01*
X139313787Y-122171636D01*
X139313788Y-122171639D01*
X139396006Y-122332997D01*
X139502441Y-122479494D01*
X139502445Y-122479499D01*
X139630500Y-122607554D01*
X139630505Y-122607558D01*
X139758287Y-122700396D01*
X139777006Y-122713996D01*
X139882484Y-122767740D01*
X139938360Y-122796211D01*
X139938363Y-122796212D01*
X140024476Y-122824191D01*
X140110591Y-122852171D01*
X140193429Y-122865291D01*
X140289449Y-122880500D01*
X140289454Y-122880500D01*
X140470551Y-122880500D01*
X140557259Y-122866765D01*
X140649409Y-122852171D01*
X140821639Y-122796211D01*
X140982994Y-122713996D01*
X141129501Y-122607553D01*
X141257553Y-122479501D01*
X141363996Y-122332994D01*
X141446211Y-122171639D01*
X141502171Y-121999409D01*
X141516765Y-121907259D01*
X141530500Y-121820551D01*
X141530500Y-121639448D01*
X154469500Y-121639448D01*
X154469500Y-121820551D01*
X154497829Y-121999410D01*
X154553787Y-122171636D01*
X154553788Y-122171639D01*
X154636006Y-122332997D01*
X154742441Y-122479494D01*
X154742445Y-122479499D01*
X154870500Y-122607554D01*
X154870505Y-122607558D01*
X154998287Y-122700396D01*
X155017006Y-122713996D01*
X155122484Y-122767740D01*
X155178360Y-122796211D01*
X155178363Y-122796212D01*
X155264476Y-122824191D01*
X155350591Y-122852171D01*
X155433429Y-122865291D01*
X155529449Y-122880500D01*
X155529454Y-122880500D01*
X155710551Y-122880500D01*
X155797259Y-122866765D01*
X155889409Y-122852171D01*
X156061639Y-122796211D01*
X156222994Y-122713996D01*
X156369501Y-122607553D01*
X156497553Y-122479501D01*
X156603996Y-122332994D01*
X156686211Y-122171639D01*
X156742171Y-121999409D01*
X156756765Y-121907259D01*
X156770500Y-121820551D01*
X156770500Y-121639448D01*
X156754019Y-121535397D01*
X156742171Y-121460591D01*
X156686211Y-121288361D01*
X156686211Y-121288360D01*
X156657740Y-121232484D01*
X156603996Y-121127006D01*
X156590396Y-121108287D01*
X156497558Y-120980505D01*
X156497554Y-120980500D01*
X156369499Y-120852445D01*
X156369494Y-120852441D01*
X156222997Y-120746006D01*
X156222996Y-120746005D01*
X156222994Y-120746004D01*
X156171300Y-120719664D01*
X156061639Y-120663788D01*
X156061636Y-120663787D01*
X155889410Y-120607829D01*
X155710551Y-120579500D01*
X155710546Y-120579500D01*
X155529454Y-120579500D01*
X155529449Y-120579500D01*
X155350589Y-120607829D01*
X155178363Y-120663787D01*
X155178360Y-120663788D01*
X155017002Y-120746006D01*
X154870505Y-120852441D01*
X154870500Y-120852445D01*
X154742445Y-120980500D01*
X154742441Y-120980505D01*
X154636006Y-121127002D01*
X154553788Y-121288360D01*
X154553787Y-121288363D01*
X154497829Y-121460589D01*
X154469500Y-121639448D01*
X141530500Y-121639448D01*
X141514019Y-121535397D01*
X141502171Y-121460591D01*
X141446211Y-121288361D01*
X141446211Y-121288360D01*
X141417740Y-121232484D01*
X141363996Y-121127006D01*
X141350396Y-121108287D01*
X141257558Y-120980505D01*
X141257554Y-120980500D01*
X141129499Y-120852445D01*
X141129494Y-120852441D01*
X140982997Y-120746006D01*
X140982996Y-120746005D01*
X140982994Y-120746004D01*
X140931300Y-120719664D01*
X140821639Y-120663788D01*
X140821636Y-120663787D01*
X140649410Y-120607829D01*
X140470551Y-120579500D01*
X140470546Y-120579500D01*
X140289454Y-120579500D01*
X140289449Y-120579500D01*
X140110589Y-120607829D01*
X139938363Y-120663787D01*
X139938360Y-120663788D01*
X139777002Y-120746006D01*
X139630505Y-120852441D01*
X139630500Y-120852445D01*
X139502445Y-120980500D01*
X139502441Y-120980505D01*
X139396006Y-121127002D01*
X139313788Y-121288360D01*
X139313787Y-121288363D01*
X139257829Y-121460589D01*
X139229500Y-121639448D01*
X66752445Y-121639448D01*
X65334972Y-117525997D01*
X110416677Y-117525997D01*
X110416677Y-117526002D01*
X110435929Y-117746062D01*
X110435930Y-117746070D01*
X110493104Y-117959445D01*
X110493105Y-117959447D01*
X110493106Y-117959450D01*
X110586466Y-118159662D01*
X110586468Y-118159666D01*
X110713170Y-118340615D01*
X110713175Y-118340621D01*
X110869378Y-118496824D01*
X110869384Y-118496829D01*
X111050333Y-118623531D01*
X111050335Y-118623532D01*
X111050338Y-118623534D01*
X111250550Y-118716894D01*
X111463932Y-118774070D01*
X111621123Y-118787822D01*
X111683998Y-118793323D01*
X111684000Y-118793323D01*
X111684002Y-118793323D01*
X111739017Y-118788509D01*
X111904068Y-118774070D01*
X112117450Y-118716894D01*
X112317662Y-118623534D01*
X112498620Y-118496826D01*
X112654826Y-118340620D01*
X112781534Y-118159662D01*
X112874894Y-117959450D01*
X112932070Y-117746068D01*
X112951323Y-117526000D01*
X112932070Y-117305932D01*
X112874894Y-117092550D01*
X112781534Y-116892339D01*
X112654826Y-116711380D01*
X112498620Y-116555174D01*
X112498616Y-116555171D01*
X112498615Y-116555170D01*
X112317666Y-116428468D01*
X112317662Y-116428466D01*
X112317660Y-116428465D01*
X112117450Y-116335106D01*
X112117447Y-116335105D01*
X112117445Y-116335104D01*
X111904070Y-116277930D01*
X111904062Y-116277929D01*
X111684002Y-116258677D01*
X111683998Y-116258677D01*
X111463937Y-116277929D01*
X111463929Y-116277930D01*
X111250554Y-116335104D01*
X111250548Y-116335107D01*
X111050340Y-116428465D01*
X111050338Y-116428466D01*
X110869377Y-116555175D01*
X110713175Y-116711377D01*
X110586466Y-116892338D01*
X110586465Y-116892340D01*
X110493107Y-117092548D01*
X110493104Y-117092554D01*
X110435930Y-117305929D01*
X110435929Y-117305937D01*
X110416677Y-117525997D01*
X65334972Y-117525997D01*
X63304345Y-111633197D01*
X81181277Y-111633197D01*
X81181277Y-111633202D01*
X81200529Y-111853262D01*
X81200530Y-111853270D01*
X81257704Y-112066645D01*
X81257705Y-112066647D01*
X81257706Y-112066650D01*
X81351066Y-112266862D01*
X81351068Y-112266866D01*
X81477770Y-112447815D01*
X81477775Y-112447821D01*
X81633978Y-112604024D01*
X81633984Y-112604029D01*
X81814933Y-112730731D01*
X81814935Y-112730732D01*
X81814938Y-112730734D01*
X82015150Y-112824094D01*
X82228532Y-112881270D01*
X82385723Y-112895022D01*
X82448598Y-112900523D01*
X82448600Y-112900523D01*
X82448602Y-112900523D01*
X82503617Y-112895709D01*
X82668668Y-112881270D01*
X82882050Y-112824094D01*
X83082262Y-112730734D01*
X83263220Y-112604026D01*
X83419426Y-112447820D01*
X83546134Y-112266862D01*
X83639494Y-112066650D01*
X83696670Y-111853268D01*
X83715923Y-111633200D01*
X83696670Y-111413132D01*
X83639494Y-111199750D01*
X83546134Y-110999539D01*
X83419426Y-110818580D01*
X83263220Y-110662374D01*
X83263216Y-110662371D01*
X83263215Y-110662370D01*
X83082266Y-110535668D01*
X83082262Y-110535666D01*
X83006721Y-110500441D01*
X82882050Y-110442306D01*
X82882047Y-110442305D01*
X82882045Y-110442304D01*
X82668670Y-110385130D01*
X82668662Y-110385129D01*
X82448602Y-110365877D01*
X82448598Y-110365877D01*
X82228537Y-110385129D01*
X82228529Y-110385130D01*
X82015154Y-110442304D01*
X82015148Y-110442307D01*
X81814940Y-110535665D01*
X81814938Y-110535666D01*
X81633977Y-110662375D01*
X81477775Y-110818577D01*
X81351066Y-110999538D01*
X81351065Y-110999540D01*
X81257707Y-111199748D01*
X81257704Y-111199754D01*
X81200530Y-111413129D01*
X81200529Y-111413137D01*
X81181277Y-111633197D01*
X63304345Y-111633197D01*
X63003673Y-110760658D01*
X62998311Y-110738853D01*
X61751672Y-102511039D01*
X61750328Y-102488832D01*
X61992550Y-94253266D01*
X61994100Y-94237041D01*
X62060591Y-93827940D01*
X62065627Y-93807805D01*
X65495557Y-83763009D01*
X65507181Y-83738283D01*
X65532686Y-83696670D01*
X66297634Y-82448597D01*
X87099477Y-82448597D01*
X87099477Y-82448602D01*
X87118729Y-82668662D01*
X87118730Y-82668670D01*
X87175904Y-82882045D01*
X87175905Y-82882047D01*
X87175906Y-82882050D01*
X87269266Y-83082262D01*
X87269268Y-83082266D01*
X87395970Y-83263215D01*
X87395975Y-83263221D01*
X87552178Y-83419424D01*
X87552184Y-83419429D01*
X87733133Y-83546131D01*
X87733135Y-83546132D01*
X87733138Y-83546134D01*
X87933350Y-83639494D01*
X88146732Y-83696670D01*
X88303923Y-83710422D01*
X88366798Y-83715923D01*
X88366800Y-83715923D01*
X88366802Y-83715923D01*
X88421817Y-83711109D01*
X88586868Y-83696670D01*
X88800250Y-83639494D01*
X89000462Y-83546134D01*
X89181420Y-83419426D01*
X89337626Y-83263220D01*
X89464334Y-83082262D01*
X89557694Y-82882050D01*
X89614870Y-82668668D01*
X89634123Y-82448600D01*
X89614870Y-82228532D01*
X89557694Y-82015150D01*
X89464334Y-81814939D01*
X89337626Y-81633980D01*
X89181420Y-81477774D01*
X89181416Y-81477771D01*
X89181415Y-81477770D01*
X89000466Y-81351068D01*
X89000462Y-81351066D01*
X89000460Y-81351065D01*
X88800250Y-81257706D01*
X88800247Y-81257705D01*
X88800245Y-81257704D01*
X88586870Y-81200530D01*
X88586862Y-81200529D01*
X88366802Y-81181277D01*
X88366798Y-81181277D01*
X88146737Y-81200529D01*
X88146729Y-81200530D01*
X87933354Y-81257704D01*
X87933348Y-81257707D01*
X87733140Y-81351065D01*
X87733138Y-81351066D01*
X87552177Y-81477775D01*
X87395975Y-81633977D01*
X87269266Y-81814938D01*
X87269265Y-81814940D01*
X87175907Y-82015148D01*
X87175904Y-82015154D01*
X87118730Y-82228529D01*
X87118729Y-82228537D01*
X87099477Y-82448597D01*
X66297634Y-82448597D01*
X67185822Y-80999448D01*
X139229500Y-80999448D01*
X139229500Y-81180551D01*
X139257829Y-81359410D01*
X139313787Y-81531636D01*
X139313788Y-81531639D01*
X139396006Y-81692997D01*
X139502441Y-81839494D01*
X139502445Y-81839499D01*
X139630500Y-81967554D01*
X139630505Y-81967558D01*
X139758287Y-82060396D01*
X139777006Y-82073996D01*
X139882484Y-82127740D01*
X139938360Y-82156211D01*
X139938363Y-82156212D01*
X140024476Y-82184191D01*
X140110591Y-82212171D01*
X140193429Y-82225291D01*
X140289449Y-82240500D01*
X140289454Y-82240500D01*
X140470551Y-82240500D01*
X140557259Y-82226765D01*
X140649409Y-82212171D01*
X140821639Y-82156211D01*
X140982994Y-82073996D01*
X141129501Y-81967553D01*
X141257553Y-81839501D01*
X141363996Y-81692994D01*
X141446211Y-81531639D01*
X141502171Y-81359409D01*
X141518279Y-81257706D01*
X141530500Y-81180551D01*
X141530500Y-80999448D01*
X154469500Y-80999448D01*
X154469500Y-81180551D01*
X154497829Y-81359410D01*
X154553787Y-81531636D01*
X154553788Y-81531639D01*
X154636006Y-81692997D01*
X154742441Y-81839494D01*
X154742445Y-81839499D01*
X154870500Y-81967554D01*
X154870505Y-81967558D01*
X154998287Y-82060396D01*
X155017006Y-82073996D01*
X155122484Y-82127740D01*
X155178360Y-82156211D01*
X155178363Y-82156212D01*
X155264476Y-82184191D01*
X155350591Y-82212171D01*
X155433429Y-82225291D01*
X155529449Y-82240500D01*
X155529454Y-82240500D01*
X155710551Y-82240500D01*
X155797259Y-82226765D01*
X155889409Y-82212171D01*
X156061639Y-82156211D01*
X156222994Y-82073996D01*
X156369501Y-81967553D01*
X156497553Y-81839501D01*
X156603996Y-81692994D01*
X156686211Y-81531639D01*
X156742171Y-81359409D01*
X156758279Y-81257706D01*
X156770500Y-81180551D01*
X156770500Y-80999448D01*
X156754019Y-80895397D01*
X156742171Y-80820591D01*
X156686211Y-80648361D01*
X156686211Y-80648360D01*
X156631352Y-80540695D01*
X156603996Y-80487006D01*
X156575171Y-80447331D01*
X156497558Y-80340505D01*
X156497554Y-80340500D01*
X156369499Y-80212445D01*
X156369494Y-80212441D01*
X156222997Y-80106006D01*
X156222996Y-80106005D01*
X156222994Y-80106004D01*
X156171300Y-80079664D01*
X156061639Y-80023788D01*
X156061636Y-80023787D01*
X155889410Y-79967829D01*
X155710551Y-79939500D01*
X155710546Y-79939500D01*
X155529454Y-79939500D01*
X155529449Y-79939500D01*
X155350589Y-79967829D01*
X155178363Y-80023787D01*
X155178360Y-80023788D01*
X155017002Y-80106006D01*
X154870505Y-80212441D01*
X154870500Y-80212445D01*
X154742445Y-80340500D01*
X154742441Y-80340505D01*
X154636006Y-80487002D01*
X154553788Y-80648360D01*
X154553787Y-80648363D01*
X154497829Y-80820589D01*
X154469500Y-80999448D01*
X141530500Y-80999448D01*
X141514019Y-80895397D01*
X141502171Y-80820591D01*
X141446211Y-80648361D01*
X141446211Y-80648360D01*
X141391352Y-80540695D01*
X141363996Y-80487006D01*
X141335171Y-80447331D01*
X141257558Y-80340505D01*
X141257554Y-80340500D01*
X141129499Y-80212445D01*
X141129494Y-80212441D01*
X140982997Y-80106006D01*
X140982996Y-80106005D01*
X140982994Y-80106004D01*
X140931300Y-80079664D01*
X140821639Y-80023788D01*
X140821636Y-80023787D01*
X140649410Y-79967829D01*
X140470551Y-79939500D01*
X140470546Y-79939500D01*
X140289454Y-79939500D01*
X140289449Y-79939500D01*
X140110589Y-79967829D01*
X139938363Y-80023787D01*
X139938360Y-80023788D01*
X139777002Y-80106006D01*
X139630505Y-80212441D01*
X139630500Y-80212445D01*
X139502445Y-80340500D01*
X139502441Y-80340505D01*
X139396006Y-80487002D01*
X139313788Y-80648360D01*
X139313787Y-80648363D01*
X139257829Y-80820589D01*
X139229500Y-80999448D01*
X67185822Y-80999448D01*
X68196898Y-79349797D01*
X102847477Y-79349797D01*
X102847477Y-79349802D01*
X102866729Y-79569862D01*
X102866730Y-79569870D01*
X102923904Y-79783245D01*
X102923905Y-79783247D01*
X102923906Y-79783250D01*
X102996766Y-79939500D01*
X103017266Y-79983462D01*
X103017268Y-79983466D01*
X103143970Y-80164415D01*
X103143975Y-80164421D01*
X103300178Y-80320624D01*
X103300184Y-80320629D01*
X103481133Y-80447331D01*
X103481135Y-80447332D01*
X103481138Y-80447334D01*
X103681350Y-80540694D01*
X103894732Y-80597870D01*
X104051923Y-80611622D01*
X104114798Y-80617123D01*
X104114800Y-80617123D01*
X104114802Y-80617123D01*
X104169817Y-80612309D01*
X104334868Y-80597870D01*
X104548250Y-80540694D01*
X104748462Y-80447334D01*
X104929420Y-80320626D01*
X105085626Y-80164420D01*
X105212334Y-79983462D01*
X105305694Y-79783250D01*
X105362870Y-79569868D01*
X105382123Y-79349800D01*
X105362870Y-79129732D01*
X105305694Y-78916350D01*
X105212334Y-78716139D01*
X105085626Y-78535180D01*
X104929420Y-78378974D01*
X104929416Y-78378971D01*
X104929415Y-78378970D01*
X104748466Y-78252268D01*
X104748462Y-78252266D01*
X104748460Y-78252265D01*
X104548250Y-78158906D01*
X104548247Y-78158905D01*
X104548245Y-78158904D01*
X104334870Y-78101730D01*
X104334862Y-78101729D01*
X104114802Y-78082477D01*
X104114798Y-78082477D01*
X103894737Y-78101729D01*
X103894729Y-78101730D01*
X103681354Y-78158904D01*
X103681348Y-78158907D01*
X103481140Y-78252265D01*
X103481138Y-78252266D01*
X103300177Y-78378975D01*
X103143975Y-78535177D01*
X103017266Y-78716138D01*
X103017265Y-78716140D01*
X102923907Y-78916348D01*
X102923904Y-78916354D01*
X102866730Y-79129729D01*
X102866729Y-79129737D01*
X102847477Y-79349797D01*
X68196898Y-79349797D01*
X69594249Y-77069908D01*
X69603124Y-77057273D01*
X69648950Y-76999994D01*
X125244859Y-76999994D01*
X125244859Y-77000005D01*
X125265385Y-77247729D01*
X125265387Y-77247738D01*
X125326412Y-77488717D01*
X125426267Y-77716367D01*
X125526562Y-77869881D01*
X126226212Y-77170233D01*
X126237482Y-77212292D01*
X126309890Y-77337708D01*
X126412292Y-77440110D01*
X126537708Y-77512518D01*
X126579766Y-77523787D01*
X125879943Y-78223609D01*
X125926768Y-78260055D01*
X125926771Y-78260057D01*
X126145385Y-78378364D01*
X126145396Y-78378369D01*
X126380506Y-78459083D01*
X126625707Y-78500000D01*
X126874293Y-78500000D01*
X127119493Y-78459083D01*
X127354603Y-78378369D01*
X127354614Y-78378364D01*
X127573230Y-78260056D01*
X127573236Y-78260051D01*
X127620055Y-78223610D01*
X127620056Y-78223609D01*
X126920233Y-77523787D01*
X126962292Y-77512518D01*
X127087708Y-77440110D01*
X127190110Y-77337708D01*
X127262518Y-77212292D01*
X127273787Y-77170233D01*
X127973435Y-77869882D01*
X128073733Y-77716364D01*
X128173587Y-77488717D01*
X128234612Y-77247738D01*
X128234614Y-77247729D01*
X128255141Y-77000005D01*
X128255141Y-76999994D01*
X131744859Y-76999994D01*
X131744859Y-77000005D01*
X131765385Y-77247729D01*
X131765387Y-77247738D01*
X131826412Y-77488717D01*
X131926267Y-77716367D01*
X132026562Y-77869881D01*
X132726212Y-77170233D01*
X132737482Y-77212292D01*
X132809890Y-77337708D01*
X132912292Y-77440110D01*
X133037708Y-77512518D01*
X133079766Y-77523787D01*
X132379943Y-78223609D01*
X132426768Y-78260055D01*
X132426771Y-78260057D01*
X132645385Y-78378364D01*
X132645396Y-78378369D01*
X132880506Y-78459083D01*
X133125707Y-78500000D01*
X133374293Y-78500000D01*
X133619493Y-78459083D01*
X133854603Y-78378369D01*
X133854614Y-78378364D01*
X134073230Y-78260056D01*
X134073236Y-78260051D01*
X134120055Y-78223610D01*
X134120056Y-78223609D01*
X133420233Y-77523787D01*
X133462292Y-77512518D01*
X133587708Y-77440110D01*
X133690110Y-77337708D01*
X133762518Y-77212292D01*
X133773787Y-77170234D01*
X134473435Y-77869882D01*
X134573733Y-77716364D01*
X134673587Y-77488717D01*
X134734612Y-77247738D01*
X134734614Y-77247729D01*
X134755141Y-77000005D01*
X134755141Y-76999994D01*
X134734614Y-76752270D01*
X134734612Y-76752261D01*
X134673587Y-76511282D01*
X134573732Y-76283632D01*
X134473435Y-76130116D01*
X133773787Y-76829765D01*
X133762518Y-76787708D01*
X133690110Y-76662292D01*
X133587708Y-76559890D01*
X133462292Y-76487482D01*
X133420233Y-76476212D01*
X134120055Y-75776389D01*
X134120055Y-75776388D01*
X134073236Y-75739947D01*
X134073231Y-75739944D01*
X133854614Y-75621635D01*
X133854603Y-75621630D01*
X133619493Y-75540916D01*
X133374293Y-75500000D01*
X133125707Y-75500000D01*
X132880506Y-75540916D01*
X132645396Y-75621630D01*
X132645385Y-75621635D01*
X132426770Y-75739943D01*
X132379943Y-75776389D01*
X133079766Y-76476212D01*
X133037708Y-76487482D01*
X132912292Y-76559890D01*
X132809890Y-76662292D01*
X132737482Y-76787708D01*
X132726212Y-76829766D01*
X132026563Y-76130117D01*
X131926267Y-76283633D01*
X131926265Y-76283637D01*
X131826412Y-76511282D01*
X131765387Y-76752261D01*
X131765385Y-76752270D01*
X131744859Y-76999994D01*
X128255141Y-76999994D01*
X128234614Y-76752270D01*
X128234612Y-76752261D01*
X128173587Y-76511282D01*
X128073732Y-76283632D01*
X127973435Y-76130116D01*
X127273787Y-76829765D01*
X127262518Y-76787708D01*
X127190110Y-76662292D01*
X127087708Y-76559890D01*
X126962292Y-76487482D01*
X126920233Y-76476212D01*
X127620055Y-75776389D01*
X127620055Y-75776388D01*
X127573236Y-75739947D01*
X127573231Y-75739944D01*
X127354614Y-75621635D01*
X127354603Y-75621630D01*
X127119493Y-75540916D01*
X126874293Y-75500000D01*
X126625707Y-75500000D01*
X126380506Y-75540916D01*
X126145396Y-75621630D01*
X126145385Y-75621635D01*
X125926770Y-75739943D01*
X125879943Y-75776389D01*
X126579766Y-76476212D01*
X126537708Y-76487482D01*
X126412292Y-76559890D01*
X126309890Y-76662292D01*
X126237482Y-76787708D01*
X126226212Y-76829766D01*
X125526563Y-76130117D01*
X125426267Y-76283633D01*
X125426265Y-76283637D01*
X125326412Y-76511282D01*
X125265387Y-76752261D01*
X125265385Y-76752270D01*
X125244859Y-76999994D01*
X69648950Y-76999994D01*
X70102164Y-76433517D01*
X70104642Y-76430520D01*
X70886041Y-75515657D01*
X70888549Y-75512813D01*
X71152436Y-75223217D01*
X71163091Y-75212852D01*
X74310006Y-72499994D01*
X125244357Y-72499994D01*
X125244357Y-72500005D01*
X125264890Y-72747812D01*
X125264892Y-72747824D01*
X125325936Y-72988881D01*
X125425826Y-73216606D01*
X125561833Y-73424782D01*
X125561836Y-73424785D01*
X125730256Y-73607738D01*
X125926491Y-73760474D01*
X126035840Y-73819651D01*
X126100457Y-73854620D01*
X126145190Y-73878828D01*
X126380386Y-73959571D01*
X126625665Y-74000500D01*
X126874335Y-74000500D01*
X127119614Y-73959571D01*
X127354810Y-73878828D01*
X127573509Y-73760474D01*
X127769744Y-73607738D01*
X127938164Y-73424785D01*
X128074173Y-73216607D01*
X128174063Y-72988881D01*
X128235108Y-72747821D01*
X128240926Y-72677613D01*
X128255643Y-72500005D01*
X128255643Y-72499994D01*
X131744357Y-72499994D01*
X131744357Y-72500005D01*
X131764890Y-72747812D01*
X131764892Y-72747824D01*
X131825936Y-72988881D01*
X131925826Y-73216606D01*
X132061833Y-73424782D01*
X132061836Y-73424785D01*
X132230256Y-73607738D01*
X132426491Y-73760474D01*
X132535840Y-73819651D01*
X132600457Y-73854620D01*
X132645190Y-73878828D01*
X132880386Y-73959571D01*
X133125665Y-74000500D01*
X133374335Y-74000500D01*
X133619614Y-73959571D01*
X133854810Y-73878828D01*
X134073509Y-73760474D01*
X134269744Y-73607738D01*
X134438164Y-73424785D01*
X134574173Y-73216607D01*
X134674063Y-72988881D01*
X134735108Y-72747821D01*
X134740926Y-72677613D01*
X134755643Y-72500005D01*
X134755643Y-72499994D01*
X134735109Y-72252187D01*
X134735107Y-72252175D01*
X134674063Y-72011118D01*
X134574173Y-71783393D01*
X134438166Y-71575217D01*
X134298653Y-71423666D01*
X134269744Y-71392262D01*
X134073509Y-71239526D01*
X134073507Y-71239525D01*
X134073506Y-71239524D01*
X133854811Y-71121172D01*
X133854802Y-71121169D01*
X133619616Y-71040429D01*
X133374335Y-70999500D01*
X133125665Y-70999500D01*
X132880383Y-71040429D01*
X132645197Y-71121169D01*
X132645188Y-71121172D01*
X132426493Y-71239524D01*
X132230257Y-71392261D01*
X132061833Y-71575217D01*
X131925826Y-71783393D01*
X131825936Y-72011118D01*
X131764892Y-72252175D01*
X131764890Y-72252187D01*
X131744357Y-72499994D01*
X128255643Y-72499994D01*
X128235109Y-72252187D01*
X128235107Y-72252175D01*
X128174063Y-72011118D01*
X128074173Y-71783393D01*
X127938166Y-71575217D01*
X127798653Y-71423666D01*
X127769744Y-71392262D01*
X127573509Y-71239526D01*
X127573507Y-71239525D01*
X127573506Y-71239524D01*
X127354811Y-71121172D01*
X127354802Y-71121169D01*
X127119616Y-71040429D01*
X126874335Y-70999500D01*
X126625665Y-70999500D01*
X126380383Y-71040429D01*
X126145197Y-71121169D01*
X126145188Y-71121172D01*
X125926493Y-71239524D01*
X125730257Y-71392261D01*
X125561833Y-71575217D01*
X125425826Y-71783393D01*
X125325936Y-72011118D01*
X125264892Y-72252175D01*
X125264890Y-72252187D01*
X125244357Y-72499994D01*
X74310006Y-72499994D01*
X76293602Y-70789997D01*
X86667677Y-70789997D01*
X86667677Y-70790002D01*
X86686929Y-71010062D01*
X86686930Y-71010070D01*
X86744104Y-71223445D01*
X86744105Y-71223447D01*
X86744106Y-71223450D01*
X86792724Y-71327712D01*
X86837466Y-71423662D01*
X86837468Y-71423666D01*
X86964170Y-71604615D01*
X86964175Y-71604621D01*
X87120378Y-71760824D01*
X87120384Y-71760829D01*
X87301333Y-71887531D01*
X87301335Y-71887532D01*
X87301338Y-71887534D01*
X87501550Y-71980894D01*
X87714932Y-72038070D01*
X87872123Y-72051822D01*
X87934998Y-72057323D01*
X87935000Y-72057323D01*
X87935002Y-72057323D01*
X87990017Y-72052509D01*
X88155068Y-72038070D01*
X88368450Y-71980894D01*
X88568662Y-71887534D01*
X88749620Y-71760826D01*
X88905826Y-71604620D01*
X89032534Y-71423662D01*
X89125894Y-71223450D01*
X89183070Y-71010068D01*
X89202323Y-70790000D01*
X89183070Y-70569932D01*
X89125894Y-70356550D01*
X89032534Y-70156339D01*
X88905826Y-69975380D01*
X88749620Y-69819174D01*
X88749616Y-69819171D01*
X88749615Y-69819170D01*
X88568666Y-69692468D01*
X88568662Y-69692466D01*
X88568660Y-69692465D01*
X88368450Y-69599106D01*
X88368447Y-69599105D01*
X88368445Y-69599104D01*
X88155070Y-69541930D01*
X88155062Y-69541929D01*
X87935002Y-69522677D01*
X87934998Y-69522677D01*
X87714937Y-69541929D01*
X87714929Y-69541930D01*
X87501554Y-69599104D01*
X87501548Y-69599107D01*
X87301340Y-69692465D01*
X87301338Y-69692466D01*
X87120377Y-69819175D01*
X86964175Y-69975377D01*
X86837466Y-70156338D01*
X86837465Y-70156340D01*
X86744107Y-70356548D01*
X86744104Y-70356554D01*
X86686930Y-70569929D01*
X86686929Y-70569937D01*
X86667677Y-70789997D01*
X76293602Y-70789997D01*
X77488307Y-69760079D01*
X77513811Y-69743094D01*
X79636405Y-68681797D01*
X102872877Y-68681797D01*
X102872877Y-68681802D01*
X102892129Y-68901862D01*
X102892130Y-68901870D01*
X102949304Y-69115245D01*
X102949305Y-69115247D01*
X102949306Y-69115250D01*
X102953490Y-69124222D01*
X103042666Y-69315462D01*
X103042668Y-69315466D01*
X103169370Y-69496415D01*
X103169375Y-69496421D01*
X103325578Y-69652624D01*
X103325584Y-69652629D01*
X103506533Y-69779331D01*
X103506535Y-69779332D01*
X103506538Y-69779334D01*
X103706750Y-69872694D01*
X103920132Y-69929870D01*
X104077323Y-69943622D01*
X104140198Y-69949123D01*
X104140200Y-69949123D01*
X104140202Y-69949123D01*
X104195217Y-69944309D01*
X104360268Y-69929870D01*
X104573650Y-69872694D01*
X104773862Y-69779334D01*
X104954820Y-69652626D01*
X105111026Y-69496420D01*
X105237734Y-69315462D01*
X105331094Y-69115250D01*
X105388270Y-68901868D01*
X105407523Y-68681800D01*
X105388270Y-68461732D01*
X105331094Y-68248350D01*
X105237734Y-68048139D01*
X105111026Y-67867180D01*
X104954820Y-67710974D01*
X104954816Y-67710971D01*
X104954815Y-67710970D01*
X104773866Y-67584268D01*
X104773862Y-67584266D01*
X104773860Y-67584265D01*
X104573650Y-67490906D01*
X104573647Y-67490905D01*
X104573645Y-67490904D01*
X104360270Y-67433730D01*
X104360262Y-67433729D01*
X104140202Y-67414477D01*
X104140198Y-67414477D01*
X103920137Y-67433729D01*
X103920129Y-67433730D01*
X103706754Y-67490904D01*
X103706748Y-67490907D01*
X103506540Y-67584265D01*
X103506538Y-67584266D01*
X103325577Y-67710975D01*
X103169375Y-67867177D01*
X103042666Y-68048138D01*
X103042665Y-68048140D01*
X102949307Y-68248348D01*
X102949304Y-68248354D01*
X102892130Y-68461729D01*
X102892129Y-68461737D01*
X102872877Y-68681797D01*
X79636405Y-68681797D01*
X88174730Y-64412634D01*
X88195157Y-64404597D01*
X88802786Y-64225881D01*
X88826896Y-64221324D01*
X102733320Y-63001463D01*
X102766471Y-63003013D01*
G37*
%TD.AperFunction*%
%TD*%
M02*
