M48
; DRILL file {KiCad 9.0.1} date 2025-07-01T02:02:23-0400
; FORMAT={-:-/ absolute / inch / decimal}
; #@! TF.CreationDate,2025-07-01T02:02:23-04:00
; #@! TF.GenerationSoftware,Kicad,Pcbnew,9.0.1
; #@! TF.FileFunction,Plated,1,2,PTH
FMAT,2
INCH
; #@! TA.AperFunction,Plated,PTH,ViaDrill
T1C0.0400
; #@! TA.AperFunction,Plated,PTH,ComponentDrill
T2C0.0400
; #@! TA.AperFunction,Plated,PTH,ComponentDrill
T3C0.0433
%
G90
G05
T1
X3.4744Y-2.687
T2
X2.7877Y-4.4123
X3.1799Y-4.9237
X3.3374Y-4.5098
X3.366Y-3.336
X3.8492Y-5.5413
X3.8492Y-5.6413
X3.9492Y-5.5413
X3.9492Y-5.6413
X4.0492Y-5.5413
X4.0492Y-5.6413
X4.538Y-3.366
X4.6954Y-2.9506
X4.7658Y-3.9554
X5.0863Y-3.4617
T3
X3.1594Y-5.4429
X3.1594Y-5.6201
X3.4154Y-5.4429
X3.4154Y-5.6201
X4.439Y-5.4528
X4.439Y-5.6299
X4.6949Y-5.4528
X4.6949Y-5.6299
M30
