%TF.GenerationSoftware,KiCad,Pcbnew,8.0.8*%
%TF.CreationDate,2025-03-20T00:36:27-04:00*%
%TF.ProjectId,EMP_Cyclone_SAO_v1,454d505f-4379-4636-9c6f-6e655f53414f,rev?*%
%TF.SameCoordinates,Original*%
%TF.FileFunction,Copper,L1,Top*%
%TF.FilePolarity,Positive*%
%FSLAX46Y46*%
G04 Gerber Fmt 4.6, Leading zero omitted, Abs format (unit mm)*
G04 Created by KiCad (PCBNEW 8.0.8) date 2025-03-20 00:36:27*
%MOMM*%
%LPD*%
G01*
G04 APERTURE LIST*
%TA.AperFunction,ComponentPad*%
%ADD10C,2.000000*%
%TD*%
%TA.AperFunction,ComponentPad*%
%ADD11C,1.524000*%
%TD*%
%TA.AperFunction,SMDPad,CuDef*%
%ADD12O,2.997200X1.727200*%
%TD*%
%TA.AperFunction,SMDPad,CuDef*%
%ADD13R,2.997200X1.727200*%
%TD*%
%TA.AperFunction,ComponentPad*%
%ADD14R,1.727200X1.727200*%
%TD*%
%TA.AperFunction,ComponentPad*%
%ADD15C,1.727200*%
%TD*%
%TA.AperFunction,ComponentPad*%
%ADD16O,1.727200X1.727200*%
%TD*%
%TA.AperFunction,Conductor*%
%ADD17C,1.000000*%
%TD*%
%TA.AperFunction,Conductor*%
%ADD18C,0.200000*%
%TD*%
G04 APERTURE END LIST*
D10*
%TO.P,SW3,1,1*%
%TO.N,Net-(A1-D10)*%
X86750000Y-143250000D03*
X80250000Y-143250000D03*
%TO.P,SW3,2,2*%
%TO.N,GND*%
X86750000Y-138750000D03*
X80250000Y-138750000D03*
%TD*%
%TO.P,SW1,1,1*%
%TO.N,Net-(A1-D2)*%
X126750000Y-72500000D03*
X133250000Y-72500000D03*
%TO.P,SW1,2,2*%
%TO.N,GND*%
X126750000Y-77000000D03*
X133250000Y-77000000D03*
%TD*%
D11*
%TO.P,U2,1*%
%TO.N,N/C*%
X104140200Y-68681800D03*
%TO.P,U2,2*%
X87935000Y-70790000D03*
%TO.P,U2,3*%
X95859800Y-131318200D03*
%TO.P,U2,4*%
X112090400Y-129184600D03*
%TD*%
%TO.P,U1,1*%
%TO.N,N/C*%
X88366800Y-82448600D03*
%TO.P,U1,2*%
X104114800Y-79349800D03*
%TO.P,U1,3*%
X82448600Y-111633200D03*
%TO.P,U1,4*%
X111684000Y-117526000D03*
%TD*%
D12*
%TO.P,A1,3V3*%
%TO.N,N/C*%
X157525000Y-116650000D03*
%TO.P,A1,5V*%
X157525000Y-91250000D03*
%TO.P,A1,A0*%
X157525000Y-111570000D03*
%TO.P,A1,A1*%
X157525000Y-109030000D03*
%TO.P,A1,A2*%
X157525000Y-106490000D03*
%TO.P,A1,A3*%
X157525000Y-103950000D03*
%TO.P,A1,A4*%
X157525000Y-101410000D03*
%TO.P,A1,A5*%
X157525000Y-98870000D03*
%TO.P,A1,A6*%
X157525000Y-96330000D03*
%TO.P,A1,A7*%
X157525000Y-93790000D03*
%TO.P,A1,AREF*%
X157525000Y-114110000D03*
%TO.P,A1,D0*%
X138475000Y-86170000D03*
%TO.P,A1,D1*%
X138475000Y-83630000D03*
%TO.P,A1,D2*%
X138475000Y-93790000D03*
%TO.P,A1,D3*%
X138475000Y-96330000D03*
%TO.P,A1,D4*%
X138475000Y-98870000D03*
%TO.P,A1,D5*%
X138475000Y-101410000D03*
%TO.P,A1,D6*%
X138475000Y-103950000D03*
%TO.P,A1,D7*%
X138475000Y-106490000D03*
%TO.P,A1,D8*%
X138475000Y-109030000D03*
%TO.P,A1,D9*%
X138475000Y-111570000D03*
%TO.P,A1,D10*%
X138475000Y-114110000D03*
%TO.P,A1,D11*%
X138475000Y-116650000D03*
%TO.P,A1,D12*%
X138475000Y-119190000D03*
%TO.P,A1,D13*%
X157525000Y-119190000D03*
D13*
%TO.P,A1,GND1*%
X138475000Y-91250000D03*
%TO.P,A1,GND2*%
X157525000Y-86170000D03*
D12*
%TO.P,A1,RST1*%
X138475000Y-88710000D03*
%TO.P,A1,RST2*%
X157525000Y-88710000D03*
%TO.P,A1,VIN*%
X157525000Y-83630000D03*
%TD*%
D14*
%TO.P,REF\u002A\u002A,1*%
%TO.N,N/C*%
X97670000Y-140750000D03*
D15*
%TO.P,REF\u002A\u002A,2*%
%TO.N,GND*%
X97670000Y-143290000D03*
D16*
%TO.P,REF\u002A\u002A,3*%
%TO.N,N/C*%
X100210000Y-140750000D03*
%TO.P,REF\u002A\u002A,4*%
X100210000Y-143290000D03*
D15*
%TO.P,REF\u002A\u002A,5*%
X102750000Y-140750000D03*
%TO.P,REF\u002A\u002A,6*%
X102750000Y-143290000D03*
%TD*%
D10*
%TO.P,SW2,1,1*%
%TO.N,Net-(A1-D9)*%
X112750000Y-138250000D03*
X119250000Y-138250000D03*
%TO.P,SW2,2,2*%
%TO.N,GND*%
X112750000Y-142750000D03*
X119250000Y-142750000D03*
%TD*%
D17*
%TO.N,GND*%
X133250000Y-77000000D02*
X133250000Y-89500000D01*
X133250000Y-89500000D02*
X135000000Y-91250000D01*
X135000000Y-91250000D02*
X138475000Y-91250000D01*
D18*
%TO.N,Net-(A1-D9)*%
X119250000Y-138250000D02*
X119250000Y-122500000D01*
X119250000Y-122500000D02*
X130180000Y-111570000D01*
X130180000Y-111570000D02*
X138475000Y-111570000D01*
%TO.N,Net-(A1-D10)*%
X138475000Y-114110000D02*
X131890000Y-114110000D01*
X131890000Y-114110000D02*
X122500000Y-123500000D01*
X121500000Y-146750000D02*
X122500000Y-145750000D01*
X122500000Y-123500000D02*
X122500000Y-145750000D01*
X86500000Y-143250000D02*
X86750000Y-143250000D01*
X86750000Y-143250000D02*
X90250000Y-146750000D01*
X90250000Y-146750000D02*
X121500000Y-146750000D01*
%TO.N,Net-(A1-D2)*%
X126750000Y-72500000D02*
X124500000Y-74750000D01*
X126790000Y-93790000D02*
X138475000Y-93790000D01*
X124500000Y-74750000D02*
X124500000Y-91500000D01*
X124500000Y-91500000D02*
X126790000Y-93790000D01*
%TO.N,*%
X138475000Y-106490000D02*
X138305000Y-106320000D01*
X133820000Y-106320000D02*
X109948600Y-82448600D01*
X138305000Y-106320000D02*
X133820000Y-106320000D01*
X109948600Y-82448600D02*
X88366800Y-82448600D01*
X138305000Y-116480000D02*
X138475000Y-116650000D01*
%TO.N,Net-(A1-D10)*%
X138475000Y-119190000D02*
X138305000Y-119020000D01*
%TO.N,*%
X138475000Y-103950000D02*
X138305000Y-103780000D01*
X138305000Y-103780000D02*
X133530000Y-103780000D01*
X133530000Y-103780000D02*
X104140200Y-74390200D01*
X104140200Y-74390200D02*
X104140200Y-68681800D01*
D17*
X157250000Y-91080000D02*
X157420000Y-91250000D01*
X160000000Y-91250000D02*
X160250000Y-91000000D01*
X157420000Y-91250000D02*
X160000000Y-91250000D01*
X160250000Y-91000000D02*
X160250000Y-77000000D01*
X160250000Y-77000000D02*
X160000000Y-76750000D01*
X160000000Y-76750000D02*
X136750000Y-76750000D01*
X109000000Y-69500000D02*
X106250000Y-66750000D01*
X136750000Y-76750000D02*
X136750000Y-69500000D01*
X136750000Y-69500000D02*
X109000000Y-69500000D01*
X106250000Y-66750000D02*
X85000000Y-66750000D01*
X85000000Y-66750000D02*
X82448600Y-69301400D01*
X82448600Y-69301400D02*
X82448600Y-111633200D01*
X82448600Y-111633200D02*
X82448600Y-117907000D01*
X82448600Y-117907000D02*
X95859800Y-131318200D01*
X97670000Y-140750000D02*
X97670000Y-133128400D01*
X97670000Y-133128400D02*
X95859800Y-131318200D01*
%TD*%
M02*
