%TF.GenerationSoftware,KiCad,Pcbnew,8.0.8*%
%TF.CreationDate,2025-03-20T00:36:27-04:00*%
%TF.ProjectId,EMP_Cyclone_SAO_v1,454d505f-4379-4636-9c6f-6e655f53414f,rev?*%
%TF.SameCoordinates,Original*%
%TF.FileFunction,Legend,Bot*%
%TF.FilePolarity,Positive*%
%FSLAX46Y46*%
G04 Gerber Fmt 4.6, Leading zero omitted, Abs format (unit mm)*
G04 Created by KiCad (PCBNEW 8.0.8) date 2025-03-20 00:36:27*
%MOMM*%
%LPD*%
G01*
G04 APERTURE LIST*
%ADD10C,0.150000*%
%ADD11C,0.700000*%
%ADD12C,2.000000*%
%ADD13C,1.524000*%
%ADD14C,1.800000*%
%ADD15R,1.727200X1.727200*%
%ADD16C,1.727200*%
%ADD17O,1.727200X1.727200*%
G04 APERTURE END LIST*
D10*
X101483333Y-136954819D02*
X101816666Y-136478628D01*
X102054761Y-136954819D02*
X102054761Y-135954819D01*
X102054761Y-135954819D02*
X101673809Y-135954819D01*
X101673809Y-135954819D02*
X101578571Y-136002438D01*
X101578571Y-136002438D02*
X101530952Y-136050057D01*
X101530952Y-136050057D02*
X101483333Y-136145295D01*
X101483333Y-136145295D02*
X101483333Y-136288152D01*
X101483333Y-136288152D02*
X101530952Y-136383390D01*
X101530952Y-136383390D02*
X101578571Y-136431009D01*
X101578571Y-136431009D02*
X101673809Y-136478628D01*
X101673809Y-136478628D02*
X102054761Y-136478628D01*
X101054761Y-136431009D02*
X100721428Y-136431009D01*
X100578571Y-136954819D02*
X101054761Y-136954819D01*
X101054761Y-136954819D02*
X101054761Y-135954819D01*
X101054761Y-135954819D02*
X100578571Y-135954819D01*
X99816666Y-136431009D02*
X100149999Y-136431009D01*
X100149999Y-136954819D02*
X100149999Y-135954819D01*
X100149999Y-135954819D02*
X99673809Y-135954819D01*
X99149999Y-135954819D02*
X99149999Y-136192914D01*
X99388094Y-136097676D02*
X99149999Y-136192914D01*
X99149999Y-136192914D02*
X98911904Y-136097676D01*
X99292856Y-136383390D02*
X99149999Y-136192914D01*
X99149999Y-136192914D02*
X99007142Y-136383390D01*
X98388094Y-135954819D02*
X98388094Y-136192914D01*
X98626189Y-136097676D02*
X98388094Y-136192914D01*
X98388094Y-136192914D02*
X98149999Y-136097676D01*
X98530951Y-136383390D02*
X98388094Y-136192914D01*
X98388094Y-136192914D02*
X98245237Y-136383390D01*
X101060713Y-139509450D02*
X100953571Y-139545164D01*
X100953571Y-139545164D02*
X100774999Y-139545164D01*
X100774999Y-139545164D02*
X100703571Y-139509450D01*
X100703571Y-139509450D02*
X100667856Y-139473735D01*
X100667856Y-139473735D02*
X100632142Y-139402307D01*
X100632142Y-139402307D02*
X100632142Y-139330878D01*
X100632142Y-139330878D02*
X100667856Y-139259450D01*
X100667856Y-139259450D02*
X100703571Y-139223735D01*
X100703571Y-139223735D02*
X100774999Y-139188021D01*
X100774999Y-139188021D02*
X100917856Y-139152307D01*
X100917856Y-139152307D02*
X100989285Y-139116592D01*
X100989285Y-139116592D02*
X101024999Y-139080878D01*
X101024999Y-139080878D02*
X101060713Y-139009450D01*
X101060713Y-139009450D02*
X101060713Y-138938021D01*
X101060713Y-138938021D02*
X101024999Y-138866592D01*
X101024999Y-138866592D02*
X100989285Y-138830878D01*
X100989285Y-138830878D02*
X100917856Y-138795164D01*
X100917856Y-138795164D02*
X100739285Y-138795164D01*
X100739285Y-138795164D02*
X100632142Y-138830878D01*
X100310713Y-139545164D02*
X100310713Y-138795164D01*
X100310713Y-138795164D02*
X100132142Y-138795164D01*
X100132142Y-138795164D02*
X100024999Y-138830878D01*
X100024999Y-138830878D02*
X99953570Y-138902307D01*
X99953570Y-138902307D02*
X99917856Y-138973735D01*
X99917856Y-138973735D02*
X99882142Y-139116592D01*
X99882142Y-139116592D02*
X99882142Y-139223735D01*
X99882142Y-139223735D02*
X99917856Y-139366592D01*
X99917856Y-139366592D02*
X99953570Y-139438021D01*
X99953570Y-139438021D02*
X100024999Y-139509450D01*
X100024999Y-139509450D02*
X100132142Y-139545164D01*
X100132142Y-139545164D02*
X100310713Y-139545164D01*
X99596427Y-139330878D02*
X99239285Y-139330878D01*
X99667856Y-139545164D02*
X99417856Y-138795164D01*
X99417856Y-138795164D02*
X99167856Y-139545164D01*
X104457142Y-144672878D02*
X104528571Y-144637164D01*
X104528571Y-144637164D02*
X104635713Y-144637164D01*
X104635713Y-144637164D02*
X104742856Y-144672878D01*
X104742856Y-144672878D02*
X104814285Y-144744307D01*
X104814285Y-144744307D02*
X104849999Y-144815735D01*
X104849999Y-144815735D02*
X104885713Y-144958592D01*
X104885713Y-144958592D02*
X104885713Y-145065735D01*
X104885713Y-145065735D02*
X104849999Y-145208592D01*
X104849999Y-145208592D02*
X104814285Y-145280021D01*
X104814285Y-145280021D02*
X104742856Y-145351450D01*
X104742856Y-145351450D02*
X104635713Y-145387164D01*
X104635713Y-145387164D02*
X104564285Y-145387164D01*
X104564285Y-145387164D02*
X104457142Y-145351450D01*
X104457142Y-145351450D02*
X104421428Y-145315735D01*
X104421428Y-145315735D02*
X104421428Y-145065735D01*
X104421428Y-145065735D02*
X104564285Y-145065735D01*
X104099999Y-145387164D02*
X104099999Y-144637164D01*
X104099999Y-144637164D02*
X103814285Y-144637164D01*
X103814285Y-144637164D02*
X103742856Y-144672878D01*
X103742856Y-144672878D02*
X103707142Y-144708592D01*
X103707142Y-144708592D02*
X103671428Y-144780021D01*
X103671428Y-144780021D02*
X103671428Y-144887164D01*
X103671428Y-144887164D02*
X103707142Y-144958592D01*
X103707142Y-144958592D02*
X103742856Y-144994307D01*
X103742856Y-144994307D02*
X103814285Y-145030021D01*
X103814285Y-145030021D02*
X104099999Y-145030021D01*
X103349999Y-145387164D02*
X103349999Y-144637164D01*
X102849999Y-144637164D02*
X102707142Y-144637164D01*
X102707142Y-144637164D02*
X102635713Y-144672878D01*
X102635713Y-144672878D02*
X102564285Y-144744307D01*
X102564285Y-144744307D02*
X102528570Y-144887164D01*
X102528570Y-144887164D02*
X102528570Y-145137164D01*
X102528570Y-145137164D02*
X102564285Y-145280021D01*
X102564285Y-145280021D02*
X102635713Y-145351450D01*
X102635713Y-145351450D02*
X102707142Y-145387164D01*
X102707142Y-145387164D02*
X102849999Y-145387164D01*
X102849999Y-145387164D02*
X102921428Y-145351450D01*
X102921428Y-145351450D02*
X102992856Y-145280021D01*
X102992856Y-145280021D02*
X103028570Y-145137164D01*
X103028570Y-145137164D02*
X103028570Y-144887164D01*
X103028570Y-144887164D02*
X102992856Y-144744307D01*
X102992856Y-144744307D02*
X102921428Y-144672878D01*
X102921428Y-144672878D02*
X102849999Y-144637164D01*
X102242856Y-144708592D02*
X102207142Y-144672878D01*
X102207142Y-144672878D02*
X102135714Y-144637164D01*
X102135714Y-144637164D02*
X101957142Y-144637164D01*
X101957142Y-144637164D02*
X101885714Y-144672878D01*
X101885714Y-144672878D02*
X101849999Y-144708592D01*
X101849999Y-144708592D02*
X101814285Y-144780021D01*
X101814285Y-144780021D02*
X101814285Y-144851450D01*
X101814285Y-144851450D02*
X101849999Y-144958592D01*
X101849999Y-144958592D02*
X102278571Y-145387164D01*
X102278571Y-145387164D02*
X101814285Y-145387164D01*
X101042856Y-145351450D02*
X100935714Y-145387164D01*
X100935714Y-145387164D02*
X100757142Y-145387164D01*
X100757142Y-145387164D02*
X100685714Y-145351450D01*
X100685714Y-145351450D02*
X100649999Y-145315735D01*
X100649999Y-145315735D02*
X100614285Y-145244307D01*
X100614285Y-145244307D02*
X100614285Y-145172878D01*
X100614285Y-145172878D02*
X100649999Y-145101450D01*
X100649999Y-145101450D02*
X100685714Y-145065735D01*
X100685714Y-145065735D02*
X100757142Y-145030021D01*
X100757142Y-145030021D02*
X100899999Y-144994307D01*
X100899999Y-144994307D02*
X100971428Y-144958592D01*
X100971428Y-144958592D02*
X101007142Y-144922878D01*
X101007142Y-144922878D02*
X101042856Y-144851450D01*
X101042856Y-144851450D02*
X101042856Y-144780021D01*
X101042856Y-144780021D02*
X101007142Y-144708592D01*
X101007142Y-144708592D02*
X100971428Y-144672878D01*
X100971428Y-144672878D02*
X100899999Y-144637164D01*
X100899999Y-144637164D02*
X100721428Y-144637164D01*
X100721428Y-144637164D02*
X100614285Y-144672878D01*
X99864285Y-145315735D02*
X99899999Y-145351450D01*
X99899999Y-145351450D02*
X100007142Y-145387164D01*
X100007142Y-145387164D02*
X100078570Y-145387164D01*
X100078570Y-145387164D02*
X100185713Y-145351450D01*
X100185713Y-145351450D02*
X100257142Y-145280021D01*
X100257142Y-145280021D02*
X100292856Y-145208592D01*
X100292856Y-145208592D02*
X100328570Y-145065735D01*
X100328570Y-145065735D02*
X100328570Y-144958592D01*
X100328570Y-144958592D02*
X100292856Y-144815735D01*
X100292856Y-144815735D02*
X100257142Y-144744307D01*
X100257142Y-144744307D02*
X100185713Y-144672878D01*
X100185713Y-144672878D02*
X100078570Y-144637164D01*
X100078570Y-144637164D02*
X100007142Y-144637164D01*
X100007142Y-144637164D02*
X99899999Y-144672878D01*
X99899999Y-144672878D02*
X99864285Y-144708592D01*
X99185713Y-145387164D02*
X99542856Y-145387164D01*
X99542856Y-145387164D02*
X99542856Y-144637164D01*
X104457142Y-138830878D02*
X104528571Y-138795164D01*
X104528571Y-138795164D02*
X104635713Y-138795164D01*
X104635713Y-138795164D02*
X104742856Y-138830878D01*
X104742856Y-138830878D02*
X104814285Y-138902307D01*
X104814285Y-138902307D02*
X104849999Y-138973735D01*
X104849999Y-138973735D02*
X104885713Y-139116592D01*
X104885713Y-139116592D02*
X104885713Y-139223735D01*
X104885713Y-139223735D02*
X104849999Y-139366592D01*
X104849999Y-139366592D02*
X104814285Y-139438021D01*
X104814285Y-139438021D02*
X104742856Y-139509450D01*
X104742856Y-139509450D02*
X104635713Y-139545164D01*
X104635713Y-139545164D02*
X104564285Y-139545164D01*
X104564285Y-139545164D02*
X104457142Y-139509450D01*
X104457142Y-139509450D02*
X104421428Y-139473735D01*
X104421428Y-139473735D02*
X104421428Y-139223735D01*
X104421428Y-139223735D02*
X104564285Y-139223735D01*
X104099999Y-139545164D02*
X104099999Y-138795164D01*
X104099999Y-138795164D02*
X103814285Y-138795164D01*
X103814285Y-138795164D02*
X103742856Y-138830878D01*
X103742856Y-138830878D02*
X103707142Y-138866592D01*
X103707142Y-138866592D02*
X103671428Y-138938021D01*
X103671428Y-138938021D02*
X103671428Y-139045164D01*
X103671428Y-139045164D02*
X103707142Y-139116592D01*
X103707142Y-139116592D02*
X103742856Y-139152307D01*
X103742856Y-139152307D02*
X103814285Y-139188021D01*
X103814285Y-139188021D02*
X104099999Y-139188021D01*
X103349999Y-139545164D02*
X103349999Y-138795164D01*
X102849999Y-138795164D02*
X102707142Y-138795164D01*
X102707142Y-138795164D02*
X102635713Y-138830878D01*
X102635713Y-138830878D02*
X102564285Y-138902307D01*
X102564285Y-138902307D02*
X102528570Y-139045164D01*
X102528570Y-139045164D02*
X102528570Y-139295164D01*
X102528570Y-139295164D02*
X102564285Y-139438021D01*
X102564285Y-139438021D02*
X102635713Y-139509450D01*
X102635713Y-139509450D02*
X102707142Y-139545164D01*
X102707142Y-139545164D02*
X102849999Y-139545164D01*
X102849999Y-139545164D02*
X102921428Y-139509450D01*
X102921428Y-139509450D02*
X102992856Y-139438021D01*
X102992856Y-139438021D02*
X103028570Y-139295164D01*
X103028570Y-139295164D02*
X103028570Y-139045164D01*
X103028570Y-139045164D02*
X102992856Y-138902307D01*
X102992856Y-138902307D02*
X102921428Y-138830878D01*
X102921428Y-138830878D02*
X102849999Y-138795164D01*
X101814285Y-139545164D02*
X102242856Y-139545164D01*
X102028571Y-139545164D02*
X102028571Y-138795164D01*
X102028571Y-138795164D02*
X102099999Y-138902307D01*
X102099999Y-138902307D02*
X102171428Y-138973735D01*
X102171428Y-138973735D02*
X102242856Y-139009450D01*
X98181428Y-144672878D02*
X98252857Y-144637164D01*
X98252857Y-144637164D02*
X98359999Y-144637164D01*
X98359999Y-144637164D02*
X98467142Y-144672878D01*
X98467142Y-144672878D02*
X98538571Y-144744307D01*
X98538571Y-144744307D02*
X98574285Y-144815735D01*
X98574285Y-144815735D02*
X98609999Y-144958592D01*
X98609999Y-144958592D02*
X98609999Y-145065735D01*
X98609999Y-145065735D02*
X98574285Y-145208592D01*
X98574285Y-145208592D02*
X98538571Y-145280021D01*
X98538571Y-145280021D02*
X98467142Y-145351450D01*
X98467142Y-145351450D02*
X98359999Y-145387164D01*
X98359999Y-145387164D02*
X98288571Y-145387164D01*
X98288571Y-145387164D02*
X98181428Y-145351450D01*
X98181428Y-145351450D02*
X98145714Y-145315735D01*
X98145714Y-145315735D02*
X98145714Y-145065735D01*
X98145714Y-145065735D02*
X98288571Y-145065735D01*
X97824285Y-145387164D02*
X97824285Y-144637164D01*
X97824285Y-144637164D02*
X97395714Y-145387164D01*
X97395714Y-145387164D02*
X97395714Y-144637164D01*
X97038571Y-145387164D02*
X97038571Y-144637164D01*
X97038571Y-144637164D02*
X96860000Y-144637164D01*
X96860000Y-144637164D02*
X96752857Y-144672878D01*
X96752857Y-144672878D02*
X96681428Y-144744307D01*
X96681428Y-144744307D02*
X96645714Y-144815735D01*
X96645714Y-144815735D02*
X96610000Y-144958592D01*
X96610000Y-144958592D02*
X96610000Y-145065735D01*
X96610000Y-145065735D02*
X96645714Y-145208592D01*
X96645714Y-145208592D02*
X96681428Y-145280021D01*
X96681428Y-145280021D02*
X96752857Y-145351450D01*
X96752857Y-145351450D02*
X96860000Y-145387164D01*
X96860000Y-145387164D02*
X97038571Y-145387164D01*
X98609999Y-138795164D02*
X98359999Y-139545164D01*
X98359999Y-139545164D02*
X98109999Y-138795164D01*
X97431428Y-139473735D02*
X97467142Y-139509450D01*
X97467142Y-139509450D02*
X97574285Y-139545164D01*
X97574285Y-139545164D02*
X97645713Y-139545164D01*
X97645713Y-139545164D02*
X97752856Y-139509450D01*
X97752856Y-139509450D02*
X97824285Y-139438021D01*
X97824285Y-139438021D02*
X97859999Y-139366592D01*
X97859999Y-139366592D02*
X97895713Y-139223735D01*
X97895713Y-139223735D02*
X97895713Y-139116592D01*
X97895713Y-139116592D02*
X97859999Y-138973735D01*
X97859999Y-138973735D02*
X97824285Y-138902307D01*
X97824285Y-138902307D02*
X97752856Y-138830878D01*
X97752856Y-138830878D02*
X97645713Y-138795164D01*
X97645713Y-138795164D02*
X97574285Y-138795164D01*
X97574285Y-138795164D02*
X97467142Y-138830878D01*
X97467142Y-138830878D02*
X97431428Y-138866592D01*
X96681428Y-139473735D02*
X96717142Y-139509450D01*
X96717142Y-139509450D02*
X96824285Y-139545164D01*
X96824285Y-139545164D02*
X96895713Y-139545164D01*
X96895713Y-139545164D02*
X97002856Y-139509450D01*
X97002856Y-139509450D02*
X97074285Y-139438021D01*
X97074285Y-139438021D02*
X97109999Y-139366592D01*
X97109999Y-139366592D02*
X97145713Y-139223735D01*
X97145713Y-139223735D02*
X97145713Y-139116592D01*
X97145713Y-139116592D02*
X97109999Y-138973735D01*
X97109999Y-138973735D02*
X97074285Y-138902307D01*
X97074285Y-138902307D02*
X97002856Y-138830878D01*
X97002856Y-138830878D02*
X96895713Y-138795164D01*
X96895713Y-138795164D02*
X96824285Y-138795164D01*
X96824285Y-138795164D02*
X96717142Y-138830878D01*
X96717142Y-138830878D02*
X96681428Y-138866592D01*
D11*
%TO.C,REF\u002A\u002A*%
X92784000Y-137936000D02*
X92784000Y-146318000D01*
X92784000Y-146318000D02*
X107516000Y-146318000D01*
X97610000Y-137936000D02*
X92784000Y-137936000D01*
X107429640Y-137885200D02*
X102690000Y-137885200D01*
X107516000Y-146318000D02*
X107516000Y-137936000D01*
%TD*%
%LPC*%
D12*
%TO.C,SW3*%
X86750000Y-143250000D03*
X80250000Y-143250000D03*
X86750000Y-138750000D03*
X80250000Y-138750000D03*
%TD*%
%TO.C,SW1*%
X126750000Y-72500000D03*
X133250000Y-72500000D03*
X126750000Y-77000000D03*
X133250000Y-77000000D03*
%TD*%
D13*
%TO.C,U2*%
X104140200Y-68681800D03*
X87935000Y-70790000D03*
X95859800Y-131318200D03*
X112090400Y-129184600D03*
%TD*%
%TO.C,U1*%
X88366800Y-82448600D03*
X104114800Y-79349800D03*
X82448600Y-111633200D03*
X111684000Y-117526000D03*
%TD*%
D14*
%TO.C,A1*%
X140380000Y-121730000D03*
X155620000Y-81090000D03*
X155620000Y-121730000D03*
X140380000Y-81090000D03*
%TD*%
D15*
%TO.C,REF\u002A\u002A*%
X97670000Y-140750000D03*
D16*
X97670000Y-143290000D03*
D17*
X100210000Y-140750000D03*
X100210000Y-143290000D03*
D16*
X102750000Y-140750000D03*
X102750000Y-143290000D03*
%TD*%
D12*
%TO.C,SW2*%
X112750000Y-138250000D03*
X119250000Y-138250000D03*
X112750000Y-142750000D03*
X119250000Y-142750000D03*
%TD*%
%LPD*%
M02*
