M48
; DRILL file {KiCad 8.0.8} date 2025-03-20T22:04:09-0400
; FORMAT={-:-/ absolute / inch / decimal}
; #@! TF.CreationDate,2025-03-20T22:04:09-04:00
; #@! TF.GenerationSoftware,Kicad,Pcbnew,8.0.8
; #@! TF.FileFunction,Plated,1,2,PTH
FMAT,2
INCH
; #@! TA.AperFunction,Plated,PTH,ComponentDrill
T1C0.0300
; #@! TA.AperFunction,Plated,PTH,ComponentDrill
T2C0.0400
; #@! TA.AperFunction,Plated,PTH,ComponentDrill
T3C0.0433
%
G90
G05
T1
X3.246Y-4.395
X3.462Y-2.787
X3.479Y-3.246
X3.774Y-5.17
X4.099Y-3.124
X4.1Y-2.704
X4.397Y-4.627
X4.413Y-5.086
T2
X3.8453Y-5.5413
X3.8453Y-5.6413
X3.9453Y-5.5413
X3.9453Y-5.6413
X4.0453Y-5.5413
X4.0453Y-5.6413
T3
X3.1594Y-5.4429
X3.1594Y-5.6201
X3.4154Y-5.4429
X3.4154Y-5.6201
X4.439Y-5.4429
X4.439Y-5.6201
X4.6949Y-5.4429
X4.6949Y-5.6201
X4.9902Y-2.8543
X4.9902Y-3.0315
X5.2461Y-2.8543
X5.2461Y-3.0315
M30
