%TF.GenerationSoftware,KiCad,Pcbnew,8.0.8*%
%TF.CreationDate,2025-03-20T00:36:33-04:00*%
%TF.ProjectId,EMP_Cyclone_SAO_v1,454d505f-4379-4636-9c6f-6e655f53414f,rev?*%
%TF.SameCoordinates,Original*%
%TF.FileFunction,Drillmap*%
%TF.FilePolarity,Positive*%
%FSLAX45Y45*%
G04 Gerber Fmt 4.5, Leading zero omitted, Abs format (unit mm)*
G04 Created by KiCad (PCBNEW 8.0.8) date 2025-03-20 00:36:33*
%MOMM*%
%LPD*%
G01*
G04 APERTURE LIST*
%ADD10C,0.200000*%
%ADD11C,0.180000*%
G04 APERTURE END LIST*
D10*
X6400000Y-11525000D02*
G75*
G02*
X10708155Y-6313907I3508155J1486093D01*
G01*
X7525000Y-14825000D02*
X6400000Y-11525000D01*
X16200000Y-12700000D02*
X16200000Y-7300000D01*
X13500000Y-12700000D02*
X16200000Y-12700000D01*
X12475000Y-14825000D02*
X13499982Y-12699992D01*
X7525000Y-14825000D02*
X12475000Y-14825000D01*
X16200000Y-7300000D02*
X10708155Y-6313907D01*
D11*
X13948000Y-8019000D02*
X14128000Y-8199000D01*
X14128000Y-8019000D02*
X13948000Y-8199000D01*
X13948000Y-12083000D02*
X14128000Y-12263000D01*
X14128000Y-12083000D02*
X13948000Y-12263000D01*
X15472000Y-8019000D02*
X15652000Y-8199000D01*
X15652000Y-8019000D02*
X15472000Y-8199000D01*
X15472000Y-12083000D02*
X15652000Y-12263000D01*
X15652000Y-12083000D02*
X15472000Y-12263000D01*
D10*
X6348994Y-15146484D02*
X6348994Y-14946484D01*
X6348994Y-14946484D02*
X6396613Y-14946484D01*
X6396613Y-14946484D02*
X6425185Y-14956008D01*
X6425185Y-14956008D02*
X6444232Y-14975055D01*
X6444232Y-14975055D02*
X6453756Y-14994103D01*
X6453756Y-14994103D02*
X6463280Y-15032198D01*
X6463280Y-15032198D02*
X6463280Y-15060769D01*
X6463280Y-15060769D02*
X6453756Y-15098865D01*
X6453756Y-15098865D02*
X6444232Y-15117912D01*
X6444232Y-15117912D02*
X6425185Y-15136960D01*
X6425185Y-15136960D02*
X6396613Y-15146484D01*
X6396613Y-15146484D02*
X6348994Y-15146484D01*
X6548994Y-15146484D02*
X6548994Y-15013150D01*
X6548994Y-15051246D02*
X6558518Y-15032198D01*
X6558518Y-15032198D02*
X6568042Y-15022674D01*
X6568042Y-15022674D02*
X6587089Y-15013150D01*
X6587089Y-15013150D02*
X6606137Y-15013150D01*
X6672804Y-15146484D02*
X6672804Y-15013150D01*
X6672804Y-14946484D02*
X6663280Y-14956008D01*
X6663280Y-14956008D02*
X6672804Y-14965531D01*
X6672804Y-14965531D02*
X6682327Y-14956008D01*
X6682327Y-14956008D02*
X6672804Y-14946484D01*
X6672804Y-14946484D02*
X6672804Y-14965531D01*
X6796613Y-15146484D02*
X6777565Y-15136960D01*
X6777565Y-15136960D02*
X6768042Y-15117912D01*
X6768042Y-15117912D02*
X6768042Y-14946484D01*
X6901375Y-15146484D02*
X6882327Y-15136960D01*
X6882327Y-15136960D02*
X6872804Y-15117912D01*
X6872804Y-15117912D02*
X6872804Y-14946484D01*
X7129946Y-15146484D02*
X7129946Y-14946484D01*
X7129946Y-14946484D02*
X7196613Y-15089341D01*
X7196613Y-15089341D02*
X7263280Y-14946484D01*
X7263280Y-14946484D02*
X7263280Y-15146484D01*
X7444232Y-15146484D02*
X7444232Y-15041722D01*
X7444232Y-15041722D02*
X7434708Y-15022674D01*
X7434708Y-15022674D02*
X7415661Y-15013150D01*
X7415661Y-15013150D02*
X7377565Y-15013150D01*
X7377565Y-15013150D02*
X7358518Y-15022674D01*
X7444232Y-15136960D02*
X7425185Y-15146484D01*
X7425185Y-15146484D02*
X7377565Y-15146484D01*
X7377565Y-15146484D02*
X7358518Y-15136960D01*
X7358518Y-15136960D02*
X7348994Y-15117912D01*
X7348994Y-15117912D02*
X7348994Y-15098865D01*
X7348994Y-15098865D02*
X7358518Y-15079817D01*
X7358518Y-15079817D02*
X7377565Y-15070293D01*
X7377565Y-15070293D02*
X7425185Y-15070293D01*
X7425185Y-15070293D02*
X7444232Y-15060769D01*
X7539470Y-15013150D02*
X7539470Y-15213150D01*
X7539470Y-15022674D02*
X7558518Y-15013150D01*
X7558518Y-15013150D02*
X7596613Y-15013150D01*
X7596613Y-15013150D02*
X7615661Y-15022674D01*
X7615661Y-15022674D02*
X7625185Y-15032198D01*
X7625185Y-15032198D02*
X7634708Y-15051246D01*
X7634708Y-15051246D02*
X7634708Y-15108388D01*
X7634708Y-15108388D02*
X7625185Y-15127436D01*
X7625185Y-15127436D02*
X7615661Y-15136960D01*
X7615661Y-15136960D02*
X7596613Y-15146484D01*
X7596613Y-15146484D02*
X7558518Y-15146484D01*
X7558518Y-15146484D02*
X7539470Y-15136960D01*
X7720423Y-15127436D02*
X7729946Y-15136960D01*
X7729946Y-15136960D02*
X7720423Y-15146484D01*
X7720423Y-15146484D02*
X7710899Y-15136960D01*
X7710899Y-15136960D02*
X7720423Y-15127436D01*
X7720423Y-15127436D02*
X7720423Y-15146484D01*
X7720423Y-15022674D02*
X7729946Y-15032198D01*
X7729946Y-15032198D02*
X7720423Y-15041722D01*
X7720423Y-15041722D02*
X7710899Y-15032198D01*
X7710899Y-15032198D02*
X7720423Y-15022674D01*
X7720423Y-15022674D02*
X7720423Y-15041722D01*
D11*
X5908217Y-15385000D02*
X6088217Y-15565000D01*
X6088217Y-15385000D02*
X5908217Y-15565000D01*
D10*
X6453756Y-15566484D02*
X6339470Y-15566484D01*
X6396613Y-15566484D02*
X6396613Y-15366484D01*
X6396613Y-15366484D02*
X6377565Y-15395055D01*
X6377565Y-15395055D02*
X6358518Y-15414103D01*
X6358518Y-15414103D02*
X6339470Y-15423627D01*
X6539470Y-15547436D02*
X6548994Y-15556960D01*
X6548994Y-15556960D02*
X6539470Y-15566484D01*
X6539470Y-15566484D02*
X6529946Y-15556960D01*
X6529946Y-15556960D02*
X6539470Y-15547436D01*
X6539470Y-15547436D02*
X6539470Y-15566484D01*
X6663280Y-15452198D02*
X6644232Y-15442674D01*
X6644232Y-15442674D02*
X6634708Y-15433150D01*
X6634708Y-15433150D02*
X6625185Y-15414103D01*
X6625185Y-15414103D02*
X6625185Y-15404579D01*
X6625185Y-15404579D02*
X6634708Y-15385531D01*
X6634708Y-15385531D02*
X6644232Y-15376008D01*
X6644232Y-15376008D02*
X6663280Y-15366484D01*
X6663280Y-15366484D02*
X6701375Y-15366484D01*
X6701375Y-15366484D02*
X6720423Y-15376008D01*
X6720423Y-15376008D02*
X6729946Y-15385531D01*
X6729946Y-15385531D02*
X6739470Y-15404579D01*
X6739470Y-15404579D02*
X6739470Y-15414103D01*
X6739470Y-15414103D02*
X6729946Y-15433150D01*
X6729946Y-15433150D02*
X6720423Y-15442674D01*
X6720423Y-15442674D02*
X6701375Y-15452198D01*
X6701375Y-15452198D02*
X6663280Y-15452198D01*
X6663280Y-15452198D02*
X6644232Y-15461722D01*
X6644232Y-15461722D02*
X6634708Y-15471246D01*
X6634708Y-15471246D02*
X6625185Y-15490293D01*
X6625185Y-15490293D02*
X6625185Y-15528388D01*
X6625185Y-15528388D02*
X6634708Y-15547436D01*
X6634708Y-15547436D02*
X6644232Y-15556960D01*
X6644232Y-15556960D02*
X6663280Y-15566484D01*
X6663280Y-15566484D02*
X6701375Y-15566484D01*
X6701375Y-15566484D02*
X6720423Y-15556960D01*
X6720423Y-15556960D02*
X6729946Y-15547436D01*
X6729946Y-15547436D02*
X6739470Y-15528388D01*
X6739470Y-15528388D02*
X6739470Y-15490293D01*
X6739470Y-15490293D02*
X6729946Y-15471246D01*
X6729946Y-15471246D02*
X6720423Y-15461722D01*
X6720423Y-15461722D02*
X6701375Y-15452198D01*
X6863280Y-15366484D02*
X6882327Y-15366484D01*
X6882327Y-15366484D02*
X6901375Y-15376008D01*
X6901375Y-15376008D02*
X6910899Y-15385531D01*
X6910899Y-15385531D02*
X6920423Y-15404579D01*
X6920423Y-15404579D02*
X6929946Y-15442674D01*
X6929946Y-15442674D02*
X6929946Y-15490293D01*
X6929946Y-15490293D02*
X6920423Y-15528388D01*
X6920423Y-15528388D02*
X6910899Y-15547436D01*
X6910899Y-15547436D02*
X6901375Y-15556960D01*
X6901375Y-15556960D02*
X6882327Y-15566484D01*
X6882327Y-15566484D02*
X6863280Y-15566484D01*
X6863280Y-15566484D02*
X6844232Y-15556960D01*
X6844232Y-15556960D02*
X6834708Y-15547436D01*
X6834708Y-15547436D02*
X6825185Y-15528388D01*
X6825185Y-15528388D02*
X6815661Y-15490293D01*
X6815661Y-15490293D02*
X6815661Y-15442674D01*
X6815661Y-15442674D02*
X6825185Y-15404579D01*
X6825185Y-15404579D02*
X6834708Y-15385531D01*
X6834708Y-15385531D02*
X6844232Y-15376008D01*
X6844232Y-15376008D02*
X6863280Y-15366484D01*
X7053756Y-15366484D02*
X7072804Y-15366484D01*
X7072804Y-15366484D02*
X7091851Y-15376008D01*
X7091851Y-15376008D02*
X7101375Y-15385531D01*
X7101375Y-15385531D02*
X7110899Y-15404579D01*
X7110899Y-15404579D02*
X7120423Y-15442674D01*
X7120423Y-15442674D02*
X7120423Y-15490293D01*
X7120423Y-15490293D02*
X7110899Y-15528388D01*
X7110899Y-15528388D02*
X7101375Y-15547436D01*
X7101375Y-15547436D02*
X7091851Y-15556960D01*
X7091851Y-15556960D02*
X7072804Y-15566484D01*
X7072804Y-15566484D02*
X7053756Y-15566484D01*
X7053756Y-15566484D02*
X7034708Y-15556960D01*
X7034708Y-15556960D02*
X7025185Y-15547436D01*
X7025185Y-15547436D02*
X7015661Y-15528388D01*
X7015661Y-15528388D02*
X7006137Y-15490293D01*
X7006137Y-15490293D02*
X7006137Y-15442674D01*
X7006137Y-15442674D02*
X7015661Y-15404579D01*
X7015661Y-15404579D02*
X7025185Y-15385531D01*
X7025185Y-15385531D02*
X7034708Y-15376008D01*
X7034708Y-15376008D02*
X7053756Y-15366484D01*
X7206137Y-15566484D02*
X7206137Y-15433150D01*
X7206137Y-15452198D02*
X7215661Y-15442674D01*
X7215661Y-15442674D02*
X7234708Y-15433150D01*
X7234708Y-15433150D02*
X7263280Y-15433150D01*
X7263280Y-15433150D02*
X7282327Y-15442674D01*
X7282327Y-15442674D02*
X7291851Y-15461722D01*
X7291851Y-15461722D02*
X7291851Y-15566484D01*
X7291851Y-15461722D02*
X7301375Y-15442674D01*
X7301375Y-15442674D02*
X7320423Y-15433150D01*
X7320423Y-15433150D02*
X7348994Y-15433150D01*
X7348994Y-15433150D02*
X7368042Y-15442674D01*
X7368042Y-15442674D02*
X7377566Y-15461722D01*
X7377566Y-15461722D02*
X7377566Y-15566484D01*
X7472804Y-15566484D02*
X7472804Y-15433150D01*
X7472804Y-15452198D02*
X7482327Y-15442674D01*
X7482327Y-15442674D02*
X7501375Y-15433150D01*
X7501375Y-15433150D02*
X7529947Y-15433150D01*
X7529947Y-15433150D02*
X7548994Y-15442674D01*
X7548994Y-15442674D02*
X7558518Y-15461722D01*
X7558518Y-15461722D02*
X7558518Y-15566484D01*
X7558518Y-15461722D02*
X7568042Y-15442674D01*
X7568042Y-15442674D02*
X7587089Y-15433150D01*
X7587089Y-15433150D02*
X7615661Y-15433150D01*
X7615661Y-15433150D02*
X7634708Y-15442674D01*
X7634708Y-15442674D02*
X7644232Y-15461722D01*
X7644232Y-15461722D02*
X7644232Y-15566484D01*
X8034708Y-15356960D02*
X7863280Y-15614103D01*
X8291851Y-15366484D02*
X8310899Y-15366484D01*
X8310899Y-15366484D02*
X8329947Y-15376008D01*
X8329947Y-15376008D02*
X8339470Y-15385531D01*
X8339470Y-15385531D02*
X8348994Y-15404579D01*
X8348994Y-15404579D02*
X8358518Y-15442674D01*
X8358518Y-15442674D02*
X8358518Y-15490293D01*
X8358518Y-15490293D02*
X8348994Y-15528388D01*
X8348994Y-15528388D02*
X8339470Y-15547436D01*
X8339470Y-15547436D02*
X8329947Y-15556960D01*
X8329947Y-15556960D02*
X8310899Y-15566484D01*
X8310899Y-15566484D02*
X8291851Y-15566484D01*
X8291851Y-15566484D02*
X8272804Y-15556960D01*
X8272804Y-15556960D02*
X8263280Y-15547436D01*
X8263280Y-15547436D02*
X8253756Y-15528388D01*
X8253756Y-15528388D02*
X8244232Y-15490293D01*
X8244232Y-15490293D02*
X8244232Y-15442674D01*
X8244232Y-15442674D02*
X8253756Y-15404579D01*
X8253756Y-15404579D02*
X8263280Y-15385531D01*
X8263280Y-15385531D02*
X8272804Y-15376008D01*
X8272804Y-15376008D02*
X8291851Y-15366484D01*
X8444232Y-15547436D02*
X8453756Y-15556960D01*
X8453756Y-15556960D02*
X8444232Y-15566484D01*
X8444232Y-15566484D02*
X8434709Y-15556960D01*
X8434709Y-15556960D02*
X8444232Y-15547436D01*
X8444232Y-15547436D02*
X8444232Y-15566484D01*
X8577566Y-15366484D02*
X8596613Y-15366484D01*
X8596613Y-15366484D02*
X8615661Y-15376008D01*
X8615661Y-15376008D02*
X8625185Y-15385531D01*
X8625185Y-15385531D02*
X8634709Y-15404579D01*
X8634709Y-15404579D02*
X8644232Y-15442674D01*
X8644232Y-15442674D02*
X8644232Y-15490293D01*
X8644232Y-15490293D02*
X8634709Y-15528388D01*
X8634709Y-15528388D02*
X8625185Y-15547436D01*
X8625185Y-15547436D02*
X8615661Y-15556960D01*
X8615661Y-15556960D02*
X8596613Y-15566484D01*
X8596613Y-15566484D02*
X8577566Y-15566484D01*
X8577566Y-15566484D02*
X8558518Y-15556960D01*
X8558518Y-15556960D02*
X8548994Y-15547436D01*
X8548994Y-15547436D02*
X8539471Y-15528388D01*
X8539471Y-15528388D02*
X8529947Y-15490293D01*
X8529947Y-15490293D02*
X8529947Y-15442674D01*
X8529947Y-15442674D02*
X8539471Y-15404579D01*
X8539471Y-15404579D02*
X8548994Y-15385531D01*
X8548994Y-15385531D02*
X8558518Y-15376008D01*
X8558518Y-15376008D02*
X8577566Y-15366484D01*
X8710899Y-15366484D02*
X8844232Y-15366484D01*
X8844232Y-15366484D02*
X8758518Y-15566484D01*
X8958518Y-15366484D02*
X8977566Y-15366484D01*
X8977566Y-15366484D02*
X8996613Y-15376008D01*
X8996613Y-15376008D02*
X9006137Y-15385531D01*
X9006137Y-15385531D02*
X9015661Y-15404579D01*
X9015661Y-15404579D02*
X9025185Y-15442674D01*
X9025185Y-15442674D02*
X9025185Y-15490293D01*
X9025185Y-15490293D02*
X9015661Y-15528388D01*
X9015661Y-15528388D02*
X9006137Y-15547436D01*
X9006137Y-15547436D02*
X8996613Y-15556960D01*
X8996613Y-15556960D02*
X8977566Y-15566484D01*
X8977566Y-15566484D02*
X8958518Y-15566484D01*
X8958518Y-15566484D02*
X8939471Y-15556960D01*
X8939471Y-15556960D02*
X8929947Y-15547436D01*
X8929947Y-15547436D02*
X8920423Y-15528388D01*
X8920423Y-15528388D02*
X8910899Y-15490293D01*
X8910899Y-15490293D02*
X8910899Y-15442674D01*
X8910899Y-15442674D02*
X8920423Y-15404579D01*
X8920423Y-15404579D02*
X8929947Y-15385531D01*
X8929947Y-15385531D02*
X8939471Y-15376008D01*
X8939471Y-15376008D02*
X8958518Y-15366484D01*
X9120423Y-15566484D02*
X9158518Y-15566484D01*
X9158518Y-15566484D02*
X9177566Y-15556960D01*
X9177566Y-15556960D02*
X9187090Y-15547436D01*
X9187090Y-15547436D02*
X9206137Y-15518865D01*
X9206137Y-15518865D02*
X9215661Y-15480769D01*
X9215661Y-15480769D02*
X9215661Y-15404579D01*
X9215661Y-15404579D02*
X9206137Y-15385531D01*
X9206137Y-15385531D02*
X9196613Y-15376008D01*
X9196613Y-15376008D02*
X9177566Y-15366484D01*
X9177566Y-15366484D02*
X9139471Y-15366484D01*
X9139471Y-15366484D02*
X9120423Y-15376008D01*
X9120423Y-15376008D02*
X9110899Y-15385531D01*
X9110899Y-15385531D02*
X9101375Y-15404579D01*
X9101375Y-15404579D02*
X9101375Y-15452198D01*
X9101375Y-15452198D02*
X9110899Y-15471246D01*
X9110899Y-15471246D02*
X9120423Y-15480769D01*
X9120423Y-15480769D02*
X9139471Y-15490293D01*
X9139471Y-15490293D02*
X9177566Y-15490293D01*
X9177566Y-15490293D02*
X9196613Y-15480769D01*
X9196613Y-15480769D02*
X9206137Y-15471246D01*
X9206137Y-15471246D02*
X9215661Y-15452198D01*
X9291852Y-15366484D02*
X9291852Y-15404579D01*
X9368042Y-15366484D02*
X9368042Y-15404579D01*
X9663280Y-15642674D02*
X9653756Y-15633150D01*
X9653756Y-15633150D02*
X9634709Y-15604579D01*
X9634709Y-15604579D02*
X9625185Y-15585531D01*
X9625185Y-15585531D02*
X9615661Y-15556960D01*
X9615661Y-15556960D02*
X9606137Y-15509341D01*
X9606137Y-15509341D02*
X9606137Y-15471246D01*
X9606137Y-15471246D02*
X9615661Y-15423627D01*
X9615661Y-15423627D02*
X9625185Y-15395055D01*
X9625185Y-15395055D02*
X9634709Y-15376008D01*
X9634709Y-15376008D02*
X9653756Y-15347436D01*
X9653756Y-15347436D02*
X9663280Y-15337912D01*
X9825185Y-15433150D02*
X9825185Y-15566484D01*
X9777566Y-15356960D02*
X9729947Y-15499817D01*
X9729947Y-15499817D02*
X9853756Y-15499817D01*
X10082328Y-15566484D02*
X10082328Y-15366484D01*
X10168042Y-15566484D02*
X10168042Y-15461722D01*
X10168042Y-15461722D02*
X10158518Y-15442674D01*
X10158518Y-15442674D02*
X10139471Y-15433150D01*
X10139471Y-15433150D02*
X10110899Y-15433150D01*
X10110899Y-15433150D02*
X10091852Y-15442674D01*
X10091852Y-15442674D02*
X10082328Y-15452198D01*
X10291852Y-15566484D02*
X10272804Y-15556960D01*
X10272804Y-15556960D02*
X10263280Y-15547436D01*
X10263280Y-15547436D02*
X10253756Y-15528388D01*
X10253756Y-15528388D02*
X10253756Y-15471246D01*
X10253756Y-15471246D02*
X10263280Y-15452198D01*
X10263280Y-15452198D02*
X10272804Y-15442674D01*
X10272804Y-15442674D02*
X10291852Y-15433150D01*
X10291852Y-15433150D02*
X10320423Y-15433150D01*
X10320423Y-15433150D02*
X10339471Y-15442674D01*
X10339471Y-15442674D02*
X10348995Y-15452198D01*
X10348995Y-15452198D02*
X10358518Y-15471246D01*
X10358518Y-15471246D02*
X10358518Y-15528388D01*
X10358518Y-15528388D02*
X10348995Y-15547436D01*
X10348995Y-15547436D02*
X10339471Y-15556960D01*
X10339471Y-15556960D02*
X10320423Y-15566484D01*
X10320423Y-15566484D02*
X10291852Y-15566484D01*
X10472804Y-15566484D02*
X10453756Y-15556960D01*
X10453756Y-15556960D02*
X10444233Y-15537912D01*
X10444233Y-15537912D02*
X10444233Y-15366484D01*
X10625185Y-15556960D02*
X10606137Y-15566484D01*
X10606137Y-15566484D02*
X10568042Y-15566484D01*
X10568042Y-15566484D02*
X10548995Y-15556960D01*
X10548995Y-15556960D02*
X10539471Y-15537912D01*
X10539471Y-15537912D02*
X10539471Y-15461722D01*
X10539471Y-15461722D02*
X10548995Y-15442674D01*
X10548995Y-15442674D02*
X10568042Y-15433150D01*
X10568042Y-15433150D02*
X10606137Y-15433150D01*
X10606137Y-15433150D02*
X10625185Y-15442674D01*
X10625185Y-15442674D02*
X10634709Y-15461722D01*
X10634709Y-15461722D02*
X10634709Y-15480769D01*
X10634709Y-15480769D02*
X10539471Y-15499817D01*
X10710899Y-15556960D02*
X10729947Y-15566484D01*
X10729947Y-15566484D02*
X10768042Y-15566484D01*
X10768042Y-15566484D02*
X10787090Y-15556960D01*
X10787090Y-15556960D02*
X10796614Y-15537912D01*
X10796614Y-15537912D02*
X10796614Y-15528388D01*
X10796614Y-15528388D02*
X10787090Y-15509341D01*
X10787090Y-15509341D02*
X10768042Y-15499817D01*
X10768042Y-15499817D02*
X10739471Y-15499817D01*
X10739471Y-15499817D02*
X10720423Y-15490293D01*
X10720423Y-15490293D02*
X10710899Y-15471246D01*
X10710899Y-15471246D02*
X10710899Y-15461722D01*
X10710899Y-15461722D02*
X10720423Y-15442674D01*
X10720423Y-15442674D02*
X10739471Y-15433150D01*
X10739471Y-15433150D02*
X10768042Y-15433150D01*
X10768042Y-15433150D02*
X10787090Y-15442674D01*
X10863280Y-15642674D02*
X10872804Y-15633150D01*
X10872804Y-15633150D02*
X10891852Y-15604579D01*
X10891852Y-15604579D02*
X10901376Y-15585531D01*
X10901376Y-15585531D02*
X10910899Y-15556960D01*
X10910899Y-15556960D02*
X10920423Y-15509341D01*
X10920423Y-15509341D02*
X10920423Y-15471246D01*
X10920423Y-15471246D02*
X10910899Y-15423627D01*
X10910899Y-15423627D02*
X10901376Y-15395055D01*
X10901376Y-15395055D02*
X10891852Y-15376008D01*
X10891852Y-15376008D02*
X10872804Y-15347436D01*
X10872804Y-15347436D02*
X10863280Y-15337912D01*
X11225185Y-15642674D02*
X11215661Y-15633150D01*
X11215661Y-15633150D02*
X11196614Y-15604579D01*
X11196614Y-15604579D02*
X11187090Y-15585531D01*
X11187090Y-15585531D02*
X11177566Y-15556960D01*
X11177566Y-15556960D02*
X11168042Y-15509341D01*
X11168042Y-15509341D02*
X11168042Y-15471246D01*
X11168042Y-15471246D02*
X11177566Y-15423627D01*
X11177566Y-15423627D02*
X11187090Y-15395055D01*
X11187090Y-15395055D02*
X11196614Y-15376008D01*
X11196614Y-15376008D02*
X11215661Y-15347436D01*
X11215661Y-15347436D02*
X11225185Y-15337912D01*
X11301375Y-15433150D02*
X11301375Y-15566484D01*
X11301375Y-15452198D02*
X11310899Y-15442674D01*
X11310899Y-15442674D02*
X11329947Y-15433150D01*
X11329947Y-15433150D02*
X11358518Y-15433150D01*
X11358518Y-15433150D02*
X11377566Y-15442674D01*
X11377566Y-15442674D02*
X11387090Y-15461722D01*
X11387090Y-15461722D02*
X11387090Y-15566484D01*
X11510899Y-15566484D02*
X11491852Y-15556960D01*
X11491852Y-15556960D02*
X11482328Y-15547436D01*
X11482328Y-15547436D02*
X11472804Y-15528388D01*
X11472804Y-15528388D02*
X11472804Y-15471246D01*
X11472804Y-15471246D02*
X11482328Y-15452198D01*
X11482328Y-15452198D02*
X11491852Y-15442674D01*
X11491852Y-15442674D02*
X11510899Y-15433150D01*
X11510899Y-15433150D02*
X11539471Y-15433150D01*
X11539471Y-15433150D02*
X11558518Y-15442674D01*
X11558518Y-15442674D02*
X11568042Y-15452198D01*
X11568042Y-15452198D02*
X11577566Y-15471246D01*
X11577566Y-15471246D02*
X11577566Y-15528388D01*
X11577566Y-15528388D02*
X11568042Y-15547436D01*
X11568042Y-15547436D02*
X11558518Y-15556960D01*
X11558518Y-15556960D02*
X11539471Y-15566484D01*
X11539471Y-15566484D02*
X11510899Y-15566484D01*
X11634709Y-15433150D02*
X11710899Y-15433150D01*
X11663280Y-15366484D02*
X11663280Y-15537912D01*
X11663280Y-15537912D02*
X11672804Y-15556960D01*
X11672804Y-15556960D02*
X11691852Y-15566484D01*
X11691852Y-15566484D02*
X11710899Y-15566484D01*
X11929947Y-15433150D02*
X11929947Y-15633150D01*
X11929947Y-15442674D02*
X11948995Y-15433150D01*
X11948995Y-15433150D02*
X11987090Y-15433150D01*
X11987090Y-15433150D02*
X12006137Y-15442674D01*
X12006137Y-15442674D02*
X12015661Y-15452198D01*
X12015661Y-15452198D02*
X12025185Y-15471246D01*
X12025185Y-15471246D02*
X12025185Y-15528388D01*
X12025185Y-15528388D02*
X12015661Y-15547436D01*
X12015661Y-15547436D02*
X12006137Y-15556960D01*
X12006137Y-15556960D02*
X11987090Y-15566484D01*
X11987090Y-15566484D02*
X11948995Y-15566484D01*
X11948995Y-15566484D02*
X11929947Y-15556960D01*
X12139471Y-15566484D02*
X12120423Y-15556960D01*
X12120423Y-15556960D02*
X12110899Y-15537912D01*
X12110899Y-15537912D02*
X12110899Y-15366484D01*
X12301376Y-15566484D02*
X12301376Y-15461722D01*
X12301376Y-15461722D02*
X12291852Y-15442674D01*
X12291852Y-15442674D02*
X12272804Y-15433150D01*
X12272804Y-15433150D02*
X12234709Y-15433150D01*
X12234709Y-15433150D02*
X12215661Y-15442674D01*
X12301376Y-15556960D02*
X12282328Y-15566484D01*
X12282328Y-15566484D02*
X12234709Y-15566484D01*
X12234709Y-15566484D02*
X12215661Y-15556960D01*
X12215661Y-15556960D02*
X12206137Y-15537912D01*
X12206137Y-15537912D02*
X12206137Y-15518865D01*
X12206137Y-15518865D02*
X12215661Y-15499817D01*
X12215661Y-15499817D02*
X12234709Y-15490293D01*
X12234709Y-15490293D02*
X12282328Y-15490293D01*
X12282328Y-15490293D02*
X12301376Y-15480769D01*
X12368042Y-15433150D02*
X12444233Y-15433150D01*
X12396614Y-15366484D02*
X12396614Y-15537912D01*
X12396614Y-15537912D02*
X12406137Y-15556960D01*
X12406137Y-15556960D02*
X12425185Y-15566484D01*
X12425185Y-15566484D02*
X12444233Y-15566484D01*
X12587090Y-15556960D02*
X12568042Y-15566484D01*
X12568042Y-15566484D02*
X12529947Y-15566484D01*
X12529947Y-15566484D02*
X12510899Y-15556960D01*
X12510899Y-15556960D02*
X12501376Y-15537912D01*
X12501376Y-15537912D02*
X12501376Y-15461722D01*
X12501376Y-15461722D02*
X12510899Y-15442674D01*
X12510899Y-15442674D02*
X12529947Y-15433150D01*
X12529947Y-15433150D02*
X12568042Y-15433150D01*
X12568042Y-15433150D02*
X12587090Y-15442674D01*
X12587090Y-15442674D02*
X12596614Y-15461722D01*
X12596614Y-15461722D02*
X12596614Y-15480769D01*
X12596614Y-15480769D02*
X12501376Y-15499817D01*
X12768042Y-15566484D02*
X12768042Y-15366484D01*
X12768042Y-15556960D02*
X12748995Y-15566484D01*
X12748995Y-15566484D02*
X12710899Y-15566484D01*
X12710899Y-15566484D02*
X12691852Y-15556960D01*
X12691852Y-15556960D02*
X12682328Y-15547436D01*
X12682328Y-15547436D02*
X12672804Y-15528388D01*
X12672804Y-15528388D02*
X12672804Y-15471246D01*
X12672804Y-15471246D02*
X12682328Y-15452198D01*
X12682328Y-15452198D02*
X12691852Y-15442674D01*
X12691852Y-15442674D02*
X12710899Y-15433150D01*
X12710899Y-15433150D02*
X12748995Y-15433150D01*
X12748995Y-15433150D02*
X12768042Y-15442674D01*
X12844233Y-15642674D02*
X12853757Y-15633150D01*
X12853757Y-15633150D02*
X12872804Y-15604579D01*
X12872804Y-15604579D02*
X12882328Y-15585531D01*
X12882328Y-15585531D02*
X12891852Y-15556960D01*
X12891852Y-15556960D02*
X12901376Y-15509341D01*
X12901376Y-15509341D02*
X12901376Y-15471246D01*
X12901376Y-15471246D02*
X12891852Y-15423627D01*
X12891852Y-15423627D02*
X12882328Y-15395055D01*
X12882328Y-15395055D02*
X12872804Y-15376008D01*
X12872804Y-15376008D02*
X12853757Y-15347436D01*
X12853757Y-15347436D02*
X12844233Y-15337912D01*
M02*
