%TF.GenerationSoftware,KiCad,Pcbnew,9.0.1*%
%TF.CreationDate,2025-07-21T02:07:33-04:00*%
%TF.ProjectId,EMP_Cyclone_SAO_v1,454d505f-4379-4636-9c6f-6e655f53414f,rev?*%
%TF.SameCoordinates,Original*%
%TF.FileFunction,Copper,L2,Bot*%
%TF.FilePolarity,Positive*%
%FSLAX46Y46*%
G04 Gerber Fmt 4.6, Leading zero omitted, Abs format (unit mm)*
G04 Created by KiCad (PCBNEW 9.0.1) date 2025-07-21 02:07:33*
%MOMM*%
%LPD*%
G01*
G04 APERTURE LIST*
%TA.AperFunction,ComponentPad*%
%ADD10C,1.727200*%
%TD*%
%TA.AperFunction,ComponentPad*%
%ADD11C,2.000000*%
%TD*%
%TA.AperFunction,ComponentPad*%
%ADD12R,1.727200X1.727200*%
%TD*%
%TA.AperFunction,ComponentPad*%
%ADD13O,1.727200X1.727200*%
%TD*%
%TA.AperFunction,SMDPad,CuDef*%
%ADD14R,6.000000X1.905000*%
%TD*%
%TA.AperFunction,ViaPad*%
%ADD15C,1.727200*%
%TD*%
%TA.AperFunction,Conductor*%
%ADD16C,0.200000*%
%TD*%
%TA.AperFunction,Conductor*%
%ADD17C,1.000000*%
%TD*%
G04 APERTURE END LIST*
D10*
%TO.P,U1,4*%
%TO.N,GND*%
X84769165Y-114549852D03*
%TO.P,U1,3*%
%TO.N,+5V*%
X85495766Y-84735330D03*
%TO.P,U1,2*%
%TO.N,N/C*%
X121051005Y-100466418D03*
%TO.P,U1,1*%
%TO.N,Net-(U2-Data_In)*%
X115264670Y-85495766D03*
%TD*%
D11*
%TO.P,SW1,1,1*%
%TO.N,Net-(U3-GPIO5)*%
X112750000Y-138500000D03*
X119250000Y-138500000D03*
%TO.P,SW1,2,2*%
%TO.N,GND*%
X112750000Y-143000000D03*
X119250000Y-143000000D03*
%TD*%
D12*
%TO.P,REF\u002A\u002A,1*%
%TO.N,+5V*%
X97770000Y-140750000D03*
D10*
%TO.P,REF\u002A\u002A,2*%
%TO.N,GND*%
X97770000Y-143290000D03*
D13*
%TO.P,REF\u002A\u002A,3*%
%TO.N,unconnected-(U3-GPIO8-Pad8)*%
X100310000Y-140750000D03*
%TO.P,REF\u002A\u002A,4*%
%TO.N,unconnected-(U3-GPIO9-Pad9)*%
X100310000Y-143290000D03*
D10*
%TO.P,REF\u002A\u002A,5*%
%TO.N,N/C*%
X102850000Y-140750000D03*
%TO.P,REF\u002A\u002A,6*%
X102850000Y-143290000D03*
%TD*%
%TO.P,U2,1*%
%TO.N,N/C*%
X129192457Y-87926418D03*
%TO.P,U2,2*%
X119264102Y-74946404D03*
%TO.P,U2,3*%
%TO.N,+5V*%
X70807543Y-112073582D03*
%TO.P,U2,4*%
%TO.N,GND*%
X80770595Y-125062894D03*
%TD*%
D11*
%TO.P,SW2,1,1*%
%TO.N,Net-(U3-GPIO4)*%
X80250000Y-138250000D03*
X86750000Y-138250000D03*
%TO.P,SW2,2,2*%
%TO.N,GND*%
X80250000Y-142750000D03*
X86750000Y-142750000D03*
%TD*%
D14*
%TO.P,U3,0,GPIO0*%
%TO.N,unconnected-(U3-GPIO0-Pad0)*%
X93250000Y-85780000D03*
%TO.P,U3,1,GPIO1*%
%TO.N,unconnected-(U3-GPIO1-Pad1)*%
X93250000Y-83240000D03*
%TO.P,U3,2,GPIO2*%
%TO.N,Net-(U2-Data_In)*%
X93250000Y-80700000D03*
%TO.P,U3,3,GPIO3*%
%TO.N,unconnected-(U3-GPIO3-Pad3)*%
X93250000Y-78160000D03*
%TO.P,U3,3.3,3V3*%
%TO.N,unconnected-(U3-3V3-Pad3.3)*%
X93250000Y-73080000D03*
%TO.P,U3,4,GPIO4*%
%TO.N,Net-(U3-GPIO4)*%
X93250000Y-75620000D03*
%TO.P,U3,5,GPIO5*%
%TO.N,Net-(U3-GPIO5)*%
X108490000Y-68000000D03*
%TO.P,U3,5V,5V*%
%TO.N,+5V*%
X93250000Y-68000000D03*
%TO.P,U3,6,GPIO6*%
%TO.N,unconnected-(U3-GPIO6-Pad6)*%
X108490000Y-70540000D03*
%TO.P,U3,7,GPIO7*%
%TO.N,unconnected-(U3-GPIO7-Pad7)*%
X108490000Y-73080000D03*
%TO.P,U3,8,GPIO8*%
%TO.N,unconnected-(U3-GPIO8-Pad8)*%
X108490000Y-75620000D03*
%TO.P,U3,9,GPIO9*%
%TO.N,unconnected-(U3-GPIO9-Pad9)*%
X108490000Y-78160000D03*
%TO.P,U3,10,GPIO10*%
%TO.N,unconnected-(U3-GPIO10-Pad10)*%
X108490000Y-80700000D03*
%TO.P,U3,20,GPIO20*%
%TO.N,unconnected-(U3-GPIO20-Pad20)*%
X108490000Y-83240000D03*
%TO.P,U3,21,GPIO21*%
%TO.N,unconnected-(U3-GPIO21-Pad21)*%
X108490000Y-85780000D03*
%TO.P,U3,G,GND*%
%TO.N,GND*%
X93250000Y-70540000D03*
%TD*%
D15*
%TO.N,+5V*%
X88250000Y-68250000D03*
%TD*%
D16*
%TO.N,unconnected-(U3-GPIO8-Pad8)*%
X108490000Y-75620000D02*
X110537500Y-75620000D01*
X110537500Y-75620000D02*
X112900000Y-77982500D01*
X112900000Y-128160000D02*
X100310000Y-140750000D01*
X112900000Y-77982500D02*
X112900000Y-128160000D01*
%TO.N,unconnected-(U3-GPIO9-Pad9)*%
X112250000Y-127163006D02*
X99145400Y-140267606D01*
X112250000Y-79872500D02*
X112250000Y-127163006D01*
X99145400Y-142125400D02*
X100310000Y-143290000D01*
X108490000Y-78160000D02*
X110537500Y-78160000D01*
X110537500Y-78160000D02*
X112250000Y-79872500D01*
X99145400Y-140267606D02*
X99145400Y-142125400D01*
%TO.N,Net-(U3-GPIO5)*%
X112750000Y-138500000D02*
X113750000Y-137500000D01*
X113750000Y-137500000D02*
X113750000Y-77250000D01*
X113750000Y-77250000D02*
X112750000Y-76250000D01*
X109667500Y-67000000D02*
X107620000Y-67000000D01*
X112750000Y-76250000D02*
X112750000Y-70082500D01*
X112750000Y-70082500D02*
X109667500Y-67000000D01*
%TO.N,*%
X129192457Y-87926418D02*
X129192457Y-92324966D01*
X129192457Y-92324966D02*
X121051005Y-100466418D01*
%TO.N,Net-(U3-GPIO4)*%
X93250000Y-75620000D02*
X89630000Y-75620000D01*
X89630000Y-75620000D02*
X86750000Y-78500000D01*
X86750000Y-78500000D02*
X86750000Y-138250000D01*
%TO.N,Net-(U2-Data_In)*%
X92380000Y-79700000D02*
X92430000Y-79750000D01*
X115264670Y-85495766D02*
X115264670Y-70090170D01*
X95264500Y-80700000D02*
X93250000Y-80700000D01*
X98000000Y-66500000D02*
X98000000Y-77964500D01*
X94786500Y-79700000D02*
X92380000Y-79700000D01*
X111674500Y-66500000D02*
X98000000Y-66500000D01*
X98000000Y-77964500D02*
X95264500Y-80700000D01*
X92430000Y-79750000D02*
X94500000Y-79750000D01*
X115264670Y-70090170D02*
X111674500Y-66500000D01*
D17*
%TO.N,+5V*%
X88500000Y-68000000D02*
X88250000Y-68250000D01*
X93250000Y-68000000D02*
X88500000Y-68000000D01*
%TD*%
%TA.AperFunction,Conductor*%
%TO.N,GND*%
G36*
X103232515Y-64250542D02*
G01*
X103944457Y-64317338D01*
X103948489Y-64317784D01*
X104401132Y-64375468D01*
X104408826Y-64376697D01*
X109116102Y-65281942D01*
X109124509Y-65283864D01*
X109787691Y-65459991D01*
X109791599Y-65461099D01*
X110192640Y-65581996D01*
X110440704Y-65656777D01*
X110499209Y-65694974D01*
X110527776Y-65758736D01*
X110517335Y-65827822D01*
X110471201Y-65880295D01*
X110404914Y-65899500D01*
X97920943Y-65899500D01*
X97768216Y-65940423D01*
X97768209Y-65940426D01*
X97631290Y-66019475D01*
X97631282Y-66019481D01*
X97519481Y-66131282D01*
X97519475Y-66131290D01*
X97440426Y-66268209D01*
X97440423Y-66268216D01*
X97399500Y-66420943D01*
X97399500Y-77664402D01*
X97379815Y-77731441D01*
X97363181Y-77752083D01*
X96962180Y-78153084D01*
X96900857Y-78186569D01*
X96831165Y-78181585D01*
X96775232Y-78139713D01*
X96750815Y-78074249D01*
X96750499Y-78065403D01*
X96750499Y-77159629D01*
X96750498Y-77159623D01*
X96750497Y-77159616D01*
X96744091Y-77100017D01*
X96744091Y-77100016D01*
X96693798Y-76965173D01*
X96693796Y-76965171D01*
X96693796Y-76965169D01*
X96693154Y-76964312D01*
X96692781Y-76963311D01*
X96689548Y-76957391D01*
X96690399Y-76956926D01*
X96668735Y-76898853D01*
X96683583Y-76830579D01*
X96693151Y-76815692D01*
X96693796Y-76814831D01*
X96744091Y-76679983D01*
X96750500Y-76620373D01*
X96750499Y-74619628D01*
X96744091Y-74560017D01*
X96744091Y-74560016D01*
X96693798Y-74425173D01*
X96693796Y-74425171D01*
X96693796Y-74425169D01*
X96693154Y-74424312D01*
X96692781Y-74423311D01*
X96689548Y-74417391D01*
X96690399Y-74416926D01*
X96668735Y-74358853D01*
X96683583Y-74290579D01*
X96693151Y-74275692D01*
X96693796Y-74274831D01*
X96744091Y-74139983D01*
X96750500Y-74080373D01*
X96750499Y-72079628D01*
X96744091Y-72020017D01*
X96724221Y-71966744D01*
X96693797Y-71885173D01*
X96693796Y-71885169D01*
X96692842Y-71883895D01*
X96692286Y-71882405D01*
X96689546Y-71877386D01*
X96690267Y-71876992D01*
X96668423Y-71818436D01*
X96683271Y-71750162D01*
X96692849Y-71735260D01*
X96693352Y-71734587D01*
X96743597Y-71599876D01*
X96743598Y-71599872D01*
X96749999Y-71540344D01*
X96750000Y-71540327D01*
X96750000Y-70790000D01*
X89750000Y-70790000D01*
X89750000Y-71540344D01*
X89756401Y-71599872D01*
X89756403Y-71599879D01*
X89806645Y-71734586D01*
X89806648Y-71734591D01*
X89807160Y-71735275D01*
X89807458Y-71736074D01*
X89810897Y-71742372D01*
X89809991Y-71742866D01*
X89831575Y-71800740D01*
X89816722Y-71869012D01*
X89807161Y-71883890D01*
X89806205Y-71885166D01*
X89806202Y-71885171D01*
X89755908Y-72020017D01*
X89750653Y-72068901D01*
X89749501Y-72079623D01*
X89749500Y-72079635D01*
X89749500Y-74080370D01*
X89749501Y-74080376D01*
X89755908Y-74139983D01*
X89806202Y-74274828D01*
X89806205Y-74274833D01*
X89806848Y-74275692D01*
X89807222Y-74276695D01*
X89810454Y-74282614D01*
X89809602Y-74283078D01*
X89831263Y-74341157D01*
X89816410Y-74409429D01*
X89806848Y-74424308D01*
X89806205Y-74425166D01*
X89806202Y-74425171D01*
X89755908Y-74560017D01*
X89749501Y-74619616D01*
X89749501Y-74619623D01*
X89749500Y-74619635D01*
X89749500Y-74895500D01*
X89729815Y-74962539D01*
X89677011Y-75008294D01*
X89625500Y-75019500D01*
X89550943Y-75019500D01*
X89398215Y-75060423D01*
X89398214Y-75060423D01*
X89398212Y-75060424D01*
X89398209Y-75060425D01*
X89348096Y-75089359D01*
X89348095Y-75089360D01*
X89304689Y-75114420D01*
X89261285Y-75139479D01*
X89261282Y-75139481D01*
X86269481Y-78131282D01*
X86269479Y-78131285D01*
X86231954Y-78196282D01*
X86231953Y-78196284D01*
X86190423Y-78268214D01*
X86190423Y-78268215D01*
X86149499Y-78420943D01*
X86149499Y-78420945D01*
X86149499Y-78589046D01*
X86149500Y-78589059D01*
X86149500Y-83342769D01*
X86129815Y-83409808D01*
X86077011Y-83455563D01*
X86007853Y-83465507D01*
X85987183Y-83460700D01*
X85815195Y-83404819D01*
X85815196Y-83404819D01*
X85656140Y-83379627D01*
X85603123Y-83371230D01*
X85388409Y-83371230D01*
X85317719Y-83382426D01*
X85176337Y-83404819D01*
X84972135Y-83471167D01*
X84972132Y-83471168D01*
X84780821Y-83568647D01*
X84681715Y-83640652D01*
X84607115Y-83694853D01*
X84607113Y-83694855D01*
X84607112Y-83694855D01*
X84455291Y-83846676D01*
X84455291Y-83846677D01*
X84455289Y-83846679D01*
X84401784Y-83920322D01*
X84329083Y-84020385D01*
X84231604Y-84211696D01*
X84231603Y-84211699D01*
X84165255Y-84415901D01*
X84131666Y-84627973D01*
X84131666Y-84842686D01*
X84165255Y-85054758D01*
X84231603Y-85258960D01*
X84231604Y-85258963D01*
X84297561Y-85388409D01*
X84329083Y-85450274D01*
X84455289Y-85623981D01*
X84607115Y-85775807D01*
X84780822Y-85902013D01*
X84842032Y-85933201D01*
X84972132Y-85999491D01*
X84972135Y-85999492D01*
X85033404Y-86019399D01*
X85176339Y-86065841D01*
X85388409Y-86099430D01*
X85388410Y-86099430D01*
X85603122Y-86099430D01*
X85603123Y-86099430D01*
X85815193Y-86065841D01*
X85987182Y-86009959D01*
X86057023Y-86007964D01*
X86116856Y-86044044D01*
X86147684Y-86106745D01*
X86149500Y-86127890D01*
X86149500Y-113748191D01*
X86129815Y-113815230D01*
X86077011Y-113860985D01*
X86007853Y-113870929D01*
X85944297Y-113841904D01*
X85925182Y-113821077D01*
X85809261Y-113661527D01*
X85742863Y-113595128D01*
X85228585Y-114329591D01*
X85175667Y-114237932D01*
X85081085Y-114143350D01*
X84965246Y-114076471D01*
X84836045Y-114041852D01*
X84819676Y-114041852D01*
X85334040Y-113307265D01*
X85292602Y-113286152D01*
X85088478Y-113219828D01*
X84876488Y-113186252D01*
X84661842Y-113186252D01*
X84449853Y-113219827D01*
X84245719Y-113286155D01*
X84054479Y-113383598D01*
X83880842Y-113509752D01*
X83880835Y-113509758D01*
X83814440Y-113576152D01*
X84548905Y-114090430D01*
X84457245Y-114143350D01*
X84362663Y-114237932D01*
X84295784Y-114353771D01*
X84261165Y-114482972D01*
X84261165Y-114499338D01*
X83526577Y-113984976D01*
X83505466Y-114026412D01*
X83505465Y-114026415D01*
X83439141Y-114230536D01*
X83439141Y-114230539D01*
X83405565Y-114442528D01*
X83405565Y-114657175D01*
X83439140Y-114869163D01*
X83505468Y-115073297D01*
X83602909Y-115264534D01*
X83729068Y-115438176D01*
X83795465Y-115504574D01*
X84309742Y-114770110D01*
X84362663Y-114861772D01*
X84457245Y-114956354D01*
X84573084Y-115023233D01*
X84702285Y-115057852D01*
X84718650Y-115057852D01*
X84204288Y-115792437D01*
X84245719Y-115813548D01*
X84449853Y-115879876D01*
X84661842Y-115913452D01*
X84876488Y-115913452D01*
X85088476Y-115879876D01*
X85292610Y-115813548D01*
X85483847Y-115716107D01*
X85657496Y-115589943D01*
X85723888Y-115523550D01*
X84989424Y-115009273D01*
X85081085Y-114956354D01*
X85175667Y-114861772D01*
X85242546Y-114745933D01*
X85277165Y-114616732D01*
X85277165Y-114600364D01*
X86018916Y-115119745D01*
X86065311Y-115121659D01*
X86122481Y-115161825D01*
X86148861Y-115226524D01*
X86149500Y-115239095D01*
X86149500Y-136795931D01*
X86129815Y-136862970D01*
X86081796Y-136906415D01*
X85963568Y-136966655D01*
X85845984Y-137052086D01*
X85772490Y-137105483D01*
X85772488Y-137105485D01*
X85772487Y-137105485D01*
X85605485Y-137272487D01*
X85605485Y-137272488D01*
X85605483Y-137272490D01*
X85545862Y-137354550D01*
X85466657Y-137463566D01*
X85359433Y-137674003D01*
X85286446Y-137898631D01*
X85249500Y-138131902D01*
X85249500Y-138368097D01*
X85286446Y-138601368D01*
X85359433Y-138825996D01*
X85466657Y-139036433D01*
X85605483Y-139227510D01*
X85772490Y-139394517D01*
X85963567Y-139533343D01*
X86003885Y-139553886D01*
X86174003Y-139640566D01*
X86174005Y-139640566D01*
X86174008Y-139640568D01*
X86294412Y-139679689D01*
X86398631Y-139713553D01*
X86631903Y-139750500D01*
X86631908Y-139750500D01*
X86868097Y-139750500D01*
X87101368Y-139713553D01*
X87113771Y-139709523D01*
X87325992Y-139640568D01*
X87536433Y-139533343D01*
X87727510Y-139394517D01*
X87894517Y-139227510D01*
X88033343Y-139036433D01*
X88140568Y-138825992D01*
X88213553Y-138601368D01*
X88250500Y-138368097D01*
X88250500Y-138131902D01*
X88213553Y-137898631D01*
X88159341Y-137731785D01*
X88140568Y-137674008D01*
X88140566Y-137674005D01*
X88140566Y-137674003D01*
X88033342Y-137463566D01*
X87894517Y-137272490D01*
X87727510Y-137105483D01*
X87611722Y-137021358D01*
X87536431Y-136966655D01*
X87418204Y-136906415D01*
X87367409Y-136858441D01*
X87350500Y-136795931D01*
X87350500Y-78800096D01*
X87370185Y-78733057D01*
X87386814Y-78712420D01*
X89539964Y-76559269D01*
X89601285Y-76525786D01*
X89670977Y-76530770D01*
X89726910Y-76572642D01*
X89750933Y-76633698D01*
X89755908Y-76679983D01*
X89806202Y-76814828D01*
X89806205Y-76814833D01*
X89806848Y-76815692D01*
X89807222Y-76816695D01*
X89810454Y-76822614D01*
X89809602Y-76823078D01*
X89831263Y-76881157D01*
X89816410Y-76949429D01*
X89806848Y-76964308D01*
X89806205Y-76965166D01*
X89806202Y-76965171D01*
X89755908Y-77100017D01*
X89749501Y-77159616D01*
X89749501Y-77159623D01*
X89749500Y-77159635D01*
X89749500Y-79160370D01*
X89749501Y-79160376D01*
X89755908Y-79219983D01*
X89806202Y-79354828D01*
X89806205Y-79354833D01*
X89806848Y-79355692D01*
X89807222Y-79356695D01*
X89810454Y-79362614D01*
X89809602Y-79363078D01*
X89831263Y-79421157D01*
X89816410Y-79489429D01*
X89806848Y-79504308D01*
X89806205Y-79505166D01*
X89806202Y-79505171D01*
X89755908Y-79640017D01*
X89749501Y-79699616D01*
X89749500Y-79699635D01*
X89749500Y-81700370D01*
X89749501Y-81700376D01*
X89755908Y-81759983D01*
X89806202Y-81894828D01*
X89806205Y-81894833D01*
X89806848Y-81895692D01*
X89807222Y-81896695D01*
X89810454Y-81902614D01*
X89809602Y-81903078D01*
X89831263Y-81961157D01*
X89816410Y-82029429D01*
X89806848Y-82044308D01*
X89806205Y-82045166D01*
X89806202Y-82045171D01*
X89755908Y-82180017D01*
X89749501Y-82239616D01*
X89749501Y-82239623D01*
X89749500Y-82239635D01*
X89749500Y-84240370D01*
X89749501Y-84240376D01*
X89755908Y-84299983D01*
X89806202Y-84434828D01*
X89806205Y-84434833D01*
X89806848Y-84435692D01*
X89807222Y-84436695D01*
X89810454Y-84442614D01*
X89809602Y-84443078D01*
X89831263Y-84501157D01*
X89816410Y-84569429D01*
X89806848Y-84584308D01*
X89806205Y-84585166D01*
X89806202Y-84585171D01*
X89755908Y-84720017D01*
X89749501Y-84779616D01*
X89749501Y-84779623D01*
X89749500Y-84779635D01*
X89749500Y-86780370D01*
X89749501Y-86780376D01*
X89755908Y-86839983D01*
X89806202Y-86974828D01*
X89806206Y-86974835D01*
X89892452Y-87090044D01*
X89892455Y-87090047D01*
X90007664Y-87176293D01*
X90007671Y-87176297D01*
X90142517Y-87226591D01*
X90142516Y-87226591D01*
X90149444Y-87227335D01*
X90202127Y-87233000D01*
X96297872Y-87232999D01*
X96357483Y-87226591D01*
X96492331Y-87176296D01*
X96607546Y-87090046D01*
X96693796Y-86974831D01*
X96744091Y-86839983D01*
X96750500Y-86780373D01*
X96750499Y-84779628D01*
X96744091Y-84720017D01*
X96709761Y-84627973D01*
X96693798Y-84585173D01*
X96693796Y-84585171D01*
X96693796Y-84585169D01*
X96693154Y-84584312D01*
X96692781Y-84583311D01*
X96689548Y-84577391D01*
X96690399Y-84576926D01*
X96668735Y-84518853D01*
X96683583Y-84450579D01*
X96693151Y-84435692D01*
X96693796Y-84434831D01*
X96744091Y-84299983D01*
X96750500Y-84240373D01*
X96750499Y-82239628D01*
X96744091Y-82180017D01*
X96744091Y-82180016D01*
X96693798Y-82045173D01*
X96693796Y-82045171D01*
X96693796Y-82045169D01*
X96693154Y-82044312D01*
X96692781Y-82043311D01*
X96689548Y-82037391D01*
X96690399Y-82036926D01*
X96668735Y-81978853D01*
X96683583Y-81910579D01*
X96693151Y-81895692D01*
X96693796Y-81894831D01*
X96744091Y-81759983D01*
X96750500Y-81700373D01*
X96750499Y-80114595D01*
X96770184Y-80047557D01*
X96786813Y-80026920D01*
X98358506Y-78455228D01*
X98358511Y-78455224D01*
X98368714Y-78445020D01*
X98368716Y-78445020D01*
X98480520Y-78333216D01*
X98539785Y-78230565D01*
X98559577Y-78196285D01*
X98600500Y-78043558D01*
X98600500Y-77885443D01*
X98600500Y-67224500D01*
X98620185Y-67157461D01*
X98672989Y-67111706D01*
X98724500Y-67100500D01*
X104865500Y-67100500D01*
X104932539Y-67120185D01*
X104978294Y-67172989D01*
X104989500Y-67224500D01*
X104989500Y-69000370D01*
X104989501Y-69000376D01*
X104995908Y-69059983D01*
X105046202Y-69194828D01*
X105046205Y-69194833D01*
X105046848Y-69195692D01*
X105047222Y-69196695D01*
X105050454Y-69202614D01*
X105049602Y-69203078D01*
X105071263Y-69261157D01*
X105056410Y-69329429D01*
X105046848Y-69344308D01*
X105046205Y-69345166D01*
X105046202Y-69345171D01*
X104995908Y-69480017D01*
X104989501Y-69539616D01*
X104989500Y-69539635D01*
X104989500Y-71540370D01*
X104989501Y-71540376D01*
X104995908Y-71599983D01*
X105046202Y-71734828D01*
X105046205Y-71734833D01*
X105046848Y-71735692D01*
X105047222Y-71736695D01*
X105050454Y-71742614D01*
X105049602Y-71743078D01*
X105071263Y-71801157D01*
X105056410Y-71869429D01*
X105046848Y-71884308D01*
X105046205Y-71885166D01*
X105046202Y-71885171D01*
X104995908Y-72020017D01*
X104990653Y-72068901D01*
X104989501Y-72079623D01*
X104989500Y-72079635D01*
X104989500Y-74080370D01*
X104989501Y-74080376D01*
X104995908Y-74139983D01*
X105046202Y-74274828D01*
X105046205Y-74274833D01*
X105046848Y-74275692D01*
X105047222Y-74276695D01*
X105050454Y-74282614D01*
X105049602Y-74283078D01*
X105071263Y-74341157D01*
X105056410Y-74409429D01*
X105046848Y-74424308D01*
X105046205Y-74425166D01*
X105046202Y-74425171D01*
X104995908Y-74560017D01*
X104989501Y-74619616D01*
X104989501Y-74619623D01*
X104989500Y-74619635D01*
X104989500Y-76620370D01*
X104989501Y-76620376D01*
X104995908Y-76679983D01*
X105046202Y-76814828D01*
X105046205Y-76814833D01*
X105046848Y-76815692D01*
X105047222Y-76816695D01*
X105050454Y-76822614D01*
X105049602Y-76823078D01*
X105071263Y-76881157D01*
X105056410Y-76949429D01*
X105046848Y-76964308D01*
X105046205Y-76965166D01*
X105046202Y-76965171D01*
X104995908Y-77100017D01*
X104989501Y-77159616D01*
X104989501Y-77159623D01*
X104989500Y-77159635D01*
X104989500Y-79160370D01*
X104989501Y-79160376D01*
X104995908Y-79219983D01*
X105046202Y-79354828D01*
X105046205Y-79354833D01*
X105046848Y-79355692D01*
X105047222Y-79356695D01*
X105050454Y-79362614D01*
X105049602Y-79363078D01*
X105071263Y-79421157D01*
X105056410Y-79489429D01*
X105046848Y-79504308D01*
X105046205Y-79505166D01*
X105046202Y-79505171D01*
X104995908Y-79640017D01*
X104989501Y-79699616D01*
X104989500Y-79699635D01*
X104989500Y-81700370D01*
X104989501Y-81700376D01*
X104995908Y-81759983D01*
X105046202Y-81894828D01*
X105046205Y-81894833D01*
X105046848Y-81895692D01*
X105047222Y-81896695D01*
X105050454Y-81902614D01*
X105049602Y-81903078D01*
X105071263Y-81961157D01*
X105056410Y-82029429D01*
X105046848Y-82044308D01*
X105046205Y-82045166D01*
X105046202Y-82045171D01*
X104995908Y-82180017D01*
X104989501Y-82239616D01*
X104989501Y-82239623D01*
X104989500Y-82239635D01*
X104989500Y-84240370D01*
X104989501Y-84240376D01*
X104995908Y-84299983D01*
X105046202Y-84434828D01*
X105046205Y-84434833D01*
X105046848Y-84435692D01*
X105047222Y-84436695D01*
X105050454Y-84442614D01*
X105049602Y-84443078D01*
X105071263Y-84501157D01*
X105056410Y-84569429D01*
X105046848Y-84584308D01*
X105046205Y-84585166D01*
X105046202Y-84585171D01*
X104995908Y-84720017D01*
X104989501Y-84779616D01*
X104989501Y-84779623D01*
X104989500Y-84779635D01*
X104989500Y-86780370D01*
X104989501Y-86780376D01*
X104995908Y-86839983D01*
X105046202Y-86974828D01*
X105046206Y-86974835D01*
X105132452Y-87090044D01*
X105132455Y-87090047D01*
X105247664Y-87176293D01*
X105247671Y-87176297D01*
X105382517Y-87226591D01*
X105382516Y-87226591D01*
X105389444Y-87227335D01*
X105442127Y-87233000D01*
X111525500Y-87232999D01*
X111592539Y-87252684D01*
X111638294Y-87305488D01*
X111649500Y-87356999D01*
X111649500Y-126862908D01*
X111629815Y-126929947D01*
X111613181Y-126950589D01*
X99092154Y-139471615D01*
X99030831Y-139505100D01*
X98961139Y-139500116D01*
X98930162Y-139483201D01*
X98875931Y-139442604D01*
X98875928Y-139442602D01*
X98741082Y-139392308D01*
X98741083Y-139392308D01*
X98681483Y-139385901D01*
X98681481Y-139385900D01*
X98681473Y-139385900D01*
X98681464Y-139385900D01*
X96858529Y-139385900D01*
X96858523Y-139385901D01*
X96798916Y-139392308D01*
X96664071Y-139442602D01*
X96664064Y-139442606D01*
X96548855Y-139528852D01*
X96548852Y-139528855D01*
X96462606Y-139644064D01*
X96462602Y-139644071D01*
X96412308Y-139778917D01*
X96405901Y-139838516D01*
X96405900Y-139838535D01*
X96405900Y-141661470D01*
X96405901Y-141661476D01*
X96412308Y-141721083D01*
X96462602Y-141855928D01*
X96462606Y-141855935D01*
X96548852Y-141971144D01*
X96548855Y-141971147D01*
X96664064Y-142057393D01*
X96664071Y-142057397D01*
X96708782Y-142074073D01*
X96798917Y-142107691D01*
X96858527Y-142114100D01*
X96896289Y-142114099D01*
X96963326Y-142133782D01*
X96983970Y-142150418D01*
X97634058Y-142800504D01*
X97573919Y-142816619D01*
X97458080Y-142883498D01*
X97363498Y-142978080D01*
X97296619Y-143093919D01*
X97280504Y-143154057D01*
X96644992Y-142518544D01*
X96644992Y-142518545D01*
X96603744Y-142575317D01*
X96506303Y-142766554D01*
X96439975Y-142970688D01*
X96406400Y-143182676D01*
X96406400Y-143397323D01*
X96439975Y-143609311D01*
X96506303Y-143813445D01*
X96603743Y-144004681D01*
X96644992Y-144061453D01*
X96644992Y-144061454D01*
X97280504Y-143425941D01*
X97296619Y-143486081D01*
X97363498Y-143601920D01*
X97458080Y-143696502D01*
X97573919Y-143763381D01*
X97634057Y-143779494D01*
X96998545Y-144415006D01*
X97055317Y-144456255D01*
X97246554Y-144553696D01*
X97450688Y-144620024D01*
X97662677Y-144653600D01*
X97877323Y-144653600D01*
X98089311Y-144620024D01*
X98293445Y-144553696D01*
X98484682Y-144456255D01*
X98541453Y-144415007D01*
X98541453Y-144415006D01*
X97905942Y-143779495D01*
X97966081Y-143763381D01*
X98081920Y-143696502D01*
X98176502Y-143601920D01*
X98243381Y-143486081D01*
X98259495Y-143425941D01*
X98895006Y-144061453D01*
X98895007Y-144061453D01*
X98939120Y-144000740D01*
X98940984Y-144002094D01*
X98985674Y-143961578D01*
X99054591Y-143950084D01*
X99118783Y-143977674D01*
X99139565Y-144001646D01*
X99140453Y-144001002D01*
X99143316Y-144004943D01*
X99143317Y-144004944D01*
X99269523Y-144178651D01*
X99421349Y-144330477D01*
X99595056Y-144456683D01*
X99680070Y-144500000D01*
X99786366Y-144554161D01*
X99786369Y-144554162D01*
X99888470Y-144587336D01*
X99990573Y-144620511D01*
X100202643Y-144654100D01*
X100202644Y-144654100D01*
X100417356Y-144654100D01*
X100417357Y-144654100D01*
X100629427Y-144620511D01*
X100833633Y-144554161D01*
X101024944Y-144456683D01*
X101198651Y-144330477D01*
X101350477Y-144178651D01*
X101476683Y-144004944D01*
X101476683Y-144004943D01*
X101479547Y-144001002D01*
X101481478Y-144002405D01*
X101525927Y-143962078D01*
X101594840Y-143950558D01*
X101659042Y-143978125D01*
X101679478Y-144001709D01*
X101680453Y-144001002D01*
X101683316Y-144004943D01*
X101683317Y-144004944D01*
X101809523Y-144178651D01*
X101961349Y-144330477D01*
X102135056Y-144456683D01*
X102220070Y-144500000D01*
X102326366Y-144554161D01*
X102326369Y-144554162D01*
X102428470Y-144587336D01*
X102530573Y-144620511D01*
X102742643Y-144654100D01*
X102742644Y-144654100D01*
X102957356Y-144654100D01*
X102957357Y-144654100D01*
X103169427Y-144620511D01*
X103373633Y-144554161D01*
X103564944Y-144456683D01*
X103738651Y-144330477D01*
X103890477Y-144178651D01*
X104016683Y-144004944D01*
X104114161Y-143813633D01*
X104180511Y-143609427D01*
X104214100Y-143397357D01*
X104214100Y-143182643D01*
X104180511Y-142970573D01*
X104151715Y-142881947D01*
X111250000Y-142881947D01*
X111250000Y-143118052D01*
X111286934Y-143351247D01*
X111359897Y-143575802D01*
X111467087Y-143786174D01*
X111527338Y-143869104D01*
X111527340Y-143869105D01*
X112226212Y-143170233D01*
X112237482Y-143212292D01*
X112309890Y-143337708D01*
X112412292Y-143440110D01*
X112537708Y-143512518D01*
X112579765Y-143523787D01*
X111880893Y-144222658D01*
X111963828Y-144282914D01*
X112174197Y-144390102D01*
X112398752Y-144463065D01*
X112398751Y-144463065D01*
X112631948Y-144500000D01*
X112868052Y-144500000D01*
X113101247Y-144463065D01*
X113325802Y-144390102D01*
X113536163Y-144282918D01*
X113536169Y-144282914D01*
X113619104Y-144222658D01*
X113619105Y-144222658D01*
X112920233Y-143523787D01*
X112962292Y-143512518D01*
X113087708Y-143440110D01*
X113190110Y-143337708D01*
X113262518Y-143212292D01*
X113273787Y-143170233D01*
X113972658Y-143869105D01*
X113972658Y-143869104D01*
X114032914Y-143786169D01*
X114032918Y-143786163D01*
X114140102Y-143575802D01*
X114213065Y-143351247D01*
X114250000Y-143118052D01*
X114250000Y-142881947D01*
X117750000Y-142881947D01*
X117750000Y-143118052D01*
X117786934Y-143351247D01*
X117859897Y-143575802D01*
X117967087Y-143786174D01*
X118027338Y-143869104D01*
X118027340Y-143869105D01*
X118726212Y-143170233D01*
X118737482Y-143212292D01*
X118809890Y-143337708D01*
X118912292Y-143440110D01*
X119037708Y-143512518D01*
X119079765Y-143523787D01*
X118380893Y-144222658D01*
X118463828Y-144282914D01*
X118674197Y-144390102D01*
X118898752Y-144463065D01*
X118898751Y-144463065D01*
X119131948Y-144500000D01*
X119368052Y-144500000D01*
X119601247Y-144463065D01*
X119825802Y-144390102D01*
X120036163Y-144282918D01*
X120036169Y-144282914D01*
X120119104Y-144222658D01*
X120119105Y-144222658D01*
X119420233Y-143523787D01*
X119462292Y-143512518D01*
X119587708Y-143440110D01*
X119690110Y-143337708D01*
X119762518Y-143212292D01*
X119773787Y-143170233D01*
X120472658Y-143869105D01*
X120472658Y-143869104D01*
X120532914Y-143786169D01*
X120532918Y-143786163D01*
X120640102Y-143575802D01*
X120713065Y-143351247D01*
X120750000Y-143118052D01*
X120750000Y-142881947D01*
X120713065Y-142648752D01*
X120640102Y-142424197D01*
X120532914Y-142213828D01*
X120472658Y-142130894D01*
X120472658Y-142130893D01*
X119773787Y-142829765D01*
X119762518Y-142787708D01*
X119690110Y-142662292D01*
X119587708Y-142559890D01*
X119462292Y-142487482D01*
X119420234Y-142476212D01*
X120119105Y-141777340D01*
X120119104Y-141777338D01*
X120036174Y-141717087D01*
X119825802Y-141609897D01*
X119601247Y-141536934D01*
X119601248Y-141536934D01*
X119368052Y-141500000D01*
X119131948Y-141500000D01*
X118898752Y-141536934D01*
X118674197Y-141609897D01*
X118463830Y-141717084D01*
X118380894Y-141777340D01*
X119079766Y-142476212D01*
X119037708Y-142487482D01*
X118912292Y-142559890D01*
X118809890Y-142662292D01*
X118737482Y-142787708D01*
X118726212Y-142829766D01*
X118027340Y-142130894D01*
X117967084Y-142213830D01*
X117859897Y-142424197D01*
X117786934Y-142648752D01*
X117750000Y-142881947D01*
X114250000Y-142881947D01*
X114213065Y-142648752D01*
X114140102Y-142424197D01*
X114032914Y-142213828D01*
X113972658Y-142130894D01*
X113972658Y-142130893D01*
X113273787Y-142829765D01*
X113262518Y-142787708D01*
X113190110Y-142662292D01*
X113087708Y-142559890D01*
X112962292Y-142487482D01*
X112920234Y-142476212D01*
X113619105Y-141777340D01*
X113619104Y-141777339D01*
X113536174Y-141717087D01*
X113325802Y-141609897D01*
X113101247Y-141536934D01*
X113101248Y-141536934D01*
X112868052Y-141500000D01*
X112631948Y-141500000D01*
X112398752Y-141536934D01*
X112174197Y-141609897D01*
X111963830Y-141717084D01*
X111880894Y-141777340D01*
X112579766Y-142476212D01*
X112537708Y-142487482D01*
X112412292Y-142559890D01*
X112309890Y-142662292D01*
X112237482Y-142787708D01*
X112226212Y-142829766D01*
X111527340Y-142130894D01*
X111467084Y-142213830D01*
X111359897Y-142424197D01*
X111286934Y-142648752D01*
X111250000Y-142881947D01*
X104151715Y-142881947D01*
X104120000Y-142784337D01*
X104114162Y-142766369D01*
X104114161Y-142766366D01*
X104038579Y-142618030D01*
X104016683Y-142575056D01*
X103890477Y-142401349D01*
X103738651Y-142249523D01*
X103564944Y-142123317D01*
X103564943Y-142123316D01*
X103561002Y-142120453D01*
X103562405Y-142118521D01*
X103522078Y-142074073D01*
X103510558Y-142005160D01*
X103538125Y-141940958D01*
X103561709Y-141920521D01*
X103561002Y-141919547D01*
X103564944Y-141916683D01*
X103738651Y-141790477D01*
X103890477Y-141638651D01*
X104016683Y-141464944D01*
X104114161Y-141273633D01*
X104180511Y-141069427D01*
X104214100Y-140857357D01*
X104214100Y-140642643D01*
X104180511Y-140430573D01*
X104114161Y-140226367D01*
X104114161Y-140226366D01*
X104016682Y-140035055D01*
X103890477Y-139861349D01*
X103738651Y-139709523D01*
X103564944Y-139583317D01*
X103507183Y-139553886D01*
X103373633Y-139485838D01*
X103373630Y-139485837D01*
X103169428Y-139419489D01*
X103063392Y-139402694D01*
X102957357Y-139385900D01*
X102822696Y-139385900D01*
X102755657Y-139366215D01*
X102709902Y-139313411D01*
X102699958Y-139244253D01*
X102728983Y-139180697D01*
X102735015Y-139174219D01*
X107808736Y-134100498D01*
X112937821Y-128971413D01*
X112999142Y-128937930D01*
X113068834Y-128942914D01*
X113124767Y-128984786D01*
X113149184Y-129050250D01*
X113149500Y-129059096D01*
X113149500Y-136898885D01*
X113129815Y-136965924D01*
X113077011Y-137011679D01*
X113007853Y-137021623D01*
X113006102Y-137021358D01*
X112868097Y-136999500D01*
X112868092Y-136999500D01*
X112631908Y-136999500D01*
X112631903Y-136999500D01*
X112398631Y-137036446D01*
X112174003Y-137109433D01*
X111963566Y-137216657D01*
X111854550Y-137295862D01*
X111772490Y-137355483D01*
X111772488Y-137355485D01*
X111772487Y-137355485D01*
X111605485Y-137522487D01*
X111605485Y-137522488D01*
X111605483Y-137522490D01*
X111564386Y-137579055D01*
X111466657Y-137713566D01*
X111359433Y-137924003D01*
X111286446Y-138148631D01*
X111249500Y-138381902D01*
X111249500Y-138618097D01*
X111286446Y-138851368D01*
X111359433Y-139075996D01*
X111436635Y-139227512D01*
X111466657Y-139286433D01*
X111605483Y-139477510D01*
X111772490Y-139644517D01*
X111963567Y-139783343D01*
X112062991Y-139834002D01*
X112174003Y-139890566D01*
X112174005Y-139890566D01*
X112174008Y-139890568D01*
X112294412Y-139929689D01*
X112398631Y-139963553D01*
X112631903Y-140000500D01*
X112631908Y-140000500D01*
X112868097Y-140000500D01*
X113101368Y-139963553D01*
X113325992Y-139890568D01*
X113536433Y-139783343D01*
X113727510Y-139644517D01*
X113894517Y-139477510D01*
X114033343Y-139286433D01*
X114140568Y-139075992D01*
X114213553Y-138851368D01*
X114250500Y-138618097D01*
X114250500Y-138381902D01*
X117749500Y-138381902D01*
X117749500Y-138618097D01*
X117786446Y-138851368D01*
X117859433Y-139075996D01*
X117936635Y-139227512D01*
X117966657Y-139286433D01*
X118105483Y-139477510D01*
X118272490Y-139644517D01*
X118463567Y-139783343D01*
X118562991Y-139834002D01*
X118674003Y-139890566D01*
X118674005Y-139890566D01*
X118674008Y-139890568D01*
X118794412Y-139929689D01*
X118898631Y-139963553D01*
X119131903Y-140000500D01*
X119131908Y-140000500D01*
X119368097Y-140000500D01*
X119601368Y-139963553D01*
X119825992Y-139890568D01*
X120036433Y-139783343D01*
X120227510Y-139644517D01*
X120394517Y-139477510D01*
X120533343Y-139286433D01*
X120640568Y-139075992D01*
X120713553Y-138851368D01*
X120750500Y-138618097D01*
X120750500Y-138381902D01*
X120713553Y-138148631D01*
X120672549Y-138022436D01*
X120640568Y-137924008D01*
X120640566Y-137924005D01*
X120640566Y-137924003D01*
X120542626Y-137731786D01*
X120533343Y-137713567D01*
X120394517Y-137522490D01*
X120227510Y-137355483D01*
X120036433Y-137216657D01*
X119825996Y-137109433D01*
X119601368Y-137036446D01*
X119368097Y-136999500D01*
X119368092Y-136999500D01*
X119131908Y-136999500D01*
X119131903Y-136999500D01*
X118898631Y-137036446D01*
X118674003Y-137109433D01*
X118463566Y-137216657D01*
X118354550Y-137295862D01*
X118272490Y-137355483D01*
X118272488Y-137355485D01*
X118272487Y-137355485D01*
X118105485Y-137522487D01*
X118105485Y-137522488D01*
X118105483Y-137522490D01*
X118064386Y-137579055D01*
X117966657Y-137713566D01*
X117859433Y-137924003D01*
X117786446Y-138148631D01*
X117749500Y-138381902D01*
X114250500Y-138381902D01*
X114230347Y-138254666D01*
X114213553Y-138148632D01*
X114172547Y-138022432D01*
X114170553Y-137952595D01*
X114202800Y-137896435D01*
X114230520Y-137868716D01*
X114309577Y-137731784D01*
X114350501Y-137579057D01*
X114350501Y-137420942D01*
X114350501Y-137413347D01*
X114350500Y-137413329D01*
X114350500Y-131862332D01*
X121899500Y-131862332D01*
X121899500Y-132137667D01*
X121899501Y-132137684D01*
X121935438Y-132410655D01*
X121935439Y-132410660D01*
X121935440Y-132410666D01*
X121935441Y-132410668D01*
X122006704Y-132676630D01*
X122112075Y-132931017D01*
X122112080Y-132931028D01*
X122191809Y-133069121D01*
X122249751Y-133169479D01*
X122249753Y-133169482D01*
X122249754Y-133169483D01*
X122417370Y-133387926D01*
X122417376Y-133387933D01*
X122612066Y-133582623D01*
X122612072Y-133582628D01*
X122830521Y-133750249D01*
X122983778Y-133838732D01*
X123068971Y-133887919D01*
X123068976Y-133887921D01*
X123068979Y-133887923D01*
X123323368Y-133993295D01*
X123589334Y-134064560D01*
X123862326Y-134100500D01*
X123862333Y-134100500D01*
X124137667Y-134100500D01*
X124137674Y-134100500D01*
X124410666Y-134064560D01*
X124676632Y-133993295D01*
X124931021Y-133887923D01*
X125169479Y-133750249D01*
X125387928Y-133582628D01*
X125582628Y-133387928D01*
X125750249Y-133169479D01*
X125887923Y-132931021D01*
X125993295Y-132676632D01*
X126064560Y-132410666D01*
X126100500Y-132137674D01*
X126100500Y-131862326D01*
X126064560Y-131589334D01*
X125993295Y-131323368D01*
X125887923Y-131068979D01*
X125887921Y-131068976D01*
X125887919Y-131068971D01*
X125838732Y-130983778D01*
X125750249Y-130830521D01*
X125582628Y-130612072D01*
X125582623Y-130612066D01*
X125387933Y-130417376D01*
X125387926Y-130417370D01*
X125169483Y-130249754D01*
X125169482Y-130249753D01*
X125169479Y-130249751D01*
X125074407Y-130194861D01*
X124931028Y-130112080D01*
X124931017Y-130112075D01*
X124676630Y-130006704D01*
X124543649Y-129971072D01*
X124410666Y-129935440D01*
X124410660Y-129935439D01*
X124410655Y-129935438D01*
X124137684Y-129899501D01*
X124137679Y-129899500D01*
X124137674Y-129899500D01*
X123862326Y-129899500D01*
X123862320Y-129899500D01*
X123862315Y-129899501D01*
X123589344Y-129935438D01*
X123589337Y-129935439D01*
X123589334Y-129935440D01*
X123533125Y-129950500D01*
X123323369Y-130006704D01*
X123068982Y-130112075D01*
X123068971Y-130112080D01*
X122830516Y-130249754D01*
X122612073Y-130417370D01*
X122612066Y-130417376D01*
X122417376Y-130612066D01*
X122417370Y-130612073D01*
X122249754Y-130830516D01*
X122112080Y-131068971D01*
X122112075Y-131068982D01*
X122006704Y-131323369D01*
X121935441Y-131589331D01*
X121935438Y-131589344D01*
X121899501Y-131862315D01*
X121899500Y-131862332D01*
X114350500Y-131862332D01*
X114350500Y-100359061D01*
X119686905Y-100359061D01*
X119686905Y-100573774D01*
X119720494Y-100785846D01*
X119786842Y-100990048D01*
X119786843Y-100990051D01*
X119884322Y-101181362D01*
X120010528Y-101355069D01*
X120162354Y-101506895D01*
X120336061Y-101633101D01*
X120429893Y-101680910D01*
X120527371Y-101730579D01*
X120527374Y-101730580D01*
X120629475Y-101763754D01*
X120731578Y-101796929D01*
X120943648Y-101830518D01*
X120943649Y-101830518D01*
X121158361Y-101830518D01*
X121158362Y-101830518D01*
X121370432Y-101796929D01*
X121574638Y-101730579D01*
X121765949Y-101633101D01*
X121939656Y-101506895D01*
X122091482Y-101355069D01*
X122217688Y-101181362D01*
X122315166Y-100990051D01*
X122381516Y-100785845D01*
X122415105Y-100573775D01*
X122415105Y-100359061D01*
X122381516Y-100146991D01*
X122365304Y-100097099D01*
X122363310Y-100027259D01*
X122395553Y-99971103D01*
X129561170Y-92805487D01*
X129561173Y-92805486D01*
X129672977Y-92693682D01*
X129723096Y-92606870D01*
X129752034Y-92556751D01*
X129792958Y-92404023D01*
X129792958Y-92245909D01*
X129792958Y-92238314D01*
X129792957Y-92238296D01*
X129792957Y-89227400D01*
X129812642Y-89160361D01*
X129860663Y-89116915D01*
X129907399Y-89093102D01*
X129907398Y-89093102D01*
X129907401Y-89093101D01*
X130081108Y-88966895D01*
X130232934Y-88815069D01*
X130359140Y-88641362D01*
X130456618Y-88450051D01*
X130522968Y-88245845D01*
X130556557Y-88033775D01*
X130556557Y-87819061D01*
X130522968Y-87606991D01*
X130456618Y-87402785D01*
X130456618Y-87402784D01*
X130406949Y-87305306D01*
X130359140Y-87211474D01*
X130232934Y-87037767D01*
X130081108Y-86885941D01*
X129907401Y-86759735D01*
X129716090Y-86662256D01*
X129716087Y-86662255D01*
X129511885Y-86595907D01*
X129405849Y-86579112D01*
X129299814Y-86562318D01*
X129085100Y-86562318D01*
X129014410Y-86573514D01*
X128873028Y-86595907D01*
X128668826Y-86662255D01*
X128668823Y-86662256D01*
X128477512Y-86759735D01*
X128385926Y-86826277D01*
X128303806Y-86885941D01*
X128303804Y-86885943D01*
X128303803Y-86885943D01*
X128151982Y-87037764D01*
X128151982Y-87037765D01*
X128151980Y-87037767D01*
X128113997Y-87090046D01*
X128025774Y-87211473D01*
X127928295Y-87402784D01*
X127928294Y-87402787D01*
X127861946Y-87606989D01*
X127828357Y-87819061D01*
X127828357Y-88033774D01*
X127861946Y-88245846D01*
X127928294Y-88450048D01*
X127928295Y-88450051D01*
X128025774Y-88641362D01*
X128151980Y-88815069D01*
X128303806Y-88966895D01*
X128434086Y-89061549D01*
X128477514Y-89093102D01*
X128524251Y-89116915D01*
X128575047Y-89164889D01*
X128591957Y-89227400D01*
X128591957Y-92024868D01*
X128572272Y-92091907D01*
X128555638Y-92112549D01*
X121546320Y-99121866D01*
X121484997Y-99155351D01*
X121420322Y-99152116D01*
X121370435Y-99135907D01*
X121211379Y-99110715D01*
X121158362Y-99102318D01*
X120943648Y-99102318D01*
X120872958Y-99113514D01*
X120731576Y-99135907D01*
X120527374Y-99202255D01*
X120527371Y-99202256D01*
X120336060Y-99299735D01*
X120236954Y-99371740D01*
X120162354Y-99425941D01*
X120162352Y-99425943D01*
X120162351Y-99425943D01*
X120010530Y-99577764D01*
X120010530Y-99577765D01*
X120010528Y-99577767D01*
X119973235Y-99629096D01*
X119884322Y-99751473D01*
X119786843Y-99942784D01*
X119786842Y-99942787D01*
X119720494Y-100146989D01*
X119686905Y-100359061D01*
X114350500Y-100359061D01*
X114350500Y-86761066D01*
X114370185Y-86694027D01*
X114422989Y-86648272D01*
X114492147Y-86638328D01*
X114545515Y-86659991D01*
X114545570Y-86659903D01*
X114546104Y-86660230D01*
X114547391Y-86660753D01*
X114549726Y-86662449D01*
X114645381Y-86711188D01*
X114741036Y-86759927D01*
X114741039Y-86759928D01*
X114843140Y-86793102D01*
X114945243Y-86826277D01*
X115157313Y-86859866D01*
X115157314Y-86859866D01*
X115372026Y-86859866D01*
X115372027Y-86859866D01*
X115584097Y-86826277D01*
X115780937Y-86762320D01*
X115788300Y-86759928D01*
X115788303Y-86759927D01*
X115788680Y-86759735D01*
X115979614Y-86662449D01*
X116153321Y-86536243D01*
X116305147Y-86384417D01*
X116431353Y-86210710D01*
X116528831Y-86019399D01*
X116595181Y-85815193D01*
X116628770Y-85603123D01*
X116628770Y-85388409D01*
X116595181Y-85176339D01*
X116528831Y-84972133D01*
X116528831Y-84972132D01*
X116431352Y-84780821D01*
X116305147Y-84607115D01*
X116153321Y-84455289D01*
X116066467Y-84392186D01*
X115979612Y-84329081D01*
X115932874Y-84305267D01*
X115882079Y-84257293D01*
X115865170Y-84194783D01*
X115865170Y-74839047D01*
X117900002Y-74839047D01*
X117900002Y-75053761D01*
X117905641Y-75089361D01*
X117933591Y-75265832D01*
X117999939Y-75470034D01*
X117999940Y-75470037D01*
X118097419Y-75661348D01*
X118223625Y-75835055D01*
X118375451Y-75986881D01*
X118549158Y-76113087D01*
X118642990Y-76160896D01*
X118740468Y-76210565D01*
X118740471Y-76210566D01*
X118842572Y-76243740D01*
X118944675Y-76276915D01*
X119156745Y-76310504D01*
X119156746Y-76310504D01*
X119371458Y-76310504D01*
X119371459Y-76310504D01*
X119583529Y-76276915D01*
X119787735Y-76210565D01*
X119979046Y-76113087D01*
X120152753Y-75986881D01*
X120304579Y-75835055D01*
X120430785Y-75661348D01*
X120528263Y-75470037D01*
X120594613Y-75265831D01*
X120628202Y-75053761D01*
X120628202Y-74839047D01*
X120594613Y-74626977D01*
X120561438Y-74524874D01*
X120528264Y-74422773D01*
X120528263Y-74422770D01*
X120453318Y-74275684D01*
X120430785Y-74231460D01*
X120304579Y-74057753D01*
X120152753Y-73905927D01*
X119979046Y-73779721D01*
X119787735Y-73682242D01*
X119787732Y-73682241D01*
X119583530Y-73615893D01*
X119477494Y-73599098D01*
X119371459Y-73582304D01*
X119156745Y-73582304D01*
X119086055Y-73593500D01*
X118944673Y-73615893D01*
X118740471Y-73682241D01*
X118740468Y-73682242D01*
X118549157Y-73779721D01*
X118450051Y-73851726D01*
X118375451Y-73905927D01*
X118375449Y-73905929D01*
X118375448Y-73905929D01*
X118223627Y-74057750D01*
X118223627Y-74057751D01*
X118223625Y-74057753D01*
X118169424Y-74132353D01*
X118097419Y-74231459D01*
X117999940Y-74422770D01*
X117999939Y-74422773D01*
X117933591Y-74626975D01*
X117933591Y-74626977D01*
X117900002Y-74839047D01*
X115865170Y-74839047D01*
X115865170Y-70011111D01*
X115863116Y-70003445D01*
X115863116Y-70003446D01*
X115863115Y-70003442D01*
X115824247Y-69858385D01*
X115795309Y-69808265D01*
X115745190Y-69721454D01*
X115633386Y-69609650D01*
X115633385Y-69609649D01*
X115629055Y-69605319D01*
X115629044Y-69605309D01*
X112705371Y-66681636D01*
X112671886Y-66620313D01*
X112676870Y-66550621D01*
X112718742Y-66494688D01*
X112784206Y-66470271D01*
X112836639Y-66477868D01*
X113133051Y-66589171D01*
X113174438Y-66604712D01*
X113178221Y-66606204D01*
X114276000Y-67060555D01*
X114279651Y-67062138D01*
X115296297Y-67523020D01*
X115361686Y-67552663D01*
X115365409Y-67554425D01*
X116430558Y-68080603D01*
X116434167Y-68082461D01*
X117481267Y-68643718D01*
X117484807Y-68645692D01*
X118068323Y-68983868D01*
X118072942Y-68986683D01*
X120642016Y-70630890D01*
X120647712Y-70634763D01*
X121480083Y-71235141D01*
X121483382Y-71237605D01*
X122423279Y-71964172D01*
X122426494Y-71966744D01*
X123341724Y-72724096D01*
X123344853Y-72726773D01*
X123851775Y-73175423D01*
X123852612Y-73176172D01*
X124418163Y-73687862D01*
X124420131Y-73689682D01*
X124992784Y-74231459D01*
X125100477Y-74333346D01*
X125103421Y-74336225D01*
X125938820Y-75180880D01*
X125941666Y-75183855D01*
X126544298Y-75835057D01*
X126748547Y-76055767D01*
X126751255Y-76058792D01*
X127528810Y-76957089D01*
X127531428Y-76960218D01*
X127535437Y-76965173D01*
X128155425Y-77731441D01*
X128278663Y-77883755D01*
X128281189Y-77886985D01*
X128381299Y-78019480D01*
X128386026Y-78025736D01*
X128391530Y-78033641D01*
X128882061Y-78800096D01*
X131245820Y-82493470D01*
X131253333Y-82507001D01*
X133705882Y-87657353D01*
X133710486Y-87668357D01*
X133769672Y-87831415D01*
X133773411Y-87843649D01*
X134998670Y-92744680D01*
X135000855Y-92755415D01*
X135748483Y-97490392D01*
X135750000Y-97509731D01*
X135750000Y-103227974D01*
X135749568Y-103238317D01*
X135720465Y-103586002D01*
X135720053Y-103590099D01*
X135585189Y-104740330D01*
X135583078Y-104752801D01*
X134750592Y-108497336D01*
X134749283Y-108502662D01*
X124274840Y-147407737D01*
X124238404Y-147467354D01*
X124175521Y-147497808D01*
X124155104Y-147499500D01*
X75780284Y-147499500D01*
X75713245Y-147479815D01*
X75667490Y-147427011D01*
X75660316Y-147406862D01*
X74412327Y-142631947D01*
X78750000Y-142631947D01*
X78750000Y-142868052D01*
X78786934Y-143101247D01*
X78859897Y-143325802D01*
X78967087Y-143536174D01*
X79027338Y-143619104D01*
X79027340Y-143619105D01*
X79726212Y-142920233D01*
X79737482Y-142962292D01*
X79809890Y-143087708D01*
X79912292Y-143190110D01*
X80037708Y-143262518D01*
X80079765Y-143273787D01*
X79380893Y-143972658D01*
X79463828Y-144032914D01*
X79674197Y-144140102D01*
X79898752Y-144213065D01*
X79898751Y-144213065D01*
X80131948Y-144250000D01*
X80368052Y-144250000D01*
X80601247Y-144213065D01*
X80825802Y-144140102D01*
X81036163Y-144032918D01*
X81036169Y-144032914D01*
X81119104Y-143972658D01*
X81119105Y-143972658D01*
X80420233Y-143273787D01*
X80462292Y-143262518D01*
X80587708Y-143190110D01*
X80690110Y-143087708D01*
X80762518Y-142962292D01*
X80773787Y-142920234D01*
X81472658Y-143619105D01*
X81472658Y-143619104D01*
X81532914Y-143536169D01*
X81532918Y-143536163D01*
X81640102Y-143325802D01*
X81713065Y-143101247D01*
X81750000Y-142868052D01*
X81750000Y-142631947D01*
X85250000Y-142631947D01*
X85250000Y-142868052D01*
X85286934Y-143101247D01*
X85359897Y-143325802D01*
X85467087Y-143536174D01*
X85527338Y-143619104D01*
X85527340Y-143619105D01*
X86226212Y-142920233D01*
X86237482Y-142962292D01*
X86309890Y-143087708D01*
X86412292Y-143190110D01*
X86537708Y-143262518D01*
X86579765Y-143273787D01*
X85880893Y-143972658D01*
X85963828Y-144032914D01*
X86174197Y-144140102D01*
X86398752Y-144213065D01*
X86398751Y-144213065D01*
X86631948Y-144250000D01*
X86868052Y-144250000D01*
X86897891Y-144245274D01*
X87101247Y-144213065D01*
X87325802Y-144140102D01*
X87536163Y-144032918D01*
X87536169Y-144032914D01*
X87619104Y-143972658D01*
X87619105Y-143972658D01*
X86920233Y-143273787D01*
X86962292Y-143262518D01*
X87087708Y-143190110D01*
X87190110Y-143087708D01*
X87262518Y-142962292D01*
X87273787Y-142920234D01*
X87972658Y-143619105D01*
X87972658Y-143619104D01*
X88032914Y-143536169D01*
X88032918Y-143536163D01*
X88140102Y-143325802D01*
X88200639Y-143139492D01*
X88200639Y-143139491D01*
X88213065Y-143101245D01*
X88250000Y-142868052D01*
X88250000Y-142631947D01*
X88213065Y-142398752D01*
X88140102Y-142174197D01*
X88032914Y-141963828D01*
X87972658Y-141880894D01*
X87972658Y-141880893D01*
X87273787Y-142579765D01*
X87262518Y-142537708D01*
X87190110Y-142412292D01*
X87087708Y-142309890D01*
X86962292Y-142237482D01*
X86920234Y-142226212D01*
X87619105Y-141527340D01*
X87619104Y-141527338D01*
X87536174Y-141467087D01*
X87325802Y-141359897D01*
X87101247Y-141286934D01*
X87101248Y-141286934D01*
X86868052Y-141250000D01*
X86631948Y-141250000D01*
X86398752Y-141286934D01*
X86174197Y-141359897D01*
X85963830Y-141467084D01*
X85880894Y-141527340D01*
X86579766Y-142226212D01*
X86537708Y-142237482D01*
X86412292Y-142309890D01*
X86309890Y-142412292D01*
X86237482Y-142537708D01*
X86226212Y-142579766D01*
X85527340Y-141880894D01*
X85467084Y-141963830D01*
X85359897Y-142174197D01*
X85286934Y-142398752D01*
X85250000Y-142631947D01*
X81750000Y-142631947D01*
X81713065Y-142398752D01*
X81640102Y-142174197D01*
X81532914Y-141963828D01*
X81472658Y-141880894D01*
X81472658Y-141880893D01*
X80773787Y-142579765D01*
X80762518Y-142537708D01*
X80690110Y-142412292D01*
X80587708Y-142309890D01*
X80462292Y-142237482D01*
X80420234Y-142226212D01*
X81119105Y-141527340D01*
X81119104Y-141527339D01*
X81036174Y-141467087D01*
X80825802Y-141359897D01*
X80601247Y-141286934D01*
X80601248Y-141286934D01*
X80368052Y-141250000D01*
X80131948Y-141250000D01*
X79898752Y-141286934D01*
X79674197Y-141359897D01*
X79463830Y-141467084D01*
X79380894Y-141527340D01*
X80079766Y-142226212D01*
X80037708Y-142237482D01*
X79912292Y-142309890D01*
X79809890Y-142412292D01*
X79737482Y-142537708D01*
X79726212Y-142579766D01*
X79027340Y-141880894D01*
X78967084Y-141963830D01*
X78859897Y-142174197D01*
X78786934Y-142398752D01*
X78750000Y-142631947D01*
X74412327Y-142631947D01*
X73236179Y-138131902D01*
X78749500Y-138131902D01*
X78749500Y-138368097D01*
X78786446Y-138601368D01*
X78859433Y-138825996D01*
X78966657Y-139036433D01*
X79105483Y-139227510D01*
X79272490Y-139394517D01*
X79463567Y-139533343D01*
X79503885Y-139553886D01*
X79674003Y-139640566D01*
X79674005Y-139640566D01*
X79674008Y-139640568D01*
X79794412Y-139679689D01*
X79898631Y-139713553D01*
X80131903Y-139750500D01*
X80131908Y-139750500D01*
X80368097Y-139750500D01*
X80601368Y-139713553D01*
X80613771Y-139709523D01*
X80825992Y-139640568D01*
X81036433Y-139533343D01*
X81227510Y-139394517D01*
X81394517Y-139227510D01*
X81533343Y-139036433D01*
X81640568Y-138825992D01*
X81713553Y-138601368D01*
X81750500Y-138368097D01*
X81750500Y-138131902D01*
X81713553Y-137898631D01*
X81659341Y-137731785D01*
X81640568Y-137674008D01*
X81640566Y-137674005D01*
X81640566Y-137674003D01*
X81533342Y-137463566D01*
X81394517Y-137272490D01*
X81227510Y-137105483D01*
X81036433Y-136966657D01*
X81034994Y-136965924D01*
X80825996Y-136859433D01*
X80601368Y-136786446D01*
X80368097Y-136749500D01*
X80368092Y-136749500D01*
X80131908Y-136749500D01*
X80131903Y-136749500D01*
X79898631Y-136786446D01*
X79674003Y-136859433D01*
X79463566Y-136966657D01*
X79354550Y-137045862D01*
X79272490Y-137105483D01*
X79272488Y-137105485D01*
X79272487Y-137105485D01*
X79105485Y-137272487D01*
X79105485Y-137272488D01*
X79105483Y-137272490D01*
X79045862Y-137354550D01*
X78966657Y-137463566D01*
X78859433Y-137674003D01*
X78786446Y-137898631D01*
X78749500Y-138131902D01*
X73236179Y-138131902D01*
X71597541Y-131862332D01*
X73899500Y-131862332D01*
X73899500Y-132137667D01*
X73899501Y-132137684D01*
X73935438Y-132410655D01*
X73935439Y-132410660D01*
X73935440Y-132410666D01*
X73935441Y-132410668D01*
X74006704Y-132676630D01*
X74112075Y-132931017D01*
X74112080Y-132931028D01*
X74191809Y-133069121D01*
X74249751Y-133169479D01*
X74249753Y-133169482D01*
X74249754Y-133169483D01*
X74417370Y-133387926D01*
X74417376Y-133387933D01*
X74612066Y-133582623D01*
X74612072Y-133582628D01*
X74830521Y-133750249D01*
X74983778Y-133838732D01*
X75068971Y-133887919D01*
X75068976Y-133887921D01*
X75068979Y-133887923D01*
X75323368Y-133993295D01*
X75589334Y-134064560D01*
X75862326Y-134100500D01*
X75862333Y-134100500D01*
X76137667Y-134100500D01*
X76137674Y-134100500D01*
X76410666Y-134064560D01*
X76676632Y-133993295D01*
X76931021Y-133887923D01*
X77169479Y-133750249D01*
X77387928Y-133582628D01*
X77582628Y-133387928D01*
X77750249Y-133169479D01*
X77887923Y-132931021D01*
X77993295Y-132676632D01*
X78064560Y-132410666D01*
X78100500Y-132137674D01*
X78100500Y-131862326D01*
X78064560Y-131589334D01*
X77993295Y-131323368D01*
X77887923Y-131068979D01*
X77887921Y-131068976D01*
X77887919Y-131068971D01*
X77838732Y-130983778D01*
X77750249Y-130830521D01*
X77582628Y-130612072D01*
X77582623Y-130612066D01*
X77387933Y-130417376D01*
X77387926Y-130417370D01*
X77169483Y-130249754D01*
X77169482Y-130249753D01*
X77169479Y-130249751D01*
X77074407Y-130194861D01*
X76931028Y-130112080D01*
X76931017Y-130112075D01*
X76676630Y-130006704D01*
X76543649Y-129971072D01*
X76410666Y-129935440D01*
X76410660Y-129935439D01*
X76410655Y-129935438D01*
X76137684Y-129899501D01*
X76137679Y-129899500D01*
X76137674Y-129899500D01*
X75862326Y-129899500D01*
X75862320Y-129899500D01*
X75862315Y-129899501D01*
X75589344Y-129935438D01*
X75589337Y-129935439D01*
X75589334Y-129935440D01*
X75533125Y-129950500D01*
X75323369Y-130006704D01*
X75068982Y-130112075D01*
X75068971Y-130112080D01*
X74830516Y-130249754D01*
X74612073Y-130417370D01*
X74612066Y-130417376D01*
X74417376Y-130612066D01*
X74417370Y-130612073D01*
X74249754Y-130830516D01*
X74112080Y-131068971D01*
X74112075Y-131068982D01*
X74006704Y-131323369D01*
X73935441Y-131589331D01*
X73935438Y-131589344D01*
X73899501Y-131862315D01*
X73899500Y-131862332D01*
X71597541Y-131862332D01*
X69792565Y-124956337D01*
X79406995Y-124956337D01*
X79406995Y-125170217D01*
X79440570Y-125382205D01*
X79506898Y-125586339D01*
X79604339Y-125777576D01*
X79730501Y-125951221D01*
X79730501Y-125951222D01*
X79882266Y-126102987D01*
X80055914Y-126229151D01*
X80182055Y-126293422D01*
X80182057Y-126293422D01*
X80414649Y-125425370D01*
X80458675Y-125469396D01*
X80574514Y-125536275D01*
X80703715Y-125570894D01*
X80837475Y-125570894D01*
X80897612Y-125554780D01*
X80664038Y-126426493D01*
X80664038Y-126426494D01*
X80877918Y-126426494D01*
X81089906Y-126392918D01*
X81294040Y-126326590D01*
X81485277Y-126229149D01*
X81658922Y-126102987D01*
X81658923Y-126102987D01*
X81810688Y-125951222D01*
X81810688Y-125951221D01*
X81936847Y-125777580D01*
X81936852Y-125777572D01*
X82001123Y-125651432D01*
X82001123Y-125651430D01*
X81133072Y-125418838D01*
X81177097Y-125374814D01*
X81243976Y-125258975D01*
X81278595Y-125129774D01*
X81278595Y-124996014D01*
X81262480Y-124935874D01*
X82134194Y-125169449D01*
X82134195Y-125169449D01*
X82134195Y-124955570D01*
X82100619Y-124743582D01*
X82034291Y-124539448D01*
X81936850Y-124348211D01*
X81810688Y-124174566D01*
X81810688Y-124174565D01*
X81658923Y-124022800D01*
X81485277Y-123896638D01*
X81359132Y-123832364D01*
X81359131Y-123832364D01*
X81126538Y-124700415D01*
X81082515Y-124656392D01*
X80966676Y-124589513D01*
X80837475Y-124554894D01*
X80703715Y-124554894D01*
X80643574Y-124571008D01*
X80877152Y-123699294D01*
X80663272Y-123699294D01*
X80451283Y-123732869D01*
X80247149Y-123799197D01*
X80055912Y-123896638D01*
X79882267Y-124022800D01*
X79882266Y-124022800D01*
X79730501Y-124174565D01*
X79730501Y-124174566D01*
X79604339Y-124348211D01*
X79540065Y-124474355D01*
X80408118Y-124706948D01*
X80364093Y-124750974D01*
X80297214Y-124866813D01*
X80262595Y-124996014D01*
X80262595Y-125129774D01*
X80278708Y-125189912D01*
X79657318Y-125023411D01*
X79406995Y-124956337D01*
X69792565Y-124956337D01*
X66397422Y-111966225D01*
X69443443Y-111966225D01*
X69443443Y-112180938D01*
X69477032Y-112393010D01*
X69543380Y-112597212D01*
X69543381Y-112597215D01*
X69640860Y-112788526D01*
X69767066Y-112962233D01*
X69918892Y-113114059D01*
X70092599Y-113240265D01*
X70182657Y-113286152D01*
X70283909Y-113337743D01*
X70283912Y-113337744D01*
X70386013Y-113370918D01*
X70488116Y-113404093D01*
X70700186Y-113437682D01*
X70700187Y-113437682D01*
X70914899Y-113437682D01*
X70914900Y-113437682D01*
X71126970Y-113404093D01*
X71331176Y-113337743D01*
X71522487Y-113240265D01*
X71696194Y-113114059D01*
X71848020Y-112962233D01*
X71974226Y-112788526D01*
X72071704Y-112597215D01*
X72138054Y-112393009D01*
X72171643Y-112180939D01*
X72171643Y-111966225D01*
X72138054Y-111754155D01*
X72071704Y-111549949D01*
X72071704Y-111549948D01*
X71974225Y-111358637D01*
X71848020Y-111184931D01*
X71696194Y-111033105D01*
X71522487Y-110906899D01*
X71331176Y-110809420D01*
X71331173Y-110809419D01*
X71126971Y-110743071D01*
X71020935Y-110726276D01*
X70914900Y-110709482D01*
X70700186Y-110709482D01*
X70629496Y-110720678D01*
X70488114Y-110743071D01*
X70283912Y-110809419D01*
X70283909Y-110809420D01*
X70092598Y-110906899D01*
X69993492Y-110978904D01*
X69918892Y-111033105D01*
X69918890Y-111033107D01*
X69918889Y-111033107D01*
X69767068Y-111184928D01*
X69767068Y-111184929D01*
X69767066Y-111184931D01*
X69712865Y-111259531D01*
X69640860Y-111358637D01*
X69543381Y-111549948D01*
X69543380Y-111549951D01*
X69477032Y-111754153D01*
X69443443Y-111966225D01*
X66397422Y-111966225D01*
X64332745Y-104066592D01*
X64329748Y-104051192D01*
X64326197Y-104023786D01*
X64325736Y-104019698D01*
X64324379Y-104005564D01*
X64267942Y-103417375D01*
X64267531Y-103399372D01*
X64499802Y-98753954D01*
X64500449Y-98746070D01*
X64643955Y-97490392D01*
X65482701Y-90151362D01*
X65486374Y-90132439D01*
X65559991Y-89866053D01*
X65561144Y-89862136D01*
X65595114Y-89753412D01*
X65597718Y-89745930D01*
X67584167Y-84581165D01*
X67587476Y-84573371D01*
X67616975Y-84510000D01*
X67708535Y-84313304D01*
X67710298Y-84309675D01*
X68247164Y-83249818D01*
X68249040Y-83246262D01*
X68390865Y-82987930D01*
X68400818Y-82972607D01*
X72744914Y-77256691D01*
X72755943Y-77244056D01*
X79236283Y-70763716D01*
X79267247Y-70741129D01*
X84319858Y-68142643D01*
X86885900Y-68142643D01*
X86885900Y-68357356D01*
X86919489Y-68569428D01*
X86985837Y-68773630D01*
X86985838Y-68773633D01*
X87029535Y-68859392D01*
X87083317Y-68964944D01*
X87209523Y-69138651D01*
X87361349Y-69290477D01*
X87535056Y-69416683D01*
X87593754Y-69446591D01*
X87726366Y-69514161D01*
X87726369Y-69514162D01*
X87804830Y-69539655D01*
X87930573Y-69580511D01*
X88142643Y-69614100D01*
X88142644Y-69614100D01*
X88357356Y-69614100D01*
X88357357Y-69614100D01*
X88569427Y-69580511D01*
X88773633Y-69514161D01*
X88964944Y-69416683D01*
X89138651Y-69290477D01*
X89290477Y-69138651D01*
X89353713Y-69051613D01*
X89358045Y-69048273D01*
X89360318Y-69043297D01*
X89385417Y-69027166D01*
X89409043Y-69008949D01*
X89415714Y-69007696D01*
X89419096Y-69005523D01*
X89454031Y-69000500D01*
X89647628Y-69000500D01*
X89714667Y-69020185D01*
X89760422Y-69072989D01*
X89763810Y-69081167D01*
X89806202Y-69194828D01*
X89806205Y-69194833D01*
X89807161Y-69196110D01*
X89807717Y-69197603D01*
X89810454Y-69202614D01*
X89809733Y-69203007D01*
X89831575Y-69261575D01*
X89816721Y-69329848D01*
X89807164Y-69344719D01*
X89806649Y-69345406D01*
X89806645Y-69345413D01*
X89756403Y-69480120D01*
X89756401Y-69480127D01*
X89750000Y-69539655D01*
X89750000Y-70290000D01*
X96750000Y-70290000D01*
X96750000Y-69539672D01*
X96749999Y-69539655D01*
X96743598Y-69480127D01*
X96743596Y-69480120D01*
X96693354Y-69345413D01*
X96693350Y-69345406D01*
X96692841Y-69344726D01*
X96692543Y-69343929D01*
X96689103Y-69337628D01*
X96690009Y-69337133D01*
X96668424Y-69279262D01*
X96683276Y-69210989D01*
X96692843Y-69196102D01*
X96693796Y-69194831D01*
X96744091Y-69059983D01*
X96750500Y-69000373D01*
X96750499Y-66999628D01*
X96744091Y-66940017D01*
X96693796Y-66805169D01*
X96693795Y-66805168D01*
X96693793Y-66805164D01*
X96607547Y-66689955D01*
X96607544Y-66689952D01*
X96492335Y-66603706D01*
X96492328Y-66603702D01*
X96357482Y-66553408D01*
X96357483Y-66553408D01*
X96297883Y-66547001D01*
X96297881Y-66547000D01*
X96297873Y-66547000D01*
X96297864Y-66547000D01*
X90202129Y-66547000D01*
X90202123Y-66547001D01*
X90142516Y-66553408D01*
X90007671Y-66603702D01*
X90007664Y-66603706D01*
X89892455Y-66689952D01*
X89892452Y-66689955D01*
X89806206Y-66805164D01*
X89806202Y-66805171D01*
X89763810Y-66918833D01*
X89721939Y-66974767D01*
X89656475Y-66999184D01*
X89647628Y-66999500D01*
X88830215Y-66999500D01*
X88778397Y-66987060D01*
X88778132Y-66987702D01*
X88774082Y-66986024D01*
X88773922Y-66985986D01*
X88773630Y-66985837D01*
X88569428Y-66919489D01*
X88463392Y-66902694D01*
X88357357Y-66885900D01*
X88142643Y-66885900D01*
X88071953Y-66897096D01*
X87930571Y-66919489D01*
X87726369Y-66985837D01*
X87726366Y-66985838D01*
X87535055Y-67083317D01*
X87435949Y-67155322D01*
X87361349Y-67209523D01*
X87361347Y-67209525D01*
X87361346Y-67209525D01*
X87209525Y-67361346D01*
X87209525Y-67361347D01*
X87209523Y-67361349D01*
X87155322Y-67435949D01*
X87083317Y-67535055D01*
X86985838Y-67726366D01*
X86985837Y-67726369D01*
X86919489Y-67930571D01*
X86885900Y-68142643D01*
X84319858Y-68142643D01*
X87985165Y-66257628D01*
X88016326Y-66246562D01*
X97487365Y-64252660D01*
X97512910Y-64250000D01*
X103220932Y-64250000D01*
X103232515Y-64250542D01*
G37*
%TD.AperFunction*%
%TD*%
M02*
