%TF.GenerationSoftware,KiCad,Pcbnew,9.0.1*%
%TF.CreationDate,2025-07-01T02:02:19-04:00*%
%TF.ProjectId,EMP_Cyclone_SAO_v1,454d505f-4379-4636-9c6f-6e655f53414f,rev?*%
%TF.SameCoordinates,Original*%
%TF.FileFunction,Legend,Bot*%
%TF.FilePolarity,Positive*%
%FSLAX46Y46*%
G04 Gerber Fmt 4.6, Leading zero omitted, Abs format (unit mm)*
G04 Created by KiCad (PCBNEW 9.0.1) date 2025-07-01 02:02:19*
%MOMM*%
%LPD*%
G01*
G04 APERTURE LIST*
G04 Aperture macros list*
%AMRoundRect*
0 Rectangle with rounded corners*
0 $1 Rounding radius*
0 $2 $3 $4 $5 $6 $7 $8 $9 X,Y pos of 4 corners*
0 Add a 4 corners polygon primitive as box body*
4,1,4,$2,$3,$4,$5,$6,$7,$8,$9,$2,$3,0*
0 Add four circle primitives for the rounded corners*
1,1,$1+$1,$2,$3*
1,1,$1+$1,$4,$5*
1,1,$1+$1,$6,$7*
1,1,$1+$1,$8,$9*
0 Add four rect primitives between the rounded corners*
20,1,$1+$1,$2,$3,$4,$5,0*
20,1,$1+$1,$4,$5,$6,$7,0*
20,1,$1+$1,$6,$7,$8,$9,0*
20,1,$1+$1,$8,$9,$2,$3,0*%
G04 Aperture macros list end*
%ADD10C,0.100000*%
%ADD11C,0.150000*%
%ADD12C,0.700000*%
%ADD13C,0.000000*%
%ADD14C,0.127000*%
%ADD15C,1.727200*%
%ADD16C,2.000000*%
%ADD17R,1.727200X1.727200*%
%ADD18O,1.727200X1.727200*%
%ADD19RoundRect,0.102000X3.000000X0.952500X-3.000000X0.952500X-3.000000X-0.952500X3.000000X-0.952500X0*%
G04 APERTURE END LIST*
D10*
X95000000Y-113750000D02*
X105000000Y-113750000D01*
X105000000Y-115750000D01*
X95000000Y-115750000D01*
X95000000Y-113750000D01*
G36*
X95000000Y-113750000D02*
G01*
X105000000Y-113750000D01*
X105000000Y-115750000D01*
X95000000Y-115750000D01*
X95000000Y-113750000D01*
G37*
X145750000Y-93750000D02*
X146000000Y-93750000D01*
X145750000Y-93750000D01*
X109446115Y-134348609D02*
X109112782Y-134348609D01*
X108969925Y-134872419D02*
X109446115Y-134872419D01*
X109446115Y-134872419D02*
X109446115Y-133872419D01*
X109446115Y-133872419D02*
X108969925Y-133872419D01*
X108541353Y-134872419D02*
X108541353Y-133872419D01*
X108541353Y-133872419D02*
X108208020Y-134586704D01*
X108208020Y-134586704D02*
X107874687Y-133872419D01*
X107874687Y-133872419D02*
X107874687Y-134872419D01*
X107398496Y-134872419D02*
X107398496Y-133872419D01*
X107398496Y-133872419D02*
X107017544Y-133872419D01*
X107017544Y-133872419D02*
X106922306Y-133920038D01*
X106922306Y-133920038D02*
X106874687Y-133967657D01*
X106874687Y-133967657D02*
X106827068Y-134062895D01*
X106827068Y-134062895D02*
X106827068Y-134205752D01*
X106827068Y-134205752D02*
X106874687Y-134300990D01*
X106874687Y-134300990D02*
X106922306Y-134348609D01*
X106922306Y-134348609D02*
X107017544Y-134396228D01*
X107017544Y-134396228D02*
X107398496Y-134396228D01*
X105065163Y-134777180D02*
X105112782Y-134824800D01*
X105112782Y-134824800D02*
X105255639Y-134872419D01*
X105255639Y-134872419D02*
X105350877Y-134872419D01*
X105350877Y-134872419D02*
X105493734Y-134824800D01*
X105493734Y-134824800D02*
X105588972Y-134729561D01*
X105588972Y-134729561D02*
X105636591Y-134634323D01*
X105636591Y-134634323D02*
X105684210Y-134443847D01*
X105684210Y-134443847D02*
X105684210Y-134300990D01*
X105684210Y-134300990D02*
X105636591Y-134110514D01*
X105636591Y-134110514D02*
X105588972Y-134015276D01*
X105588972Y-134015276D02*
X105493734Y-133920038D01*
X105493734Y-133920038D02*
X105350877Y-133872419D01*
X105350877Y-133872419D02*
X105255639Y-133872419D01*
X105255639Y-133872419D02*
X105112782Y-133920038D01*
X105112782Y-133920038D02*
X105065163Y-133967657D01*
X104731829Y-134205752D02*
X104493734Y-134872419D01*
X104255639Y-134205752D02*
X104493734Y-134872419D01*
X104493734Y-134872419D02*
X104588972Y-135110514D01*
X104588972Y-135110514D02*
X104636591Y-135158133D01*
X104636591Y-135158133D02*
X104731829Y-135205752D01*
X103446115Y-134824800D02*
X103541353Y-134872419D01*
X103541353Y-134872419D02*
X103731829Y-134872419D01*
X103731829Y-134872419D02*
X103827067Y-134824800D01*
X103827067Y-134824800D02*
X103874686Y-134777180D01*
X103874686Y-134777180D02*
X103922305Y-134681942D01*
X103922305Y-134681942D02*
X103922305Y-134396228D01*
X103922305Y-134396228D02*
X103874686Y-134300990D01*
X103874686Y-134300990D02*
X103827067Y-134253371D01*
X103827067Y-134253371D02*
X103731829Y-134205752D01*
X103731829Y-134205752D02*
X103541353Y-134205752D01*
X103541353Y-134205752D02*
X103446115Y-134253371D01*
X102874686Y-134872419D02*
X102969924Y-134824800D01*
X102969924Y-134824800D02*
X103017543Y-134729561D01*
X103017543Y-134729561D02*
X103017543Y-133872419D01*
X102350876Y-134872419D02*
X102446114Y-134824800D01*
X102446114Y-134824800D02*
X102493733Y-134777180D01*
X102493733Y-134777180D02*
X102541352Y-134681942D01*
X102541352Y-134681942D02*
X102541352Y-134396228D01*
X102541352Y-134396228D02*
X102493733Y-134300990D01*
X102493733Y-134300990D02*
X102446114Y-134253371D01*
X102446114Y-134253371D02*
X102350876Y-134205752D01*
X102350876Y-134205752D02*
X102208019Y-134205752D01*
X102208019Y-134205752D02*
X102112781Y-134253371D01*
X102112781Y-134253371D02*
X102065162Y-134300990D01*
X102065162Y-134300990D02*
X102017543Y-134396228D01*
X102017543Y-134396228D02*
X102017543Y-134681942D01*
X102017543Y-134681942D02*
X102065162Y-134777180D01*
X102065162Y-134777180D02*
X102112781Y-134824800D01*
X102112781Y-134824800D02*
X102208019Y-134872419D01*
X102208019Y-134872419D02*
X102350876Y-134872419D01*
X101588971Y-134205752D02*
X101588971Y-134872419D01*
X101588971Y-134300990D02*
X101541352Y-134253371D01*
X101541352Y-134253371D02*
X101446114Y-134205752D01*
X101446114Y-134205752D02*
X101303257Y-134205752D01*
X101303257Y-134205752D02*
X101208019Y-134253371D01*
X101208019Y-134253371D02*
X101160400Y-134348609D01*
X101160400Y-134348609D02*
X101160400Y-134872419D01*
X100303257Y-134824800D02*
X100398495Y-134872419D01*
X100398495Y-134872419D02*
X100588971Y-134872419D01*
X100588971Y-134872419D02*
X100684209Y-134824800D01*
X100684209Y-134824800D02*
X100731828Y-134729561D01*
X100731828Y-134729561D02*
X100731828Y-134348609D01*
X100731828Y-134348609D02*
X100684209Y-134253371D01*
X100684209Y-134253371D02*
X100588971Y-134205752D01*
X100588971Y-134205752D02*
X100398495Y-134205752D01*
X100398495Y-134205752D02*
X100303257Y-134253371D01*
X100303257Y-134253371D02*
X100255638Y-134348609D01*
X100255638Y-134348609D02*
X100255638Y-134443847D01*
X100255638Y-134443847D02*
X100731828Y-134539085D01*
X99112780Y-134824800D02*
X98969923Y-134872419D01*
X98969923Y-134872419D02*
X98731828Y-134872419D01*
X98731828Y-134872419D02*
X98636590Y-134824800D01*
X98636590Y-134824800D02*
X98588971Y-134777180D01*
X98588971Y-134777180D02*
X98541352Y-134681942D01*
X98541352Y-134681942D02*
X98541352Y-134586704D01*
X98541352Y-134586704D02*
X98588971Y-134491466D01*
X98588971Y-134491466D02*
X98636590Y-134443847D01*
X98636590Y-134443847D02*
X98731828Y-134396228D01*
X98731828Y-134396228D02*
X98922304Y-134348609D01*
X98922304Y-134348609D02*
X99017542Y-134300990D01*
X99017542Y-134300990D02*
X99065161Y-134253371D01*
X99065161Y-134253371D02*
X99112780Y-134158133D01*
X99112780Y-134158133D02*
X99112780Y-134062895D01*
X99112780Y-134062895D02*
X99065161Y-133967657D01*
X99065161Y-133967657D02*
X99017542Y-133920038D01*
X99017542Y-133920038D02*
X98922304Y-133872419D01*
X98922304Y-133872419D02*
X98684209Y-133872419D01*
X98684209Y-133872419D02*
X98541352Y-133920038D01*
X98160399Y-134586704D02*
X97684209Y-134586704D01*
X98255637Y-134872419D02*
X97922304Y-133872419D01*
X97922304Y-133872419D02*
X97588971Y-134872419D01*
X97065161Y-133872419D02*
X96874685Y-133872419D01*
X96874685Y-133872419D02*
X96779447Y-133920038D01*
X96779447Y-133920038D02*
X96684209Y-134015276D01*
X96684209Y-134015276D02*
X96636590Y-134205752D01*
X96636590Y-134205752D02*
X96636590Y-134539085D01*
X96636590Y-134539085D02*
X96684209Y-134729561D01*
X96684209Y-134729561D02*
X96779447Y-134824800D01*
X96779447Y-134824800D02*
X96874685Y-134872419D01*
X96874685Y-134872419D02*
X97065161Y-134872419D01*
X97065161Y-134872419D02*
X97160399Y-134824800D01*
X97160399Y-134824800D02*
X97255637Y-134729561D01*
X97255637Y-134729561D02*
X97303256Y-134539085D01*
X97303256Y-134539085D02*
X97303256Y-134205752D01*
X97303256Y-134205752D02*
X97255637Y-134015276D01*
X97255637Y-134015276D02*
X97160399Y-133920038D01*
X97160399Y-133920038D02*
X97065161Y-133872419D01*
X95446113Y-134872419D02*
X95446113Y-133872419D01*
X95446113Y-133872419D02*
X95065161Y-133872419D01*
X95065161Y-133872419D02*
X94969923Y-133920038D01*
X94969923Y-133920038D02*
X94922304Y-133967657D01*
X94922304Y-133967657D02*
X94874685Y-134062895D01*
X94874685Y-134062895D02*
X94874685Y-134205752D01*
X94874685Y-134205752D02*
X94922304Y-134300990D01*
X94922304Y-134300990D02*
X94969923Y-134348609D01*
X94969923Y-134348609D02*
X95065161Y-134396228D01*
X95065161Y-134396228D02*
X95446113Y-134396228D01*
X93874685Y-134777180D02*
X93922304Y-134824800D01*
X93922304Y-134824800D02*
X94065161Y-134872419D01*
X94065161Y-134872419D02*
X94160399Y-134872419D01*
X94160399Y-134872419D02*
X94303256Y-134824800D01*
X94303256Y-134824800D02*
X94398494Y-134729561D01*
X94398494Y-134729561D02*
X94446113Y-134634323D01*
X94446113Y-134634323D02*
X94493732Y-134443847D01*
X94493732Y-134443847D02*
X94493732Y-134300990D01*
X94493732Y-134300990D02*
X94446113Y-134110514D01*
X94446113Y-134110514D02*
X94398494Y-134015276D01*
X94398494Y-134015276D02*
X94303256Y-133920038D01*
X94303256Y-133920038D02*
X94160399Y-133872419D01*
X94160399Y-133872419D02*
X94065161Y-133872419D01*
X94065161Y-133872419D02*
X93922304Y-133920038D01*
X93922304Y-133920038D02*
X93874685Y-133967657D01*
X93112780Y-134348609D02*
X92969923Y-134396228D01*
X92969923Y-134396228D02*
X92922304Y-134443847D01*
X92922304Y-134443847D02*
X92874685Y-134539085D01*
X92874685Y-134539085D02*
X92874685Y-134681942D01*
X92874685Y-134681942D02*
X92922304Y-134777180D01*
X92922304Y-134777180D02*
X92969923Y-134824800D01*
X92969923Y-134824800D02*
X93065161Y-134872419D01*
X93065161Y-134872419D02*
X93446113Y-134872419D01*
X93446113Y-134872419D02*
X93446113Y-133872419D01*
X93446113Y-133872419D02*
X93112780Y-133872419D01*
X93112780Y-133872419D02*
X93017542Y-133920038D01*
X93017542Y-133920038D02*
X92969923Y-133967657D01*
X92969923Y-133967657D02*
X92922304Y-134062895D01*
X92922304Y-134062895D02*
X92922304Y-134158133D01*
X92922304Y-134158133D02*
X92969923Y-134253371D01*
X92969923Y-134253371D02*
X93017542Y-134300990D01*
X93017542Y-134300990D02*
X93112780Y-134348609D01*
X93112780Y-134348609D02*
X93446113Y-134348609D01*
X91779446Y-134205752D02*
X91541351Y-134872419D01*
X91541351Y-134872419D02*
X91303256Y-134205752D01*
X90969922Y-133967657D02*
X90922303Y-133920038D01*
X90922303Y-133920038D02*
X90827065Y-133872419D01*
X90827065Y-133872419D02*
X90588970Y-133872419D01*
X90588970Y-133872419D02*
X90493732Y-133920038D01*
X90493732Y-133920038D02*
X90446113Y-133967657D01*
X90446113Y-133967657D02*
X90398494Y-134062895D01*
X90398494Y-134062895D02*
X90398494Y-134158133D01*
X90398494Y-134158133D02*
X90446113Y-134300990D01*
X90446113Y-134300990D02*
X91017541Y-134872419D01*
X91017541Y-134872419D02*
X90398494Y-134872419D01*
X101065163Y-92059561D02*
X101160401Y-92154800D01*
X101160401Y-92154800D02*
X101446115Y-92250038D01*
X101446115Y-92250038D02*
X101636591Y-92250038D01*
X101636591Y-92250038D02*
X101922306Y-92154800D01*
X101922306Y-92154800D02*
X102112782Y-91964323D01*
X102112782Y-91964323D02*
X102208020Y-91773847D01*
X102208020Y-91773847D02*
X102303258Y-91392895D01*
X102303258Y-91392895D02*
X102303258Y-91107180D01*
X102303258Y-91107180D02*
X102208020Y-90726228D01*
X102208020Y-90726228D02*
X102112782Y-90535752D01*
X102112782Y-90535752D02*
X101922306Y-90345276D01*
X101922306Y-90345276D02*
X101636591Y-90250038D01*
X101636591Y-90250038D02*
X101446115Y-90250038D01*
X101446115Y-90250038D02*
X101160401Y-90345276D01*
X101160401Y-90345276D02*
X101065163Y-90440514D01*
X100208020Y-92250038D02*
X100208020Y-90250038D01*
X100208020Y-90250038D02*
X99541353Y-91678609D01*
X99541353Y-91678609D02*
X98874687Y-90250038D01*
X98874687Y-90250038D02*
X98874687Y-92250038D01*
X97065163Y-92154800D02*
X97255639Y-92250038D01*
X97255639Y-92250038D02*
X97636592Y-92250038D01*
X97636592Y-92250038D02*
X97827068Y-92154800D01*
X97827068Y-92154800D02*
X97922306Y-92059561D01*
X97922306Y-92059561D02*
X98017544Y-91869085D01*
X98017544Y-91869085D02*
X98017544Y-91297657D01*
X98017544Y-91297657D02*
X97922306Y-91107180D01*
X97922306Y-91107180D02*
X97827068Y-91011942D01*
X97827068Y-91011942D02*
X97636592Y-90916704D01*
X97636592Y-90916704D02*
X97255639Y-90916704D01*
X97255639Y-90916704D02*
X97065163Y-91011942D01*
D11*
X98709999Y-138795164D02*
X98459999Y-139545164D01*
X98459999Y-139545164D02*
X98209999Y-138795164D01*
X97531428Y-139473735D02*
X97567142Y-139509450D01*
X97567142Y-139509450D02*
X97674285Y-139545164D01*
X97674285Y-139545164D02*
X97745713Y-139545164D01*
X97745713Y-139545164D02*
X97852856Y-139509450D01*
X97852856Y-139509450D02*
X97924285Y-139438021D01*
X97924285Y-139438021D02*
X97959999Y-139366592D01*
X97959999Y-139366592D02*
X97995713Y-139223735D01*
X97995713Y-139223735D02*
X97995713Y-139116592D01*
X97995713Y-139116592D02*
X97959999Y-138973735D01*
X97959999Y-138973735D02*
X97924285Y-138902307D01*
X97924285Y-138902307D02*
X97852856Y-138830878D01*
X97852856Y-138830878D02*
X97745713Y-138795164D01*
X97745713Y-138795164D02*
X97674285Y-138795164D01*
X97674285Y-138795164D02*
X97567142Y-138830878D01*
X97567142Y-138830878D02*
X97531428Y-138866592D01*
X96781428Y-139473735D02*
X96817142Y-139509450D01*
X96817142Y-139509450D02*
X96924285Y-139545164D01*
X96924285Y-139545164D02*
X96995713Y-139545164D01*
X96995713Y-139545164D02*
X97102856Y-139509450D01*
X97102856Y-139509450D02*
X97174285Y-139438021D01*
X97174285Y-139438021D02*
X97209999Y-139366592D01*
X97209999Y-139366592D02*
X97245713Y-139223735D01*
X97245713Y-139223735D02*
X97245713Y-139116592D01*
X97245713Y-139116592D02*
X97209999Y-138973735D01*
X97209999Y-138973735D02*
X97174285Y-138902307D01*
X97174285Y-138902307D02*
X97102856Y-138830878D01*
X97102856Y-138830878D02*
X96995713Y-138795164D01*
X96995713Y-138795164D02*
X96924285Y-138795164D01*
X96924285Y-138795164D02*
X96817142Y-138830878D01*
X96817142Y-138830878D02*
X96781428Y-138866592D01*
X101160713Y-139509450D02*
X101053571Y-139545164D01*
X101053571Y-139545164D02*
X100874999Y-139545164D01*
X100874999Y-139545164D02*
X100803571Y-139509450D01*
X100803571Y-139509450D02*
X100767856Y-139473735D01*
X100767856Y-139473735D02*
X100732142Y-139402307D01*
X100732142Y-139402307D02*
X100732142Y-139330878D01*
X100732142Y-139330878D02*
X100767856Y-139259450D01*
X100767856Y-139259450D02*
X100803571Y-139223735D01*
X100803571Y-139223735D02*
X100874999Y-139188021D01*
X100874999Y-139188021D02*
X101017856Y-139152307D01*
X101017856Y-139152307D02*
X101089285Y-139116592D01*
X101089285Y-139116592D02*
X101124999Y-139080878D01*
X101124999Y-139080878D02*
X101160713Y-139009450D01*
X101160713Y-139009450D02*
X101160713Y-138938021D01*
X101160713Y-138938021D02*
X101124999Y-138866592D01*
X101124999Y-138866592D02*
X101089285Y-138830878D01*
X101089285Y-138830878D02*
X101017856Y-138795164D01*
X101017856Y-138795164D02*
X100839285Y-138795164D01*
X100839285Y-138795164D02*
X100732142Y-138830878D01*
X100410713Y-139545164D02*
X100410713Y-138795164D01*
X100410713Y-138795164D02*
X100232142Y-138795164D01*
X100232142Y-138795164D02*
X100124999Y-138830878D01*
X100124999Y-138830878D02*
X100053570Y-138902307D01*
X100053570Y-138902307D02*
X100017856Y-138973735D01*
X100017856Y-138973735D02*
X99982142Y-139116592D01*
X99982142Y-139116592D02*
X99982142Y-139223735D01*
X99982142Y-139223735D02*
X100017856Y-139366592D01*
X100017856Y-139366592D02*
X100053570Y-139438021D01*
X100053570Y-139438021D02*
X100124999Y-139509450D01*
X100124999Y-139509450D02*
X100232142Y-139545164D01*
X100232142Y-139545164D02*
X100410713Y-139545164D01*
X99696427Y-139330878D02*
X99339285Y-139330878D01*
X99767856Y-139545164D02*
X99517856Y-138795164D01*
X99517856Y-138795164D02*
X99267856Y-139545164D01*
X98281428Y-144672878D02*
X98352857Y-144637164D01*
X98352857Y-144637164D02*
X98459999Y-144637164D01*
X98459999Y-144637164D02*
X98567142Y-144672878D01*
X98567142Y-144672878D02*
X98638571Y-144744307D01*
X98638571Y-144744307D02*
X98674285Y-144815735D01*
X98674285Y-144815735D02*
X98709999Y-144958592D01*
X98709999Y-144958592D02*
X98709999Y-145065735D01*
X98709999Y-145065735D02*
X98674285Y-145208592D01*
X98674285Y-145208592D02*
X98638571Y-145280021D01*
X98638571Y-145280021D02*
X98567142Y-145351450D01*
X98567142Y-145351450D02*
X98459999Y-145387164D01*
X98459999Y-145387164D02*
X98388571Y-145387164D01*
X98388571Y-145387164D02*
X98281428Y-145351450D01*
X98281428Y-145351450D02*
X98245714Y-145315735D01*
X98245714Y-145315735D02*
X98245714Y-145065735D01*
X98245714Y-145065735D02*
X98388571Y-145065735D01*
X97924285Y-145387164D02*
X97924285Y-144637164D01*
X97924285Y-144637164D02*
X97495714Y-145387164D01*
X97495714Y-145387164D02*
X97495714Y-144637164D01*
X97138571Y-145387164D02*
X97138571Y-144637164D01*
X97138571Y-144637164D02*
X96960000Y-144637164D01*
X96960000Y-144637164D02*
X96852857Y-144672878D01*
X96852857Y-144672878D02*
X96781428Y-144744307D01*
X96781428Y-144744307D02*
X96745714Y-144815735D01*
X96745714Y-144815735D02*
X96710000Y-144958592D01*
X96710000Y-144958592D02*
X96710000Y-145065735D01*
X96710000Y-145065735D02*
X96745714Y-145208592D01*
X96745714Y-145208592D02*
X96781428Y-145280021D01*
X96781428Y-145280021D02*
X96852857Y-145351450D01*
X96852857Y-145351450D02*
X96960000Y-145387164D01*
X96960000Y-145387164D02*
X97138571Y-145387164D01*
X104557142Y-138830878D02*
X104628571Y-138795164D01*
X104628571Y-138795164D02*
X104735713Y-138795164D01*
X104735713Y-138795164D02*
X104842856Y-138830878D01*
X104842856Y-138830878D02*
X104914285Y-138902307D01*
X104914285Y-138902307D02*
X104949999Y-138973735D01*
X104949999Y-138973735D02*
X104985713Y-139116592D01*
X104985713Y-139116592D02*
X104985713Y-139223735D01*
X104985713Y-139223735D02*
X104949999Y-139366592D01*
X104949999Y-139366592D02*
X104914285Y-139438021D01*
X104914285Y-139438021D02*
X104842856Y-139509450D01*
X104842856Y-139509450D02*
X104735713Y-139545164D01*
X104735713Y-139545164D02*
X104664285Y-139545164D01*
X104664285Y-139545164D02*
X104557142Y-139509450D01*
X104557142Y-139509450D02*
X104521428Y-139473735D01*
X104521428Y-139473735D02*
X104521428Y-139223735D01*
X104521428Y-139223735D02*
X104664285Y-139223735D01*
X104199999Y-139545164D02*
X104199999Y-138795164D01*
X104199999Y-138795164D02*
X103914285Y-138795164D01*
X103914285Y-138795164D02*
X103842856Y-138830878D01*
X103842856Y-138830878D02*
X103807142Y-138866592D01*
X103807142Y-138866592D02*
X103771428Y-138938021D01*
X103771428Y-138938021D02*
X103771428Y-139045164D01*
X103771428Y-139045164D02*
X103807142Y-139116592D01*
X103807142Y-139116592D02*
X103842856Y-139152307D01*
X103842856Y-139152307D02*
X103914285Y-139188021D01*
X103914285Y-139188021D02*
X104199999Y-139188021D01*
X103449999Y-139545164D02*
X103449999Y-138795164D01*
X102949999Y-138795164D02*
X102807142Y-138795164D01*
X102807142Y-138795164D02*
X102735713Y-138830878D01*
X102735713Y-138830878D02*
X102664285Y-138902307D01*
X102664285Y-138902307D02*
X102628570Y-139045164D01*
X102628570Y-139045164D02*
X102628570Y-139295164D01*
X102628570Y-139295164D02*
X102664285Y-139438021D01*
X102664285Y-139438021D02*
X102735713Y-139509450D01*
X102735713Y-139509450D02*
X102807142Y-139545164D01*
X102807142Y-139545164D02*
X102949999Y-139545164D01*
X102949999Y-139545164D02*
X103021428Y-139509450D01*
X103021428Y-139509450D02*
X103092856Y-139438021D01*
X103092856Y-139438021D02*
X103128570Y-139295164D01*
X103128570Y-139295164D02*
X103128570Y-139045164D01*
X103128570Y-139045164D02*
X103092856Y-138902307D01*
X103092856Y-138902307D02*
X103021428Y-138830878D01*
X103021428Y-138830878D02*
X102949999Y-138795164D01*
X101914285Y-139545164D02*
X102342856Y-139545164D01*
X102128571Y-139545164D02*
X102128571Y-138795164D01*
X102128571Y-138795164D02*
X102199999Y-138902307D01*
X102199999Y-138902307D02*
X102271428Y-138973735D01*
X102271428Y-138973735D02*
X102342856Y-139009450D01*
X101142856Y-145351450D02*
X101035714Y-145387164D01*
X101035714Y-145387164D02*
X100857142Y-145387164D01*
X100857142Y-145387164D02*
X100785714Y-145351450D01*
X100785714Y-145351450D02*
X100749999Y-145315735D01*
X100749999Y-145315735D02*
X100714285Y-145244307D01*
X100714285Y-145244307D02*
X100714285Y-145172878D01*
X100714285Y-145172878D02*
X100749999Y-145101450D01*
X100749999Y-145101450D02*
X100785714Y-145065735D01*
X100785714Y-145065735D02*
X100857142Y-145030021D01*
X100857142Y-145030021D02*
X100999999Y-144994307D01*
X100999999Y-144994307D02*
X101071428Y-144958592D01*
X101071428Y-144958592D02*
X101107142Y-144922878D01*
X101107142Y-144922878D02*
X101142856Y-144851450D01*
X101142856Y-144851450D02*
X101142856Y-144780021D01*
X101142856Y-144780021D02*
X101107142Y-144708592D01*
X101107142Y-144708592D02*
X101071428Y-144672878D01*
X101071428Y-144672878D02*
X100999999Y-144637164D01*
X100999999Y-144637164D02*
X100821428Y-144637164D01*
X100821428Y-144637164D02*
X100714285Y-144672878D01*
X99964285Y-145315735D02*
X99999999Y-145351450D01*
X99999999Y-145351450D02*
X100107142Y-145387164D01*
X100107142Y-145387164D02*
X100178570Y-145387164D01*
X100178570Y-145387164D02*
X100285713Y-145351450D01*
X100285713Y-145351450D02*
X100357142Y-145280021D01*
X100357142Y-145280021D02*
X100392856Y-145208592D01*
X100392856Y-145208592D02*
X100428570Y-145065735D01*
X100428570Y-145065735D02*
X100428570Y-144958592D01*
X100428570Y-144958592D02*
X100392856Y-144815735D01*
X100392856Y-144815735D02*
X100357142Y-144744307D01*
X100357142Y-144744307D02*
X100285713Y-144672878D01*
X100285713Y-144672878D02*
X100178570Y-144637164D01*
X100178570Y-144637164D02*
X100107142Y-144637164D01*
X100107142Y-144637164D02*
X99999999Y-144672878D01*
X99999999Y-144672878D02*
X99964285Y-144708592D01*
X99285713Y-145387164D02*
X99642856Y-145387164D01*
X99642856Y-145387164D02*
X99642856Y-144637164D01*
X104557142Y-144672878D02*
X104628571Y-144637164D01*
X104628571Y-144637164D02*
X104735713Y-144637164D01*
X104735713Y-144637164D02*
X104842856Y-144672878D01*
X104842856Y-144672878D02*
X104914285Y-144744307D01*
X104914285Y-144744307D02*
X104949999Y-144815735D01*
X104949999Y-144815735D02*
X104985713Y-144958592D01*
X104985713Y-144958592D02*
X104985713Y-145065735D01*
X104985713Y-145065735D02*
X104949999Y-145208592D01*
X104949999Y-145208592D02*
X104914285Y-145280021D01*
X104914285Y-145280021D02*
X104842856Y-145351450D01*
X104842856Y-145351450D02*
X104735713Y-145387164D01*
X104735713Y-145387164D02*
X104664285Y-145387164D01*
X104664285Y-145387164D02*
X104557142Y-145351450D01*
X104557142Y-145351450D02*
X104521428Y-145315735D01*
X104521428Y-145315735D02*
X104521428Y-145065735D01*
X104521428Y-145065735D02*
X104664285Y-145065735D01*
X104199999Y-145387164D02*
X104199999Y-144637164D01*
X104199999Y-144637164D02*
X103914285Y-144637164D01*
X103914285Y-144637164D02*
X103842856Y-144672878D01*
X103842856Y-144672878D02*
X103807142Y-144708592D01*
X103807142Y-144708592D02*
X103771428Y-144780021D01*
X103771428Y-144780021D02*
X103771428Y-144887164D01*
X103771428Y-144887164D02*
X103807142Y-144958592D01*
X103807142Y-144958592D02*
X103842856Y-144994307D01*
X103842856Y-144994307D02*
X103914285Y-145030021D01*
X103914285Y-145030021D02*
X104199999Y-145030021D01*
X103449999Y-145387164D02*
X103449999Y-144637164D01*
X102949999Y-144637164D02*
X102807142Y-144637164D01*
X102807142Y-144637164D02*
X102735713Y-144672878D01*
X102735713Y-144672878D02*
X102664285Y-144744307D01*
X102664285Y-144744307D02*
X102628570Y-144887164D01*
X102628570Y-144887164D02*
X102628570Y-145137164D01*
X102628570Y-145137164D02*
X102664285Y-145280021D01*
X102664285Y-145280021D02*
X102735713Y-145351450D01*
X102735713Y-145351450D02*
X102807142Y-145387164D01*
X102807142Y-145387164D02*
X102949999Y-145387164D01*
X102949999Y-145387164D02*
X103021428Y-145351450D01*
X103021428Y-145351450D02*
X103092856Y-145280021D01*
X103092856Y-145280021D02*
X103128570Y-145137164D01*
X103128570Y-145137164D02*
X103128570Y-144887164D01*
X103128570Y-144887164D02*
X103092856Y-144744307D01*
X103092856Y-144744307D02*
X103021428Y-144672878D01*
X103021428Y-144672878D02*
X102949999Y-144637164D01*
X102342856Y-144708592D02*
X102307142Y-144672878D01*
X102307142Y-144672878D02*
X102235714Y-144637164D01*
X102235714Y-144637164D02*
X102057142Y-144637164D01*
X102057142Y-144637164D02*
X101985714Y-144672878D01*
X101985714Y-144672878D02*
X101949999Y-144708592D01*
X101949999Y-144708592D02*
X101914285Y-144780021D01*
X101914285Y-144780021D02*
X101914285Y-144851450D01*
X101914285Y-144851450D02*
X101949999Y-144958592D01*
X101949999Y-144958592D02*
X102378571Y-145387164D01*
X102378571Y-145387164D02*
X101914285Y-145387164D01*
D12*
%TO.C,REF\u002A\u002A*%
X92884000Y-137936000D02*
X92884000Y-146318000D01*
X92884000Y-146318000D02*
X107616000Y-146318000D01*
X97710000Y-137936000D02*
X92884000Y-137936000D01*
X107529640Y-137885200D02*
X102790000Y-137885200D01*
X107616000Y-146318000D02*
X107616000Y-137936000D01*
D13*
%TO.C,G\u002A\u002A\u002A*%
G36*
X94949499Y-129664440D02*
G01*
X94949499Y-129876461D01*
X94737479Y-129876461D01*
X94525459Y-129876461D01*
X94525459Y-129664440D01*
X94525459Y-129452420D01*
X94737479Y-129452420D01*
X94949499Y-129452420D01*
X94949499Y-129664440D01*
G37*
G36*
X95373539Y-130512521D02*
G01*
X95373539Y-130724541D01*
X95161519Y-130724541D01*
X94949499Y-130724541D01*
X94949499Y-130512521D01*
X94949499Y-130300501D01*
X95161519Y-130300501D01*
X95373539Y-130300501D01*
X95373539Y-130512521D01*
G37*
G36*
X96221620Y-130512521D02*
G01*
X96221620Y-130724541D01*
X96009600Y-130724541D01*
X95797580Y-130724541D01*
X95797580Y-130512521D01*
X95797580Y-130300501D01*
X96009600Y-130300501D01*
X96221620Y-130300501D01*
X96221620Y-130512521D01*
G37*
G36*
X97069700Y-125000000D02*
G01*
X97069700Y-125212020D01*
X96645660Y-125212020D01*
X96221620Y-125212020D01*
X96221620Y-125000000D01*
X96221620Y-124787980D01*
X96645660Y-124787980D01*
X97069700Y-124787980D01*
X97069700Y-125000000D01*
G37*
G36*
X97069700Y-125848080D02*
G01*
X97069700Y-126060100D01*
X96857680Y-126060100D01*
X96645660Y-126060100D01*
X96645660Y-125848080D01*
X96645660Y-125636060D01*
X96857680Y-125636060D01*
X97069700Y-125636060D01*
X97069700Y-125848080D01*
G37*
G36*
X97069700Y-130512521D02*
G01*
X97069700Y-130724541D01*
X96857680Y-130724541D01*
X96645660Y-130724541D01*
X96645660Y-130512521D01*
X96645660Y-130300501D01*
X96857680Y-130300501D01*
X97069700Y-130300501D01*
X97069700Y-130512521D01*
G37*
G36*
X97493740Y-126696160D02*
G01*
X97493740Y-126908180D01*
X97281720Y-126908180D01*
X97069700Y-126908180D01*
X97069700Y-126696160D01*
X97069700Y-126484140D01*
X97281720Y-126484140D01*
X97493740Y-126484140D01*
X97493740Y-126696160D01*
G37*
G36*
X97917780Y-122455759D02*
G01*
X97917780Y-122667779D01*
X97705760Y-122667779D01*
X97493740Y-122667779D01*
X97493740Y-122455759D01*
X97493740Y-122243739D01*
X97705760Y-122243739D01*
X97917780Y-122243739D01*
X97917780Y-122455759D01*
G37*
G36*
X98341820Y-121395659D02*
G01*
X98341820Y-121819699D01*
X98129800Y-121819699D01*
X97917780Y-121819699D01*
X97917780Y-121395659D01*
X97917780Y-120971619D01*
X98129800Y-120971619D01*
X98341820Y-120971619D01*
X98341820Y-121395659D01*
G37*
G36*
X98341820Y-127968280D02*
G01*
X98341820Y-128180300D01*
X98129800Y-128180300D01*
X97917780Y-128180300D01*
X97917780Y-127968280D01*
X97917780Y-127756260D01*
X98129800Y-127756260D01*
X98341820Y-127756260D01*
X98341820Y-127968280D01*
G37*
G36*
X98341820Y-130512521D02*
G01*
X98341820Y-130724541D01*
X98129800Y-130724541D01*
X97917780Y-130724541D01*
X97917780Y-130512521D01*
X97917780Y-130300501D01*
X98129800Y-130300501D01*
X98341820Y-130300501D01*
X98341820Y-130512521D01*
G37*
G36*
X99613940Y-120335559D02*
G01*
X99613940Y-120547579D01*
X99401920Y-120547579D01*
X99189900Y-120547579D01*
X99189900Y-120335559D01*
X99189900Y-120123539D01*
X99401920Y-120123539D01*
X99613940Y-120123539D01*
X99613940Y-120335559D01*
G37*
G36*
X100886060Y-127120200D02*
G01*
X100886060Y-127332220D01*
X100462020Y-127332220D01*
X100037980Y-127332220D01*
X100037980Y-127120200D01*
X100037980Y-126908180D01*
X100462020Y-126908180D01*
X100886060Y-126908180D01*
X100886060Y-127120200D01*
G37*
G36*
X101310100Y-124575960D02*
G01*
X101310100Y-124787980D01*
X101098080Y-124787980D01*
X100886060Y-124787980D01*
X100886060Y-124575960D01*
X100886060Y-124363940D01*
X101098080Y-124363940D01*
X101310100Y-124363940D01*
X101310100Y-124575960D01*
G37*
G36*
X103854341Y-125424040D02*
G01*
X103854341Y-125636060D01*
X103642321Y-125636060D01*
X103430301Y-125636060D01*
X103430301Y-125424040D01*
X103430301Y-125212020D01*
X103642321Y-125212020D01*
X103854341Y-125212020D01*
X103854341Y-125424040D01*
G37*
G36*
X96009600Y-125636060D02*
G01*
X96221620Y-125636060D01*
X96221620Y-125848080D01*
X96221620Y-126060100D01*
X96009600Y-126060100D01*
X95797580Y-126060100D01*
X95797580Y-125848080D01*
X95797580Y-125636060D01*
X96009600Y-125636060D01*
G37*
G36*
X95797580Y-125424040D02*
G01*
X95797580Y-125636060D01*
X95373539Y-125636060D01*
X94949499Y-125636060D01*
X94949499Y-125424040D01*
X94949499Y-125212020D01*
X95373539Y-125212020D01*
X95797580Y-125212020D01*
X95797580Y-125424040D01*
G37*
G36*
X99189900Y-121819699D02*
G01*
X99189900Y-122243739D01*
X99613940Y-122243739D01*
X100037980Y-122243739D01*
X100037980Y-122455759D01*
X100037980Y-122667779D01*
X99189900Y-122667779D01*
X98341820Y-122667779D01*
X98341820Y-122455759D01*
X98341820Y-122243739D01*
X98553840Y-122243739D01*
X98765860Y-122243739D01*
X98765860Y-121819699D01*
X98765860Y-121395659D01*
X98977880Y-121395659D01*
X99189900Y-121395659D01*
X99189900Y-121819699D01*
G37*
G36*
X99825960Y-121395659D02*
G01*
X100037980Y-121395659D01*
X100037980Y-121607679D01*
X100037980Y-121819699D01*
X99825960Y-121819699D01*
X99613940Y-121819699D01*
X99613940Y-121607679D01*
X99613940Y-121395659D01*
X99825960Y-121395659D01*
G37*
G36*
X99613940Y-121183639D02*
G01*
X99613940Y-121395659D01*
X99401920Y-121395659D01*
X99189900Y-121395659D01*
X99189900Y-121183639D01*
X99189900Y-120971619D01*
X99401920Y-120971619D01*
X99613940Y-120971619D01*
X99613940Y-121183639D01*
G37*
G36*
X96645660Y-121395659D02*
G01*
X95585560Y-121395659D01*
X94525459Y-121395659D01*
X94525459Y-120335559D01*
X94525459Y-119699499D01*
X94949499Y-119699499D01*
X94949499Y-120335559D01*
X94949499Y-120971619D01*
X95585560Y-120971619D01*
X96221620Y-120971619D01*
X96221620Y-120335559D01*
X96221620Y-119699499D01*
X95585560Y-119699499D01*
X94949499Y-119699499D01*
X94525459Y-119699499D01*
X94525459Y-119275459D01*
X95585560Y-119275459D01*
X96645660Y-119275459D01*
X96645660Y-120335559D01*
X96645660Y-121395659D01*
G37*
G36*
X97493740Y-129028380D02*
G01*
X96857680Y-129028380D01*
X96221620Y-129028380D01*
X96221620Y-128392320D01*
X96221620Y-128180300D01*
X96645660Y-128180300D01*
X96645660Y-128392320D01*
X96645660Y-128604340D01*
X96857680Y-128604340D01*
X97069700Y-128604340D01*
X97069700Y-128392320D01*
X97069700Y-128180300D01*
X96857680Y-128180300D01*
X96645660Y-128180300D01*
X96221620Y-128180300D01*
X96221620Y-127756260D01*
X96857680Y-127756260D01*
X97493740Y-127756260D01*
X97493740Y-128392320D01*
X97493740Y-129028380D01*
G37*
G36*
X105974541Y-121395659D02*
G01*
X104914441Y-121395659D01*
X103854341Y-121395659D01*
X103854341Y-120335559D01*
X103854341Y-119699499D01*
X104278381Y-119699499D01*
X104278381Y-120335559D01*
X104278381Y-120971619D01*
X104914441Y-120971619D01*
X105550501Y-120971619D01*
X105550501Y-120335559D01*
X105550501Y-119699499D01*
X104914441Y-119699499D01*
X104278381Y-119699499D01*
X103854341Y-119699499D01*
X103854341Y-119275459D01*
X104914441Y-119275459D01*
X105974541Y-119275459D01*
X105974541Y-120335559D01*
X105974541Y-121395659D01*
G37*
G36*
X105974541Y-130724541D02*
G01*
X104914441Y-130724541D01*
X103854341Y-130724541D01*
X103854341Y-129664440D01*
X103854341Y-129028380D01*
X104278381Y-129028380D01*
X104278381Y-129664440D01*
X104278381Y-130300501D01*
X104914441Y-130300501D01*
X105550501Y-130300501D01*
X105550501Y-129664440D01*
X105550501Y-129028380D01*
X104914441Y-129028380D01*
X104278381Y-129028380D01*
X103854341Y-129028380D01*
X103854341Y-128604340D01*
X104914441Y-128604340D01*
X105974541Y-128604340D01*
X105974541Y-129664440D01*
X105974541Y-130724541D01*
G37*
G36*
X96645660Y-129452420D02*
G01*
X97493740Y-129452420D01*
X97493740Y-129664440D01*
X97493740Y-129876461D01*
X96645660Y-129876461D01*
X95797580Y-129876461D01*
X95797580Y-129664440D01*
X95797580Y-129452420D01*
X96645660Y-129452420D01*
G37*
G36*
X95797580Y-129028380D02*
G01*
X95797580Y-129452420D01*
X95585560Y-129452420D01*
X95373539Y-129452420D01*
X95373539Y-129240400D01*
X95373539Y-129028380D01*
X95161519Y-129028380D01*
X94949499Y-129028380D01*
X94949499Y-128816360D01*
X94949499Y-128604340D01*
X95373539Y-128604340D01*
X95797580Y-128604340D01*
X95797580Y-129028380D01*
G37*
G36*
X95797580Y-126484140D02*
G01*
X95797580Y-126908180D01*
X96221620Y-126908180D01*
X96645660Y-126908180D01*
X96645660Y-127120200D01*
X96645660Y-127332220D01*
X96221620Y-127332220D01*
X95797580Y-127332220D01*
X95797580Y-127544240D01*
X95797580Y-127756260D01*
X95585560Y-127756260D01*
X95373539Y-127756260D01*
X95373539Y-127544240D01*
X95373539Y-127332220D01*
X95161519Y-127332220D01*
X94949499Y-127332220D01*
X94949499Y-127120200D01*
X94949499Y-126908180D01*
X95161519Y-126908180D01*
X95373539Y-126908180D01*
X95373539Y-126484140D01*
X95373539Y-126060100D01*
X95585560Y-126060100D01*
X95797580Y-126060100D01*
X95797580Y-126484140D01*
G37*
G36*
X101310100Y-120759599D02*
G01*
X101310100Y-120971619D01*
X101522120Y-120971619D01*
X101734140Y-120971619D01*
X101734140Y-120759599D01*
X101734140Y-120547579D01*
X101946161Y-120547579D01*
X102158181Y-120547579D01*
X102158181Y-120971619D01*
X102158181Y-121395659D01*
X101946161Y-121395659D01*
X101734140Y-121395659D01*
X101734140Y-121607679D01*
X101734140Y-121819699D01*
X101522120Y-121819699D01*
X101310100Y-121819699D01*
X101310100Y-121395659D01*
X101310100Y-120971619D01*
X101098080Y-120971619D01*
X100886060Y-120971619D01*
X100886060Y-120759599D01*
X100886060Y-120547579D01*
X101098080Y-120547579D01*
X101310100Y-120547579D01*
X101310100Y-120759599D01*
G37*
G36*
X102370201Y-121395659D02*
G01*
X102582221Y-121395659D01*
X102582221Y-121607679D01*
X102582221Y-121819699D01*
X102370201Y-121819699D01*
X102158181Y-121819699D01*
X102158181Y-121607679D01*
X102158181Y-121395659D01*
X102370201Y-121395659D01*
G37*
G36*
X102582221Y-122667779D02*
G01*
X103006261Y-122667779D01*
X103006261Y-122879799D01*
X103006261Y-123091819D01*
X103218281Y-123091819D01*
X103430301Y-123091819D01*
X103430301Y-122879799D01*
X103430301Y-122667779D01*
X103642321Y-122667779D01*
X103854341Y-122667779D01*
X103854341Y-122879799D01*
X103854341Y-123091819D01*
X103642321Y-123091819D01*
X103430301Y-123091819D01*
X103430301Y-123303839D01*
X103430301Y-123515860D01*
X103642321Y-123515860D01*
X103854341Y-123515860D01*
X103854341Y-123303839D01*
X103854341Y-123091819D01*
X104066361Y-123091819D01*
X104278381Y-123091819D01*
X104278381Y-123303839D01*
X104278381Y-123515860D01*
X104066361Y-123515860D01*
X103854341Y-123515860D01*
X103854341Y-123727880D01*
X103854341Y-123939900D01*
X102794241Y-123939900D01*
X101734140Y-123939900D01*
X101734140Y-123727880D01*
X101734140Y-123515860D01*
X101946161Y-123515860D01*
X102158181Y-123515860D01*
X102158181Y-123091819D01*
X102158181Y-122667779D01*
X102582221Y-122667779D01*
G37*
G36*
X102158181Y-122455759D02*
G01*
X102158181Y-122667779D01*
X101946161Y-122667779D01*
X101734140Y-122667779D01*
X101734140Y-122455759D01*
X101734140Y-122243739D01*
X101946161Y-122243739D01*
X102158181Y-122243739D01*
X102158181Y-122455759D01*
G37*
G36*
X98977880Y-125212020D02*
G01*
X99613940Y-125212020D01*
X99613940Y-125424040D01*
X99613940Y-125636060D01*
X99401920Y-125636060D01*
X99189900Y-125636060D01*
X99189900Y-126060100D01*
X99189900Y-126484140D01*
X98977880Y-126484140D01*
X98765860Y-126484140D01*
X98765860Y-126272120D01*
X98765860Y-126060100D01*
X98553840Y-126060100D01*
X98341820Y-126060100D01*
X98341820Y-125636060D01*
X98341820Y-125212020D01*
X98977880Y-125212020D01*
G37*
G36*
X99825960Y-125636060D02*
G01*
X100037980Y-125636060D01*
X100037980Y-125848080D01*
X100037980Y-126060100D01*
X100250000Y-126060100D01*
X100462020Y-126060100D01*
X100462020Y-126272120D01*
X100462020Y-126484140D01*
X100037980Y-126484140D01*
X99613940Y-126484140D01*
X99613940Y-126060100D01*
X99613940Y-125636060D01*
X99825960Y-125636060D01*
G37*
G36*
X99189900Y-123939900D02*
G01*
X98977880Y-123939900D01*
X98765860Y-123939900D01*
X98765860Y-124151920D01*
X98765860Y-124363940D01*
X98553840Y-124363940D01*
X98341820Y-124363940D01*
X98341820Y-124787980D01*
X98341820Y-125212020D01*
X98129800Y-125212020D01*
X97917780Y-125212020D01*
X97917780Y-124787980D01*
X97917780Y-124363940D01*
X96857680Y-124363940D01*
X95797580Y-124363940D01*
X95797580Y-123939900D01*
X95797580Y-123515860D01*
X96009600Y-123515860D01*
X96221620Y-123515860D01*
X96221620Y-123303839D01*
X96221620Y-123091819D01*
X96645660Y-123091819D01*
X97069700Y-123091819D01*
X97069700Y-122879799D01*
X97069700Y-122667779D01*
X97281720Y-122667779D01*
X97493740Y-122667779D01*
X97493740Y-123091819D01*
X97493740Y-123515860D01*
X97705760Y-123515860D01*
X97917780Y-123515860D01*
X97917780Y-123727880D01*
X97917780Y-123939900D01*
X98129800Y-123939900D01*
X98341820Y-123939900D01*
X98341820Y-123727880D01*
X98341820Y-123515860D01*
X98129800Y-123515860D01*
X97917780Y-123515860D01*
X97917780Y-123303839D01*
X97917780Y-123091819D01*
X98553840Y-123091819D01*
X99189900Y-123091819D01*
X99189900Y-123515860D01*
X99189900Y-123727880D01*
X99189900Y-123939900D01*
G37*
G36*
X98977880Y-129452420D02*
G01*
X99189900Y-129452420D01*
X99189900Y-129664440D01*
X99189900Y-129876461D01*
X99401920Y-129876461D01*
X99613940Y-129876461D01*
X99613940Y-129664440D01*
X99613940Y-129452420D01*
X99825960Y-129452420D01*
X100037980Y-129452420D01*
X100037980Y-129664440D01*
X100037980Y-129876461D01*
X99825960Y-129876461D01*
X99613940Y-129876461D01*
X99613940Y-130088481D01*
X99613940Y-130300501D01*
X99401920Y-130300501D01*
X99189900Y-130300501D01*
X99189900Y-130512521D01*
X99189900Y-130724541D01*
X98977880Y-130724541D01*
X98765860Y-130724541D01*
X98765860Y-130512521D01*
X98765860Y-130300501D01*
X98553840Y-130300501D01*
X98341820Y-130300501D01*
X98341820Y-130088481D01*
X98341820Y-129876461D01*
X98553840Y-129876461D01*
X98765860Y-129876461D01*
X98765860Y-130088481D01*
X98765860Y-130300501D01*
X98977880Y-130300501D01*
X99189900Y-130300501D01*
X99189900Y-130088481D01*
X99189900Y-129876461D01*
X98977880Y-129876461D01*
X98765860Y-129876461D01*
X98765860Y-129664440D01*
X98765860Y-129452420D01*
X98977880Y-129452420D01*
G37*
G36*
X99825960Y-130300501D02*
G01*
X100037980Y-130300501D01*
X100037980Y-130512521D01*
X100037980Y-130724541D01*
X99825960Y-130724541D01*
X99613940Y-130724541D01*
X99613940Y-130512521D01*
X99613940Y-130300501D01*
X99825960Y-130300501D01*
G37*
G36*
X98129800Y-126484140D02*
G01*
X98341820Y-126484140D01*
X98341820Y-126696160D01*
X98341820Y-126908180D01*
X98765860Y-126908180D01*
X99189900Y-126908180D01*
X99189900Y-127120200D01*
X99189900Y-127332220D01*
X98977880Y-127332220D01*
X98765860Y-127332220D01*
X98765860Y-127544240D01*
X98765860Y-127756260D01*
X98977880Y-127756260D01*
X99189900Y-127756260D01*
X99189900Y-127544240D01*
X99189900Y-127332220D01*
X99401920Y-127332220D01*
X99613940Y-127332220D01*
X99613940Y-127544240D01*
X99613940Y-127756260D01*
X99401920Y-127756260D01*
X99189900Y-127756260D01*
X99189900Y-127968280D01*
X99189900Y-128180300D01*
X99401920Y-128180300D01*
X99613940Y-128180300D01*
X99613940Y-128392320D01*
X99613940Y-128604340D01*
X99825960Y-128604340D01*
X100037980Y-128604340D01*
X100037980Y-128816360D01*
X100037980Y-129028380D01*
X99401920Y-129028380D01*
X98765860Y-129028380D01*
X98765860Y-129240400D01*
X98765860Y-129452420D01*
X98341820Y-129452420D01*
X97917780Y-129452420D01*
X97917780Y-129240400D01*
X97917780Y-129028380D01*
X98129800Y-129028380D01*
X98341820Y-129028380D01*
X98341820Y-128816360D01*
X98341820Y-128604340D01*
X98553840Y-128604340D01*
X98765860Y-128604340D01*
X98765860Y-128180300D01*
X98765860Y-127756260D01*
X98553840Y-127756260D01*
X98341820Y-127756260D01*
X98341820Y-127544240D01*
X98341820Y-127332220D01*
X98129800Y-127332220D01*
X97917780Y-127332220D01*
X97917780Y-126908180D01*
X97917780Y-126484140D01*
X98129800Y-126484140D01*
G37*
G36*
X97917780Y-126060100D02*
G01*
X97917780Y-126484140D01*
X97705760Y-126484140D01*
X97493740Y-126484140D01*
X97493740Y-126060100D01*
X97493740Y-125636060D01*
X97705760Y-125636060D01*
X97917780Y-125636060D01*
X97917780Y-126060100D01*
G37*
G36*
X108094741Y-122243739D02*
G01*
X108094741Y-125000000D01*
X108094741Y-127968280D01*
X108094741Y-129664440D01*
X108094741Y-132844741D01*
X100250000Y-132844741D01*
X92405259Y-132844741D01*
X92405259Y-127332220D01*
X94101419Y-127332220D01*
X94101419Y-127756260D01*
X94101419Y-128180300D01*
X94525459Y-128180300D01*
X94949499Y-128180300D01*
X94949499Y-128392320D01*
X94949499Y-128604340D01*
X94525459Y-128604340D01*
X94101419Y-128604340D01*
X94101419Y-128816360D01*
X94101419Y-129028380D01*
X94313439Y-129028380D01*
X94525459Y-129028380D01*
X94525459Y-129240400D01*
X94525459Y-129452420D01*
X94313439Y-129452420D01*
X94101419Y-129452420D01*
X94101419Y-129664440D01*
X94101419Y-129876461D01*
X94313439Y-129876461D01*
X94525459Y-129876461D01*
X94525459Y-130300501D01*
X94525459Y-130724541D01*
X94737479Y-130724541D01*
X94949499Y-130724541D01*
X94949499Y-130936561D01*
X94949499Y-131148581D01*
X95161519Y-131148581D01*
X95373539Y-131148581D01*
X95373539Y-130936561D01*
X95373539Y-130724541D01*
X95585560Y-130724541D01*
X95797580Y-130724541D01*
X95797580Y-130936561D01*
X95797580Y-131148581D01*
X96433640Y-131148581D01*
X97069700Y-131148581D01*
X97069700Y-130936561D01*
X97069700Y-130724541D01*
X97493740Y-130724541D01*
X97917780Y-130724541D01*
X97917780Y-130936561D01*
X97917780Y-131148581D01*
X98129800Y-131148581D01*
X98341820Y-131148581D01*
X98341820Y-130936561D01*
X98341820Y-130724541D01*
X98553840Y-130724541D01*
X98765860Y-130724541D01*
X98765860Y-130936561D01*
X98765860Y-131148581D01*
X98977880Y-131148581D01*
X99189900Y-131148581D01*
X99189900Y-130936561D01*
X99189900Y-130724541D01*
X99401920Y-130724541D01*
X99613940Y-130724541D01*
X99613940Y-130936561D01*
X99613940Y-131148581D01*
X100037980Y-131148581D01*
X100462020Y-131148581D01*
X100462020Y-130724541D01*
X100462020Y-130300501D01*
X100674040Y-130300501D01*
X100886060Y-130300501D01*
X100886060Y-130724541D01*
X100886060Y-131148581D01*
X101098080Y-131148581D01*
X101310100Y-131148581D01*
X101310100Y-130936561D01*
X101310100Y-130724541D01*
X101734140Y-130724541D01*
X102158181Y-130724541D01*
X102158181Y-130936561D01*
X102158181Y-131148581D01*
X102582221Y-131148581D01*
X103006261Y-131148581D01*
X103006261Y-130088481D01*
X103006261Y-129028380D01*
X102794241Y-129028380D01*
X102582221Y-129028380D01*
X102582221Y-129452420D01*
X102582221Y-129876461D01*
X102370201Y-129876461D01*
X102158181Y-129876461D01*
X102158181Y-130088481D01*
X102158181Y-130300501D01*
X101522120Y-130300501D01*
X100886060Y-130300501D01*
X100886060Y-129876461D01*
X100886060Y-129452420D01*
X100674040Y-129452420D01*
X100462020Y-129452420D01*
X100462020Y-129028380D01*
X100462020Y-128604340D01*
X100674040Y-128604340D01*
X100886060Y-128604340D01*
X100886060Y-128816360D01*
X100886060Y-129028380D01*
X101098080Y-129028380D01*
X101310100Y-129028380D01*
X101310100Y-129452420D01*
X101310100Y-129876461D01*
X101522120Y-129876461D01*
X101734140Y-129876461D01*
X101734140Y-129452420D01*
X101734140Y-129028380D01*
X101946161Y-129028380D01*
X102158181Y-129028380D01*
X102158181Y-128816360D01*
X102158181Y-128604340D01*
X101946161Y-128604340D01*
X101734140Y-128604340D01*
X101734140Y-128816360D01*
X101734140Y-129028380D01*
X101522120Y-129028380D01*
X101310100Y-129028380D01*
X101310100Y-128816360D01*
X101310100Y-128604340D01*
X101098080Y-128604340D01*
X100886060Y-128604340D01*
X100886060Y-128392320D01*
X100886060Y-128180300D01*
X100250000Y-128180300D01*
X99613940Y-128180300D01*
X99613940Y-127968280D01*
X99613940Y-127756260D01*
X100462020Y-127756260D01*
X101310100Y-127756260D01*
X101310100Y-127968280D01*
X101310100Y-128180300D01*
X101522120Y-128180300D01*
X101734140Y-128180300D01*
X101734140Y-127968280D01*
X101734140Y-127756260D01*
X102158181Y-127756260D01*
X102158181Y-128180300D01*
X102158181Y-128604340D01*
X102582221Y-128604340D01*
X103006261Y-128604340D01*
X103006261Y-128180300D01*
X103430301Y-128180300D01*
X103430301Y-129664440D01*
X103430301Y-131148581D01*
X104914441Y-131148581D01*
X106398581Y-131148581D01*
X106398581Y-129664440D01*
X106398581Y-128180300D01*
X104914441Y-128180300D01*
X103430301Y-128180300D01*
X103006261Y-128180300D01*
X103006261Y-127968280D01*
X103006261Y-127544240D01*
X103430301Y-127544240D01*
X103430301Y-127756260D01*
X103642321Y-127756260D01*
X103854341Y-127756260D01*
X103854341Y-127544240D01*
X105126461Y-127544240D01*
X105126461Y-127756260D01*
X105338481Y-127756260D01*
X105550501Y-127756260D01*
X105550501Y-127544240D01*
X105550501Y-127332220D01*
X105338481Y-127332220D01*
X105126461Y-127332220D01*
X105126461Y-127544240D01*
X103854341Y-127544240D01*
X103854341Y-127332220D01*
X103642321Y-127332220D01*
X103430301Y-127332220D01*
X103430301Y-127544240D01*
X103006261Y-127544240D01*
X103006261Y-127332220D01*
X103218281Y-127332220D01*
X103430301Y-127332220D01*
X103430301Y-127120200D01*
X103430301Y-126908180D01*
X103642321Y-126908180D01*
X103854341Y-126908180D01*
X103854341Y-126696160D01*
X103854341Y-126484140D01*
X103430301Y-126484140D01*
X103006261Y-126484140D01*
X103006261Y-126908180D01*
X103006261Y-127332220D01*
X102794241Y-127332220D01*
X102582221Y-127332220D01*
X102582221Y-127544240D01*
X102582221Y-127756260D01*
X102370201Y-127756260D01*
X102158181Y-127756260D01*
X101734140Y-127756260D01*
X101522120Y-127756260D01*
X101310100Y-127756260D01*
X101310100Y-127544240D01*
X101310100Y-127332220D01*
X101522120Y-127332220D01*
X101734140Y-127332220D01*
X101734140Y-127120200D01*
X101734140Y-126908180D01*
X101310100Y-126908180D01*
X100886060Y-126908180D01*
X100886060Y-126484140D01*
X100886060Y-126060100D01*
X101098080Y-126060100D01*
X101310100Y-126060100D01*
X101310100Y-126272120D01*
X101310100Y-126484140D01*
X101522120Y-126484140D01*
X101734140Y-126484140D01*
X102158181Y-126484140D01*
X102158181Y-126908180D01*
X102370201Y-126908180D01*
X102582221Y-126908180D01*
X102582221Y-126484140D01*
X102582221Y-126060100D01*
X102370201Y-126060100D01*
X102158181Y-126060100D01*
X102158181Y-126484140D01*
X101734140Y-126484140D01*
X101734140Y-126060100D01*
X101734140Y-125636060D01*
X101098080Y-125636060D01*
X100462020Y-125636060D01*
X100462020Y-125424040D01*
X100462020Y-125212020D01*
X100250000Y-125212020D01*
X100037980Y-125212020D01*
X100037980Y-125000000D01*
X100037980Y-124787980D01*
X99401920Y-124787980D01*
X98765860Y-124787980D01*
X98765860Y-124575960D01*
X98765860Y-124363940D01*
X98977880Y-124363940D01*
X99189900Y-124363940D01*
X99189900Y-124151920D01*
X99189900Y-123939900D01*
X99401920Y-123939900D01*
X99613940Y-123939900D01*
X99613940Y-123727880D01*
X99613940Y-123515860D01*
X99825960Y-123515860D01*
X100037980Y-123515860D01*
X100037980Y-123303839D01*
X100037980Y-123091819D01*
X100250000Y-123091819D01*
X100462020Y-123091819D01*
X100462020Y-123303839D01*
X100462020Y-123515860D01*
X100674040Y-123515860D01*
X100886060Y-123515860D01*
X100886060Y-123303839D01*
X100886060Y-123091819D01*
X100674040Y-123091819D01*
X100462020Y-123091819D01*
X100462020Y-122243739D01*
X100462020Y-121395659D01*
X100674040Y-121395659D01*
X100886060Y-121395659D01*
X100886060Y-121607679D01*
X100886060Y-121819699D01*
X101098080Y-121819699D01*
X101310100Y-121819699D01*
X101310100Y-122031719D01*
X101310100Y-122243739D01*
X101098080Y-122243739D01*
X100886060Y-122243739D01*
X100886060Y-122455759D01*
X100886060Y-122667779D01*
X101098080Y-122667779D01*
X101310100Y-122667779D01*
X101310100Y-122879799D01*
X101310100Y-123091819D01*
X101522120Y-123091819D01*
X101734140Y-123091819D01*
X101734140Y-123303839D01*
X101734140Y-123515860D01*
X101522120Y-123515860D01*
X101310100Y-123515860D01*
X101310100Y-123727880D01*
X101310100Y-123939900D01*
X100674040Y-123939900D01*
X100037980Y-123939900D01*
X100037980Y-124151920D01*
X100037980Y-124363940D01*
X100250000Y-124363940D01*
X100462020Y-124363940D01*
X100462020Y-124575960D01*
X100462020Y-124787980D01*
X100674040Y-124787980D01*
X100886060Y-124787980D01*
X100886060Y-125000000D01*
X100886060Y-125212020D01*
X101098080Y-125212020D01*
X101310100Y-125212020D01*
X101310100Y-125000000D01*
X101310100Y-124787980D01*
X101522120Y-124787980D01*
X101734140Y-124787980D01*
X101734140Y-124575960D01*
X101734140Y-124363940D01*
X101946161Y-124363940D01*
X102158181Y-124363940D01*
X102158181Y-125000000D01*
X102158181Y-125636060D01*
X102370201Y-125636060D01*
X102582221Y-125636060D01*
X102582221Y-125424040D01*
X102582221Y-125212020D01*
X102794241Y-125212020D01*
X103006261Y-125212020D01*
X103006261Y-125424040D01*
X103006261Y-125636060D01*
X103218281Y-125636060D01*
X103430301Y-125636060D01*
X103430301Y-125848080D01*
X103430301Y-126060100D01*
X103854341Y-126060100D01*
X104278381Y-126060100D01*
X104278381Y-126484140D01*
X104278381Y-126696160D01*
X104278381Y-126908180D01*
X104490401Y-126908180D01*
X104702421Y-126908180D01*
X104702421Y-127120200D01*
X104702421Y-127332220D01*
X104914441Y-127332220D01*
X105126461Y-127332220D01*
X105126461Y-127120200D01*
X105126461Y-126908180D01*
X105338481Y-126908180D01*
X105550501Y-126908180D01*
X105550501Y-126484140D01*
X105550501Y-126060100D01*
X105338481Y-126060100D01*
X105126461Y-126060100D01*
X105126461Y-125848080D01*
X105126461Y-125636060D01*
X105338481Y-125636060D01*
X105550501Y-125636060D01*
X105550501Y-125424040D01*
X105550501Y-125212020D01*
X105762521Y-125212020D01*
X105974541Y-125212020D01*
X105974541Y-126484140D01*
X105974541Y-127756260D01*
X106186561Y-127756260D01*
X106398581Y-127756260D01*
X106398581Y-126484140D01*
X106398581Y-125212020D01*
X106186561Y-125212020D01*
X105974541Y-125212020D01*
X105974541Y-125000000D01*
X105974541Y-124787980D01*
X106186561Y-124787980D01*
X106398581Y-124787980D01*
X106398581Y-124363940D01*
X106398581Y-123939900D01*
X105974541Y-123939900D01*
X105550501Y-123939900D01*
X105550501Y-124363940D01*
X105550501Y-124787980D01*
X105338481Y-124787980D01*
X105126461Y-124787980D01*
X105126461Y-124575960D01*
X105126461Y-124363940D01*
X104914441Y-124363940D01*
X104702421Y-124363940D01*
X104702421Y-124575960D01*
X104702421Y-124787980D01*
X104914441Y-124787980D01*
X105126461Y-124787980D01*
X105126461Y-125212020D01*
X105126461Y-125636060D01*
X104702421Y-125636060D01*
X104278381Y-125636060D01*
X104278381Y-125212020D01*
X104278381Y-124787980D01*
X103854341Y-124787980D01*
X103430301Y-124787980D01*
X103430301Y-125000000D01*
X103430301Y-125212020D01*
X103218281Y-125212020D01*
X103006261Y-125212020D01*
X103006261Y-125000000D01*
X103006261Y-124787980D01*
X102794241Y-124787980D01*
X102582221Y-124787980D01*
X102582221Y-124575960D01*
X102582221Y-124363940D01*
X103430301Y-124363940D01*
X104278381Y-124363940D01*
X104278381Y-123939900D01*
X104278381Y-123515860D01*
X104490401Y-123515860D01*
X104702421Y-123515860D01*
X104702421Y-123727880D01*
X104702421Y-123939900D01*
X104914441Y-123939900D01*
X105126461Y-123939900D01*
X105126461Y-123727880D01*
X105126461Y-123515860D01*
X104914441Y-123515860D01*
X104702421Y-123515860D01*
X104702421Y-123303839D01*
X104702421Y-123091819D01*
X104490401Y-123091819D01*
X104278381Y-123091819D01*
X104278381Y-122879799D01*
X104278381Y-122667779D01*
X104702421Y-122667779D01*
X105126461Y-122667779D01*
X105126461Y-122879799D01*
X105126461Y-123091819D01*
X105338481Y-123091819D01*
X105550501Y-123091819D01*
X105550501Y-122879799D01*
X105550501Y-122667779D01*
X105974541Y-122667779D01*
X106398581Y-122667779D01*
X106398581Y-122455759D01*
X106398581Y-122243739D01*
X105338481Y-122243739D01*
X104278381Y-122243739D01*
X104278381Y-122455759D01*
X104278381Y-122667779D01*
X104066361Y-122667779D01*
X103854341Y-122667779D01*
X103854341Y-122455759D01*
X103854341Y-122243739D01*
X103218281Y-122243739D01*
X102582221Y-122243739D01*
X102582221Y-122031719D01*
X102582221Y-121819699D01*
X102794241Y-121819699D01*
X103006261Y-121819699D01*
X103006261Y-121395659D01*
X103006261Y-120971619D01*
X102794241Y-120971619D01*
X102582221Y-120971619D01*
X102582221Y-120759599D01*
X102582221Y-120547579D01*
X102794241Y-120547579D01*
X103006261Y-120547579D01*
X103006261Y-120335559D01*
X103006261Y-120123539D01*
X102370201Y-120123539D01*
X101734140Y-120123539D01*
X101734140Y-120335559D01*
X101734140Y-120547579D01*
X101522120Y-120547579D01*
X101310100Y-120547579D01*
X101310100Y-120335559D01*
X101310100Y-120123539D01*
X101098080Y-120123539D01*
X100886060Y-120123539D01*
X100886060Y-120335559D01*
X100886060Y-120547579D01*
X100674040Y-120547579D01*
X100462020Y-120547579D01*
X100462020Y-120335559D01*
X100462020Y-120123539D01*
X100250000Y-120123539D01*
X100037980Y-120123539D01*
X100037980Y-119911519D01*
X100037980Y-119699499D01*
X100250000Y-119699499D01*
X100462020Y-119699499D01*
X100462020Y-119487479D01*
X100462020Y-119275459D01*
X100250000Y-119275459D01*
X100037980Y-119275459D01*
X100037980Y-119063439D01*
X100037980Y-118851419D01*
X100886060Y-118851419D01*
X100886060Y-119063439D01*
X100886060Y-119275459D01*
X101098080Y-119275459D01*
X101310100Y-119275459D01*
X101734140Y-119275459D01*
X101734140Y-119487479D01*
X101734140Y-119699499D01*
X101946161Y-119699499D01*
X102158181Y-119699499D01*
X102582221Y-119699499D01*
X102794241Y-119699499D01*
X103006261Y-119699499D01*
X103006261Y-119487479D01*
X103430301Y-119487479D01*
X103430301Y-120335559D01*
X103430301Y-121819699D01*
X104914441Y-121819699D01*
X106398581Y-121819699D01*
X106398581Y-120335559D01*
X106398581Y-118851419D01*
X104914441Y-118851419D01*
X103430301Y-118851419D01*
X103430301Y-119063439D01*
X103430301Y-119487479D01*
X103006261Y-119487479D01*
X103006261Y-119275459D01*
X102794241Y-119275459D01*
X102582221Y-119275459D01*
X102582221Y-119487479D01*
X102582221Y-119699499D01*
X102158181Y-119699499D01*
X102158181Y-119487479D01*
X102158181Y-119275459D01*
X101946161Y-119275459D01*
X101734140Y-119275459D01*
X101310100Y-119275459D01*
X101310100Y-119063439D01*
X101310100Y-118851419D01*
X101098080Y-118851419D01*
X100886060Y-118851419D01*
X100037980Y-118851419D01*
X98765860Y-118851419D01*
X97493740Y-118851419D01*
X97493740Y-119063439D01*
X97493740Y-119275459D01*
X98129800Y-119275459D01*
X98765860Y-119275459D01*
X98765860Y-119487479D01*
X98765860Y-119699499D01*
X98977880Y-119699499D01*
X99189900Y-119699499D01*
X99189900Y-119911519D01*
X99189900Y-120123539D01*
X98977880Y-120123539D01*
X98765860Y-120123539D01*
X98765860Y-120335559D01*
X98765860Y-120547579D01*
X98977880Y-120547579D01*
X99189900Y-120547579D01*
X99189900Y-120759599D01*
X99189900Y-120971619D01*
X98765860Y-120971619D01*
X98341820Y-120971619D01*
X98341820Y-120335559D01*
X98341820Y-119699499D01*
X97917780Y-119699499D01*
X97493740Y-119699499D01*
X97493740Y-119911519D01*
X97493740Y-120123539D01*
X97705760Y-120123539D01*
X97917780Y-120123539D01*
X97917780Y-120335559D01*
X97917780Y-120547579D01*
X97705760Y-120547579D01*
X97493740Y-120547579D01*
X97493740Y-121395659D01*
X97493740Y-122243739D01*
X97281720Y-122243739D01*
X97069700Y-122243739D01*
X97069700Y-122455759D01*
X97069700Y-122667779D01*
X96857680Y-122667779D01*
X96645660Y-122667779D01*
X96645660Y-122455759D01*
X96645660Y-122243739D01*
X96433640Y-122243739D01*
X96221620Y-122243739D01*
X96221620Y-122455759D01*
X96221620Y-122667779D01*
X96009600Y-122667779D01*
X95797580Y-122667779D01*
X95797580Y-122455759D01*
X95797580Y-122243739D01*
X95585560Y-122243739D01*
X95373539Y-122243739D01*
X95373539Y-122455759D01*
X95373539Y-122667779D01*
X95585560Y-122667779D01*
X95797580Y-122667779D01*
X95797580Y-122879799D01*
X95797580Y-123091819D01*
X95797580Y-123515860D01*
X95585560Y-123515860D01*
X95373539Y-123515860D01*
X95373539Y-123727880D01*
X95373539Y-123939900D01*
X95161519Y-123939900D01*
X94949499Y-123939900D01*
X94949499Y-123727880D01*
X94949499Y-123515860D01*
X94737479Y-123515860D01*
X94525459Y-123515860D01*
X94525459Y-123727880D01*
X94525459Y-123939900D01*
X94737479Y-123939900D01*
X94949499Y-123939900D01*
X94949499Y-124151920D01*
X94949499Y-124363940D01*
X95373539Y-124363940D01*
X95797580Y-124363940D01*
X95797580Y-124575960D01*
X95797580Y-124787980D01*
X95373539Y-124787980D01*
X94949499Y-124787980D01*
X94949499Y-125000000D01*
X94949499Y-125212020D01*
X94737479Y-125212020D01*
X94525459Y-125212020D01*
X94525459Y-125424040D01*
X94525459Y-125636060D01*
X94737479Y-125636060D01*
X94949499Y-125636060D01*
X94949499Y-126272120D01*
X94949499Y-126908180D01*
X94737479Y-126908180D01*
X94525459Y-126908180D01*
X94525459Y-127120200D01*
X94525459Y-127332220D01*
X94313439Y-127332220D01*
X94101419Y-127332220D01*
X92405259Y-127332220D01*
X92405259Y-126060100D01*
X94101419Y-126060100D01*
X94101419Y-126272120D01*
X94101419Y-126484140D01*
X94313439Y-126484140D01*
X94525459Y-126484140D01*
X94525459Y-126272120D01*
X94525459Y-126060100D01*
X94313439Y-126060100D01*
X94101419Y-126060100D01*
X92405259Y-126060100D01*
X92405259Y-125000000D01*
X92405259Y-124363940D01*
X94101419Y-124363940D01*
X94101419Y-124575960D01*
X94101419Y-124787980D01*
X94313439Y-124787980D01*
X94525459Y-124787980D01*
X94525459Y-124575960D01*
X94525459Y-124363940D01*
X94313439Y-124363940D01*
X94101419Y-124363940D01*
X92405259Y-124363940D01*
X92405259Y-122667779D01*
X94101419Y-122667779D01*
X94101419Y-122879799D01*
X94101419Y-123091819D01*
X94313439Y-123091819D01*
X94525459Y-123091819D01*
X94525459Y-122879799D01*
X94525459Y-122667779D01*
X94313439Y-122667779D01*
X94101419Y-122667779D01*
X92405259Y-122667779D01*
X92405259Y-122243739D01*
X94525459Y-122243739D01*
X94525459Y-122455759D01*
X94525459Y-122667779D01*
X94737479Y-122667779D01*
X94949499Y-122667779D01*
X94949499Y-122455759D01*
X94949499Y-122243739D01*
X94737479Y-122243739D01*
X94525459Y-122243739D01*
X92405259Y-122243739D01*
X92405259Y-118851419D01*
X94101419Y-118851419D01*
X94101419Y-120335559D01*
X94101419Y-121819699D01*
X95585560Y-121819699D01*
X97069700Y-121819699D01*
X97069700Y-120335559D01*
X97069700Y-118851419D01*
X95585560Y-118851419D01*
X94101419Y-118851419D01*
X92405259Y-118851419D01*
X92405259Y-117155259D01*
X100250000Y-117155259D01*
X108094741Y-117155259D01*
X108094741Y-120335559D01*
X108094741Y-122243739D01*
G37*
D14*
%TO.C,U3*%
X91870000Y-66550000D02*
X96370000Y-66550000D01*
X91870000Y-89250000D02*
X91870000Y-66550000D01*
X91870000Y-89250000D02*
X109870000Y-89250000D01*
X96370000Y-65250000D02*
X96370000Y-66550000D01*
X96370000Y-65250000D02*
X105370000Y-65250000D01*
X105370000Y-65250000D02*
X105370000Y-66550000D01*
X105370000Y-66550000D02*
X109870000Y-66550000D01*
X109870000Y-89250000D02*
X109870000Y-66550000D01*
%TD*%
%LPC*%
D15*
%TO.C,U1*%
X115264670Y-85495766D03*
X121051005Y-100466418D03*
X85495766Y-84735330D03*
X84769165Y-114549852D03*
%TD*%
D16*
%TO.C,SW1*%
X112750000Y-138500000D03*
X119250000Y-138500000D03*
X112750000Y-143000000D03*
X119250000Y-143000000D03*
%TD*%
D17*
%TO.C,REF\u002A\u002A*%
X97770000Y-140750000D03*
D15*
X97770000Y-143290000D03*
D18*
X100310000Y-140750000D03*
X100310000Y-143290000D03*
D15*
X102850000Y-140750000D03*
X102850000Y-143290000D03*
%TD*%
%TO.C,U2*%
X129192457Y-87926418D03*
X119264102Y-74946404D03*
X70807543Y-112073582D03*
X80770595Y-125062894D03*
%TD*%
D16*
%TO.C,SW2*%
X80250000Y-138250000D03*
X86750000Y-138250000D03*
X80250000Y-142750000D03*
X86750000Y-142750000D03*
%TD*%
D19*
%TO.C,U3*%
X93250000Y-85780000D03*
X93250000Y-83240000D03*
X93250000Y-80700000D03*
X93250000Y-78160000D03*
X93250000Y-73080000D03*
X93250000Y-75620000D03*
X108490000Y-68000000D03*
X93250000Y-68000000D03*
X108490000Y-70540000D03*
X108490000Y-73080000D03*
X108490000Y-75620000D03*
X108490000Y-78160000D03*
X108490000Y-80700000D03*
X108490000Y-83240000D03*
X108490000Y-85780000D03*
X93250000Y-70540000D03*
%TD*%
%LPD*%
M02*
