<svg xmlns="http://www.w3.org/2000/svg" xmlns:xlink="http://www.w3.org/1999/xlink" width="500" zoomAndPan="magnify" viewBox="0 0 375 374.999991" height="500" preserveAspectRatio="xMidYMid meet" version="1.0"><defs><g/><clipPath id="cbeb0d1edf"><path d="M 40.140625 40.140625 L 334.890625 40.140625 L 334.890625 334.890625 L 40.140625 334.890625 Z M 40.140625 40.140625 " clip-rule="nonzero"/></clipPath><clipPath id="8cf24d9711"><path d="M 117.0625 65.578125 L 258.0625 65.578125 L 258.0625 206.578125 L 117.0625 206.578125 Z M 117.0625 65.578125 " clip-rule="nonzero"/></clipPath><clipPath id="9fe7f42199"><path d="M 76.160156 136.015625 L 217.160156 136.015625 L 217.160156 277.015625 L 76.160156 277.015625 Z M 76.160156 136.015625 " clip-rule="nonzero"/></clipPath><clipPath id="57c998bcf7"><path d="M 157.964844 136.015625 L 298.964844 136.015625 L 298.964844 277.015625 L 157.964844 277.015625 Z M 157.964844 136.015625 " clip-rule="nonzero"/></clipPath><clipPath id="6c0b3a6b30"><path d="M 125 121.921875 L 250.101562 121.921875 L 250.101562 247.171875 L 125 247.171875 Z M 125 121.921875 " clip-rule="nonzero"/></clipPath><clipPath id="d8cb940846"><path d="M 146 186 L 166 186 L 166 204 L 146 204 Z M 146 186 " clip-rule="nonzero"/></clipPath><clipPath id="92b85e2e5b"><path d="M 152.332031 183.195312 L 169.8125 193.417969 L 163.753906 203.777344 L 146.273438 193.554688 Z M 152.332031 183.195312 " clip-rule="nonzero"/></clipPath><clipPath id="a09edb977f"><path d="M 152.332031 183.195312 L 169.8125 193.417969 L 163.753906 203.777344 L 146.273438 193.554688 Z M 152.332031 183.195312 " clip-rule="nonzero"/></clipPath><clipPath id="f6c5b83e8a"><path d="M 208 187 L 229 187 L 229 204 L 208 204 Z M 208 187 " clip-rule="nonzero"/></clipPath><clipPath id="42b61ed8fc"><path d="M 205.519531 192.640625 L 224.078125 184.53125 L 228.882812 195.527344 L 210.328125 203.636719 Z M 205.519531 192.640625 " clip-rule="nonzero"/></clipPath><clipPath id="c7971afc88"><path d="M 205.519531 192.640625 L 224.078125 184.53125 L 228.882812 195.527344 L 210.328125 203.636719 Z M 205.519531 192.640625 " clip-rule="nonzero"/></clipPath></defs><rect x="-37.5" width="450" fill="#ffffff" y="-37.499999" height="449.999989" fill-opacity="1"/><rect x="-37.5" width="450" fill="#ffffff" y="-37.499999" height="449.999989" fill-opacity="1"/><g clip-path="url(#cbeb0d1edf)"><path fill="#000000" d="M 187.515625 334.890625 C 106.277344 334.890625 40.140625 268.753906 40.140625 187.515625 C 40.140625 106.277344 106.277344 40.140625 187.515625 40.140625 C 268.753906 40.140625 334.890625 106.277344 334.890625 187.515625 C 334.890625 268.753906 268.753906 334.890625 187.515625 334.890625 Z M 187.515625 42.316406 C 107.4375 42.316406 42.316406 107.4375 42.316406 187.515625 C 42.316406 267.589844 107.4375 332.710938 187.515625 332.710938 C 267.589844 332.710938 332.710938 267.589844 332.710938 187.515625 C 332.710938 107.4375 267.589844 42.316406 187.515625 42.316406 Z M 187.515625 42.316406 " fill-opacity="1" fill-rule="nonzero"/></g><g clip-path="url(#8cf24d9711)"><path fill="#000000" d="M 187.5625 65.578125 C 148.664062 65.578125 117.0625 97.179688 117.0625 136.078125 C 117.0625 174.976562 148.664062 206.578125 187.5625 206.578125 C 226.460938 206.578125 258.0625 174.976562 258.0625 136.078125 C 258.0625 97.179688 226.460938 65.578125 187.5625 65.578125 Z M 187.5625 68.644531 C 224.84375 68.644531 254.996094 98.796875 254.996094 136.078125 C 254.996094 173.359375 224.84375 203.511719 187.5625 203.511719 C 150.28125 203.511719 120.128906 173.359375 120.128906 136.078125 C 120.128906 98.796875 150.28125 68.644531 187.5625 68.644531 Z M 187.5625 68.644531 " fill-opacity="1" fill-rule="nonzero"/></g><g clip-path="url(#9fe7f42199)"><path fill="#000000" d="M 146.660156 136.015625 C 107.765625 136.015625 76.160156 167.617188 76.160156 206.515625 C 76.160156 245.414062 107.765625 277.015625 146.660156 277.015625 C 185.558594 277.015625 217.160156 245.414062 217.160156 206.515625 C 217.160156 167.617188 185.558594 136.015625 146.660156 136.015625 Z M 146.660156 139.082031 C 183.945312 139.082031 214.097656 169.234375 214.097656 206.515625 C 214.097656 243.796875 183.945312 273.949219 146.660156 273.949219 C 109.378906 273.949219 79.226562 243.796875 79.226562 206.515625 C 79.226562 169.234375 109.378906 139.082031 146.660156 139.082031 Z M 146.660156 139.082031 " fill-opacity="1" fill-rule="nonzero"/></g><g clip-path="url(#57c998bcf7)"><path fill="#000000" d="M 228.464844 136.015625 C 189.566406 136.015625 157.964844 167.617188 157.964844 206.515625 C 157.964844 245.414062 189.566406 277.015625 228.464844 277.015625 C 267.359375 277.015625 298.964844 245.414062 298.964844 206.515625 C 298.964844 167.617188 267.359375 136.015625 228.464844 136.015625 Z M 228.464844 139.082031 C 265.746094 139.082031 295.898438 169.234375 295.898438 206.515625 C 295.898438 243.796875 265.746094 273.949219 228.464844 273.949219 C 191.179688 273.949219 161.027344 243.796875 161.027344 206.515625 C 161.027344 169.234375 191.179688 139.082031 228.464844 139.082031 Z M 228.464844 139.082031 " fill-opacity="1" fill-rule="nonzero"/></g><g clip-path="url(#6c0b3a6b30)"><path fill="#000000" d="M 190.902344 218.988281 C 191.589844 219.046875 192.296875 218.800781 192.835938 218.414062 C 193.894531 217.652344 194.550781 216.273438 194.335938 214.972656 C 194.230469 214.332031 194.0625 213.652344 193.726562 213.113281 C 192.238281 210.714844 190.75 208.3125 189.117188 206.015625 C 188.203125 204.726562 186.9375 204.796875 185.980469 206.132812 C 184.511719 208.183594 183.132812 210.300781 181.800781 212.441406 C 181.359375 213.152344 181.085938 214.011719 180.90625 214.839844 C 180.394531 217.191406 182.058594 219.277344 184.425781 218.898438 C 184.511719 218.886719 184.59375 218.871094 184.679688 218.851562 C 185.609375 218.660156 186.203125 218.015625 187.140625 217.882812 C 187.636719 217.8125 188.097656 217.9375 188.574219 218.085938 C 189.125 218.257812 189.875 218.695312 190.40625 218.878906 C 190.5625 218.933594 190.726562 218.972656 190.902344 218.988281 Z M 219.789062 182.011719 C 211.878906 182 205.308594 188.605469 205.34375 196.539062 C 205.375 204.429688 211.835938 210.898438 219.707031 210.921875 C 227.886719 210.945312 234.292969 204.574219 234.277344 196.425781 C 234.261719 188.40625 227.847656 182.027344 219.789062 182.011719 Z M 169.890625 196.511719 C 169.929688 188.675781 163.453125 182.121094 155.585938 182.027344 C 147.453125 181.925781 140.933594 188.339844 140.914062 196.449219 C 140.894531 204.476562 147.28125 210.890625 155.332031 210.925781 C 163.277344 210.960938 169.855469 204.449219 169.890625 196.511719 Z M 186.964844 121.921875 C 176.417969 121.921875 166.003906 124.402344 156.011719 129.296875 C 145.140625 134.625 137.128906 142.351562 132.203125 152.265625 C 128.96875 158.773438 126.816406 165.789062 125.800781 173.113281 C 124.863281 179.863281 124.867188 187.113281 125.808594 194.65625 C 126.535156 200.472656 128.488281 205.753906 131.621094 210.34375 C 135.125 215.488281 140.289062 219.363281 147.410156 222.1875 C 152.585938 224.238281 155.808594 227.40625 157.550781 232.148438 C 158.101562 233.640625 158.804688 234.980469 159.480469 236.207031 C 161.738281 240.285156 164.46875 243.019531 167.828125 244.5625 C 169.789062 245.464844 172.007812 246.011719 174.246094 246.144531 C 174.425781 246.15625 174.605469 246.160156 174.78125 246.160156 C 177.039062 246.160156 178.507812 245.253906 179.375 244.4375 C 179.644531 244.675781 179.933594 244.882812 180.234375 245.058594 C 182.621094 246.460938 185.117188 247.171875 187.652344 247.171875 C 189.976562 247.171875 192.285156 246.574219 194.519531 245.390625 C 195.050781 245.113281 195.53125 244.789062 195.957031 244.425781 C 197.164062 245.527344 198.832031 246.160156 200.859375 246.21875 C 200.984375 246.222656 201.113281 246.222656 201.238281 246.222656 C 202.476562 246.222656 203.648438 246.054688 204.726562 245.726562 C 209.347656 244.300781 212.933594 241.191406 215.6875 236.214844 C 216.773438 234.257812 217.660156 232.265625 218.523438 230.335938 L 218.558594 230.257812 C 219.941406 227.152344 222.109375 224.929688 225.171875 223.472656 C 225.960938 223.097656 226.753906 222.726562 227.542969 222.355469 C 228.988281 221.679688 230.480469 220.980469 231.957031 220.25 C 238.589844 216.980469 243.453125 211.941406 246.40625 205.277344 C 249.699219 197.855469 250.105469 190.3125 250.089844 184.566406 C 250.082031 178.496094 249.433594 172.492188 248.15625 166.71875 C 244.515625 150.246094 235.414062 137.988281 221.105469 130.285156 C 211.335938 125.023438 200.378906 122.214844 188.542969 121.941406 C 188.015625 121.929688 187.484375 121.921875 186.964844 121.921875 Z M 186.964844 126.476562 C 187.453125 126.476562 187.941406 126.484375 188.433594 126.496094 C 199.160156 126.746094 209.433594 129.171875 218.941406 134.292969 C 232.421875 141.550781 240.429688 152.886719 243.703125 167.703125 C 244.933594 173.257812 245.523438 178.886719 245.527344 184.578125 C 245.542969 191.058594 244.898438 197.425781 242.238281 203.429688 C 239.695312 209.164062 235.558594 213.394531 229.9375 216.167969 C 227.710938 217.265625 225.453125 218.292969 223.210938 219.359375 C 219.15625 221.289062 216.222656 224.296875 214.390625 228.402344 C 213.546875 230.296875 212.699219 232.199219 211.695312 234.011719 C 209.804688 237.429688 207.253906 240.179688 203.382812 241.371094 C 202.703125 241.578125 201.960938 241.667969 201.238281 241.667969 C 201.15625 241.667969 201.070312 241.667969 200.988281 241.664062 C 199.070312 241.609375 198.359375 240.84375 198.355469 238.960938 C 198.347656 236.378906 198.367188 233.796875 198.34375 231.214844 C 198.328125 229.535156 197.496094 228.589844 196.109375 228.589844 C 196.097656 228.589844 196.089844 228.589844 196.078125 228.589844 C 194.617188 228.601562 193.800781 229.5 193.789062 231.1875 C 193.765625 233.769531 193.730469 236.351562 193.804688 238.929688 C 193.835938 240.109375 193.382812 240.839844 192.386719 241.367188 C 190.800781 242.203125 189.21875 242.617188 187.652344 242.617188 C 185.929688 242.617188 184.222656 242.117188 182.542969 241.132812 C 181.984375 240.804688 181.503906 239.875 181.472656 239.199219 C 181.347656 236.574219 181.433594 233.9375 181.414062 231.304688 C 181.402344 229.554688 180.644531 228.632812 179.242188 228.589844 C 179.207031 228.589844 179.171875 228.589844 179.136719 228.589844 C 177.683594 228.589844 176.871094 229.507812 176.855469 231.25 C 176.832031 233.882812 176.855469 236.511719 176.84375 239.144531 C 176.835938 240.757812 176.292969 241.605469 174.78125 241.605469 C 174.695312 241.605469 174.605469 241.601562 174.511719 241.597656 C 172.894531 241.5 171.203125 241.101562 169.734375 240.425781 C 166.875 239.109375 164.972656 236.707031 163.472656 234.003906 C 162.863281 232.898438 162.269531 231.761719 161.835938 230.582031 C 159.554688 224.375 155.175781 220.363281 149.09375 217.953125 C 143.640625 215.789062 138.785156 212.761719 135.390625 207.78125 C 132.5625 203.632812 130.949219 199.023438 130.335938 194.09375 C 128.609375 180.28125 130.03125 166.890625 136.289062 154.289062 C 141.015625 144.773438 148.570312 138.015625 158.023438 133.386719 C 167.148438 128.917969 176.832031 126.476562 186.964844 126.476562 " fill-opacity="1" fill-rule="nonzero"/></g><g clip-path="url(#d8cb940846)"><g clip-path="url(#92b85e2e5b)"><g clip-path="url(#a09edb977f)"><path fill="#ffffff" d="M 164.542969 201.832031 L 163.757812 203.179688 C 163.707031 203.257812 163.640625 203.3125 163.546875 203.335938 C 163.457031 203.359375 163.371094 203.347656 163.289062 203.300781 L 146.660156 193.578125 C 146.582031 193.53125 146.527344 193.460938 146.503906 193.367188 C 146.480469 193.277344 146.492188 193.191406 146.539062 193.109375 L 147.324219 191.765625 C 147.65625 191.199219 148.039062 190.671875 148.472656 190.183594 C 148.90625 189.691406 149.386719 189.25 149.90625 188.855469 C 150.429688 188.457031 150.984375 188.117188 151.574219 187.832031 C 152.164062 187.542969 152.773438 187.316406 153.40625 187.152344 C 154.039062 186.984375 154.683594 186.882812 155.335938 186.84375 C 155.992188 186.804688 156.640625 186.832031 157.289062 186.917969 C 157.941406 187.007812 158.574219 187.160156 159.191406 187.375 C 159.8125 187.589844 160.402344 187.859375 160.96875 188.191406 C 161.535156 188.519531 162.0625 188.902344 162.550781 189.339844 C 163.039062 189.773438 163.484375 190.25 163.878906 190.773438 C 164.273438 191.292969 164.617188 191.847656 164.902344 192.4375 C 165.1875 193.027344 165.414062 193.636719 165.582031 194.273438 C 165.746094 194.90625 165.847656 195.546875 165.886719 196.203125 C 165.925781 196.855469 165.902344 197.507812 165.8125 198.15625 C 165.722656 198.804688 165.574219 199.4375 165.359375 200.058594 C 165.144531 200.675781 164.871094 201.269531 164.542969 201.832031 Z M 164.542969 201.832031 " fill-opacity="1" fill-rule="nonzero"/></g></g></g><g fill="#000000" fill-opacity="1"><g transform="translate(160.507026, 109.301244)"><g><path d="M 8.046875 -9.8125 L 8.140625 -9.625 C 8.160156 -9.5625 8.171875 -9.5 8.171875 -9.4375 C 8.179688 -9.363281 8.179688 -9.296875 8.171875 -9.234375 C 8.160156 -9.171875 8.140625 -9.109375 8.109375 -9.046875 C 8.078125 -8.984375 8.039062 -8.925781 8 -8.875 C 7.96875 -8.820312 7.925781 -8.773438 7.875 -8.734375 C 7.820312 -8.691406 7.765625 -8.660156 7.703125 -8.640625 C 7.640625 -8.609375 7.578125 -8.585938 7.515625 -8.578125 C 7.453125 -8.566406 7.382812 -8.566406 7.3125 -8.578125 C 7.25 -8.585938 7.1875 -8.601562 7.125 -8.625 C 7.0625 -8.644531 7.003906 -8.675781 6.953125 -8.71875 L 6.796875 -8.84375 C 6.773438 -8.863281 6.753906 -8.890625 6.734375 -8.921875 C 6.710938 -8.953125 6.695312 -8.984375 6.6875 -9.015625 C 6.601562 -9.171875 6.460938 -9.347656 6.265625 -9.546875 C 6.054688 -9.753906 5.679688 -9.859375 5.140625 -9.859375 C 4.898438 -9.859375 4.65625 -9.820312 4.40625 -9.75 C 4.144531 -9.664062 3.921875 -9.554688 3.734375 -9.421875 C 3.546875 -9.285156 3.40625 -9.132812 3.3125 -8.96875 C 3.21875 -8.800781 3.171875 -8.609375 3.171875 -8.390625 L 3.171875 -3.125 C 3.171875 -2.78125 3.234375 -2.523438 3.359375 -2.359375 C 3.472656 -2.191406 3.628906 -2.046875 3.828125 -1.921875 C 4.023438 -1.804688 4.238281 -1.71875 4.46875 -1.65625 C 4.6875 -1.613281 4.820312 -1.585938 4.875 -1.578125 C 4.945312 -1.585938 4.988281 -1.59375 5 -1.59375 L 5.078125 -1.59375 C 5.109375 -1.59375 5.097656 -1.585938 5.046875 -1.578125 L 4.921875 -1.578125 C 4.984375 -1.585938 5.023438 -1.59375 5.046875 -1.59375 L 9.5625 -1.59375 C 9.632812 -1.59375 9.703125 -1.585938 9.765625 -1.578125 C 9.828125 -1.566406 9.890625 -1.550781 9.953125 -1.53125 C 10.015625 -1.5 10.070312 -1.460938 10.125 -1.421875 C 10.175781 -1.378906 10.222656 -1.332031 10.265625 -1.28125 C 10.304688 -1.226562 10.34375 -1.171875 10.375 -1.109375 C 10.394531 -1.046875 10.410156 -0.984375 10.421875 -0.921875 C 10.429688 -0.878906 10.4375 -0.835938 10.4375 -0.796875 L 10.4375 -0.734375 C 10.425781 -0.660156 10.410156 -0.59375 10.390625 -0.53125 C 10.367188 -0.46875 10.34375 -0.410156 10.3125 -0.359375 C 10.269531 -0.296875 10.222656 -0.242188 10.171875 -0.203125 C 10.128906 -0.160156 10.078125 -0.125 10.015625 -0.09375 C 9.953125 -0.0625 9.890625 -0.0351562 9.828125 -0.015625 C 9.796875 -0.00390625 9.765625 0 9.734375 0 L 9.625 0 C 8.65625 0 7.207031 -0.00390625 5.28125 -0.015625 C 5.21875 -0.00390625 5.179688 0 5.171875 0 L 5.078125 0 C 5.066406 0 5.066406 0 5.078125 0 C 5.085938 0 5.097656 0 5.109375 0 C 5.148438 0 5.1875 -0.00390625 5.21875 -0.015625 C 5.15625 -0.00390625 5.113281 0 5.09375 0 L 4.9375 0 C 4.664062 -0.0078125 4.359375 -0.0546875 4.015625 -0.140625 C 3.671875 -0.222656 3.328125 -0.367188 2.984375 -0.578125 C 2.617188 -0.804688 2.289062 -1.140625 2 -1.578125 C 1.726562 -2.003906 1.59375 -2.519531 1.59375 -3.125 L 1.59375 -8.390625 C 1.59375 -8.878906 1.707031 -9.328125 1.9375 -9.734375 C 2.164062 -10.128906 2.453125 -10.453125 2.796875 -10.703125 C 3.140625 -10.960938 3.515625 -11.144531 3.921875 -11.25 C 4.328125 -11.375 4.734375 -11.4375 5.140625 -11.4375 C 5.992188 -11.4375 6.660156 -11.238281 7.140625 -10.84375 C 7.617188 -10.4375 7.921875 -10.09375 8.046875 -9.8125 Z M 8.046875 -9.8125 "/></g></g></g><g fill="#000000" fill-opacity="1"><g transform="translate(170.375609, 109.301244)"><g><path d="M 7.109375 -10.765625 C 7.390625 -10.546875 7.613281 -10.304688 7.78125 -10.046875 C 7.945312 -9.785156 8.03125 -9.488281 8.03125 -9.15625 L 8.03125 -2.59375 C 8.03125 -2.226562 7.945312 -1.882812 7.78125 -1.5625 C 7.601562 -1.226562 7.367188 -0.945312 7.078125 -0.71875 C 6.785156 -0.5 6.445312 -0.332031 6.0625 -0.21875 C 5.675781 -0.101562 5.257812 -0.046875 4.8125 -0.046875 C 4.46875 -0.046875 4.113281 -0.0820312 3.75 -0.15625 C 3.382812 -0.238281 3.039062 -0.378906 2.71875 -0.578125 C 2.394531 -0.765625 2.117188 -1.039062 1.890625 -1.40625 C 1.671875 -1.75 1.5625 -2.144531 1.5625 -2.59375 L 1.5625 -9.15625 C 1.5625 -9.519531 1.648438 -9.851562 1.828125 -10.15625 C 2.023438 -10.46875 2.273438 -10.722656 2.578125 -10.921875 C 2.867188 -11.097656 3.203125 -11.238281 3.578125 -11.34375 C 3.953125 -11.4375 4.351562 -11.484375 4.78125 -11.484375 C 5.269531 -11.484375 5.710938 -11.414062 6.109375 -11.28125 C 6.503906 -11.15625 6.835938 -10.984375 7.109375 -10.765625 Z M 3.453125 -9.59375 C 3.316406 -9.5 3.234375 -9.421875 3.203125 -9.359375 C 3.160156 -9.285156 3.140625 -9.21875 3.140625 -9.15625 L 3.140625 -2.59375 C 3.140625 -2.414062 3.171875 -2.28125 3.234375 -2.1875 C 3.296875 -2.101562 3.398438 -2.015625 3.546875 -1.921875 C 3.691406 -1.828125 3.882812 -1.753906 4.125 -1.703125 C 4.351562 -1.648438 4.582031 -1.625 4.8125 -1.625 C 5.125 -1.625 5.390625 -1.660156 5.609375 -1.734375 C 5.828125 -1.796875 5.992188 -1.875 6.109375 -1.96875 C 6.234375 -2.0625 6.320312 -2.160156 6.375 -2.265625 C 6.414062 -2.359375 6.4375 -2.46875 6.4375 -2.59375 L 6.4375 -9.15625 C 6.4375 -9.09375 6.421875 -9.109375 6.390625 -9.203125 C 6.347656 -9.304688 6.265625 -9.410156 6.140625 -9.515625 C 6.003906 -9.617188 5.820312 -9.707031 5.59375 -9.78125 C 5.375 -9.863281 5.101562 -9.90625 4.78125 -9.90625 C 4.476562 -9.90625 4.210938 -9.875 3.984375 -9.8125 C 3.753906 -9.75 3.578125 -9.675781 3.453125 -9.59375 Z M 3.453125 -9.59375 "/></g></g></g><g fill="#000000" fill-opacity="1"><g transform="translate(179.964452, 109.301244)"><g><path d="M 5.03125 -11.5 L 5.0625 -11.5 C 5.769531 -11.5 6.425781 -11.320312 7.03125 -10.96875 C 7.65625 -10.601562 8.0625 -10.082031 8.25 -9.40625 C 8.269531 -9.34375 8.285156 -9.273438 8.296875 -9.203125 C 8.304688 -9.140625 8.304688 -9.078125 8.296875 -9.015625 C 8.285156 -8.941406 8.265625 -8.875 8.234375 -8.8125 C 8.203125 -8.75 8.171875 -8.691406 8.140625 -8.640625 C 8.097656 -8.585938 8.050781 -8.539062 8 -8.5 C 7.957031 -8.457031 7.90625 -8.425781 7.84375 -8.40625 C 7.78125 -8.375 7.71875 -8.351562 7.65625 -8.34375 C 7.582031 -8.332031 7.515625 -8.332031 7.453125 -8.34375 C 7.390625 -8.34375 7.320312 -8.351562 7.25 -8.375 C 7.1875 -8.394531 7.128906 -8.425781 7.078125 -8.46875 C 7.023438 -8.5 6.976562 -8.539062 6.9375 -8.59375 C 6.894531 -8.644531 6.851562 -8.703125 6.8125 -8.765625 C 6.789062 -8.785156 6.773438 -8.8125 6.765625 -8.84375 C 6.753906 -8.875 6.75 -8.910156 6.75 -8.953125 C 6.675781 -9.191406 6.484375 -9.410156 6.171875 -9.609375 C 5.867188 -9.816406 5.550781 -9.925781 5.21875 -9.9375 C 5.15625 -9.925781 5.117188 -9.921875 5.109375 -9.921875 C 5.085938 -9.910156 5.0625 -9.90625 5.03125 -9.90625 C 4.78125 -9.90625 4.523438 -9.878906 4.265625 -9.828125 C 4.003906 -9.765625 3.785156 -9.679688 3.609375 -9.578125 C 3.441406 -9.484375 3.320312 -9.378906 3.25 -9.265625 C 3.175781 -9.160156 3.140625 -9.015625 3.140625 -8.828125 L 3.140625 -2.78125 C 3.160156 -2.53125 3.21875 -2.34375 3.3125 -2.21875 C 3.394531 -2.101562 3.515625 -2 3.671875 -1.90625 C 3.835938 -1.8125 4.039062 -1.742188 4.28125 -1.703125 C 4.507812 -1.648438 4.738281 -1.625 4.96875 -1.625 C 5.3125 -1.625 5.609375 -1.660156 5.859375 -1.734375 C 6.097656 -1.796875 6.28125 -1.867188 6.40625 -1.953125 C 6.539062 -2.046875 6.628906 -2.128906 6.671875 -2.203125 C 6.710938 -2.273438 6.734375 -2.367188 6.734375 -2.484375 L 6.734375 -4.9375 C 6.359375 -4.9375 5.800781 -4.941406 5.0625 -4.953125 C 5 -4.941406 4.929688 -4.941406 4.859375 -4.953125 C 4.804688 -4.960938 4.75 -4.976562 4.6875 -5 C 4.625 -5.03125 4.566406 -5.066406 4.515625 -5.109375 C 4.460938 -5.148438 4.414062 -5.195312 4.375 -5.25 C 4.332031 -5.300781 4.296875 -5.359375 4.265625 -5.421875 C 4.242188 -5.484375 4.226562 -5.546875 4.21875 -5.609375 C 4.207031 -5.671875 4.203125 -5.738281 4.203125 -5.8125 C 4.210938 -5.875 4.226562 -5.9375 4.25 -6 C 4.269531 -6.0625 4.300781 -6.125 4.34375 -6.1875 C 4.375 -6.238281 4.414062 -6.285156 4.46875 -6.328125 C 4.519531 -6.367188 4.570312 -6.40625 4.625 -6.4375 C 4.6875 -6.46875 4.742188 -6.492188 4.796875 -6.515625 C 4.828125 -6.523438 4.859375 -6.53125 4.890625 -6.53125 L 7.59375 -6.53125 C 7.65625 -6.53125 7.71875 -6.519531 7.78125 -6.5 C 7.84375 -6.476562 7.898438 -6.445312 7.953125 -6.40625 C 8.003906 -6.375 8.050781 -6.332031 8.09375 -6.28125 C 8.144531 -6.238281 8.179688 -6.1875 8.203125 -6.125 C 8.234375 -6.0625 8.257812 -6 8.28125 -5.9375 C 8.300781 -5.90625 8.3125 -5.875 8.3125 -5.84375 L 8.3125 -2.484375 C 8.3125 -2.109375 8.21875 -1.765625 8.03125 -1.453125 C 7.851562 -1.117188 7.609375 -0.847656 7.296875 -0.640625 C 6.992188 -0.441406 6.644531 -0.289062 6.25 -0.1875 C 5.851562 -0.09375 5.425781 -0.046875 4.96875 -0.046875 C 4.65625 -0.046875 4.316406 -0.078125 3.953125 -0.140625 C 3.585938 -0.203125 3.234375 -0.332031 2.890625 -0.53125 C 2.546875 -0.726562 2.242188 -1.007812 1.984375 -1.375 C 1.722656 -1.726562 1.585938 -2.125 1.578125 -2.5625 C 1.566406 -2.632812 1.5625 -2.675781 1.5625 -2.6875 L 1.5625 -8.828125 C 1.5625 -9.304688 1.679688 -9.734375 1.921875 -10.109375 C 2.171875 -10.472656 2.46875 -10.753906 2.8125 -10.953125 C 3.15625 -11.148438 3.515625 -11.289062 3.890625 -11.375 C 4.273438 -11.445312 4.648438 -11.488281 5.015625 -11.5 Z M 5.03125 -11.5 "/></g></g></g><g fill="#000000" fill-opacity="1"><g transform="translate(189.879658, 109.301244)"><g><path d="M 2.640625 -11.421875 C 2.691406 -11.390625 2.75 -11.359375 2.8125 -11.328125 C 2.863281 -11.285156 2.910156 -11.242188 2.953125 -11.203125 C 3.003906 -11.160156 3.039062 -11.109375 3.0625 -11.046875 C 3.09375 -10.984375 3.117188 -10.921875 3.140625 -10.859375 C 3.148438 -10.828125 3.15625 -10.796875 3.15625 -10.765625 L 3.15625 -0.859375 C 3.15625 -0.796875 3.148438 -0.726562 3.140625 -0.65625 C 3.140625 -0.59375 3.125 -0.53125 3.09375 -0.46875 C 3.070312 -0.40625 3.039062 -0.347656 3 -0.296875 C 2.957031 -0.242188 2.910156 -0.195312 2.859375 -0.15625 C 2.804688 -0.113281 2.75 -0.0820312 2.6875 -0.0625 C 2.625 -0.03125 2.5625 -0.0078125 2.5 0 C 2.445312 0.0078125 2.398438 0.015625 2.359375 0.015625 C 2.335938 0.015625 2.316406 0.0078125 2.296875 0 C 2.222656 0 2.15625 -0.0078125 2.09375 -0.03125 C 2.03125 -0.0507812 1.972656 -0.0820312 1.921875 -0.125 C 1.867188 -0.15625 1.816406 -0.195312 1.765625 -0.25 C 1.722656 -0.300781 1.6875 -0.359375 1.65625 -0.421875 C 1.632812 -0.484375 1.613281 -0.539062 1.59375 -0.59375 C 1.582031 -0.625 1.578125 -0.660156 1.578125 -0.703125 L 1.578125 -0.796875 C 1.578125 -2.960938 1.582031 -6.207031 1.59375 -10.53125 C 1.582031 -10.59375 1.578125 -10.660156 1.578125 -10.734375 C 1.585938 -10.796875 1.597656 -10.859375 1.609375 -10.921875 C 1.617188 -10.984375 1.644531 -11.046875 1.6875 -11.109375 C 1.71875 -11.148438 1.757812 -11.195312 1.8125 -11.25 C 1.863281 -11.289062 1.914062 -11.328125 1.96875 -11.359375 C 2.03125 -11.390625 2.09375 -11.414062 2.15625 -11.4375 C 2.1875 -11.445312 2.234375 -11.457031 2.296875 -11.46875 L 2.375 -11.46875 L 2.359375 -11.46875 C 2.347656 -11.46875 2.378906 -11.460938 2.453125 -11.453125 C 2.523438 -11.453125 2.585938 -11.441406 2.640625 -11.421875 Z M 2.640625 -11.421875 "/></g></g></g><g fill="#000000" fill-opacity="1"><g transform="translate(194.66631, 109.301244)"><g><path d="M 8.078125 -11.5 C 8.140625 -11.507812 8.207031 -11.507812 8.28125 -11.5 C 8.34375 -11.488281 8.40625 -11.46875 8.46875 -11.4375 C 8.53125 -11.414062 8.585938 -11.382812 8.640625 -11.34375 C 8.691406 -11.300781 8.738281 -11.253906 8.78125 -11.203125 C 8.820312 -11.160156 8.851562 -11.109375 8.875 -11.046875 C 8.90625 -10.984375 8.925781 -10.921875 8.9375 -10.859375 C 8.945312 -10.816406 8.953125 -10.769531 8.953125 -10.71875 C 8.953125 -10.695312 8.945312 -10.675781 8.9375 -10.65625 C 8.9375 -10.59375 8.925781 -10.53125 8.90625 -10.46875 C 8.882812 -10.40625 8.851562 -10.34375 8.8125 -10.28125 C 8.78125 -10.226562 8.738281 -10.179688 8.6875 -10.140625 C 8.632812 -10.085938 8.578125 -10.050781 8.515625 -10.03125 C 8.453125 -10 8.394531 -9.972656 8.34375 -9.953125 C 8.3125 -9.941406 8.273438 -9.9375 8.234375 -9.9375 C 8.203125 -9.925781 8.171875 -9.921875 8.140625 -9.921875 L 5.984375 -9.921875 L 5.984375 -0.71875 C 5.972656 -0.65625 5.953125 -0.59375 5.921875 -0.53125 C 5.898438 -0.46875 5.867188 -0.410156 5.828125 -0.359375 C 5.785156 -0.304688 5.738281 -0.257812 5.6875 -0.21875 C 5.632812 -0.175781 5.578125 -0.144531 5.515625 -0.125 C 5.453125 -0.09375 5.390625 -0.0703125 5.328125 -0.0625 C 5.285156 -0.0507812 5.238281 -0.046875 5.1875 -0.046875 C 5.164062 -0.046875 5.144531 -0.0507812 5.125 -0.0625 C 5.0625 -0.0625 5 -0.0703125 4.9375 -0.09375 C 4.875 -0.113281 4.816406 -0.144531 4.765625 -0.1875 C 4.710938 -0.21875 4.664062 -0.257812 4.625 -0.3125 C 4.570312 -0.363281 4.535156 -0.421875 4.515625 -0.484375 C 4.484375 -0.546875 4.457031 -0.609375 4.4375 -0.671875 C 4.425781 -0.691406 4.414062 -0.722656 4.40625 -0.765625 L 4.40625 -9.921875 C 3.914062 -9.929688 3.1875 -9.9375 2.21875 -9.9375 C 2.144531 -9.925781 2.078125 -9.925781 2.015625 -9.9375 C 1.941406 -9.9375 1.875 -9.945312 1.8125 -9.96875 C 1.757812 -9.988281 1.703125 -10.019531 1.640625 -10.0625 C 1.597656 -10.101562 1.554688 -10.144531 1.515625 -10.1875 C 1.460938 -10.238281 1.421875 -10.296875 1.390625 -10.359375 C 1.359375 -10.421875 1.335938 -10.484375 1.328125 -10.546875 C 1.316406 -10.609375 1.3125 -10.671875 1.3125 -10.734375 L 1.3125 -10.75 C 1.3125 -10.8125 1.316406 -10.875 1.328125 -10.9375 C 1.347656 -11 1.375 -11.0625 1.40625 -11.125 C 1.445312 -11.175781 1.488281 -11.222656 1.53125 -11.265625 C 1.570312 -11.316406 1.617188 -11.359375 1.671875 -11.390625 C 1.734375 -11.421875 1.796875 -11.445312 1.859375 -11.46875 C 1.878906 -11.488281 1.910156 -11.5 1.953125 -11.5 C 1.984375 -11.5 2.015625 -11.503906 2.046875 -11.515625 L 2.0625 -11.515625 L 2.015625 -11.515625 C 1.984375 -11.503906 1.953125 -11.5 1.921875 -11.5 C 1.992188 -11.507812 2.035156 -11.515625 2.046875 -11.515625 L 3.734375 -11.515625 C 4.691406 -11.515625 6.140625 -11.507812 8.078125 -11.5 Z M 8.078125 -11.5 "/></g></g></g><g fill="#000000" fill-opacity="1"><g transform="translate(204.892338, 109.301244)"><g><path d="M 7.109375 -10.765625 C 7.390625 -10.546875 7.613281 -10.304688 7.78125 -10.046875 C 7.945312 -9.785156 8.03125 -9.488281 8.03125 -9.15625 L 8.03125 -2.59375 C 8.03125 -2.226562 7.945312 -1.882812 7.78125 -1.5625 C 7.601562 -1.226562 7.367188 -0.945312 7.078125 -0.71875 C 6.785156 -0.5 6.445312 -0.332031 6.0625 -0.21875 C 5.675781 -0.101562 5.257812 -0.046875 4.8125 -0.046875 C 4.46875 -0.046875 4.113281 -0.0820312 3.75 -0.15625 C 3.382812 -0.238281 3.039062 -0.378906 2.71875 -0.578125 C 2.394531 -0.765625 2.117188 -1.039062 1.890625 -1.40625 C 1.671875 -1.75 1.5625 -2.144531 1.5625 -2.59375 L 1.5625 -9.15625 C 1.5625 -9.519531 1.648438 -9.851562 1.828125 -10.15625 C 2.023438 -10.46875 2.273438 -10.722656 2.578125 -10.921875 C 2.867188 -11.097656 3.203125 -11.238281 3.578125 -11.34375 C 3.953125 -11.4375 4.351562 -11.484375 4.78125 -11.484375 C 5.269531 -11.484375 5.710938 -11.414062 6.109375 -11.28125 C 6.503906 -11.15625 6.835938 -10.984375 7.109375 -10.765625 Z M 3.453125 -9.59375 C 3.316406 -9.5 3.234375 -9.421875 3.203125 -9.359375 C 3.160156 -9.285156 3.140625 -9.21875 3.140625 -9.15625 L 3.140625 -2.59375 C 3.140625 -2.414062 3.171875 -2.28125 3.234375 -2.1875 C 3.296875 -2.101562 3.398438 -2.015625 3.546875 -1.921875 C 3.691406 -1.828125 3.882812 -1.753906 4.125 -1.703125 C 4.351562 -1.648438 4.582031 -1.625 4.8125 -1.625 C 5.125 -1.625 5.390625 -1.660156 5.609375 -1.734375 C 5.828125 -1.796875 5.992188 -1.875 6.109375 -1.96875 C 6.234375 -2.0625 6.320312 -2.160156 6.375 -2.265625 C 6.414062 -2.359375 6.4375 -2.46875 6.4375 -2.59375 L 6.4375 -9.15625 C 6.4375 -9.09375 6.421875 -9.109375 6.390625 -9.203125 C 6.347656 -9.304688 6.265625 -9.410156 6.140625 -9.515625 C 6.003906 -9.617188 5.820312 -9.707031 5.59375 -9.78125 C 5.375 -9.863281 5.101562 -9.90625 4.78125 -9.90625 C 4.476562 -9.90625 4.210938 -9.875 3.984375 -9.8125 C 3.753906 -9.75 3.578125 -9.675781 3.453125 -9.59375 Z M 3.453125 -9.59375 "/></g></g></g><g fill="#000000" fill-opacity="1"><g transform="translate(97.192784, 239.956494)"><g><path d="M 2.421875 -11.46875 L 11.390625 -11.46875 C 11.597656 -11.46875 11.785156 -11.390625 11.953125 -11.234375 C 12.117188 -11.078125 12.203125 -10.894531 12.203125 -10.6875 C 12.203125 -10.476562 12.117188 -10.289062 11.953125 -10.125 C 11.785156 -9.957031 11.597656 -9.878906 11.390625 -9.890625 L 3.21875 -9.890625 L 3.21875 -6.609375 L 6.078125 -6.609375 C 6.285156 -6.609375 6.472656 -6.53125 6.640625 -6.375 C 6.796875 -6.207031 6.875 -6.019531 6.875 -5.8125 C 6.875 -5.601562 6.796875 -5.414062 6.640625 -5.25 C 6.472656 -5.09375 6.285156 -5.015625 6.078125 -5.015625 L 3.21875 -5.015625 L 3.21875 -1.609375 L 7.078125 -1.609375 C 7.285156 -1.609375 7.472656 -1.53125 7.640625 -1.375 C 7.804688 -1.21875 7.890625 -1.03125 7.890625 -0.8125 C 7.890625 -0.601562 7.804688 -0.421875 7.640625 -0.265625 C 7.484375 -0.109375 7.300781 -0.0234375 7.09375 -0.015625 L 2.421875 -0.015625 C 2.210938 -0.015625 2.03125 -0.0976562 1.875 -0.265625 C 1.707031 -0.421875 1.625 -0.601562 1.625 -0.8125 L 1.625 -10.6875 C 1.625 -10.882812 1.695312 -11.054688 1.84375 -11.203125 C 1.976562 -11.359375 2.144531 -11.445312 2.34375 -11.46875 Z M 2.421875 -11.46875 "/></g></g></g><g fill="#000000" fill-opacity="1"><g transform="translate(106.424183, 239.956494)"><g><path d="M 2.328125 -11.46875 L 5.59375 -11.46875 C 5.664062 -11.457031 5.707031 -11.453125 5.71875 -11.453125 C 5.738281 -11.453125 5.765625 -11.445312 5.796875 -11.4375 C 6.597656 -11.257812 7.203125 -10.914062 7.609375 -10.40625 C 7.992188 -9.894531 8.203125 -9.414062 8.234375 -8.96875 C 8.242188 -8.90625 8.25 -8.863281 8.25 -8.84375 L 8.25 -8.78125 C 8.25 -8.394531 8.242188 -7.828125 8.234375 -7.078125 C 8.242188 -7.015625 8.25 -6.972656 8.25 -6.953125 L 8.25 -6.875 C 8.238281 -6.550781 8.171875 -6.234375 8.046875 -5.921875 C 7.941406 -5.617188 7.773438 -5.335938 7.546875 -5.078125 C 7.429688 -4.941406 7.289062 -4.820312 7.125 -4.71875 C 6.96875 -4.601562 6.796875 -4.503906 6.609375 -4.421875 C 6.941406 -3.710938 7.4375 -2.648438 8.09375 -1.234375 C 8.125 -1.171875 8.148438 -1.109375 8.171875 -1.046875 C 8.191406 -0.984375 8.203125 -0.921875 8.203125 -0.859375 C 8.210938 -0.785156 8.207031 -0.71875 8.1875 -0.65625 C 8.175781 -0.59375 8.15625 -0.53125 8.125 -0.46875 C 8.101562 -0.40625 8.066406 -0.347656 8.015625 -0.296875 C 7.984375 -0.242188 7.941406 -0.203125 7.890625 -0.171875 C 7.835938 -0.128906 7.78125 -0.0976562 7.71875 -0.078125 C 7.65625 -0.046875 7.585938 -0.0234375 7.515625 -0.015625 C 7.453125 -0.015625 7.390625 -0.0195312 7.328125 -0.03125 C 7.253906 -0.03125 7.1875 -0.046875 7.125 -0.078125 C 7.070312 -0.0976562 7.019531 -0.128906 6.96875 -0.171875 C 6.914062 -0.210938 6.863281 -0.257812 6.8125 -0.3125 C 6.789062 -0.332031 6.769531 -0.359375 6.75 -0.390625 C 6.738281 -0.421875 6.722656 -0.453125 6.703125 -0.484375 C 6.316406 -1.296875 5.734375 -2.535156 4.953125 -4.203125 L 3.125 -4.203125 L 3.125 -0.6875 C 3.113281 -0.613281 3.09375 -0.546875 3.0625 -0.484375 C 3.039062 -0.429688 3.007812 -0.375 2.96875 -0.3125 C 2.925781 -0.257812 2.878906 -0.210938 2.828125 -0.171875 C 2.773438 -0.128906 2.71875 -0.0976562 2.65625 -0.078125 C 2.59375 -0.046875 2.53125 -0.0234375 2.46875 -0.015625 C 2.425781 -0.00390625 2.378906 0 2.328125 0 C 2.304688 0 2.285156 -0.00390625 2.265625 -0.015625 C 2.203125 -0.015625 2.140625 -0.0234375 2.078125 -0.046875 C 2.015625 -0.0664062 1.953125 -0.0976562 1.890625 -0.140625 C 1.835938 -0.179688 1.789062 -0.222656 1.75 -0.265625 C 1.695312 -0.316406 1.660156 -0.375 1.640625 -0.4375 C 1.609375 -0.5 1.585938 -0.5625 1.578125 -0.625 L 1.546875 -0.71875 L 1.546875 -0.8125 C 1.554688 -3.039062 1.566406 -6.390625 1.578125 -10.859375 C 1.585938 -10.921875 1.601562 -10.984375 1.625 -11.046875 C 1.65625 -11.109375 1.691406 -11.160156 1.734375 -11.203125 C 1.773438 -11.242188 1.828125 -11.285156 1.890625 -11.328125 C 1.941406 -11.359375 2 -11.390625 2.0625 -11.421875 C 2.09375 -11.429688 2.140625 -11.441406 2.203125 -11.453125 C 2.253906 -11.460938 2.273438 -11.46875 2.265625 -11.46875 L 2.25 -11.46875 C 2.238281 -11.46875 2.238281 -11.46875 2.25 -11.46875 C 2.257812 -11.46875 2.269531 -11.46875 2.28125 -11.46875 Z M 3.125 -5.796875 L 5.640625 -5.796875 C 5.785156 -5.796875 5.914062 -5.820312 6.03125 -5.875 C 6.144531 -5.9375 6.25 -6.019531 6.34375 -6.125 C 6.445312 -6.238281 6.523438 -6.375 6.578125 -6.53125 C 6.640625 -6.675781 6.671875 -6.816406 6.671875 -6.953125 L 6.671875 -8.703125 C 6.648438 -8.929688 6.570312 -9.15625 6.4375 -9.375 C 6.300781 -9.59375 5.988281 -9.765625 5.5 -9.890625 L 3.125 -9.890625 Z M 3.125 -5.796875 "/></g></g></g><g fill="#000000" fill-opacity="1"><g transform="translate(116.339389, 239.956494)"><g><path d="M 5.03125 -11.5 L 5.0625 -11.5 C 5.769531 -11.5 6.425781 -11.320312 7.03125 -10.96875 C 7.65625 -10.601562 8.0625 -10.082031 8.25 -9.40625 C 8.269531 -9.34375 8.285156 -9.273438 8.296875 -9.203125 C 8.304688 -9.140625 8.304688 -9.078125 8.296875 -9.015625 C 8.285156 -8.941406 8.265625 -8.875 8.234375 -8.8125 C 8.203125 -8.75 8.171875 -8.691406 8.140625 -8.640625 C 8.097656 -8.585938 8.050781 -8.539062 8 -8.5 C 7.957031 -8.457031 7.90625 -8.425781 7.84375 -8.40625 C 7.78125 -8.375 7.71875 -8.351562 7.65625 -8.34375 C 7.582031 -8.332031 7.515625 -8.332031 7.453125 -8.34375 C 7.390625 -8.34375 7.320312 -8.351562 7.25 -8.375 C 7.1875 -8.394531 7.128906 -8.425781 7.078125 -8.46875 C 7.023438 -8.5 6.976562 -8.539062 6.9375 -8.59375 C 6.894531 -8.644531 6.851562 -8.703125 6.8125 -8.765625 C 6.789062 -8.785156 6.773438 -8.8125 6.765625 -8.84375 C 6.753906 -8.875 6.75 -8.910156 6.75 -8.953125 C 6.675781 -9.191406 6.484375 -9.410156 6.171875 -9.609375 C 5.867188 -9.816406 5.550781 -9.925781 5.21875 -9.9375 C 5.15625 -9.925781 5.117188 -9.921875 5.109375 -9.921875 C 5.085938 -9.910156 5.0625 -9.90625 5.03125 -9.90625 C 4.78125 -9.90625 4.523438 -9.878906 4.265625 -9.828125 C 4.003906 -9.765625 3.785156 -9.679688 3.609375 -9.578125 C 3.441406 -9.484375 3.320312 -9.378906 3.25 -9.265625 C 3.175781 -9.160156 3.140625 -9.015625 3.140625 -8.828125 L 3.140625 -2.78125 C 3.160156 -2.53125 3.21875 -2.34375 3.3125 -2.21875 C 3.394531 -2.101562 3.515625 -2 3.671875 -1.90625 C 3.835938 -1.8125 4.039062 -1.742188 4.28125 -1.703125 C 4.507812 -1.648438 4.738281 -1.625 4.96875 -1.625 C 5.3125 -1.625 5.609375 -1.660156 5.859375 -1.734375 C 6.097656 -1.796875 6.28125 -1.867188 6.40625 -1.953125 C 6.539062 -2.046875 6.628906 -2.128906 6.671875 -2.203125 C 6.710938 -2.273438 6.734375 -2.367188 6.734375 -2.484375 L 6.734375 -4.9375 C 6.359375 -4.9375 5.800781 -4.941406 5.0625 -4.953125 C 5 -4.941406 4.929688 -4.941406 4.859375 -4.953125 C 4.804688 -4.960938 4.75 -4.976562 4.6875 -5 C 4.625 -5.03125 4.566406 -5.066406 4.515625 -5.109375 C 4.460938 -5.148438 4.414062 -5.195312 4.375 -5.25 C 4.332031 -5.300781 4.296875 -5.359375 4.265625 -5.421875 C 4.242188 -5.484375 4.226562 -5.546875 4.21875 -5.609375 C 4.207031 -5.671875 4.203125 -5.738281 4.203125 -5.8125 C 4.210938 -5.875 4.226562 -5.9375 4.25 -6 C 4.269531 -6.0625 4.300781 -6.125 4.34375 -6.1875 C 4.375 -6.238281 4.414062 -6.285156 4.46875 -6.328125 C 4.519531 -6.367188 4.570312 -6.40625 4.625 -6.4375 C 4.6875 -6.46875 4.742188 -6.492188 4.796875 -6.515625 C 4.828125 -6.523438 4.859375 -6.53125 4.890625 -6.53125 L 7.59375 -6.53125 C 7.65625 -6.53125 7.71875 -6.519531 7.78125 -6.5 C 7.84375 -6.476562 7.898438 -6.445312 7.953125 -6.40625 C 8.003906 -6.375 8.050781 -6.332031 8.09375 -6.28125 C 8.144531 -6.238281 8.179688 -6.1875 8.203125 -6.125 C 8.234375 -6.0625 8.257812 -6 8.28125 -5.9375 C 8.300781 -5.90625 8.3125 -5.875 8.3125 -5.84375 L 8.3125 -2.484375 C 8.3125 -2.109375 8.21875 -1.765625 8.03125 -1.453125 C 7.851562 -1.117188 7.609375 -0.847656 7.296875 -0.640625 C 6.992188 -0.441406 6.644531 -0.289062 6.25 -0.1875 C 5.851562 -0.09375 5.425781 -0.046875 4.96875 -0.046875 C 4.65625 -0.046875 4.316406 -0.078125 3.953125 -0.140625 C 3.585938 -0.203125 3.234375 -0.332031 2.890625 -0.53125 C 2.546875 -0.726562 2.242188 -1.007812 1.984375 -1.375 C 1.722656 -1.726562 1.585938 -2.125 1.578125 -2.5625 C 1.566406 -2.632812 1.5625 -2.675781 1.5625 -2.6875 L 1.5625 -8.828125 C 1.5625 -9.304688 1.679688 -9.734375 1.921875 -10.109375 C 2.171875 -10.472656 2.46875 -10.753906 2.8125 -10.953125 C 3.15625 -11.148438 3.515625 -11.289062 3.890625 -11.375 C 4.273438 -11.445312 4.648438 -11.488281 5.015625 -11.5 Z M 5.03125 -11.5 "/></g></g></g><g fill="#000000" fill-opacity="1"><g transform="translate(126.254595, 239.956494)"><g><path d="M 7.109375 -10.765625 C 7.390625 -10.546875 7.613281 -10.304688 7.78125 -10.046875 C 7.945312 -9.785156 8.03125 -9.488281 8.03125 -9.15625 L 8.03125 -2.59375 C 8.03125 -2.226562 7.945312 -1.882812 7.78125 -1.5625 C 7.601562 -1.226562 7.367188 -0.945312 7.078125 -0.71875 C 6.785156 -0.5 6.445312 -0.332031 6.0625 -0.21875 C 5.675781 -0.101562 5.257812 -0.046875 4.8125 -0.046875 C 4.46875 -0.046875 4.113281 -0.0820312 3.75 -0.15625 C 3.382812 -0.238281 3.039062 -0.378906 2.71875 -0.578125 C 2.394531 -0.765625 2.117188 -1.039062 1.890625 -1.40625 C 1.671875 -1.75 1.5625 -2.144531 1.5625 -2.59375 L 1.5625 -9.15625 C 1.5625 -9.519531 1.648438 -9.851562 1.828125 -10.15625 C 2.023438 -10.46875 2.273438 -10.722656 2.578125 -10.921875 C 2.867188 -11.097656 3.203125 -11.238281 3.578125 -11.34375 C 3.953125 -11.4375 4.351562 -11.484375 4.78125 -11.484375 C 5.269531 -11.484375 5.710938 -11.414062 6.109375 -11.28125 C 6.503906 -11.15625 6.835938 -10.984375 7.109375 -10.765625 Z M 3.453125 -9.59375 C 3.316406 -9.5 3.234375 -9.421875 3.203125 -9.359375 C 3.160156 -9.285156 3.140625 -9.21875 3.140625 -9.15625 L 3.140625 -2.59375 C 3.140625 -2.414062 3.171875 -2.28125 3.234375 -2.1875 C 3.296875 -2.101562 3.398438 -2.015625 3.546875 -1.921875 C 3.691406 -1.828125 3.882812 -1.753906 4.125 -1.703125 C 4.351562 -1.648438 4.582031 -1.625 4.8125 -1.625 C 5.125 -1.625 5.390625 -1.660156 5.609375 -1.734375 C 5.828125 -1.796875 5.992188 -1.875 6.109375 -1.96875 C 6.234375 -2.0625 6.320312 -2.160156 6.375 -2.265625 C 6.414062 -2.359375 6.4375 -2.46875 6.4375 -2.59375 L 6.4375 -9.15625 C 6.4375 -9.09375 6.421875 -9.109375 6.390625 -9.203125 C 6.347656 -9.304688 6.265625 -9.410156 6.140625 -9.515625 C 6.003906 -9.617188 5.820312 -9.707031 5.59375 -9.78125 C 5.375 -9.863281 5.101562 -9.90625 4.78125 -9.90625 C 4.476562 -9.90625 4.210938 -9.875 3.984375 -9.8125 C 3.753906 -9.75 3.578125 -9.675781 3.453125 -9.59375 Z M 3.453125 -9.59375 "/></g></g></g><g fill="#000000" fill-opacity="1"><g transform="translate(241.842353, 239.956494)"><g><path d="M 7.5 -10.171875 C 7.539062 -10.109375 7.570312 -10.050781 7.59375 -10 C 7.625 -9.9375 7.644531 -9.867188 7.65625 -9.796875 C 7.664062 -9.734375 7.664062 -9.671875 7.65625 -9.609375 C 7.644531 -9.535156 7.628906 -9.46875 7.609375 -9.40625 C 7.585938 -9.34375 7.554688 -9.285156 7.515625 -9.234375 C 7.472656 -9.179688 7.425781 -9.132812 7.375 -9.09375 C 7.332031 -9.039062 7.28125 -9.003906 7.21875 -8.984375 C 7.15625 -8.953125 7.09375 -8.925781 7.03125 -8.90625 C 6.96875 -8.894531 6.898438 -8.890625 6.828125 -8.890625 L 6.640625 -8.921875 C 6.566406 -8.941406 6.503906 -8.972656 6.453125 -9.015625 C 6.398438 -9.046875 6.347656 -9.082031 6.296875 -9.125 C 6.265625 -9.144531 6.242188 -9.171875 6.234375 -9.203125 C 6.210938 -9.234375 6.191406 -9.257812 6.171875 -9.28125 C 6.023438 -9.53125 5.875 -9.707031 5.71875 -9.8125 C 5.5625 -9.914062 5.226562 -9.96875 4.71875 -9.96875 C 4.300781 -9.96875 3.972656 -9.914062 3.734375 -9.8125 C 3.492188 -9.707031 3.3125 -9.585938 3.1875 -9.453125 C 3.0625 -9.304688 2.972656 -9.148438 2.921875 -8.984375 C 2.867188 -8.828125 2.851562 -8.671875 2.875 -8.515625 C 2.882812 -8.484375 2.9375 -8.398438 3.03125 -8.265625 C 3.125 -8.140625 3.285156 -8 3.515625 -7.84375 C 3.742188 -7.675781 4.007812 -7.5 4.3125 -7.3125 C 4.625 -7.132812 4.9375 -6.953125 5.25 -6.765625 C 5.582031 -6.578125 5.914062 -6.382812 6.25 -6.1875 C 6.582031 -5.988281 6.890625 -5.769531 7.171875 -5.53125 C 7.453125 -5.300781 7.703125 -5.035156 7.921875 -4.734375 C 8.128906 -4.429688 8.234375 -4.078125 8.234375 -3.671875 L 8.234375 -3.625 C 8.242188 -3.289062 8.207031 -2.96875 8.125 -2.65625 C 8.039062 -2.34375 7.921875 -2.050781 7.765625 -1.78125 C 7.472656 -1.289062 7.070312 -0.890625 6.5625 -0.578125 C 6.039062 -0.265625 5.476562 -0.109375 4.875 -0.109375 C 4.457031 -0.109375 3.929688 -0.210938 3.296875 -0.421875 C 2.648438 -0.628906 2.09375 -1.085938 1.625 -1.796875 C 1.59375 -1.859375 1.566406 -1.921875 1.546875 -1.984375 C 1.515625 -2.046875 1.492188 -2.109375 1.484375 -2.171875 L 1.484375 -2.375 C 1.492188 -2.4375 1.507812 -2.5 1.53125 -2.5625 C 1.5625 -2.625 1.59375 -2.679688 1.625 -2.734375 C 1.65625 -2.785156 1.695312 -2.835938 1.75 -2.890625 C 1.800781 -2.929688 1.859375 -2.960938 1.921875 -2.984375 C 1.984375 -3.015625 2.046875 -3.035156 2.109375 -3.046875 C 2.171875 -3.066406 2.238281 -3.070312 2.3125 -3.0625 C 2.375 -3.0625 2.4375 -3.050781 2.5 -3.03125 C 2.5625 -3.007812 2.617188 -2.984375 2.671875 -2.953125 C 2.734375 -2.910156 2.789062 -2.867188 2.84375 -2.828125 C 2.863281 -2.804688 2.882812 -2.78125 2.90625 -2.75 C 2.925781 -2.71875 2.941406 -2.691406 2.953125 -2.671875 C 3.265625 -2.203125 3.585938 -1.921875 3.921875 -1.828125 C 4.253906 -1.734375 4.570312 -1.6875 4.875 -1.6875 C 5.363281 -1.6875 5.789062 -1.867188 6.15625 -2.234375 C 6.519531 -2.585938 6.695312 -2.988281 6.6875 -3.4375 C 6.675781 -3.5 6.664062 -3.539062 6.65625 -3.5625 L 6.65625 -3.640625 C 6.65625 -3.691406 6.617188 -3.773438 6.546875 -3.890625 C 6.484375 -4.015625 6.347656 -4.160156 6.140625 -4.328125 C 5.941406 -4.492188 5.695312 -4.660156 5.40625 -4.828125 C 5.101562 -5.003906 4.796875 -5.1875 4.484375 -5.375 C 4.160156 -5.5625 3.832031 -5.75 3.5 -5.9375 C 3.164062 -6.132812 2.851562 -6.34375 2.5625 -6.5625 C 2.269531 -6.78125 2 -7.023438 1.75 -7.296875 C 1.507812 -7.578125 1.363281 -7.910156 1.3125 -8.296875 C 1.289062 -8.421875 1.28125 -8.539062 1.28125 -8.65625 C 1.28125 -8.925781 1.320312 -9.195312 1.40625 -9.46875 C 1.519531 -9.863281 1.722656 -10.21875 2.015625 -10.53125 C 2.304688 -10.851562 2.679688 -11.101562 3.140625 -11.28125 C 3.609375 -11.46875 4.132812 -11.5625 4.71875 -11.5625 C 5.414062 -11.5625 6 -11.421875 6.46875 -11.140625 C 6.945312 -10.859375 7.289062 -10.535156 7.5 -10.171875 Z M 7.5 -10.171875 "/></g></g></g><g fill="#000000" fill-opacity="1"><g transform="translate(251.431197, 239.956494)"><g><path d="M 2.703125 -11.484375 C 2.765625 -11.453125 2.820312 -11.414062 2.875 -11.375 C 2.9375 -11.34375 2.988281 -11.300781 3.03125 -11.25 C 3.070312 -11.207031 3.101562 -11.160156 3.125 -11.109375 C 3.15625 -11.046875 3.179688 -10.984375 3.203125 -10.921875 C 3.210938 -10.890625 3.21875 -10.859375 3.21875 -10.828125 C 3.226562 -10.785156 3.234375 -10.75 3.234375 -10.71875 L 3.234375 -3.234375 C 3.234375 -2.867188 3.28125 -2.597656 3.375 -2.421875 C 3.46875 -2.242188 3.597656 -2.097656 3.765625 -1.984375 C 3.929688 -1.867188 4.132812 -1.785156 4.375 -1.734375 C 4.625 -1.671875 4.867188 -1.640625 5.109375 -1.640625 C 5.367188 -1.640625 5.617188 -1.675781 5.859375 -1.75 C 6.109375 -1.832031 6.3125 -1.9375 6.46875 -2.0625 C 6.632812 -2.1875 6.757812 -2.316406 6.84375 -2.453125 C 6.925781 -2.597656 6.960938 -2.753906 6.953125 -2.921875 C 6.941406 -2.992188 6.9375 -3.035156 6.9375 -3.046875 L 6.9375 -10.65625 C 6.9375 -10.71875 6.941406 -10.785156 6.953125 -10.859375 C 6.960938 -10.921875 6.976562 -10.984375 7 -11.046875 C 7.03125 -11.109375 7.066406 -11.160156 7.109375 -11.203125 C 7.148438 -11.253906 7.195312 -11.300781 7.25 -11.34375 C 7.300781 -11.382812 7.359375 -11.421875 7.421875 -11.453125 C 7.484375 -11.472656 7.546875 -11.488281 7.609375 -11.5 C 7.671875 -11.507812 7.738281 -11.515625 7.8125 -11.515625 C 7.875 -11.503906 7.929688 -11.488281 7.984375 -11.46875 C 8.046875 -11.445312 8.101562 -11.414062 8.15625 -11.375 C 8.21875 -11.34375 8.269531 -11.300781 8.3125 -11.25 C 8.351562 -11.207031 8.390625 -11.160156 8.421875 -11.109375 C 8.453125 -11.046875 8.476562 -10.984375 8.5 -10.921875 C 8.507812 -10.890625 8.515625 -10.859375 8.515625 -10.828125 L 8.515625 -3.015625 C 8.523438 -2.566406 8.429688 -2.15625 8.234375 -1.78125 C 8.035156 -1.382812 7.769531 -1.0625 7.4375 -0.8125 C 7.101562 -0.550781 6.738281 -0.359375 6.34375 -0.234375 C 5.9375 -0.117188 5.523438 -0.0625 5.109375 -0.0625 C 4.753906 -0.0625 4.378906 -0.101562 3.984375 -0.1875 C 3.578125 -0.28125 3.195312 -0.453125 2.84375 -0.703125 C 2.488281 -0.953125 2.195312 -1.289062 1.96875 -1.71875 C 1.738281 -2.15625 1.625 -2.660156 1.625 -3.234375 C 1.632812 -4.867188 1.640625 -7.320312 1.640625 -10.59375 L 1.640625 -10.796875 C 1.640625 -10.859375 1.648438 -10.921875 1.671875 -10.984375 C 1.691406 -11.046875 1.71875 -11.101562 1.75 -11.15625 C 1.789062 -11.207031 1.832031 -11.253906 1.875 -11.296875 C 1.925781 -11.347656 1.984375 -11.390625 2.046875 -11.421875 C 2.097656 -11.441406 2.15625 -11.46875 2.21875 -11.5 C 2.25 -11.507812 2.300781 -11.515625 2.375 -11.515625 C 2.425781 -11.523438 2.445312 -11.53125 2.4375 -11.53125 L 2.421875 -11.53125 C 2.410156 -11.53125 2.441406 -11.523438 2.515625 -11.515625 C 2.597656 -11.503906 2.660156 -11.492188 2.703125 -11.484375 Z M 2.703125 -11.484375 "/></g></g></g><g fill="#000000" fill-opacity="1"><g transform="translate(261.657224, 239.956494)"><g><path d="M 2.375 -11.453125 L 3.28125 -11.453125 C 3.351562 -11.453125 3.421875 -11.441406 3.484375 -11.421875 C 3.546875 -11.398438 3.609375 -11.375 3.671875 -11.34375 C 3.722656 -11.3125 3.769531 -11.269531 3.8125 -11.21875 L 3.953125 -11.09375 C 3.972656 -11.0625 3.988281 -11.03125 4 -11 L 4.03125 -10.90625 C 4.625 -8.851562 5.523438 -5.773438 6.734375 -1.671875 C 7.335938 -3.734375 8.238281 -6.820312 9.4375 -10.9375 C 9.46875 -10.988281 9.5 -11.046875 9.53125 -11.109375 C 9.5625 -11.148438 9.601562 -11.195312 9.65625 -11.25 C 9.707031 -11.289062 9.757812 -11.328125 9.8125 -11.359375 C 9.875 -11.378906 9.9375 -11.40625 10 -11.4375 C 10.03125 -11.445312 10.0625 -11.453125 10.09375 -11.453125 L 10.203125 -11.453125 C 10.359375 -11.453125 10.585938 -11.445312 10.890625 -11.4375 C 10.960938 -11.445312 11.03125 -11.453125 11.09375 -11.453125 C 11.144531 -11.453125 11.203125 -11.441406 11.265625 -11.421875 C 11.328125 -11.398438 11.390625 -11.367188 11.453125 -11.328125 C 11.503906 -11.296875 11.554688 -11.253906 11.609375 -11.203125 C 11.648438 -11.160156 11.6875 -11.113281 11.71875 -11.0625 C 11.738281 -11 11.765625 -10.9375 11.796875 -10.875 C 11.804688 -10.84375 11.8125 -10.8125 11.8125 -10.78125 L 11.8125 -0.671875 C 11.800781 -0.609375 11.78125 -0.546875 11.75 -0.484375 C 11.726562 -0.421875 11.695312 -0.363281 11.65625 -0.3125 C 11.613281 -0.257812 11.566406 -0.210938 11.515625 -0.171875 C 11.460938 -0.128906 11.40625 -0.09375 11.34375 -0.0625 C 11.28125 -0.0390625 11.21875 -0.0234375 11.15625 -0.015625 C 11.125 -0.00390625 11.082031 0 11.03125 0 L 10.96875 0 C 10.90625 -0.0078125 10.84375 -0.0234375 10.78125 -0.046875 C 10.71875 -0.0664062 10.65625 -0.0976562 10.59375 -0.140625 C 10.539062 -0.171875 10.488281 -0.210938 10.4375 -0.265625 C 10.394531 -0.316406 10.363281 -0.367188 10.34375 -0.421875 C 10.3125 -0.484375 10.285156 -0.546875 10.265625 -0.609375 L 10.234375 -0.703125 L 10.234375 -7.984375 C 9.742188 -6.328125 9.015625 -3.851562 8.046875 -0.5625 L 7.96875 -0.375 C 7.9375 -0.320312 7.894531 -0.269531 7.84375 -0.21875 C 7.800781 -0.175781 7.75 -0.140625 7.6875 -0.109375 C 7.625 -0.0859375 7.5625 -0.0625 7.5 -0.03125 C 7.46875 -0.0195312 7.4375 -0.015625 7.40625 -0.015625 L 6.125 -0.015625 C 6.050781 -0.015625 5.984375 -0.0234375 5.921875 -0.046875 C 5.859375 -0.0664062 5.800781 -0.09375 5.75 -0.125 C 5.6875 -0.15625 5.632812 -0.195312 5.59375 -0.25 L 5.46875 -0.40625 C 5.445312 -0.4375 5.429688 -0.46875 5.421875 -0.5 L 5.390625 -0.59375 C 4.898438 -2.28125 4.160156 -4.804688 3.171875 -8.171875 L 3.171875 -0.875 C 3.171875 -0.8125 3.164062 -0.742188 3.15625 -0.671875 C 3.144531 -0.609375 3.128906 -0.546875 3.109375 -0.484375 C 3.078125 -0.421875 3.039062 -0.363281 3 -0.3125 C 2.957031 -0.257812 2.910156 -0.210938 2.859375 -0.171875 C 2.804688 -0.128906 2.75 -0.09375 2.6875 -0.0625 C 2.625 -0.0390625 2.5625 -0.0234375 2.5 -0.015625 C 2.4375 -0.00390625 2.375 0 2.3125 0 C 2.238281 -0.0078125 2.171875 -0.0234375 2.109375 -0.046875 C 2.046875 -0.0664062 1.988281 -0.0976562 1.9375 -0.140625 C 1.875 -0.171875 1.820312 -0.210938 1.78125 -0.265625 C 1.738281 -0.316406 1.703125 -0.367188 1.671875 -0.421875 C 1.640625 -0.484375 1.613281 -0.546875 1.59375 -0.609375 C 1.59375 -0.640625 1.59375 -0.671875 1.59375 -0.703125 L 1.59375 -0.8125 C 1.59375 -3.039062 1.59375 -6.390625 1.59375 -10.859375 C 1.613281 -10.921875 1.640625 -10.984375 1.671875 -11.046875 C 1.703125 -11.109375 1.738281 -11.160156 1.78125 -11.203125 C 1.820312 -11.242188 1.875 -11.28125 1.9375 -11.3125 C 1.988281 -11.351562 2.046875 -11.390625 2.109375 -11.421875 C 2.140625 -11.429688 2.1875 -11.441406 2.25 -11.453125 C 2.269531 -11.453125 2.285156 -11.453125 2.296875 -11.453125 C 2.316406 -11.453125 2.320312 -11.453125 2.3125 -11.453125 L 2.296875 -11.453125 C 2.285156 -11.453125 2.28125 -11.453125 2.28125 -11.453125 C 2.289062 -11.453125 2.300781 -11.453125 2.3125 -11.453125 Z M 2.375 -11.453125 "/></g></g></g><g fill="#000000" fill-opacity="1"><g transform="translate(92.063959, 281.261667)"><g><path d="M 11.09375 -9.03125 L 19.609375 -2.140625 C 19.804688 -1.984375 19.925781 -1.769531 19.96875 -1.5 C 19.988281 -1.207031 19.921875 -0.96875 19.765625 -0.78125 C 19.609375 -0.582031 19.390625 -0.460938 19.109375 -0.421875 C 18.828125 -0.398438 18.585938 -0.46875 18.390625 -0.625 L 10.625 -6.90625 L 8.109375 -3.796875 L 10.828125 -1.59375 C 11.023438 -1.4375 11.144531 -1.222656 11.1875 -0.953125 C 11.21875 -0.671875 11.148438 -0.429688 10.984375 -0.234375 C 10.828125 -0.0351562 10.609375 0.078125 10.328125 0.109375 C 10.046875 0.128906 9.804688 0.0625 9.609375 -0.09375 L 6.890625 -2.296875 L 4.28125 0.9375 L 7.9375 3.890625 C 8.144531 4.054688 8.257812 4.28125 8.28125 4.5625 C 8.320312 4.832031 8.257812 5.070312 8.09375 5.28125 C 7.9375 5.476562 7.71875 5.585938 7.4375 5.609375 C 7.164062 5.628906 6.9375 5.566406 6.75 5.421875 L 6.71875 5.40625 L 2.3125 1.84375 C 2.113281 1.6875 2.003906 1.46875 1.984375 1.1875 C 1.953125 0.914062 2.015625 0.679688 2.171875 0.484375 L 5.953125 -4.203125 L 7.21875 -5.765625 L 9.734375 -8.890625 C 9.890625 -9.066406 10.09375 -9.171875 10.34375 -9.203125 C 10.582031 -9.242188 10.804688 -9.207031 11.015625 -9.09375 L 11.0625 -9.046875 Z M 11.09375 -9.03125 "/></g></g></g><g fill="#000000" fill-opacity="1"><g transform="translate(101.197961, 288.721317)"><g><path d="M 10.875 -9.640625 C 10.914062 -9.578125 10.953125 -9.515625 10.984375 -9.453125 C 11.046875 -9.378906 11.085938 -9.300781 11.109375 -9.21875 C 11.117188 -9.195312 11.128906 -9.160156 11.140625 -9.109375 C 11.128906 -9.066406 11.125 -9.03125 11.125 -9 C 11.144531 -7.789062 11.175781 -5.988281 11.21875 -3.59375 C 12.375 -4.039062 14.085938 -4.722656 16.359375 -5.640625 L 16.625 -5.65625 C 16.6875 -5.65625 16.753906 -5.648438 16.828125 -5.640625 C 16.890625 -5.628906 16.929688 -5.617188 16.953125 -5.609375 C 16.992188 -5.585938 17.035156 -5.566406 17.078125 -5.546875 L 17.109375 -5.53125 C 17.191406 -5.476562 17.257812 -5.425781 17.3125 -5.375 C 17.363281 -5.320312 17.414062 -5.265625 17.46875 -5.203125 C 17.507812 -5.128906 17.539062 -5.050781 17.5625 -4.96875 C 17.582031 -4.894531 17.585938 -4.816406 17.578125 -4.734375 C 17.585938 -4.660156 17.585938 -4.578125 17.578125 -4.484375 C 17.554688 -4.410156 17.53125 -4.332031 17.5 -4.25 C 17.46875 -4.195312 17.414062 -4.132812 17.34375 -4.0625 L 17.1875 -3.890625 C 17.15625 -3.867188 17.117188 -3.859375 17.078125 -3.859375 C 17.046875 -3.816406 17.015625 -3.796875 16.984375 -3.796875 C 15.710938 -3.296875 13.800781 -2.535156 11.25 -1.515625 C 11.28125 0.0351562 11.320312 2.378906 11.375 5.515625 C 11.382812 5.597656 11.382812 5.679688 11.375 5.765625 C 11.375 5.847656 11.359375 5.929688 11.328125 6.015625 C 11.296875 6.066406 11.257812 6.117188 11.21875 6.171875 L 11.203125 6.203125 C 11.148438 6.273438 11.097656 6.335938 11.046875 6.390625 C 10.972656 6.421875 10.898438 6.460938 10.828125 6.515625 C 10.765625 6.554688 10.6875 6.582031 10.59375 6.59375 C 10.53125 6.601562 10.453125 6.613281 10.359375 6.625 C 10.273438 6.601562 10.191406 6.582031 10.109375 6.5625 C 10.035156 6.539062 9.960938 6.507812 9.890625 6.46875 C 9.828125 6.425781 9.769531 6.378906 9.71875 6.328125 C 9.664062 6.253906 9.617188 6.179688 9.578125 6.109375 C 9.546875 6.046875 9.515625 5.972656 9.484375 5.890625 L 9.46875 5.78125 C 9.457031 5.738281 9.445312 5.703125 9.4375 5.671875 C 9.414062 4.222656 9.378906 2.085938 9.328125 -0.734375 C 8.046875 -0.222656 6.101562 0.550781 3.5 1.59375 L 3.265625 1.671875 C 3.191406 1.691406 3.113281 1.707031 3.03125 1.71875 C 2.945312 1.707031 2.867188 1.691406 2.796875 1.671875 C 2.710938 1.648438 2.632812 1.625 2.5625 1.59375 L 2.484375 1.53125 C 2.441406 1.507812 2.398438 1.476562 2.359375 1.4375 C 2.296875 1.382812 2.253906 1.320312 2.234375 1.25 C 2.171875 1.1875 2.128906 1.113281 2.109375 1.03125 C 2.078125 0.957031 2.066406 0.867188 2.078125 0.765625 C 2.078125 0.691406 2.082031 0.617188 2.09375 0.546875 C 2.101562 0.460938 2.125 0.390625 2.15625 0.328125 L 2.21875 0.21875 L 2.296875 0.125 C 2.347656 0.0507812 2.40625 -0.00390625 2.46875 -0.046875 L 2.5625 -0.125 C 2.601562 -0.132812 2.640625 -0.144531 2.671875 -0.15625 C 4.148438 -0.757812 6.359375 -1.644531 9.296875 -2.8125 C 9.285156 -4.144531 9.257812 -6.132812 9.21875 -8.78125 C 9.195312 -8.875 9.191406 -8.957031 9.203125 -9.03125 C 9.203125 -9.125 9.21875 -9.207031 9.25 -9.28125 C 9.257812 -9.351562 9.285156 -9.421875 9.328125 -9.484375 C 9.367188 -9.566406 9.425781 -9.632812 9.5 -9.6875 C 9.539062 -9.726562 9.601562 -9.773438 9.6875 -9.828125 C 9.75 -9.867188 9.820312 -9.90625 9.90625 -9.9375 C 9.976562 -9.945312 10.054688 -9.957031 10.140625 -9.96875 C 10.210938 -9.957031 10.285156 -9.945312 10.359375 -9.9375 C 10.410156 -9.9375 10.453125 -9.925781 10.484375 -9.90625 C 10.523438 -9.882812 10.566406 -9.863281 10.609375 -9.84375 C 10.628906 -9.84375 10.617188 -9.851562 10.578125 -9.875 L 10.453125 -9.90625 C 10.546875 -9.875 10.613281 -9.84375 10.65625 -9.8125 C 10.695312 -9.789062 10.710938 -9.789062 10.703125 -9.8125 L 10.6875 -9.8125 C 10.625 -9.84375 10.632812 -9.828125 10.71875 -9.765625 C 10.800781 -9.710938 10.851562 -9.671875 10.875 -9.640625 Z M 10.875 -9.640625 "/></g></g></g><g fill="#000000" fill-opacity="1"><g transform="translate(114.03483, 297.107309)"><g/></g></g><g fill="#000000" fill-opacity="1"><g transform="translate(123.756529, 302.490781)"><g><path d="M 8.109375 -11.765625 L 9.125 -11.34375 C 9.207031 -11.300781 9.28125 -11.25 9.34375 -11.1875 C 9.394531 -11.144531 9.445312 -11.085938 9.5 -11.015625 C 9.550781 -10.953125 9.582031 -10.882812 9.59375 -10.8125 L 9.6875 -10.578125 C 9.707031 -10.535156 9.707031 -10.5 9.6875 -10.46875 L 9.6875 -10.34375 C 9.394531 -7.75 8.957031 -3.867188 8.375 1.296875 C 10.007812 -0.710938 12.476562 -3.75 15.78125 -7.8125 C 15.84375 -7.84375 15.910156 -7.894531 15.984375 -7.96875 C 16.035156 -8 16.109375 -8.035156 16.203125 -8.078125 C 16.273438 -8.109375 16.347656 -8.117188 16.421875 -8.109375 C 16.492188 -8.117188 16.578125 -8.117188 16.671875 -8.109375 C 16.703125 -8.117188 16.738281 -8.117188 16.78125 -8.109375 L 16.890625 -8.0625 C 17.078125 -7.976562 17.332031 -7.859375 17.65625 -7.703125 C 17.75 -7.691406 17.828125 -7.671875 17.890625 -7.640625 C 17.960938 -7.609375 18.03125 -7.5625 18.09375 -7.5 C 18.144531 -7.445312 18.203125 -7.378906 18.265625 -7.296875 C 18.296875 -7.242188 18.332031 -7.175781 18.375 -7.09375 C 18.394531 -7.019531 18.40625 -6.941406 18.40625 -6.859375 C 18.414062 -6.785156 18.421875 -6.703125 18.421875 -6.609375 C 18.410156 -6.578125 18.398438 -6.539062 18.390625 -6.5 L 18.34375 -6.390625 L 13.6875 4.625 L 13.59375 4.859375 C 13.550781 4.921875 13.503906 4.976562 13.453125 5.03125 C 13.390625 5.09375 13.316406 5.144531 13.234375 5.1875 C 13.179688 5.21875 13.109375 5.242188 13.015625 5.265625 C 12.941406 5.296875 12.863281 5.304688 12.78125 5.296875 C 12.707031 5.304688 12.628906 5.300781 12.546875 5.28125 C 12.503906 5.269531 12.453125 5.253906 12.390625 5.234375 L 12.328125 5.203125 C 12.242188 5.160156 12.179688 5.109375 12.140625 5.046875 C 12.066406 4.992188 12.007812 4.929688 11.96875 4.859375 C 11.925781 4.796875 11.890625 4.726562 11.859375 4.65625 C 11.828125 4.570312 11.816406 4.5 11.828125 4.4375 C 11.828125 4.34375 11.820312 4.257812 11.8125 4.1875 L 11.828125 4.0625 L 11.875 3.953125 L 15.296875 -4.125 C 13.960938 -2.5 11.972656 -0.0664062 9.328125 3.171875 L 9.125 3.359375 C 9.0625 3.398438 8.992188 3.4375 8.921875 3.46875 C 8.847656 3.5 8.769531 3.519531 8.6875 3.53125 C 8.59375 3.507812 8.507812 3.503906 8.4375 3.515625 C 8.382812 3.515625 8.347656 3.507812 8.328125 3.5 L 8.1875 3.4375 L 6.875 2.890625 C 6.800781 2.859375 6.738281 2.8125 6.6875 2.75 C 6.613281 2.695312 6.5625 2.640625 6.53125 2.578125 C 6.46875 2.523438 6.425781 2.457031 6.40625 2.375 L 6.328125 2.140625 C 6.335938 2.097656 6.34375 2.054688 6.34375 2.015625 L 6.34375 1.90625 C 6.582031 -0.238281 6.953125 -3.4375 7.453125 -7.6875 L 3.984375 0.515625 C 3.960938 0.585938 3.921875 0.664062 3.859375 0.75 C 3.816406 0.8125 3.773438 0.867188 3.734375 0.921875 C 3.660156 0.984375 3.585938 1.035156 3.515625 1.078125 C 3.441406 1.109375 3.363281 1.140625 3.28125 1.171875 C 3.207031 1.191406 3.128906 1.203125 3.046875 1.203125 C 2.972656 1.203125 2.894531 1.191406 2.8125 1.171875 C 2.738281 1.148438 2.671875 1.125 2.609375 1.09375 C 2.515625 1.050781 2.445312 1 2.40625 0.9375 C 2.34375 0.882812 2.289062 0.828125 2.25 0.765625 C 2.195312 0.691406 2.160156 0.617188 2.140625 0.546875 C 2.109375 0.460938 2.09375 0.390625 2.09375 0.328125 C 2.082031 0.234375 2.078125 0.15625 2.078125 0.09375 C 2.085938 0.0390625 2.097656 -0.00390625 2.109375 -0.046875 L 2.15625 -0.15625 C 3.21875 -2.664062 4.8125 -6.421875 6.9375 -11.421875 C 6.988281 -11.503906 7.050781 -11.566406 7.125 -11.609375 C 7.1875 -11.671875 7.253906 -11.71875 7.328125 -11.75 C 7.390625 -11.78125 7.46875 -11.800781 7.5625 -11.8125 C 7.632812 -11.832031 7.710938 -11.84375 7.796875 -11.84375 C 7.835938 -11.832031 7.894531 -11.828125 7.96875 -11.828125 C 7.988281 -11.816406 8.007812 -11.804688 8.03125 -11.796875 C 8.050781 -11.785156 8.054688 -11.785156 8.046875 -11.796875 L 8.03125 -11.796875 C 8.007812 -11.804688 8.003906 -11.804688 8.015625 -11.796875 C 8.023438 -11.796875 8.035156 -11.796875 8.046875 -11.796875 Z M 8.109375 -11.765625 "/></g></g></g><g fill="#000000" fill-opacity="1"><g transform="translate(139.427692, 308.950822)"><g><path d="M 9.453125 -11.75 L 10.375 -11.46875 L 10.5625 -11.359375 C 10.632812 -11.316406 10.695312 -11.257812 10.75 -11.1875 C 10.789062 -11.125 10.832031 -11.054688 10.875 -10.984375 L 10.953125 -10.765625 C 10.972656 -10.734375 10.976562 -10.695312 10.96875 -10.65625 C 10.976562 -10.613281 10.984375 -10.570312 10.984375 -10.53125 C 10.898438 -7.789062 10.757812 -3.664062 10.5625 1.84375 C 10.5625 1.90625 10.5625 1.976562 10.5625 2.0625 L 10.515625 2.21875 L 10.484375 2.296875 C 10.441406 2.359375 10.398438 2.429688 10.359375 2.515625 C 10.296875 2.554688 10.238281 2.609375 10.1875 2.671875 C 10.125 2.722656 10.054688 2.765625 9.984375 2.796875 C 9.898438 2.828125 9.8125 2.847656 9.71875 2.859375 C 9.65625 2.859375 9.582031 2.863281 9.5 2.875 C 9.414062 2.863281 9.335938 2.835938 9.265625 2.796875 C 9.191406 2.773438 9.117188 2.738281 9.046875 2.6875 C 8.984375 2.644531 8.921875 2.59375 8.859375 2.53125 C 8.816406 2.46875 8.78125 2.40625 8.75 2.34375 C 8.707031 2.257812 8.675781 2.179688 8.65625 2.109375 C 8.644531 2.078125 8.640625 2.039062 8.640625 2 L 8.625 1.875 C 8.644531 1.332031 8.671875 0.535156 8.703125 -0.515625 C 7.785156 -0.796875 6.40625 -1.226562 4.5625 -1.8125 C 4.28125 -1.363281 3.84375 -0.675781 3.25 0.25 C 3.207031 0.3125 3.15625 0.367188 3.09375 0.421875 C 3.039062 0.492188 2.976562 0.550781 2.90625 0.59375 C 2.851562 0.632812 2.78125 0.664062 2.6875 0.6875 C 2.601562 0.707031 2.523438 0.722656 2.453125 0.734375 C 2.378906 0.734375 2.296875 0.726562 2.203125 0.71875 L 2.125 0.6875 C 2.070312 0.664062 2.03125 0.644531 2 0.625 C 1.914062 0.59375 1.847656 0.554688 1.796875 0.515625 C 1.734375 0.453125 1.675781 0.382812 1.625 0.3125 C 1.59375 0.25 1.554688 0.179688 1.515625 0.109375 C 1.484375 0.0234375 1.457031 -0.0507812 1.4375 -0.125 C 1.4375 -0.1875 1.445312 -0.269531 1.46875 -0.375 C 1.488281 -0.4375 1.5 -0.515625 1.5 -0.609375 L 1.515625 -0.625 C 1.515625 -0.644531 1.53125 -0.675781 1.5625 -0.71875 L 1.625 -0.796875 C 1.75 -0.984375 1.90625 -1.21875 2.09375 -1.5 C 2.269531 -1.789062 2.472656 -2.117188 2.703125 -2.484375 C 3.148438 -3.171875 3.660156 -3.957031 4.234375 -4.84375 C 4.785156 -5.726562 5.335938 -6.613281 5.890625 -7.5 C 6.367188 -8.238281 6.8125 -8.9375 7.21875 -9.59375 C 7.644531 -10.257812 8.007812 -10.832031 8.3125 -11.3125 C 8.363281 -11.375 8.414062 -11.441406 8.46875 -11.515625 C 8.53125 -11.566406 8.585938 -11.613281 8.640625 -11.65625 C 8.710938 -11.6875 8.789062 -11.710938 8.875 -11.734375 C 8.957031 -11.773438 9.03125 -11.796875 9.09375 -11.796875 C 9.144531 -11.804688 9.210938 -11.804688 9.296875 -11.796875 C 9.328125 -11.785156 9.347656 -11.78125 9.359375 -11.78125 C 9.367188 -11.78125 9.375 -11.78125 9.375 -11.78125 C 9.363281 -11.78125 9.359375 -11.78125 9.359375 -11.78125 C 9.367188 -11.78125 9.375 -11.78125 9.375 -11.78125 Z M 8.984375 -8.75 C 8.253906 -7.59375 7.144531 -5.84375 5.65625 -3.5 C 6.351562 -3.28125 7.390625 -2.953125 8.765625 -2.515625 C 8.816406 -3.910156 8.890625 -5.988281 8.984375 -8.75 Z M 8.984375 -8.75 "/></g></g></g><g fill="#000000" fill-opacity="1"><g transform="translate(151.405032, 312.595814)"><g><path d="M 12.1875 -9.65625 C 12.207031 -9.582031 12.222656 -9.507812 12.234375 -9.4375 C 12.253906 -9.351562 12.253906 -9.265625 12.234375 -9.171875 L 12.21875 -9.109375 C 12.21875 -9.066406 12.203125 -9.019531 12.171875 -8.96875 C 12.148438 -8.875 12.113281 -8.796875 12.0625 -8.734375 C 12.019531 -8.679688 11.96875 -8.628906 11.90625 -8.578125 C 11.832031 -8.515625 11.757812 -8.472656 11.6875 -8.453125 C 11.613281 -8.410156 11.535156 -8.378906 11.453125 -8.359375 C 11.378906 -8.347656 11.304688 -8.347656 11.234375 -8.359375 C 11.128906 -8.359375 11.046875 -8.375 10.984375 -8.40625 C 10.898438 -8.425781 10.820312 -8.460938 10.75 -8.515625 C 10.6875 -8.554688 10.628906 -8.609375 10.578125 -8.671875 C 10.523438 -8.734375 10.476562 -8.789062 10.4375 -8.84375 C 10.40625 -8.882812 10.382812 -8.921875 10.375 -8.953125 C 10.363281 -8.992188 10.34375 -9.03125 10.3125 -9.0625 C 10.269531 -9.269531 10.160156 -9.523438 9.984375 -9.828125 C 9.796875 -10.109375 9.375 -10.320312 8.71875 -10.46875 C 8.425781 -10.53125 8.125 -10.550781 7.8125 -10.53125 C 7.488281 -10.488281 7.195312 -10.410156 6.9375 -10.296875 C 6.6875 -10.179688 6.476562 -10.039062 6.3125 -9.875 C 6.15625 -9.71875 6.046875 -9.5 5.984375 -9.21875 L 4.640625 -2.921875 C 4.546875 -2.515625 4.554688 -2.203125 4.671875 -1.984375 C 4.765625 -1.753906 4.910156 -1.539062 5.109375 -1.34375 C 5.316406 -1.144531 5.550781 -0.984375 5.8125 -0.859375 C 6.070312 -0.734375 6.226562 -0.660156 6.28125 -0.640625 C 6.351562 -0.640625 6.40625 -0.632812 6.4375 -0.625 L 6.53125 -0.609375 C 7.082031 -0.453125 7.507812 -0.441406 7.8125 -0.578125 C 8.113281 -0.691406 8.328125 -0.820312 8.453125 -0.96875 C 8.503906 -1.03125 8.554688 -1.085938 8.609375 -1.140625 C 8.671875 -1.203125 8.738281 -1.25 8.8125 -1.28125 C 8.882812 -1.300781 8.957031 -1.320312 9.03125 -1.34375 C 9.125 -1.363281 9.207031 -1.375 9.28125 -1.375 L 9.515625 -1.3125 C 9.597656 -1.289062 9.679688 -1.257812 9.765625 -1.21875 C 9.828125 -1.175781 9.878906 -1.125 9.921875 -1.0625 C 9.984375 -1.019531 10.035156 -0.960938 10.078125 -0.890625 C 10.117188 -0.816406 10.148438 -0.734375 10.171875 -0.640625 C 10.191406 -0.566406 10.207031 -0.492188 10.21875 -0.421875 C 10.21875 -0.328125 10.203125 -0.25 10.171875 -0.1875 C 10.148438 -0.101562 10.125 -0.0195312 10.09375 0.0625 C 10.082031 0.09375 10.0625 0.125 10.03125 0.15625 C 10.007812 0.195312 9.984375 0.234375 9.953125 0.265625 C 9.597656 0.660156 9.070312 0.988281 8.375 1.25 C 7.769531 1.476562 7.09375 1.507812 6.34375 1.34375 C 6.238281 1.320312 6.140625 1.296875 6.046875 1.265625 L 6 1.265625 L 5.984375 1.25 C 5.660156 1.164062 5.304688 1.035156 4.921875 0.859375 C 4.523438 0.660156 4.132812 0.390625 3.75 0.046875 C 3.382812 -0.304688 3.082031 -0.78125 2.84375 -1.375 C 2.625 -1.96875 2.59375 -2.617188 2.75 -3.328125 L 4.09375 -9.625 C 4.226562 -10.21875 4.488281 -10.71875 4.875 -11.125 C 5.25 -11.539062 5.671875 -11.851562 6.140625 -12.0625 C 6.617188 -12.289062 7.113281 -12.414062 7.625 -12.4375 C 8.132812 -12.488281 8.632812 -12.460938 9.125 -12.359375 C 10.132812 -12.140625 10.867188 -11.722656 11.328125 -11.109375 C 11.796875 -10.523438 12.082031 -10.039062 12.1875 -9.65625 Z M 12.1875 -9.65625 "/></g></g></g><g fill="#000000" fill-opacity="1"><g transform="translate(163.463947, 315.173311)"><g><path d="M 4.59375 -13.515625 L 4.53125 -13.53125 L 4.46875 -13.53125 L 4.6875 -13.5 C 4.757812 -13.46875 4.832031 -13.4375 4.90625 -13.40625 C 4.976562 -13.375 5.046875 -13.332031 5.109375 -13.28125 C 5.179688 -13.226562 5.234375 -13.164062 5.265625 -13.09375 C 5.316406 -13.019531 5.351562 -12.945312 5.375 -12.875 C 5.414062 -12.8125 5.441406 -12.734375 5.453125 -12.640625 C 5.453125 -12.609375 5.453125 -12.566406 5.453125 -12.515625 L 5.4375 -12.390625 L 4.796875 -7.359375 L 9.09375 -6.8125 C 9.226562 -7.894531 9.4375 -9.519531 9.71875 -11.6875 C 9.71875 -11.769531 9.722656 -11.847656 9.734375 -11.921875 C 9.742188 -12.015625 9.765625 -12.097656 9.796875 -12.171875 C 9.835938 -12.242188 9.890625 -12.304688 9.953125 -12.359375 C 9.992188 -12.441406 10.050781 -12.503906 10.125 -12.546875 C 10.175781 -12.578125 10.25 -12.609375 10.34375 -12.640625 C 10.414062 -12.671875 10.484375 -12.691406 10.546875 -12.703125 C 10.597656 -12.734375 10.640625 -12.75 10.671875 -12.75 L 10.796875 -12.734375 C 10.816406 -12.734375 10.804688 -12.734375 10.765625 -12.734375 L 10.65625 -12.75 L 10.90625 -12.71875 C 10.96875 -12.6875 11.039062 -12.65625 11.125 -12.625 C 11.195312 -12.59375 11.265625 -12.546875 11.328125 -12.484375 C 11.390625 -12.429688 11.441406 -12.375 11.484375 -12.3125 C 11.523438 -12.238281 11.554688 -12.164062 11.578125 -12.09375 C 11.617188 -12.019531 11.648438 -11.941406 11.671875 -11.859375 C 11.671875 -11.828125 11.671875 -11.785156 11.671875 -11.734375 L 11.65625 -11.609375 L 10.140625 0.234375 C 10.128906 0.316406 10.113281 0.394531 10.09375 0.46875 C 10.0625 0.5625 10.035156 0.640625 10.015625 0.703125 C 9.960938 0.765625 9.914062 0.828125 9.875 0.890625 C 9.8125 0.941406 9.75 0.988281 9.6875 1.03125 C 9.613281 1.082031 9.535156 1.117188 9.453125 1.140625 C 9.367188 1.171875 9.285156 1.1875 9.203125 1.1875 C 9.117188 1.1875 9.039062 1.175781 8.96875 1.15625 C 8.882812 1.132812 8.804688 1.109375 8.734375 1.078125 C 8.671875 1.035156 8.609375 0.992188 8.546875 0.953125 C 8.484375 0.890625 8.425781 0.828125 8.375 0.765625 C 8.332031 0.703125 8.296875 0.628906 8.265625 0.546875 C 8.253906 0.460938 8.234375 0.382812 8.203125 0.3125 C 8.191406 0.269531 8.191406 0.234375 8.203125 0.203125 L 8.21875 0.0625 L 8.84375 -4.890625 L 4.546875 -5.4375 L 3.921875 -0.546875 C 3.910156 -0.460938 3.894531 -0.382812 3.875 -0.3125 C 3.863281 -0.21875 3.835938 -0.144531 3.796875 -0.09375 C 3.765625 -0.0195312 3.71875 0.0390625 3.65625 0.09375 C 3.59375 0.15625 3.53125 0.207031 3.46875 0.25 C 3.394531 0.289062 3.320312 0.320312 3.25 0.34375 C 3.164062 0.375 3.082031 0.390625 3 0.390625 L 2.84375 0.375 L 2.765625 0.359375 C 2.679688 0.335938 2.601562 0.316406 2.53125 0.296875 C 2.457031 0.253906 2.390625 0.210938 2.328125 0.171875 C 2.273438 0.109375 2.21875 0.0390625 2.15625 -0.03125 C 2.113281 -0.0820312 2.082031 -0.15625 2.0625 -0.25 C 2.039062 -0.320312 2.019531 -0.398438 2 -0.484375 C 1.976562 -0.523438 1.972656 -0.5625 1.984375 -0.59375 L 2 -0.734375 C 2.34375 -3.421875 2.867188 -7.46875 3.578125 -12.875 C 3.597656 -12.9375 3.632812 -13.007812 3.6875 -13.09375 C 3.71875 -13.164062 3.765625 -13.226562 3.828125 -13.28125 C 3.890625 -13.332031 3.957031 -13.375 4.03125 -13.40625 C 4.101562 -13.4375 4.175781 -13.46875 4.25 -13.5 C 4.289062 -13.507812 4.351562 -13.519531 4.4375 -13.53125 C 4.488281 -13.53125 4.515625 -13.53125 4.515625 -13.53125 C 4.523438 -13.53125 4.519531 -13.53125 4.5 -13.53125 C 4.488281 -13.53125 4.488281 -13.53125 4.5 -13.53125 C 4.507812 -13.53125 4.53125 -13.523438 4.5625 -13.515625 L 4.59375 -13.515625 C 4.601562 -13.515625 4.609375 -13.515625 4.609375 -13.515625 C 4.609375 -13.515625 4.601562 -13.515625 4.59375 -13.515625 Z M 4.59375 -13.515625 "/></g></g></g><g fill="#000000" fill-opacity="1"><g transform="translate(175.809979, 316.628124)"><g><path d="M 4.078125 -13.703125 C 4.140625 -13.671875 4.210938 -13.628906 4.296875 -13.578125 C 4.359375 -13.523438 4.410156 -13.472656 4.453125 -13.421875 C 4.515625 -13.347656 4.550781 -13.273438 4.5625 -13.203125 C 4.601562 -13.128906 4.632812 -13.050781 4.65625 -12.96875 C 4.65625 -12.9375 4.65625 -12.898438 4.65625 -12.859375 L 4.65625 -12.71875 L 3.90625 -0.8125 C 3.90625 -0.726562 3.894531 -0.644531 3.875 -0.5625 C 3.875 -0.488281 3.851562 -0.410156 3.8125 -0.328125 C 3.78125 -0.253906 3.734375 -0.1875 3.671875 -0.125 C 3.617188 -0.0703125 3.5625 -0.0195312 3.5 0.03125 C 3.425781 0.0703125 3.351562 0.101562 3.28125 0.125 C 3.207031 0.164062 3.128906 0.1875 3.046875 0.1875 C 2.984375 0.195312 2.929688 0.195312 2.890625 0.1875 C 2.859375 0.1875 2.832031 0.179688 2.8125 0.171875 C 2.71875 0.171875 2.632812 0.15625 2.5625 0.125 C 2.488281 0.09375 2.425781 0.046875 2.375 -0.015625 C 2.300781 -0.046875 2.234375 -0.09375 2.171875 -0.15625 C 2.140625 -0.226562 2.101562 -0.304688 2.0625 -0.390625 C 2.03125 -0.460938 2.007812 -0.53125 2 -0.59375 C 1.976562 -0.632812 1.96875 -0.679688 1.96875 -0.734375 L 1.984375 -0.84375 C 2.148438 -3.476562 2.398438 -7.425781 2.734375 -12.6875 C 2.722656 -12.757812 2.722656 -12.84375 2.734375 -12.9375 C 2.742188 -13.007812 2.765625 -13.082031 2.796875 -13.15625 C 2.804688 -13.226562 2.84375 -13.304688 2.90625 -13.390625 C 2.945312 -13.453125 3.003906 -13.507812 3.078125 -13.5625 C 3.140625 -13.613281 3.203125 -13.648438 3.265625 -13.671875 C 3.335938 -13.710938 3.414062 -13.742188 3.5 -13.765625 C 3.539062 -13.773438 3.601562 -13.785156 3.6875 -13.796875 L 3.78125 -13.78125 L 3.765625 -13.796875 C 3.742188 -13.796875 3.78125 -13.785156 3.875 -13.765625 C 3.957031 -13.765625 4.023438 -13.742188 4.078125 -13.703125 Z M 4.078125 -13.703125 "/></g></g></g><g fill="#000000" fill-opacity="1"><g transform="translate(182.010515, 317.118823)"><g><path d="M 10.28125 -14.03125 C 10.351562 -14 10.425781 -13.957031 10.5 -13.90625 C 10.5625 -13.875 10.617188 -13.828125 10.671875 -13.765625 C 10.734375 -13.710938 10.78125 -13.644531 10.8125 -13.5625 C 10.84375 -13.488281 10.875 -13.414062 10.90625 -13.34375 C 10.914062 -13.300781 10.921875 -13.265625 10.921875 -13.234375 L 10.921875 -13.09375 C 10.921875 -10.46875 10.914062 -6.515625 10.90625 -1.234375 C 10.914062 -1.160156 10.921875 -1.082031 10.921875 -1 C 10.910156 -0.914062 10.894531 -0.835938 10.875 -0.765625 C 10.84375 -0.691406 10.804688 -0.617188 10.765625 -0.546875 L 10.625 -0.34375 C 10.5625 -0.300781 10.488281 -0.257812 10.40625 -0.21875 C 10.332031 -0.1875 10.265625 -0.15625 10.203125 -0.125 C 10.160156 -0.113281 10.117188 -0.109375 10.078125 -0.109375 L 8.6875 -0.109375 C 8.59375 -0.109375 8.507812 -0.113281 8.4375 -0.125 C 8.363281 -0.132812 8.289062 -0.160156 8.21875 -0.203125 C 8.132812 -0.222656 8.066406 -0.257812 8.015625 -0.3125 C 7.953125 -0.363281 7.898438 -0.421875 7.859375 -0.484375 C 7.816406 -0.515625 7.789062 -0.546875 7.78125 -0.578125 L 7.734375 -0.6875 C 6.867188 -2.894531 5.566406 -6.179688 3.828125 -10.546875 L 3.875 -1.109375 C 3.875 -1.035156 3.863281 -0.957031 3.84375 -0.875 C 3.832031 -0.789062 3.816406 -0.710938 3.796875 -0.640625 C 3.753906 -0.566406 3.707031 -0.5 3.65625 -0.4375 C 3.601562 -0.375 3.546875 -0.316406 3.484375 -0.265625 C 3.421875 -0.210938 3.359375 -0.164062 3.296875 -0.125 C 3.222656 -0.101562 3.140625 -0.0859375 3.046875 -0.078125 C 3.003906 -0.0546875 2.957031 -0.046875 2.90625 -0.046875 L 2.828125 -0.046875 C 2.734375 -0.0664062 2.648438 -0.0859375 2.578125 -0.109375 C 2.503906 -0.128906 2.4375 -0.164062 2.375 -0.21875 C 2.289062 -0.257812 2.226562 -0.3125 2.1875 -0.375 C 2.132812 -0.4375 2.085938 -0.5 2.046875 -0.5625 C 2.023438 -0.632812 1.992188 -0.710938 1.953125 -0.796875 C 1.941406 -0.828125 1.9375 -0.863281 1.9375 -0.90625 L 1.9375 -1.046875 C 1.914062 -3.671875 1.898438 -7.617188 1.890625 -12.890625 C 1.878906 -12.960938 1.875 -13.046875 1.875 -13.140625 C 1.875 -13.210938 1.882812 -13.289062 1.90625 -13.375 C 1.9375 -13.445312 1.976562 -13.519531 2.03125 -13.59375 C 2.0625 -13.65625 2.109375 -13.71875 2.171875 -13.78125 C 2.234375 -13.832031 2.304688 -13.878906 2.390625 -13.921875 C 2.453125 -13.941406 2.519531 -13.972656 2.59375 -14.015625 C 2.632812 -14.023438 2.671875 -14.03125 2.703125 -14.03125 L 3.8125 -14.03125 C 3.882812 -14.03125 3.960938 -14.023438 4.046875 -14.015625 C 4.128906 -14.003906 4.207031 -13.976562 4.28125 -13.9375 C 4.34375 -13.914062 4.40625 -13.867188 4.46875 -13.796875 C 4.53125 -13.753906 4.585938 -13.703125 4.640625 -13.640625 C 4.660156 -13.609375 4.6875 -13.570312 4.71875 -13.53125 L 4.75 -13.421875 C 5.695312 -11.066406 7.113281 -7.519531 9 -2.78125 C 9 -5.039062 9 -8.425781 9 -12.9375 C 8.988281 -13.019531 8.984375 -13.097656 8.984375 -13.171875 C 8.992188 -13.253906 9.015625 -13.335938 9.046875 -13.421875 C 9.054688 -13.492188 9.085938 -13.5625 9.140625 -13.625 C 9.171875 -13.695312 9.21875 -13.757812 9.28125 -13.8125 C 9.332031 -13.875 9.398438 -13.925781 9.484375 -13.96875 C 9.554688 -13.988281 9.628906 -14.019531 9.703125 -14.0625 C 9.742188 -14.070312 9.800781 -14.078125 9.875 -14.078125 C 9.9375 -14.085938 9.960938 -14.09375 9.953125 -14.09375 C 9.941406 -14.082031 9.976562 -14.078125 10.0625 -14.078125 C 10.15625 -14.066406 10.226562 -14.050781 10.28125 -14.03125 Z M 10.28125 -14.03125 "/></g></g></g><g fill="#000000" fill-opacity="1"><g transform="translate(195.365176, 317.013765)"><g><path d="M 4.25 -14.46875 L 5.203125 -14.546875 L 5.421875 -14.53125 C 5.503906 -14.507812 5.585938 -14.476562 5.671875 -14.4375 C 5.734375 -14.40625 5.796875 -14.359375 5.859375 -14.296875 L 6.03125 -14.125 C 6.050781 -14.101562 6.070312 -14.070312 6.09375 -14.03125 C 6.101562 -14 6.117188 -13.960938 6.140625 -13.921875 C 7.109375 -11.347656 8.550781 -7.488281 10.46875 -2.34375 C 10.5 -2.269531 10.523438 -2.195312 10.546875 -2.125 L 10.5625 -1.96875 L 10.578125 -1.875 C 10.554688 -1.800781 10.539062 -1.722656 10.53125 -1.640625 C 10.5 -1.554688 10.46875 -1.484375 10.4375 -1.421875 C 10.394531 -1.347656 10.34375 -1.28125 10.28125 -1.21875 C 10.226562 -1.164062 10.160156 -1.113281 10.078125 -1.0625 C 10.023438 -1.03125 9.957031 -1 9.875 -0.96875 C 9.800781 -0.945312 9.71875 -0.9375 9.625 -0.9375 C 9.550781 -0.925781 9.476562 -0.9375 9.40625 -0.96875 C 9.3125 -0.976562 9.226562 -1 9.15625 -1.03125 C 9.082031 -1.082031 9.019531 -1.128906 8.96875 -1.171875 C 8.894531 -1.234375 8.835938 -1.289062 8.796875 -1.34375 C 8.773438 -1.375 8.757812 -1.410156 8.75 -1.453125 L 8.703125 -1.5625 C 8.515625 -2.070312 8.234375 -2.816406 7.859375 -3.796875 C 6.898438 -3.703125 5.457031 -3.578125 3.53125 -3.421875 C 3.4375 -2.890625 3.296875 -2.085938 3.109375 -1.015625 C 3.085938 -0.941406 3.0625 -0.867188 3.03125 -0.796875 C 3.007812 -0.703125 2.96875 -0.625 2.90625 -0.5625 C 2.875 -0.5 2.820312 -0.441406 2.75 -0.390625 C 2.6875 -0.335938 2.617188 -0.289062 2.546875 -0.25 C 2.472656 -0.226562 2.394531 -0.207031 2.3125 -0.1875 L 2.21875 -0.171875 C 2.164062 -0.171875 2.117188 -0.175781 2.078125 -0.1875 C 1.992188 -0.1875 1.914062 -0.191406 1.84375 -0.203125 C 1.769531 -0.242188 1.703125 -0.285156 1.640625 -0.328125 C 1.566406 -0.367188 1.503906 -0.421875 1.453125 -0.484375 C 1.390625 -0.535156 1.335938 -0.597656 1.296875 -0.671875 C 1.265625 -0.734375 1.238281 -0.8125 1.21875 -0.90625 C 1.21875 -0.976562 1.203125 -1.0625 1.171875 -1.15625 L 1.171875 -1.171875 C 1.171875 -1.191406 1.175781 -1.222656 1.1875 -1.265625 L 1.203125 -1.375 C 1.253906 -1.59375 1.3125 -1.859375 1.375 -2.171875 C 1.425781 -2.515625 1.484375 -2.898438 1.546875 -3.328125 C 1.703125 -4.128906 1.875 -5.050781 2.0625 -6.09375 C 2.238281 -7.125 2.414062 -8.148438 2.59375 -9.171875 C 2.75 -10.046875 2.890625 -10.867188 3.015625 -11.640625 C 3.148438 -12.398438 3.265625 -13.0625 3.359375 -13.625 C 3.390625 -13.707031 3.414062 -13.785156 3.4375 -13.859375 C 3.46875 -13.941406 3.507812 -14.007812 3.5625 -14.0625 C 3.601562 -14.132812 3.660156 -14.191406 3.734375 -14.234375 C 3.796875 -14.296875 3.859375 -14.34375 3.921875 -14.375 C 3.960938 -14.40625 4.015625 -14.429688 4.078125 -14.453125 C 4.109375 -14.453125 4.128906 -14.453125 4.140625 -14.453125 C 4.160156 -14.453125 4.164062 -14.453125 4.15625 -14.453125 C 4.144531 -14.453125 4.140625 -14.453125 4.140625 -14.453125 C 4.148438 -14.453125 4.160156 -14.453125 4.171875 -14.453125 Z M 4.96875 -11.515625 C 4.726562 -10.160156 4.367188 -8.117188 3.890625 -5.390625 C 4.609375 -5.460938 5.695312 -5.5625 7.15625 -5.6875 C 6.664062 -6.988281 5.9375 -8.929688 4.96875 -11.515625 Z M 4.96875 -11.515625 "/></g></g></g><g fill="#000000" fill-opacity="1"><g transform="translate(207.797362, 315.79403)"><g/></g></g><g fill="#000000" fill-opacity="1"><g transform="translate(218.64882, 313.889938)"><g><path d="M -0.75 -14.296875 C -0.113281 -14.453125 1.164062 -14.78125 3.09375 -15.28125 L 3.234375 -15.328125 C 3.242188 -15.328125 3.269531 -15.328125 3.3125 -15.328125 C 4.332031 -15.367188 5.15625 -15.144531 5.78125 -14.65625 C 6.394531 -14.15625 6.796875 -13.660156 6.984375 -13.171875 C 7.003906 -13.085938 7.023438 -13.035156 7.046875 -13.015625 L 7.0625 -12.953125 C 7.164062 -12.492188 7.332031 -11.816406 7.5625 -10.921875 C 7.59375 -10.835938 7.609375 -10.789062 7.609375 -10.78125 C 7.628906 -10.769531 7.640625 -10.753906 7.640625 -10.734375 L 7.65625 -10.6875 C 7.726562 -10.300781 7.742188 -9.910156 7.703125 -9.515625 C 7.660156 -9.109375 7.546875 -8.722656 7.359375 -8.359375 C 7.171875 -7.992188 6.910156 -7.664062 6.578125 -7.375 C 6.242188 -7.0625 5.847656 -6.84375 5.390625 -6.71875 L 2.421875 -5.9375 C 2.640625 -5.070312 2.976562 -3.765625 3.4375 -2.015625 C 3.457031 -1.941406 3.476562 -1.859375 3.5 -1.765625 C 3.5 -1.703125 3.488281 -1.628906 3.46875 -1.546875 C 3.46875 -1.460938 3.453125 -1.378906 3.421875 -1.296875 C 3.390625 -1.222656 3.347656 -1.160156 3.296875 -1.109375 C 3.242188 -1.046875 3.1875 -0.988281 3.125 -0.9375 C 3.0625 -0.882812 2.992188 -0.835938 2.921875 -0.796875 C 2.878906 -0.773438 2.835938 -0.757812 2.796875 -0.75 C 2.753906 -0.738281 2.710938 -0.734375 2.671875 -0.734375 C 2.597656 -0.710938 2.53125 -0.710938 2.46875 -0.734375 C 2.382812 -0.734375 2.296875 -0.75 2.203125 -0.78125 C 2.128906 -0.789062 2.0625 -0.820312 2 -0.875 C 1.925781 -0.914062 1.867188 -0.972656 1.828125 -1.046875 C 1.765625 -1.109375 1.71875 -1.164062 1.6875 -1.21875 C 1.664062 -1.25 1.648438 -1.289062 1.640625 -1.34375 C 1.609375 -1.382812 1.585938 -1.421875 1.578125 -1.453125 C 0.910156 -4.078125 -0.109375 -8.023438 -1.484375 -13.296875 L -1.453125 -13.5625 C -1.441406 -13.632812 -1.421875 -13.703125 -1.390625 -13.765625 C -1.359375 -13.835938 -1.3125 -13.90625 -1.25 -13.96875 C -1.195312 -14.03125 -1.132812 -14.085938 -1.0625 -14.140625 C -1.039062 -14.171875 -0.992188 -14.203125 -0.921875 -14.234375 C -0.859375 -14.265625 -0.835938 -14.273438 -0.859375 -14.265625 L -0.875 -14.265625 C -0.882812 -14.253906 -0.867188 -14.253906 -0.828125 -14.265625 C -0.804688 -14.273438 -0.78125 -14.285156 -0.75 -14.296875 Z M 1.921875 -7.8125 L 4.890625 -8.59375 C 5.054688 -8.632812 5.203125 -8.707031 5.328125 -8.8125 C 5.441406 -8.914062 5.535156 -9.046875 5.609375 -9.203125 C 5.691406 -9.378906 5.742188 -9.554688 5.765625 -9.734375 C 5.785156 -9.941406 5.78125 -10.117188 5.75 -10.265625 L 5.1875 -12.390625 C 5.09375 -12.660156 4.9375 -12.894531 4.71875 -13.09375 C 4.488281 -13.300781 4.078125 -13.394531 3.484375 -13.375 L 0.671875 -12.640625 Z M 1.921875 -7.8125 "/></g></g></g><g fill="#000000" fill-opacity="1"><g transform="translate(230.815079, 310.682844)"><g><path d="M 0.5625 -15.0625 L 1.46875 -15.390625 L 1.6875 -15.40625 C 1.769531 -15.414062 1.859375 -15.410156 1.953125 -15.390625 C 2.023438 -15.367188 2.09375 -15.335938 2.15625 -15.296875 L 2.375 -15.171875 C 2.40625 -15.160156 2.429688 -15.132812 2.453125 -15.09375 C 2.472656 -15.070312 2.5 -15.039062 2.53125 -15 C 4.09375 -12.75 6.4375 -9.363281 9.5625 -4.84375 C 9.601562 -4.769531 9.648438 -4.707031 9.703125 -4.65625 L 9.75 -4.5 L 9.78125 -4.421875 C 9.789062 -4.335938 9.796875 -4.257812 9.796875 -4.1875 C 9.796875 -4.09375 9.789062 -4.007812 9.78125 -3.9375 C 9.75 -3.863281 9.71875 -3.789062 9.6875 -3.71875 C 9.632812 -3.644531 9.578125 -3.578125 9.515625 -3.515625 C 9.460938 -3.472656 9.398438 -3.421875 9.328125 -3.359375 C 9.273438 -3.328125 9.195312 -3.300781 9.09375 -3.28125 C 9.019531 -3.25 8.945312 -3.238281 8.875 -3.25 C 8.789062 -3.238281 8.707031 -3.238281 8.625 -3.25 C 8.550781 -3.28125 8.476562 -3.3125 8.40625 -3.34375 C 8.332031 -3.375 8.265625 -3.414062 8.203125 -3.46875 C 8.171875 -3.488281 8.144531 -3.519531 8.125 -3.5625 L 8.03125 -3.640625 C 7.726562 -4.085938 7.28125 -4.75 6.6875 -5.625 C 5.78125 -5.300781 4.410156 -4.820312 2.578125 -4.1875 C 2.628906 -3.644531 2.691406 -2.828125 2.765625 -1.734375 C 2.765625 -1.671875 2.757812 -1.59375 2.75 -1.5 C 2.75 -1.414062 2.726562 -1.332031 2.6875 -1.25 C 2.664062 -1.1875 2.628906 -1.125 2.578125 -1.0625 C 2.523438 -0.988281 2.46875 -0.925781 2.40625 -0.875 C 2.34375 -0.832031 2.273438 -0.789062 2.203125 -0.75 L 2.125 -0.71875 C 2.070312 -0.695312 2.019531 -0.6875 1.96875 -0.6875 C 1.894531 -0.664062 1.816406 -0.65625 1.734375 -0.65625 C 1.648438 -0.675781 1.570312 -0.695312 1.5 -0.71875 C 1.425781 -0.75 1.351562 -0.785156 1.28125 -0.828125 C 1.21875 -0.859375 1.148438 -0.90625 1.078125 -0.96875 C 1.035156 -1.019531 0.992188 -1.085938 0.953125 -1.171875 C 0.929688 -1.242188 0.894531 -1.316406 0.84375 -1.390625 L 0.84375 -1.40625 C 0.832031 -1.425781 0.828125 -1.460938 0.828125 -1.515625 L 0.828125 -1.625 C 0.816406 -1.84375 0.800781 -2.117188 0.78125 -2.453125 C 0.75 -2.796875 0.71875 -3.179688 0.6875 -3.609375 C 0.644531 -4.421875 0.582031 -5.351562 0.5 -6.40625 C 0.414062 -7.457031 0.332031 -8.5 0.25 -9.53125 C 0.1875 -10.414062 0.125 -11.242188 0.0625 -12.015625 C 0.0078125 -12.804688 -0.0390625 -13.476562 -0.09375 -14.03125 C -0.0820312 -14.113281 -0.0820312 -14.195312 -0.09375 -14.28125 C -0.0703125 -14.375 -0.046875 -14.445312 -0.015625 -14.5 C 0.015625 -14.582031 0.0546875 -14.65625 0.109375 -14.71875 C 0.148438 -14.78125 0.203125 -14.835938 0.265625 -14.890625 C 0.296875 -14.929688 0.34375 -14.96875 0.40625 -15 C 0.4375 -15.007812 0.457031 -15.015625 0.46875 -15.015625 C 0.488281 -15.023438 0.492188 -15.03125 0.484375 -15.03125 C 0.472656 -15.03125 0.46875 -15.03125 0.46875 -15.03125 C 0.476562 -15.03125 0.488281 -15.03125 0.5 -15.03125 Z M 2 -12.390625 C 2.09375 -11.023438 2.242188 -8.953125 2.453125 -6.171875 C 3.140625 -6.410156 4.171875 -6.769531 5.546875 -7.25 C 4.753906 -8.40625 3.570312 -10.117188 2 -12.390625 Z M 2 -12.390625 "/></g></g></g><g fill="#000000" fill-opacity="1"><g transform="translate(242.606725, 306.459772)"><g><path d="M -3.21875 -13.921875 L 0.390625 -15.578125 C 0.472656 -15.597656 0.523438 -15.613281 0.546875 -15.625 C 0.554688 -15.632812 0.585938 -15.632812 0.640625 -15.625 C 1.609375 -15.84375 2.445312 -15.769531 3.15625 -15.40625 C 3.851562 -15.039062 4.332031 -14.613281 4.59375 -14.125 C 4.644531 -14.0625 4.675781 -14.019531 4.6875 -14 L 4.71875 -13.9375 C 4.914062 -13.507812 5.195312 -12.867188 5.5625 -12.015625 C 5.601562 -11.960938 5.628906 -11.925781 5.640625 -11.90625 L 5.671875 -11.859375 L 5.6875 -11.8125 C 5.832031 -11.445312 5.914062 -11.054688 5.9375 -10.640625 C 5.945312 -10.253906 5.898438 -9.863281 5.796875 -9.46875 C 5.734375 -9.257812 5.640625 -9.050781 5.515625 -8.84375 C 5.398438 -8.632812 5.257812 -8.441406 5.09375 -8.265625 C 5.820312 -7.640625 6.910156 -6.707031 8.359375 -5.46875 C 8.421875 -5.414062 8.476562 -5.359375 8.53125 -5.296875 C 8.59375 -5.234375 8.640625 -5.171875 8.671875 -5.109375 C 8.722656 -5.035156 8.753906 -4.957031 8.765625 -4.875 C 8.773438 -4.800781 8.785156 -4.722656 8.796875 -4.640625 C 8.796875 -4.554688 8.773438 -4.472656 8.734375 -4.390625 C 8.734375 -4.316406 8.707031 -4.25 8.65625 -4.1875 C 8.625 -4.101562 8.582031 -4.035156 8.53125 -3.984375 C 8.46875 -3.921875 8.398438 -3.867188 8.328125 -3.828125 C 8.265625 -3.796875 8.191406 -3.769531 8.109375 -3.75 C 8.023438 -3.707031 7.945312 -3.6875 7.875 -3.6875 C 7.800781 -3.6875 7.726562 -3.695312 7.65625 -3.71875 C 7.570312 -3.738281 7.488281 -3.765625 7.40625 -3.796875 C 7.363281 -3.816406 7.328125 -3.832031 7.296875 -3.84375 C 7.265625 -3.882812 7.226562 -3.914062 7.1875 -3.9375 C 6.34375 -4.65625 5.070312 -5.734375 3.375 -7.171875 L 1.34375 -6.234375 L 3.03125 -2.546875 L 3.125 -2.328125 C 3.144531 -2.253906 3.148438 -2.175781 3.140625 -2.09375 C 3.160156 -2.03125 3.160156 -1.945312 3.140625 -1.84375 C 3.117188 -1.757812 3.09375 -1.6875 3.0625 -1.625 C 3.03125 -1.539062 2.984375 -1.472656 2.921875 -1.421875 C 2.859375 -1.359375 2.800781 -1.304688 2.75 -1.265625 C 2.695312 -1.234375 2.644531 -1.207031 2.59375 -1.1875 C 2.570312 -1.175781 2.546875 -1.171875 2.515625 -1.171875 C 2.453125 -1.140625 2.375 -1.125 2.28125 -1.125 C 2.207031 -1.09375 2.125 -1.09375 2.03125 -1.125 C 1.945312 -1.144531 1.875 -1.164062 1.8125 -1.1875 C 1.726562 -1.21875 1.660156 -1.265625 1.609375 -1.328125 C 1.546875 -1.367188 1.488281 -1.425781 1.4375 -1.5 L 1.34375 -1.578125 L 1.296875 -1.671875 C 0.171875 -4.148438 -1.507812 -7.867188 -3.75 -12.828125 C -3.769531 -12.921875 -3.78125 -13.003906 -3.78125 -13.078125 C -3.78125 -13.148438 -3.769531 -13.234375 -3.75 -13.328125 C -3.726562 -13.390625 -3.691406 -13.460938 -3.640625 -13.546875 C -3.609375 -13.609375 -3.566406 -13.664062 -3.515625 -13.71875 C -3.472656 -13.75 -3.425781 -13.789062 -3.375 -13.84375 C -3.3125 -13.875 -3.285156 -13.890625 -3.296875 -13.890625 L -3.3125 -13.875 C -3.320312 -13.875 -3.320312 -13.875 -3.3125 -13.875 C -3.300781 -13.882812 -3.289062 -13.890625 -3.28125 -13.890625 Z M 0.53125 -8.015625 L 3.328125 -9.296875 C 3.492188 -9.367188 3.617188 -9.460938 3.703125 -9.578125 C 3.796875 -9.703125 3.867188 -9.847656 3.921875 -10.015625 C 3.972656 -10.191406 3.992188 -10.378906 3.984375 -10.578125 C 3.984375 -10.773438 3.945312 -10.953125 3.875 -11.109375 L 2.984375 -13.046875 C 2.835938 -13.273438 2.640625 -13.484375 2.390625 -13.671875 C 2.128906 -13.828125 1.695312 -13.859375 1.09375 -13.765625 L -1.546875 -12.546875 L -0.5 -10.28125 Z M 0.53125 -8.015625 "/></g></g></g><g fill="#000000" fill-opacity="1"><g transform="translate(254.008157, 301.199736)"><g><path d="M -3.96875 -13.8125 C -3.882812 -13.820312 -3.800781 -13.820312 -3.71875 -13.8125 C -3.644531 -13.8125 -3.5625 -13.800781 -3.46875 -13.78125 C -3.394531 -13.75 -3.328125 -13.703125 -3.265625 -13.640625 C -3.203125 -13.597656 -3.144531 -13.546875 -3.09375 -13.484375 C -3.0625 -13.472656 -3.035156 -13.441406 -3.015625 -13.390625 C -2.984375 -13.367188 -2.957031 -13.335938 -2.9375 -13.296875 L 2.46875 -3.65625 C 3.238281 -4.082031 4.394531 -4.726562 5.9375 -5.59375 C 6.007812 -5.644531 6.082031 -5.6875 6.15625 -5.71875 C 6.226562 -5.738281 6.3125 -5.753906 6.40625 -5.765625 C 6.476562 -5.773438 6.554688 -5.769531 6.640625 -5.75 C 6.722656 -5.738281 6.800781 -5.722656 6.875 -5.703125 C 6.957031 -5.671875 7.019531 -5.628906 7.0625 -5.578125 C 7.132812 -5.523438 7.195312 -5.46875 7.25 -5.40625 C 7.289062 -5.363281 7.328125 -5.316406 7.359375 -5.265625 L 7.390625 -5.1875 C 7.421875 -5.125 7.441406 -5.054688 7.453125 -4.984375 C 7.453125 -4.898438 7.453125 -4.8125 7.453125 -4.71875 C 7.453125 -4.644531 7.441406 -4.570312 7.421875 -4.5 C 7.398438 -4.40625 7.359375 -4.335938 7.296875 -4.296875 C 7.265625 -4.222656 7.222656 -4.15625 7.171875 -4.09375 C 7.128906 -4.0625 7.09375 -4.035156 7.0625 -4.015625 C 7.03125 -3.984375 7 -3.957031 6.96875 -3.9375 C 6.007812 -3.425781 4.59375 -2.644531 2.71875 -1.59375 C 2.644531 -1.53125 2.570312 -1.488281 2.5 -1.46875 C 2.414062 -1.425781 2.335938 -1.394531 2.265625 -1.375 C 2.191406 -1.363281 2.117188 -1.363281 2.046875 -1.375 C 1.953125 -1.375 1.867188 -1.382812 1.796875 -1.40625 C 1.722656 -1.425781 1.65625 -1.46875 1.59375 -1.53125 C 1.507812 -1.570312 1.441406 -1.625 1.390625 -1.6875 C 1.367188 -1.695312 1.347656 -1.722656 1.328125 -1.765625 C 1.285156 -1.785156 1.257812 -1.8125 1.25 -1.84375 C -0.0195312 -4.15625 -1.945312 -7.613281 -4.53125 -12.21875 C -4.59375 -12.289062 -4.632812 -12.363281 -4.65625 -12.4375 C -4.695312 -12.507812 -4.734375 -12.585938 -4.765625 -12.671875 C -4.765625 -12.753906 -4.765625 -12.828125 -4.765625 -12.890625 C -4.753906 -12.972656 -4.742188 -13.050781 -4.734375 -13.125 C -4.703125 -13.207031 -4.660156 -13.28125 -4.609375 -13.34375 C -4.578125 -13.40625 -4.53125 -13.472656 -4.46875 -13.546875 C -4.457031 -13.578125 -4.410156 -13.613281 -4.328125 -13.65625 C -4.304688 -13.664062 -4.285156 -13.675781 -4.265625 -13.6875 C -4.253906 -13.695312 -4.25 -13.695312 -4.25 -13.6875 L -4.28125 -13.671875 C -4.289062 -13.671875 -4.285156 -13.675781 -4.265625 -13.6875 C -4.253906 -13.695312 -4.222656 -13.710938 -4.171875 -13.734375 C -4.085938 -13.773438 -4.019531 -13.800781 -3.96875 -13.8125 Z M -3.96875 -13.8125 "/></g></g></g><g fill="#000000" fill-opacity="1"><g transform="translate(263.8797, 295.663484)"><g><path d="M -0.125 -15.734375 C 0.300781 -15.703125 0.691406 -15.613281 1.046875 -15.46875 C 1.390625 -15.320312 1.675781 -15.078125 1.90625 -14.734375 L 6.375 -8.09375 C 6.625 -7.726562 6.773438 -7.316406 6.828125 -6.859375 C 6.859375 -6.410156 6.804688 -5.96875 6.671875 -5.53125 C 6.523438 -5.113281 6.300781 -4.71875 6 -4.34375 C 5.675781 -3.96875 5.289062 -3.628906 4.84375 -3.328125 C 4.488281 -3.085938 4.101562 -2.878906 3.6875 -2.703125 C 3.257812 -2.535156 2.816406 -2.441406 2.359375 -2.421875 C 1.910156 -2.410156 1.445312 -2.503906 0.96875 -2.703125 C 0.488281 -2.898438 0.0976562 -3.222656 -0.203125 -3.671875 L -4.671875 -10.3125 C -4.910156 -10.675781 -5.035156 -11.082031 -5.046875 -11.53125 C -5.054688 -11.976562 -4.972656 -12.40625 -4.796875 -12.8125 C -4.640625 -13.1875 -4.40625 -13.554688 -4.09375 -13.921875 C -3.78125 -14.265625 -3.40625 -14.585938 -2.96875 -14.890625 C -2.46875 -15.210938 -1.972656 -15.441406 -1.484375 -15.578125 C -0.992188 -15.710938 -0.539062 -15.765625 -0.125 -15.734375 Z M -3.046875 -12.0625 C -3.109375 -11.882812 -3.140625 -11.75 -3.140625 -11.65625 C -3.128906 -11.550781 -3.101562 -11.46875 -3.0625 -11.40625 L 1.40625 -4.765625 C 1.519531 -4.585938 1.644531 -4.472656 1.78125 -4.421875 C 1.90625 -4.378906 2.070312 -4.363281 2.28125 -4.375 C 2.488281 -4.375 2.726562 -4.429688 3 -4.546875 C 3.269531 -4.628906 3.523438 -4.753906 3.765625 -4.921875 C 4.085938 -5.128906 4.332031 -5.347656 4.5 -5.578125 C 4.675781 -5.796875 4.789062 -5.988281 4.84375 -6.15625 C 4.90625 -6.332031 4.925781 -6.492188 4.90625 -6.640625 C 4.882812 -6.765625 4.832031 -6.890625 4.75 -7.015625 L 0.28125 -13.65625 C 0.320312 -13.601562 0.296875 -13.609375 0.203125 -13.671875 C 0.0859375 -13.753906 -0.0625 -13.800781 -0.25 -13.8125 C -0.457031 -13.832031 -0.703125 -13.800781 -0.984375 -13.71875 C -1.253906 -13.65625 -1.554688 -13.515625 -1.890625 -13.296875 C -2.203125 -13.078125 -2.453125 -12.859375 -2.640625 -12.640625 C -2.828125 -12.421875 -2.960938 -12.226562 -3.046875 -12.0625 Z M -3.046875 -12.0625 "/></g></g></g><g fill="#000000" fill-opacity="1"><g transform="translate(273.979941, 288.861466)"><g><path d="M -6.546875 -12.6875 L -3.4375 -15.1875 C -3.375 -15.238281 -3.335938 -15.269531 -3.328125 -15.28125 C -3.304688 -15.289062 -3.269531 -15.300781 -3.21875 -15.3125 C -2.332031 -15.757812 -1.5 -15.890625 -0.71875 -15.703125 C 0.0390625 -15.523438 0.609375 -15.234375 0.984375 -14.828125 C 1.046875 -14.773438 1.082031 -14.742188 1.09375 -14.734375 L 1.140625 -14.671875 C 1.441406 -14.304688 1.867188 -13.753906 2.421875 -13.015625 C 2.492188 -12.972656 2.535156 -12.941406 2.546875 -12.921875 L 2.609375 -12.859375 C 2.828125 -12.535156 3.003906 -12.175781 3.140625 -11.78125 C 3.253906 -11.40625 3.300781 -11.007812 3.28125 -10.59375 C 3.269531 -10.375 3.234375 -10.148438 3.171875 -9.921875 C 3.109375 -9.691406 3.019531 -9.46875 2.90625 -9.25 C 3.769531 -8.832031 5.054688 -8.203125 6.765625 -7.359375 C 6.835938 -7.316406 6.90625 -7.273438 6.96875 -7.234375 C 7.050781 -7.191406 7.113281 -7.140625 7.15625 -7.078125 C 7.21875 -7.015625 7.265625 -6.953125 7.296875 -6.890625 C 7.316406 -6.816406 7.34375 -6.738281 7.375 -6.65625 C 7.40625 -6.582031 7.414062 -6.5 7.40625 -6.40625 C 7.40625 -6.332031 7.390625 -6.253906 7.359375 -6.171875 C 7.347656 -6.085938 7.316406 -6.019531 7.265625 -5.96875 C 7.242188 -5.894531 7.195312 -5.820312 7.125 -5.75 C 7.0625 -5.707031 7.003906 -5.664062 6.953125 -5.625 C 6.878906 -5.570312 6.796875 -5.535156 6.703125 -5.515625 C 6.648438 -5.484375 6.582031 -5.472656 6.5 -5.484375 C 6.414062 -5.484375 6.332031 -5.488281 6.25 -5.5 C 6.195312 -5.5 6.15625 -5.503906 6.125 -5.515625 C 6.09375 -5.546875 6.050781 -5.570312 6 -5.59375 C 5.007812 -6.0625 3.515625 -6.789062 1.515625 -7.78125 L -0.234375 -6.390625 L 2.296875 -3.21875 L 2.453125 -3.03125 C 2.492188 -2.957031 2.519531 -2.882812 2.53125 -2.8125 C 2.5625 -2.738281 2.582031 -2.65625 2.59375 -2.5625 C 2.59375 -2.476562 2.582031 -2.394531 2.5625 -2.3125 C 2.550781 -2.238281 2.519531 -2.171875 2.46875 -2.109375 C 2.4375 -2.023438 2.390625 -1.957031 2.328125 -1.90625 C 2.304688 -1.863281 2.269531 -1.820312 2.21875 -1.78125 C 2.195312 -1.769531 2.171875 -1.757812 2.140625 -1.75 C 2.085938 -1.695312 2.019531 -1.660156 1.9375 -1.640625 C 1.863281 -1.609375 1.78125 -1.59375 1.6875 -1.59375 C 1.613281 -1.582031 1.539062 -1.582031 1.46875 -1.59375 C 1.375 -1.601562 1.300781 -1.632812 1.25 -1.6875 C 1.15625 -1.707031 1.078125 -1.742188 1.015625 -1.796875 L 0.921875 -1.859375 L 0.859375 -1.9375 C -0.847656 -4.070312 -3.398438 -7.265625 -6.796875 -11.515625 C -6.835938 -11.585938 -6.867188 -11.664062 -6.890625 -11.75 C -6.898438 -11.820312 -6.90625 -11.898438 -6.90625 -11.984375 C -6.894531 -12.054688 -6.878906 -12.140625 -6.859375 -12.234375 C -6.835938 -12.296875 -6.804688 -12.363281 -6.765625 -12.4375 C -6.734375 -12.46875 -6.703125 -12.519531 -6.671875 -12.59375 C -6.617188 -12.625 -6.597656 -12.640625 -6.609375 -12.640625 L -6.625 -12.625 C -6.632812 -12.625 -6.632812 -12.625 -6.625 -12.625 C -6.613281 -12.632812 -6.601562 -12.640625 -6.59375 -12.640625 Z M -1.46875 -7.90625 L 0.9375 -9.828125 C 1.070312 -9.941406 1.175781 -10.066406 1.25 -10.203125 C 1.300781 -10.335938 1.335938 -10.492188 1.359375 -10.671875 C 1.359375 -10.867188 1.328125 -11.054688 1.265625 -11.234375 C 1.210938 -11.421875 1.132812 -11.578125 1.03125 -11.703125 L -0.3125 -13.375 C -0.5 -13.5625 -0.738281 -13.71875 -1.03125 -13.84375 C -1.320312 -13.9375 -1.753906 -13.859375 -2.328125 -13.609375 L -4.59375 -11.796875 L -3.015625 -9.84375 Z M -1.46875 -7.90625 "/></g></g></g><g clip-path="url(#f6c5b83e8a)"><g clip-path="url(#42b61ed8fc)"><g clip-path="url(#c7971afc88)"><path fill="#ffffff" d="M 227.777344 193.746094 L 228.402344 195.171875 C 228.4375 195.257812 228.441406 195.347656 228.40625 195.433594 C 228.371094 195.523438 228.3125 195.585938 228.222656 195.625 L 210.574219 203.335938 C 210.488281 203.375 210.402344 203.378906 210.3125 203.34375 C 210.226562 203.308594 210.164062 203.246094 210.125 203.160156 L 209.5 201.734375 C 209.238281 201.132812 209.039062 200.511719 208.898438 199.875 C 208.757812 199.234375 208.679688 198.585938 208.667969 197.933594 C 208.65625 197.277344 208.707031 196.628906 208.824219 195.984375 C 208.9375 195.339844 209.117188 194.710938 209.355469 194.101562 C 209.59375 193.492188 209.890625 192.914062 210.242188 192.359375 C 210.59375 191.808594 211 191.296875 211.453125 190.824219 C 211.90625 190.355469 212.402344 189.929688 212.941406 189.558594 C 213.476562 189.183594 214.046875 188.863281 214.644531 188.601562 C 215.246094 188.339844 215.867188 188.136719 216.503906 188 C 217.144531 187.859375 217.792969 187.78125 218.445312 187.769531 C 219.101562 187.757812 219.75 187.808594 220.394531 187.921875 C 221.039062 188.039062 221.667969 188.214844 222.277344 188.453125 C 222.886719 188.691406 223.46875 188.988281 224.019531 189.34375 C 224.570312 189.695312 225.082031 190.097656 225.554688 190.554688 C 226.023438 191.007812 226.449219 191.503906 226.820312 192.039062 C 227.195312 192.578125 227.515625 193.144531 227.777344 193.746094 Z M 227.777344 193.746094 " fill-opacity="1" fill-rule="nonzero"/></g></g></g></svg>